<?xml version="1.0" encoding="utf-8"?>
<!-- Generator: Adobe Illustrator 18.1.1, SVG Export Plug-In . SVG Version: 6.00 Build 0)  -->
<svg version="1.1" id="Layer_1" xmlns="http://www.w3.org/2000/svg" xmlns:xlink="http://www.w3.org/1999/xlink" x="0px" y="0px"
	 viewBox="0 0 20 20" enable-background="new 0 0 20 20" xml:space="preserve">
<g>
	<circle fill="#922A8E" cx="10" cy="10" r="10"/>
</g>
<g>
	<circle fill="#FFFFFF" cx="9.9" cy="9.1" r="3"/>
	<path fill="#FFFFFF" d="M5.1,15.5L5.1,15.5c0-0.9,1.5-2.4,2.3-2.4h5.1c0.8,0,2.3,1.5,2.3,2.3v0.1H5.1z"/>
	<g>
		<path fill="#FFFFFF" d="M6.2,2.9c-0.5,0-1.6,0.4-2,1.9l0,0l0,0c0,0-0.1,0.6-0.5,0.8C2.3,6.2,2,7,2,7.5v6.4c0,1,0.8,1.8,1.8,1.8
			h12.4c1,0,1.8-0.8,1.8-1.8V7.5c0-0.5-0.3-1.3-1.8-1.9c-0.5-0.2-0.5-0.8-0.5-0.8l0,0l0,0c-0.3-1.5-1.4-1.9-1.9-1.9L6.2,2.9z
			 M6.3,3.7l7.5,0c0.1,0,0.9,0.1,1.1,1.2c0,0.2,0.2,1.1,1,1.5c0.6,0.2,1.2,0.6,1.2,1.1v6.4c0,0.5-0.4,1-1,1H3.8c-0.5,0-1-0.4-1-1
			V7.5C2.8,7,3.5,6.7,4,6.4c0.9-0.4,1-1.3,1-1.5C5.3,3.8,6.2,3.8,6.3,3.7z"/>
	</g>
</g>
</svg>
