<?xml version="1.0" encoding="utf-8"?>
<!-- Generator: Adobe Illustrator 18.1.1, SVG Export Plug-In . SVG Version: 6.00 Build 0)  -->
<svg version="1.1" id="Layer_1" xmlns="http://www.w3.org/2000/svg" xmlns:xlink="http://www.w3.org/1999/xlink" x="0px" y="0px"
	 viewBox="0 0 72 72" enable-background="new 0 0 72 72" xml:space="preserve">
<circle fill="#8A221D" cx="36" cy="36" r="36"/>
<g>
	<path fill="#FFFFFF" d="M52.2,30.7c-0.7-1.1-1.7-1.9-3.3-1.9c-1.7,0-3,1.4-3,3.1s1.6,2.4,2.9,3l3.1,1.6c1.2,0.8,1.8,1.7,1.8,3.2
		c0,2.7-2.4,4.7-5,4.7c-2.2,0-4-1.4-4.7-3.4l0.9-0.4c0.7,1.7,1.9,2.9,3.9,2.9c2.1,0,4-1.7,4-3.8c0-1.8-1.9-2.6-3.2-3.3l-2.9-1.5
		c-1.1-0.7-1.7-1.6-1.7-2.9c0-2.4,1.7-4.1,4.1-4.1c1.6,0,3.2,0.9,3.9,2.3L52.2,30.7z"/>
	<path fill="#FFFFFF" d="M68,31.4c-1.2-1.5-3.4-2.5-5.4-2.5c-4,0-7.3,3.4-7.3,7.4c0,1.9,0.8,3.6,2.2,5c1.3,1.3,3.3,2.2,5.2,2.2
		c1.9,0,4.2-1,5.4-2.4v1.4c-1.5,1.3-3.4,2-5.3,2c-4.5,0-8.4-3.7-8.4-8.2c0-4.6,3.8-8.3,8.4-8.3c1.9,0,3.9,0.8,5.3,2.1V31.4z"/>
	<path fill="#FFFFFF" d="M4.5,27.9H12c3.8,0,6.6,1.9,6.6,6c0,3.3-2.1,5.4-5.4,5.4h-3v4.9H4.5V27.9z M10.2,35.2h0.6
		c1,0,2.2-0.2,2.2-1.5c0-1.3-1.2-1.3-2.2-1.3h-0.6V35.2z"/>
	<path fill="#FFFFFF" d="M19.3,27.9h5.9v16.3h-5.9V27.9z"/>
	<path fill="#FFFFFF" d="M32.3,44.2H26l5.7-16.3h6.6L44,44.2h-6.3l-0.5-2h-4.5L32.3,44.2z M36.2,38.3l-0.7-2.9
		c-0.2-0.7-0.3-1.4-0.4-2.1h-0.2l-1.1,5H36.2z"/>
</g>
</svg>
