<?xml version="1.0" encoding="utf-8"?>
<!-- Generator: Adobe Illustrator 18.1.1, SVG Export Plug-In . SVG Version: 6.00 Build 0)  -->
<svg version="1.1" id="Layer_1" xmlns="http://www.w3.org/2000/svg" xmlns:xlink="http://www.w3.org/1999/xlink" x="0px" y="0px"
	 viewBox="0 0 72 72" enable-background="new 0 0 72 72" xml:space="preserve">
<g>
	<g>
		<circle fill="#009444" cx="36" cy="36" r="36"/>
	</g>
	<polygon fill="#FFFFFF" points="64.1,36.4 54.3,36.4 54.3,33.7 64.1,33.7 	"/>
	<path fill="#FFFFFF" d="M20.9,38.3L17,25.7h-0.1l-4,12.6L12,41l-2,6.6H6.9l8.5-25.3h3.5l8.3,25.3h-3.3l-2-6.6L20.9,38.3z"/>
	<path fill="#FFFFFF" d="M23.8,47.7h2.3c-2.5-8.8-6.5-14.5-11.4-15.5c-4.5-0.9-9.2,2.4-13.5,8.6l0,0C5,36,9.1,33.6,13,34.4
		C17.5,35.3,21.2,40.2,23.8,47.7z"/>
	<path fill="#FFFFFF" d="M62.8,38.3l-3.9-12.6h-0.1l-4,12.6L54,41.1l-2,6.6h-3.2l8.5-25.3h3.5L69,47.7h-3.3l-2-6.6L62.8,38.3z"/>
	<path fill="#FFFFFF" d="M46.1,46.6c-1.5,0.5-4,1.3-6.3,1.3c-8,0-11.4-6.1-11.4-12.9c0-7.9,4.6-12.9,11.2-12.9
		c2.2,0,4.2,0.3,5.9,1.1v3.2c-1.9-1-4.1-1.6-5.9-1.6c-4.1,0-7.9,3.3-7.9,9.5c0,6.5,2.6,10.8,8.1,10.8c1,0,2.3-0.2,3.2-0.7v-8h-4.2
		v-2.7h7.3V46.6z"/>
	<circle fill="#FFFFFF" cx="25.9" cy="34.8" r="1.1"/>
	<path fill="#FFFFFF" d="M51,34.8c0,0.6-0.5,1.1-1.1,1.1s-1.1-0.5-1.1-1.1s0.5-1.1,1.1-1.1S51,34.2,51,34.8z"/>
</g>
</svg>
