<?xml version="1.0" encoding="utf-8"?>
<!-- Generator: Adobe Illustrator 18.1.1, SVG Export Plug-In . SVG Version: 6.00 Build 0)  -->
<svg version="1.1" id="Layer_1" xmlns="http://www.w3.org/2000/svg" xmlns:xlink="http://www.w3.org/1999/xlink" x="0px" y="0px"
	 viewBox="0 0 20 20" enable-background="new 0 0 20 20" xml:space="preserve">
<g>
	<circle fill="#922A8E" cx="10" cy="10" r="10"/>
</g>
<polygon fill="#FFFFFF" points="17.8,10.1 15.1,10.1 15.1,9.4 17.8,9.4 "/>
<path fill="#FFFFFF" d="M5.8,10.6L4.7,7.1h0l-1.1,3.5l-0.2,0.7l-0.6,1.8H1.9l2.4-7h1l2.3,7H6.6l-0.6-1.8L5.8,10.6z"/>
<path fill="#FFFFFF" d="M6.6,13.3h0.6c-0.7-2.4-1.8-4-3.2-4.3c-1.2-0.2-2.6,0.7-3.8,2.4l0,0c1.1-1.3,2.2-2,3.3-1.8
	C4.9,9.8,5.9,11.2,6.6,13.3z"/>
<path fill="#FFFFFF" d="M17.4,10.6l-1.1-3.5h0l-1.1,3.5L15,11.4l-0.6,1.8h-0.9l2.4-7h1l2.3,7h-0.9l-0.6-1.8L17.4,10.6z"/>
<path fill="#FFFFFF" d="M12.8,12.9c-0.4,0.1-1.1,0.4-1.7,0.4c-2.2,0-3.2-1.7-3.2-3.6c0-2.2,1.3-3.6,3.1-3.6c0.6,0,1.2,0.1,1.6,0.3
	v0.9c-0.5-0.3-1.1-0.4-1.6-0.4c-1.1,0-2.2,0.9-2.2,2.6c0,1.8,0.7,3,2.3,3c0.3,0,0.6-0.1,0.9-0.2v-2.2h-1.2V9.4h2V12.9z"/>
<circle fill="#FFFFFF" cx="7.2" cy="9.7" r="0.3"/>
<path fill="#FFFFFF" d="M14.2,9.7c0,0.2-0.1,0.3-0.3,0.3c-0.2,0-0.3-0.1-0.3-0.3s0.1-0.3,0.3-0.3C14,9.4,14.2,9.5,14.2,9.7z"/>
</svg>
