<?xml version="1.0" encoding="utf-8"?>
<!-- Generator: Adobe Illustrator 18.1.1, SVG Export Plug-In . SVG Version: 6.00 Build 0)  -->
<svg version="1.1" id="Layer_1" xmlns="http://www.w3.org/2000/svg" xmlns:xlink="http://www.w3.org/1999/xlink" x="0px" y="0px"
	 viewBox="270 360 72 72" enable-background="new 270 360 72 72" xml:space="preserve">
<g>
	<circle fill="#922A8E" cx="306" cy="396" r="36"/>
</g>
<g>
	<path fill="#FFFFFF" d="M321.1,396.9c-0.1-7.6,6.2-11.3,6.5-11.4c-3.5-5.2-9-5.9-11-6c-4.7-0.5-9.1,2.5-11.5,2.5
		c-2.4,0-4.5-2.6-9.9-2.6c-5.1,0-9.8,3.2-12.4,7.8c-5.3,9.2-1.3,22.8,3.8,30.3c2.5,3.6,5.9,7.7,9.9,7.6c3.8-0.1,5.2-2.1,9.8-2.1
		c4.6,0,5.6,2.1,9.6,2.1c4.1-0.1,6.7-3.7,9.2-7.4c2.9-4.2,3.4-8.3,3.5-8.5C328.4,409,321.2,405.9,321.1,396.9"/>
	<path fill="#FFFFFF" d="M321.1,396.9c-0.1-7.6,6.2-11.3,6.5-11.4c-3.5-5.2-9-5.9-11-6c-4.7-0.5-9.1,2.5-11.5,2.5
		c-2.4,0-4.5-2.6-9.9-2.6c-5.1,0-9.8,3.2-12.4,7.8c-5.3,9.2-1.3,22.8,3.8,30.3c2.5,3.6,5.9,7.7,9.9,7.6c3.8-0.1,5.2-2.1,9.8-2.1
		c4.6,0,5.6,2.1,9.6,2.1c4.1-0.1,6.7-3.7,9.2-7.4c2.9-4.2,3.4-8.3,3.5-8.5C328.4,409,321.2,405.9,321.1,396.9"/>
</g>
<g>
	<defs>
		<path id="SVGID_1_" d="M284.2,413.4c0.6,1.1,1.7,3,2.3,4c2.5,3.7,5.9,7.8,9.9,7.6c3.8-0.2,5.2-2.1,9.8-2.1c4.6,0,5.6,2.1,9.6,2.1
			c4.1-0.1,6.7-3.7,9.2-7.4c1-1.4,1.7-2.9,2.2-4.1c-0.3-0.2-0.5-0.4-0.8-0.6c-2.3,4.3-6.5,10.7-10.1,10.7c-5,0-5.1-2.5-10.1-2.5
			c-4.9,0-6.9,2.7-9.9,2.7c-3.6,0-8.1-4.5-11.8-10.9C284.4,412.9,284.4,413.3,284.2,413.4"/>
	</defs>
	<use xlink:href="#SVGID_1_"  overflow="visible" fill="#FFFFFF"/>
	<clipPath id="SVGID_2_">
		<use xlink:href="#SVGID_1_"  overflow="visible"/>
	</clipPath>
	<rect x="284.2" y="412.8" clip-path="url(#SVGID_2_)" fill="#FFFFFF" width="43" height="12.4"/>
</g>
<g>
	<defs>
		<path id="SVGID_3_" d="M282.4,391.8c-1.9,6.7-1.2,15.2,2.6,21.9c3.7,6.6,7.7,10.1,11.3,10.1c3,0,5-2.7,9.9-2.7
			c4.9,0,5,2.5,10.1,2.5c5,0,11.4-12.7,11.8-14.3c-0.5-0.2-8.9-3.6-8.9-11.2c0-7.6,6.4-11.4,8.1-12.6c-0.5-0.9-3.8-5-8.9-5
			c-6.7,0-8.1,2.6-11.4,2.6c-4.1,0-5.4-2.6-11.1-2.6C290.8,380.3,284.3,385.2,282.4,391.8"/>
	</defs>
	<use xlink:href="#SVGID_3_"  overflow="visible" fill="#FFFFFF"/>
	<clipPath id="SVGID_4_">
		<use xlink:href="#SVGID_3_"  overflow="visible"/>
	</clipPath>
	<rect x="280.5" y="380.3" clip-path="url(#SVGID_4_)" fill="#FFFFFF" width="47.6" height="43.4"/>
</g>
<g>
	<defs>
		<path id="SVGID_5_" d="M319.1,398c0,7.6,8.5,11.1,8.9,11.2l0.4-0.2c-0.1,0-7.3-3.1-7.4-12.2c-0.1-7.6,6.2-11.3,6.5-11.4l-0.4-0.1
			C325.5,386.6,319.1,390.4,319.1,398"/>
	</defs>
	<use xlink:href="#SVGID_5_"  overflow="visible" fill="#FFFFFF"/>
	<clipPath id="SVGID_6_">
		<use xlink:href="#SVGID_5_"  overflow="visible"/>
	</clipPath>
	
		<rect x="311" y="388.1" transform="matrix(-0.4093 -0.9124 0.9124 -0.4093 93.8423 855.3456)" clip-path="url(#SVGID_6_)" fill="#FFFFFF" width="25.6" height="18.3"/>
</g>
<g>
	<path fill="#FFFFFF" d="M306,421.7c-0.3,0-2.6,0.1-4.7,0.8c-2.1,0.8-4.3,1.3-4.3,1.2c-0.3,0-0.6,0-0.6,0c0,0,0.3-0.1,0.6-0.1
		c0,0.1,2.4-0.7,4.6-1.7c2.3-1,4.8-1.1,4.4-1.1c-0.4,0,2.2-0.1,4.5,1.1c2.1,1.3,4.6,1.6,4.6,1.6c0.3,0,0.6,0.1,0.6,0.1
		c0,0-0.3,0.1-0.6,0.1c0,0-2.3,0-4.4-1C308.5,421.5,306.2,421.6,306,421.7"/>
	<path fill="#FFFFFF" d="M315,423.5C315,423.5,315,423.5,315,423.5L315,423.5c-0.5,0.1-2.8-0.2-4.8-1.2c-2-0.9-4-0.7-4.3-0.7
		c-0.3,0-2.6,0.1-4.7,0.8c-2.1,0.8-4.3,1.3-4.3,1.2l-0.1,0c-0.3,0-0.5,0-0.5,0c0-0.1,0.3-0.1,0.6-0.1c0,0.1,2.3-0.7,4.6-1.7
		c2.3-1,4.8-1.1,4.4-1.1c-0.4,0,2.2-0.1,4.5,1.1c2.1,1.3,4.6,1.6,4.6,1.6c0.3,0,0.6,0.1,0.6,0.1C315.6,423.5,315.4,423.5,315,423.5
		L315,423.5z"/>
	<path fill="#FFFFFF" d="M315,423.5C315,423.5,315,423.5,315,423.5L315,423.5c-0.5,0.1-2.8-0.2-4.8-1.2c-2-0.9-4-0.7-4.3-0.7
		c-0.3,0-2.5,0.1-4.7,0.8c-2.1,0.8-4.3,1.3-4.3,1.2l-0.1,0c-0.3,0-0.5,0-0.5,0c0-0.1,0.3-0.1,0.6-0.1c0,0.1,2.3-0.7,4.6-1.7
		c2.3-1,4.8-1.1,4.4-1.1c-0.3,0,2.2-0.1,4.5,1.1c2.1,1.3,4.6,1.6,4.6,1.6c0.3,0,0.6,0.1,0.6,0.1C315.6,423.5,315.4,423.5,315,423.5
		L315,423.5z"/>
	<path fill="#FFFFFF" d="M315,423.5C315,423.5,315,423.5,315,423.5L315,423.5c-0.5,0.1-2.8-0.2-4.8-1.2c-2-0.9-4-0.7-4.3-0.7
		c-0.3-0.1-2.5,0.1-4.7,0.8c-2.1,0.8-4.3,1.4-4.3,1.2l-0.1,0c-0.3,0-0.5,0-0.5,0c0-0.1,0.3-0.1,0.6-0.1c0,0.1,2.3-0.7,4.6-1.7
		c2.2-1,4.7-1.1,4.4-1.1c-0.3,0,2.2-0.1,4.4,1.1c2.1,1.2,4.6,1.6,4.6,1.5c0.3,0,0.6,0.1,0.6,0.1C315.6,423.5,315.4,423.5,315,423.5
		L315,423.5z"/>
	<path fill="#FFFFFF" d="M315,423.5C315,423.5,315,423.5,315,423.5L315,423.5c-0.5,0.1-2.8-0.2-4.8-1.2c-2-0.9-4.1-0.7-4.3-0.7
		c-0.3-0.1-2.5,0.1-4.7,0.8c-2.1,0.8-4.3,1.4-4.3,1.2l-0.1,0c-0.3,0-0.5,0-0.5,0c0-0.1,0.3-0.1,0.6-0.1c0,0.1,2.3-0.7,4.5-1.7
		c2.2-1,4.7-1.1,4.4-1.1c-0.3,0,2.2-0.1,4.4,1.1c2.1,1.2,4.5,1.6,4.6,1.5c0.3,0,0.6,0.1,0.6,0.1C315.6,423.5,315.4,423.5,315,423.5
		L315,423.5z"/>
	<path fill="#FFFFFF" d="M315,423.5C315,423.5,315,423.5,315,423.5L315,423.5c-0.5,0.1-2.8-0.2-4.7-1.2c-2-0.9-4.1-0.7-4.3-0.7
		c-0.3-0.1-2.5,0.1-4.7,0.9c-2.1,0.8-4.3,1.4-4.3,1.3l-0.1,0c-0.3,0-0.5,0-0.5,0c0,0,0.3-0.1,0.6-0.1c0,0.1,2.3-0.7,4.5-1.7
		c2.2-1,4.7-1.1,4.4-1.1c-0.3,0,2.2-0.1,4.4,1.1c2.1,1.2,4.5,1.6,4.5,1.5c0.3,0,0.6,0.1,0.6,0.1C315.5,423.5,315.4,423.5,315,423.5
		L315,423.5z"/>
	<path fill="#FFFFFF" d="M315,423.5C315,423.5,315,423.5,315,423.5L315,423.5c-0.5,0.1-2.8-0.2-4.7-1.2c-2-0.9-4.1-0.7-4.3-0.7
		c-0.3-0.1-2.5,0.1-4.7,0.9c-2.1,0.8-4.3,1.4-4.3,1.3l-0.1,0c-0.3,0-0.4,0-0.4,0c0,0,0.3-0.1,0.6-0.1c0,0.1,2.3-0.7,4.5-1.7
		c2.2-1,4.7-1.1,4.4-1.1c-0.3,0,2.2-0.1,4.4,1.1c2.1,1.2,4.5,1.6,4.5,1.5c0.3,0,0.6,0.1,0.6,0.1C315.5,423.5,315.4,423.5,315,423.5
		L315,423.5z"/>
	<path fill="#FFFFFF" d="M315,423.5C315,423.5,315,423.5,315,423.5L315,423.5c-0.5,0.1-2.8-0.2-4.7-1.2c-2-0.9-4.1-0.7-4.3-0.7
		c-0.3,0-2.5,0.1-4.7,0.9c-2.1,0.8-4.3,1.4-4.4,1.3l-0.1,0c-0.3,0-0.4,0-0.4,0c0,0,0.3-0.1,0.6-0.1c0,0.1,2.3-0.7,4.5-1.7
		c2.2-1,4.7-1.1,4.4-1.1c-0.3,0,2.2-0.1,4.4,1c2.1,1.2,4.5,1.6,4.5,1.5c0.3,0,0.6,0.1,0.6,0.1C315.5,423.5,315.4,423.5,315,423.5
		L315,423.5z"/>
	<path fill="#FFFFFF" d="M315,423.5C315,423.5,315,423.5,315,423.5L315,423.5c-0.5,0.1-2.8-0.2-4.7-1.2c-2-0.9-4.1-0.7-4.3-0.7
		c-0.2-0.1-2.5,0.1-4.7,0.9c-2.1,0.8-4.3,1.4-4.4,1.3l-0.1,0c-0.3,0-0.4,0-0.4,0c0,0,0.3-0.1,0.6-0.1c0,0.1,2.3-0.7,4.5-1.7
		c2.2-1,4.7-1.1,4.4-1.1c-0.3,0,2.2-0.1,4.4,1c2.1,1.2,4.5,1.6,4.5,1.5c0.3,0,0.6,0.1,0.6,0.1C315.5,423.5,315.3,423.5,315,423.5
		L315,423.5z"/>
	<path fill="#FFFFFF" d="M315,423.5C315,423.5,315,423.5,315,423.5L315,423.5c-0.5,0.1-2.8-0.2-4.7-1.2c-2-0.9-4.1-0.7-4.3-0.7
		c-0.2,0-2.5,0.1-4.7,0.9c-2.1,0.8-4.3,1.4-4.4,1.3l-0.1,0c-0.3,0-0.4,0-0.4,0c0,0,0.3-0.1,0.6-0.1c0,0.1,2.3-0.7,4.5-1.7
		c2.2-1,4.7-1.1,4.4-1.1c-0.3,0,2.2-0.1,4.4,1c2.1,1.2,4.5,1.6,4.5,1.5c0.3,0,0.6,0.1,0.6,0.1C315.5,423.5,315.3,423.5,315,423.5
		L315,423.5z"/>
	<path fill="#FFFFFF" d="M315,423.5C315,423.5,315,423.5,315,423.5L315,423.5c-0.4,0.1-2.7-0.2-4.7-1.2c-2-0.9-4.1-0.8-4.3-0.7
		c-0.2,0-2.5,0.1-4.7,0.9c-2.1,0.8-4.3,1.4-4.4,1.3l-0.1,0c-0.3,0-0.4,0-0.4,0c0,0,0.3-0.1,0.6-0.1c0,0.1,2.3-0.7,4.5-1.7
		c2.2-1,4.7-1.1,4.4-1.1c-0.3,0,2.2-0.1,4.4,1c2.1,1.2,4.5,1.6,4.5,1.5c0.3,0,0.6,0.1,0.6,0.1C315.4,423.5,315.3,423.5,315,423.5
		L315,423.5z"/>
	<path fill="#FFFFFF" d="M315,423.5C315,423.5,315,423.5,315,423.5L315,423.5c-0.4,0.1-2.7-0.2-4.7-1.2c-2-0.9-4.1-0.8-4.3-0.7
		c-0.2-0.1-2.5,0.1-4.7,0.9c-2.1,0.8-4.3,1.4-4.4,1.3l-0.1,0c-0.2,0-0.4,0-0.4,0c0,0,0.3-0.1,0.6-0.1c0,0.1,2.3-0.7,4.5-1.7
		c2.2-1,4.6-1.1,4.4-1c-0.3,0,2.2-0.1,4.4,1c2.1,1.2,4.5,1.6,4.5,1.5c0.3,0,0.6,0.1,0.6,0.1C315.4,423.5,315.3,423.5,315,423.5
		L315,423.5z"/>
	<path fill="#FFFFFF" d="M315,423.5C315,423.5,315,423.5,315,423.5L315,423.5c-0.4,0.1-2.7-0.2-4.7-1.2c-2-0.9-4.1-0.8-4.3-0.7
		c-0.2-0.1-2.5,0.1-4.7,0.9c-2.1,0.8-4.3,1.4-4.4,1.3l-0.1,0c-0.2,0-0.3,0-0.3,0c0,0,0.3-0.1,0.6-0.1c0,0.1,2.3-0.7,4.5-1.7
		c2.2-1,4.6-1.1,4.4-1c-0.3,0,2.2-0.1,4.4,1c2.1,1.2,4.4,1.6,4.5,1.5c0.3,0,0.6,0.1,0.6,0.1C315.4,423.5,315.3,423.5,315,423.5
		L315,423.5z"/>
	<path fill="#FFFFFF" d="M315,423.5C315,423.5,315,423.5,315,423.5L315,423.5c-0.4,0.1-2.7-0.2-4.7-1.2c-2-0.9-4.1-0.8-4.3-0.7
		c-0.2,0-2.5,0.1-4.7,0.9c-2.1,0.8-4.3,1.4-4.4,1.3l-0.1,0c-0.2,0-0.3,0-0.3,0c0,0,0.3-0.1,0.6-0.1c0,0.1,2.3-0.7,4.4-1.7
		c2.2-1,4.6-1.1,4.4-1c-0.3,0,2.2-0.1,4.4,1c2.1,1.2,4.4,1.6,4.5,1.5c0.3,0,0.6,0.1,0.6,0.1C315.4,423.5,315.3,423.5,315,423.5
		L315,423.5z"/>
	<path fill="#FFFFFF" d="M315,423.5C315,423.5,315,423.5,315,423.5L315,423.5c-0.4,0.1-2.7-0.2-4.7-1.2c-2-0.9-4.1-0.8-4.3-0.8
		c-0.2-0.1-2.5,0.1-4.7,0.9c-2.1,0.8-4.3,1.4-4.4,1.3l-0.1,0c-0.2,0-0.3,0-0.3,0c0,0,0.3-0.1,0.6-0.1c0,0.1,2.3-0.7,4.4-1.7
		c2.2-0.9,4.6-1.1,4.4-1c-0.3,0,2.2-0.1,4.4,1c2.1,1.2,4.4,1.6,4.4,1.5c0.3,0,0.6,0.1,0.6,0.1C315.4,423.5,315.3,423.5,315,423.5
		L315,423.5z"/>
	<path fill="#FFFFFF" d="M315,423.5C315,423.5,315,423.5,315,423.5L315,423.5c-0.4,0.1-2.7-0.2-4.7-1.2c-2-0.9-4.2-0.8-4.3-0.8
		c-0.2,0-2.5,0.1-4.7,0.9c-2.1,0.8-4.3,1.4-4.4,1.3l-0.1,0c-0.2,0-0.3,0-0.3,0c0,0,0.3-0.1,0.6-0.1c0,0.1,2.3-0.7,4.4-1.7
		c2.2-0.9,4.6-1.1,4.4-1c-0.3,0,2.2-0.1,4.4,1c2.1,1.2,4.4,1.6,4.4,1.5c0.3,0,0.6,0.1,0.6,0.1C315.4,423.5,315.3,423.5,315,423.5
		L315,423.5z"/>
	<path fill="#FFFFFF" d="M315,423.5C315,423.5,315,423.5,315,423.5L315,423.5c-0.4,0.1-2.7-0.2-4.7-1.2c-2-0.9-4.2-0.8-4.3-0.8
		c-0.2-0.1-2.5,0.1-4.7,0.9c-2.1,0.8-4.3,1.4-4.4,1.3c0,0,0,0,0,0c-0.2,0-0.3,0-0.3,0c0,0,0.3-0.1,0.6-0.1c0,0.1,2.2-0.7,4.4-1.7
		c2.2-0.9,4.6-1.1,4.3-1c-0.3,0,2.2-0.1,4.4,1c2.1,1.2,4.4,1.6,4.4,1.5c0.3,0,0.6,0.1,0.6,0.1C315.3,423.5,315.3,423.5,315,423.5
		C315.1,423.5,315,423.5,315,423.5"/>
	<path fill="#FFFFFF" d="M315,423.5C315,423.5,315,423.5,315,423.5L315,423.5c-0.4,0.1-2.7-0.2-4.7-1.2c-2-0.9-4.2-0.8-4.4-0.8
		c-0.2-0.1-2.5,0.1-4.7,0.9c-2.1,0.8-4.4,1.4-4.4,1.3c0,0,0,0,0,0c-0.2,0-0.3,0-0.3,0s0.3-0.1,0.6-0.1c0,0.1,2.2-0.7,4.4-1.7
		c2.2-0.9,4.6-1.1,4.3-1c-0.3,0,2.2-0.1,4.4,1c2.1,1.2,4.4,1.6,4.4,1.5c0.2,0,0.6,0.1,0.6,0.1C315.3,423.5,315.3,423.5,315,423.5
		C315.1,423.5,315,423.5,315,423.5"/>
	<path fill="#FFFFFF" d="M315,423.5C315,423.5,315,423.5,315,423.5L315,423.5c-0.4,0.1-2.7-0.2-4.7-1.2c-2-0.9-4.2-0.8-4.4-0.8
		c-0.2,0-2.5,0.1-4.7,0.9c-2.1,0.8-4.4,1.4-4.4,1.3c0,0,0,0,0,0c-0.2,0-0.2,0-0.2,0s0.4-0.1,0.6-0.1c0,0.1,2.2-0.7,4.4-1.7
		c2.2-0.9,4.6-1,4.3-1c-0.3,0,2.2-0.1,4.4,1c2.1,1.2,4.4,1.6,4.4,1.5c0.2,0,0.6,0.1,0.6,0.1C315.3,423.5,315.3,423.5,315,423.5
		C315.1,423.5,315,423.5,315,423.5"/>
	<path fill="#FFFFFF" d="M315,423.5C315,423.5,315,423.5,315,423.5L315,423.5c-0.4,0.1-2.7-0.2-4.7-1.2c-2-0.9-4.2-0.8-4.4-0.8
		c-0.2,0-2.5,0.1-4.7,0.9c-2.1,0.8-4.4,1.4-4.4,1.3c0,0,0,0,0,0c-0.2,0-0.2,0-0.2,0c0,0,0.4-0.1,0.6-0.1c0,0.1,2.2-0.7,4.4-1.7
		c2.2-0.9,4.6-1,4.3-1c-0.2,0,2.2-0.1,4.3,1c2,1.2,4.4,1.6,4.4,1.5c0.2,0,0.6,0.1,0.6,0.1C315.3,423.5,315.3,423.5,315,423.5
		C315.1,423.5,315,423.5,315,423.5"/>
	<path fill="#FFFFFF" d="M315,423.5C315,423.5,315,423.5,315,423.5L315,423.5c-0.4,0.1-2.7-0.2-4.7-1.2c-2-0.9-4.2-0.8-4.4-0.8
		c-0.2-0.1-2.5,0.1-4.7,0.9c-2.1,0.8-4.4,1.4-4.4,1.3c0,0,0,0,0,0c-0.2,0-0.2,0-0.2,0c0,0,0.4-0.1,0.6-0.1c0,0.1,2.2-0.7,4.4-1.7
		c2.2-0.9,4.5-1,4.3-1c-0.2,0,2.2-0.1,4.3,1c2,1.2,4.4,1.6,4.4,1.5c0.2,0,0.6,0.1,0.6,0.1C315.3,423.5,315.3,423.5,315,423.5
		C315.1,423.5,315,423.5,315,423.5"/>
	<path fill="#FFFFFF" d="M315,423.5C315,423.5,315,423.5,315,423.5L315,423.5c-0.4,0.1-2.7-0.2-4.7-1.2c-2-0.9-4.2-0.8-4.4-0.8
		c-0.2,0-2.5,0.1-4.7,0.9c-2.1,0.8-4.4,1.4-4.4,1.3c0,0,0,0,0,0c-0.2,0-0.2,0-0.2,0c0,0,0.4-0.1,0.6-0.1c0,0.1,2.2-0.7,4.4-1.7
		c2.2-0.9,4.5-1,4.3-1c-0.2,0,2.2-0.1,4.3,1c2,1.1,4.4,1.6,4.4,1.5c0.2,0,0.6,0.1,0.6,0.1C315.2,423.5,315.3,423.5,315,423.5
		C315.1,423.5,315,423.5,315,423.5"/>
	<path fill="#FFFFFF" d="M315,423.5C315,423.5,315,423.5,315,423.5L315,423.5c-0.4,0.1-2.7-0.2-4.7-1.2c-2-0.9-4.2-0.8-4.4-0.8
		c-0.2-0.1-2.5,0.1-4.7,0.9c-2.1,0.8-4.4,1.4-4.4,1.3c0,0,0,0,0,0c-0.2,0-0.2,0-0.2,0c0,0,0.4-0.1,0.6-0.1c0,0.1,2.2-0.7,4.4-1.7
		c2.2-0.9,4.5-1,4.3-1c-0.2,0,2.2-0.1,4.3,1c2,1.1,4.3,1.6,4.4,1.5c0.2,0,0.6,0.1,0.6,0.1C315.2,423.5,315.3,423.5,315,423.5
		C315.1,423.5,315.1,423.5,315,423.5"/>
	<path fill="#FFFFFF" d="M315,423.5C315,423.5,315,423.5,315,423.5L315,423.5c-0.3,0.1-2.7-0.2-4.7-1.2c-2-0.9-4.2-0.8-4.4-0.8
		c-0.2-0.1-2.5,0.1-4.7,0.9c-2.1,0.8-4.4,1.4-4.4,1.3c0,0,0,0,0,0c-0.2,0-0.1,0-0.1,0c0,0,0.4-0.1,0.6-0.1c0,0.1,2.2-0.7,4.3-1.6
		c2.2-0.9,4.5-1,4.3-1c-0.2,0,2.2-0.1,4.3,1c2,1.1,4.3,1.6,4.3,1.5c0.2,0,0.6,0.1,0.6,0.1C315.2,423.5,315.2,423.5,315,423.5
		C315.1,423.5,315.1,423.5,315,423.5"/>
	<path fill="#FFFFFF" d="M315,423.5C315,423.5,315,423.5,315,423.5L315,423.5c-0.3,0.1-2.7-0.2-4.7-1.2c-2-1-4.2-0.8-4.4-0.8
		c-0.2,0-2.5,0.1-4.7,0.9c-2.1,0.8-4.4,1.4-4.4,1.3c0,0,0,0,0,0c-0.2,0-0.1,0-0.1,0c0,0,0.4-0.1,0.6-0.1c0,0.1,2.2-0.7,4.3-1.6
		c2.1-0.9,4.5-1,4.3-1c-0.2,0,2.2-0.1,4.3,0.9c2,1.1,4.3,1.6,4.3,1.5c0.2,0,0.6,0.1,0.6,0.1S315.2,423.5,315,423.5
		C315.1,423.5,315.1,423.5,315,423.5"/>
	<path fill="#FFFFFF" d="M315,423.5C315,423.5,315,423.5,315,423.5L315,423.5c-0.3,0.1-2.7-0.2-4.7-1.2c-2-0.9-4.2-0.8-4.4-0.8
		c-0.2-0.1-2.5,0.1-4.7,0.9c-2.1,0.8-4.4,1.5-4.4,1.3c0,0,0,0,0,0c-0.2,0-0.1,0-0.1,0c0,0,0.4-0.1,0.6-0.1c0,0.1,2.2-0.7,4.3-1.6
		c2.1-0.9,4.5-1,4.3-1c-0.2,0,2.2-0.1,4.3,0.9c2,1.1,4.3,1.6,4.3,1.5c0.2,0,0.6,0.1,0.6,0.1C315.2,423.5,315.2,423.5,315,423.5
		C315.1,423.5,315.1,423.5,315,423.5"/>
	<path fill="#FFFFFF" d="M315,423.5C315,423.5,315,423.5,315,423.5L315,423.5c-0.3,0.1-2.7-0.2-4.7-1.2c-2-1-4.3-0.8-4.4-0.8
		c-0.2-0.1-2.5,0.1-4.7,0.9c-2.1,0.8-4.4,1.5-4.4,1.3c0,0,0,0,0,0c-0.2,0-0.1,0-0.1,0s0.4-0.1,0.6-0.1c0,0.1,2.2-0.7,4.3-1.6
		c2.1-0.9,4.5-1,4.3-1c-0.2,0,2.2-0.1,4.3,0.9c2,1.1,4.3,1.6,4.3,1.5c0.2,0,0.6,0.1,0.6,0.1S315.2,423.5,315,423.5
		C315.1,423.5,315.1,423.5,315,423.5"/>
	<path fill="#FFFFFF" d="M315,423.5C315,423.5,315,423.5,315,423.5L315,423.5c-0.3,0.1-2.7-0.2-4.7-1.2c-2-1-4.3-0.8-4.4-0.8
		c-0.2,0-2.5,0.1-4.7,0.9c-2.1,0.8-4.4,1.5-4.4,1.3c0,0,0,0,0,0c-0.2,0-0.1,0-0.1,0c0,0,0.4-0.1,0.6-0.1c0,0.1,2.2-0.7,4.3-1.6
		c2.1-0.9,4.5-1,4.3-1c-0.2,0,2.2-0.1,4.3,0.9c2,1.1,4.3,1.6,4.3,1.5C314.7,423.4,315.1,423.4,315,423.5
		C315.1,423.5,315.2,423.5,315,423.5C315.1,423.5,315.1,423.5,315,423.5"/>
	<path fill="#FFFFFF" d="M315,423.5C315,423.5,315,423.5,315,423.5L315,423.5c-0.3,0.1-2.7-0.2-4.7-1.2c-2-1-4.3-0.8-4.4-0.8
		c-0.1-0.1-2.5,0.1-4.7,0.9c-2.1,0.8-4.4,1.5-4.4,1.4c0,0,0,0,0,0c-0.2,0-0.1,0-0.1,0c0,0,0.4-0.1,0.6-0.1c0,0.1,2.2-0.7,4.3-1.6
		c2.1-0.9,4.5-1,4.3-1c-0.2,0,2.2-0.1,4.3,0.9c2,1.1,4.3,1.6,4.3,1.5C314.7,423.4,315.1,423.4,315,423.5
		C315.1,423.5,315.2,423.5,315,423.5C315.1,423.5,315.1,423.5,315,423.5"/>
	<path fill="#FFFFFF" d="M315,423.5C315,423.5,315,423.5,315,423.5L315,423.5c-0.3,0.1-2.6-0.2-4.7-1.2c-2-1-4.3-0.8-4.4-0.8
		c-0.1,0-2.5,0.1-4.7,0.9c-2.1,0.8-4.4,1.5-4.4,1.4c0,0,0,0,0,0c-0.2,0,0,0-0.1,0c0,0,0.4-0.1,0.6-0.1c0,0.1,2.2-0.7,4.3-1.6
		c2.1-0.9,4.4-1,4.3-1c-0.2,0,2.2-0.1,4.3,0.9c2,1.1,4.3,1.6,4.3,1.5C314.7,423.4,315.1,423.4,315,423.5
		C315.1,423.5,315.2,423.5,315,423.5C315.1,423.5,315.1,423.5,315,423.5"/>
	<path fill="#FFFFFF" d="M315,423.5C315,423.5,315,423.5,315,423.5L315,423.5c-0.3,0.1-2.6-0.2-4.7-1.2c-2.1-1-4.3-0.8-4.4-0.8
		c-0.1-0.1-2.5,0.1-4.6,0.9c-2.2,0.9-4.4,1.5-4.4,1.4c0,0,0,0,0,0c-0.1,0,0,0,0,0c0,0,0.4-0.1,0.6-0.1c0,0.1,2.2-0.7,4.3-1.6
		c2.1-0.9,4.4-1,4.3-1c-0.2,0,2.2-0.1,4.3,0.9c2,1.1,4.2,1.6,4.3,1.5C314.7,423.4,315.1,423.4,315,423.5
		C315.1,423.5,315.2,423.5,315,423.5C315.1,423.5,315.1,423.5,315,423.5"/>
	<path fill="#FFFFFF" d="M315,423.5C315,423.5,315,423.5,315,423.5L315,423.5c-0.3,0.1-2.6-0.2-4.7-1.2c-2.1-1-4.3-0.8-4.4-0.8
		c-0.1-0.1-2.5,0.1-4.6,0.9c-2.2,0.9-4.4,1.5-4.4,1.4c0,0,0,0,0,0c-0.1,0,0,0,0,0c0,0,0.4-0.1,0.6-0.1c0,0.1,2.1-0.7,4.2-1.6
		c2.1-0.9,4.4-1,4.3-0.9c-0.2,0,2.2-0.1,4.3,0.9c2,1.1,4.2,1.6,4.3,1.5C314.6,423.4,315.1,423.4,315,423.5
		C315.1,423.5,315.2,423.5,315,423.5C315.1,423.5,315.1,423.5,315,423.5"/>
	<path fill="#FFFFFF" d="M315,423.5C315,423.5,315,423.5,315,423.5L315,423.5c-0.3,0.1-2.6-0.2-4.7-1.2c-2.1-1-4.3-0.9-4.4-0.8
		c-0.1,0-2.5,0.1-4.6,0.9c-2.2,0.8-4.4,1.5-4.4,1.4c0,0,0,0,0,0c-0.1,0,0,0,0,0c0,0,0.4-0.1,0.6-0.1c0,0.1,2.1-0.7,4.2-1.6
		c2.1-0.9,4.4-1,4.3-0.9c-0.2,0,2.2-0.1,4.3,0.9c2,1.1,4.2,1.6,4.2,1.5C314.6,423.4,315,423.4,315,423.5
		C315,423.5,315.2,423.5,315,423.5C315.1,423.5,315.1,423.5,315,423.5"/>
	<path fill="#FFFFFF" d="M315,423.5C315,423.5,315,423.5,315,423.5L315,423.5c-0.3,0.1-2.6-0.2-4.7-1.2c-2.1-1-4.3-0.9-4.4-0.8
		c-0.1,0-2.5,0.1-4.6,0.9c-2.2,0.9-4.4,1.5-4.4,1.4c0,0,0,0,0,0c-0.1,0,0,0,0,0c0,0,0.4-0.1,0.6-0.1c0,0.1,2.1-0.7,4.2-1.6
		c2.1-0.9,4.4-1,4.2-0.9c-0.2,0,2.2-0.1,4.3,0.9c2,1.1,4.2,1.5,4.2,1.5C314.6,423.4,315,423.4,315,423.5
		C315,423.5,315.2,423.5,315,423.5C315.1,423.5,315.1,423.5,315,423.5"/>
	<path fill="#FFFFFF" d="M315,423.5C315,423.5,315,423.5,315,423.5L315,423.5c-0.3,0.1-2.6-0.2-4.7-1.2c-2.1-1-4.3-0.9-4.4-0.8
		c-0.1-0.1-2.5,0.1-4.6,0.9c-2.2,0.9-4.4,1.5-4.4,1.4c0,0,0,0,0,0c-0.1,0,0,0,0,0c0,0,0.4-0.1,0.6-0.1c0,0.1,2.1-0.7,4.2-1.6
		c2.1-0.9,4.4-1,4.2-0.9c-0.2,0,2.2-0.1,4.3,0.9c2,1.1,4.2,1.5,4.2,1.5C314.6,423.4,315,423.4,315,423.5
		C315,423.5,315.2,423.5,315,423.5C315.1,423.5,315.1,423.5,315,423.5"/>
	<path fill="#FFFFFF" d="M315,423.5C315,423.5,315,423.5,315,423.5L315,423.5c-0.3,0.1-2.6-0.2-4.7-1.2c-2.1-1-4.3-0.9-4.4-0.8
		c-0.1,0-2.5,0.1-4.6,0.9c-2.2,0.9-4.4,1.5-4.4,1.4c0,0,0,0,0,0c-0.1,0,0.1,0,0.1,0c0,0,0.4-0.1,0.6-0.1c0,0.1,2.1-0.7,4.2-1.6
		c2.1-0.9,4.4-1,4.2-0.9c-0.2,0,2.2-0.1,4.2,0.9c2,1.1,4.2,1.5,4.2,1.5C314.5,423.4,315,423.4,315,423.5
		C315,423.5,315.2,423.5,315,423.5C315.1,423.5,315.1,423.5,315,423.5"/>
	<path fill="#FFFFFF" d="M315,423.5C315,423.5,315,423.5,315,423.5L315,423.5c-0.3,0.1-2.6-0.2-4.6-1.2c-2.1-1-4.4-0.9-4.4-0.9
		c-0.1-0.1-2.4,0.1-4.6,0.9c-2.2,0.9-4.4,1.5-4.4,1.4c0,0,0,0,0,0c-0.1,0,0.1,0,0.1,0c0,0,0.4-0.1,0.6-0.1c0,0.1,2.1-0.7,4.2-1.6
		c2.1-0.9,4.4-1,4.2-0.9c-0.2,0,2.2-0.1,4.2,0.9c2,1.1,4.2,1.5,4.2,1.5C314.5,423.4,315,423.4,315,423.5
		C315,423.5,315.2,423.5,315,423.5C315.1,423.5,315.1,423.5,315,423.5"/>
	<path fill="#FFFFFF" d="M315.1,423.5C315.1,423.5,315,423.5,315.1,423.5L315.1,423.5c-0.2,0.1-2.6-0.2-4.7-1.2
		c-2.1-1-4.4-0.9-4.4-0.9c-0.1-0.1-2.4,0.1-4.6,0.9c-2.2,0.9-4.4,1.5-4.5,1.4c0,0,0,0,0,0c-0.1,0,0.1,0,0.1,0c0,0,0.4-0.1,0.6-0.1
		c0,0.1,2.1-0.7,4.2-1.6c2.1-0.8,4.4-1,4.2-0.9c-0.1,0,2.2-0.1,4.2,0.9c2,1.1,4.2,1.5,4.2,1.5c0.1,0,0.6,0.1,0.6,0.1
		C314.9,423.5,315.2,423.5,315.1,423.5C315.1,423.5,315.1,423.5,315.1,423.5"/>
	<path fill="#FFFFFF" d="M315.1,423.5C315.1,423.5,315,423.5,315.1,423.5L315.1,423.5c-0.2,0.1-2.6-0.2-4.6-1.2
		c-2.1-1-4.4-0.9-4.5-0.9c-0.1,0-2.4,0.1-4.6,0.9c-2.2,0.9-4.4,1.5-4.5,1.4c0,0,0,0,0,0c-0.1,0,0.1,0,0.1,0c0,0,0.4-0.1,0.6-0.1
		c0,0.1,2.1-0.7,4.2-1.6c2.1-0.8,4.3-0.9,4.2-0.9c-0.1,0,2.2-0.1,4.2,0.9c2,1.1,4.2,1.5,4.2,1.5c0.1,0,0.6,0.1,0.6,0.1
		C314.9,423.5,315.1,423.5,315.1,423.5C315.1,423.5,315.1,423.5,315.1,423.5"/>
	<path fill="#FFFFFF" d="M315.1,423.5C315.1,423.5,315,423.5,315.1,423.5L315.1,423.5c-0.2,0.1-2.6-0.2-4.6-1.2
		c-2.1-1-4.4-0.9-4.5-0.9c-0.1-0.1-2.4,0.1-4.6,0.9c-2.2,0.9-4.4,1.5-4.5,1.4c0,0,0,0,0,0c-0.1,0,0.1,0,0.1,0c0,0,0.5-0.1,0.6-0.1
		c0,0.1,2.1-0.7,4.2-1.6c2.1-0.8,4.3-0.9,4.2-0.9c-0.1,0,2.2-0.1,4.2,0.9c2,1.1,4.1,1.5,4.2,1.5c0.1,0,0.6,0.1,0.6,0.1
		C314.9,423.5,315.1,423.5,315.1,423.5C315.1,423.5,315.1,423.5,315.1,423.5"/>
	<path fill="#FFFFFF" d="M315.1,423.5C315.1,423.5,315,423.5,315.1,423.5L315.1,423.5c-0.2,0.1-2.6-0.2-4.6-1.2
		c-2.1-1-4.4-0.9-4.5-0.9c-0.1,0-2.4,0.1-4.6,0.9c-2.2,0.9-4.4,1.5-4.5,1.4c0,0,0,0,0,0c-0.1,0,0.1,0,0.1,0c0,0,0.5-0.1,0.6-0.1
		c0,0.1,2.1-0.7,4.2-1.6c2.1-0.8,4.3-0.9,4.2-0.9c-0.1,0,2.2-0.1,4.2,0.9c2,1.1,4.1,1.5,4.2,1.5c0.1,0,0.6,0.1,0.6,0.1
		C314.9,423.5,315.1,423.5,315.1,423.5C315.1,423.5,315.1,423.5,315.1,423.5"/>
	<path fill="#FFFFFF" d="M315.1,423.5C315.1,423.5,315,423.5,315.1,423.5L315.1,423.5c-0.2,0.1-2.6-0.2-4.6-1.2
		c-2.1-1-4.4-0.9-4.5-0.9c-0.1-0.1-2.4,0.1-4.6,0.9c-2.2,0.9-4.4,1.5-4.5,1.4c0,0,0,0,0,0c-0.1,0,0.2,0,0.2,0c0,0,0.5-0.1,0.6-0.1
		c0,0.1,2.1-0.7,4.1-1.5c2.1-0.8,4.3-0.9,4.2-0.9c-0.1,0,2.2-0.1,4.2,0.9c2,1,4.1,1.5,4.1,1.5c0.1,0,0.6,0.1,0.6,0.1
		C314.9,423.5,315.1,423.5,315.1,423.5C315.1,423.5,315.1,423.5,315.1,423.5"/>
	<path fill="#FFFFFF" d="M315.1,423.5C315.1,423.5,315,423.5,315.1,423.5L315.1,423.5c-0.2,0.1-2.6-0.2-4.6-1.2
		c-2.1-1-4.4-0.9-4.5-0.9c-0.1,0-2.4,0.1-4.6,0.9c-2.2,0.9-4.4,1.5-4.5,1.4c0,0,0,0,0,0c-0.1,0,0.2,0,0.2,0c0,0,0.5-0.1,0.6-0.1
		c0,0.1,2.1-0.7,4.1-1.5c2.1-0.8,4.3-0.9,4.2-0.9c-0.1,0,2.2-0.1,4.2,0.9c2,1,4.1,1.5,4.1,1.4c0.1,0,0.6,0.1,0.6,0.1
		C314.9,423.5,315.1,423.5,315.1,423.5C315.1,423.5,315.1,423.5,315.1,423.5"/>
	<path fill="#FFFFFF" d="M315.1,423.5C315.1,423.5,315.1,423.5,315.1,423.5L315.1,423.5c-0.2,0.1-2.6-0.2-4.6-1.2
		c-2.1-1-4.4-0.9-4.5-0.9c-0.1,0-2.4,0.1-4.6,0.9c-2.2,0.9-4.4,1.5-4.5,1.4c0,0,0,0,0,0c-0.1,0,0.2,0,0.2-0.1c0,0,0.5-0.1,0.6-0.1
		c0,0.1,2.1-0.7,4.1-1.5c2.1-0.8,4.3-0.9,4.2-0.9c-0.1,0,2.2-0.1,4.2,0.8c2,1,4.1,1.5,4.1,1.4c0.1,0,0.6,0.1,0.6,0.1
		C314.8,423.5,315.1,423.5,315.1,423.5C315.1,423.5,315.1,423.5,315.1,423.5"/>
	<path fill="#FFFFFF" d="M315.1,423.5C315.1,423.5,315.1,423.5,315.1,423.5L315.1,423.5c-0.2,0.1-2.6-0.2-4.6-1.2
		c-2.1-1-4.4-0.9-4.5-0.9c-0.1,0-2.4,0.1-4.6,0.9c-2.2,0.9-4.4,1.5-4.5,1.4c0,0,0,0,0,0c-0.1,0,0.2,0,0.2-0.1c0,0,0.5-0.1,0.6-0.1
		c0,0.1,2.1-0.7,4.1-1.5c2-0.8,4.3-0.9,4.2-0.9c-0.1,0,2.2-0.1,4.2,0.8c1.9,1,4.1,1.5,4.1,1.4c0.1,0,0.6,0.1,0.6,0.1
		C314.8,423.5,315.1,423.5,315.1,423.5C315.1,423.5,315.1,423.5,315.1,423.5"/>
	<path fill="#FFFFFF" d="M315.1,423.5C315.1,423.5,315.1,423.5,315.1,423.5L315.1,423.5c-0.2,0.1-2.6-0.2-4.6-1.3
		c-2.1-1-4.4-0.9-4.5-0.9c-0.1,0-2.4,0.1-4.6,0.9c-2.2,0.9-4.4,1.5-4.5,1.4c0,0,0,0,0,0c-0.1,0,0.2,0,0.2-0.1c0,0,0.5-0.1,0.6-0.1
		c0,0.1,2.1-0.7,4.1-1.5c2-0.8,4.3-0.9,4.2-0.9c-0.1,0,2.2-0.1,4.2,0.8c1.9,1,4.1,1.5,4.1,1.4c0.1,0,0.6,0.1,0.6,0.1
		C314.8,423.5,315.1,423.5,315.1,423.5C315.1,423.5,315.1,423.5,315.1,423.5"/>
	<path fill="#FFFFFF" d="M315.1,423.5C315.1,423.5,315.1,423.5,315.1,423.5L315.1,423.5c-0.2,0.1-2.5-0.2-4.6-1.3
		c-2.1-1-4.4-0.9-4.5-0.9c-0.1,0-2.4,0.1-4.6,0.9c-2.2,0.9-4.4,1.5-4.5,1.4c0,0,0,0,0,0c-0.1,0,0.2-0.1,0.2-0.1c0,0,0.5-0.1,0.6-0.1
		c0,0.1,2-0.7,4.1-1.5c2-0.8,4.3-0.9,4.2-0.9c-0.1,0,2.2-0.1,4.2,0.8c1.9,1,4.1,1.5,4.1,1.4c0.1,0,0.6,0.1,0.6,0.1
		C314.8,423.5,315.1,423.5,315.1,423.5C315.1,423.5,315.1,423.5,315.1,423.5"/>
	<path fill="#FFFFFF" d="M315.1,423.5C315.1,423.5,315.1,423.5,315.1,423.5L315.1,423.5c-0.2,0.1-2.5-0.2-4.6-1.3
		c-2.1-1-4.5-0.9-4.5-0.9c-0.1,0-2.4,0.1-4.6,0.9c-2.2,0.9-4.4,1.5-4.5,1.4c0,0,0,0,0,0c-0.1,0,0.3-0.1,0.3-0.1c0,0,0.5-0.1,0.6-0.1
		c0,0.1,2-0.7,4.1-1.5c2-0.8,4.2-0.9,4.2-0.9c-0.1,0,2.2-0.1,4.2,0.8c1.9,1,4.1,1.5,4.1,1.4c0.1,0,0.6,0.1,0.6,0.1
		C314.8,423.4,315.1,423.5,315.1,423.5C315.1,423.5,315.1,423.5,315.1,423.5"/>
	<path fill="#FFFFFF" d="M315.1,423.5C315.1,423.5,315.1,423.5,315.1,423.5L315.1,423.5c-0.2,0.1-2.5-0.2-4.6-1.3
		c-2.1-1-4.5-0.9-4.5-0.9c-0.1,0-2.4,0.1-4.6,0.9c-2.2,0.9-4.4,1.6-4.5,1.4c0,0,0,0,0,0c-0.1,0,0.3-0.1,0.3-0.1c0,0,0.5-0.1,0.6-0.1
		c0,0.1,2-0.7,4.1-1.5c2-0.8,4.2-0.9,4.2-0.9c-0.1,0,2.2-0.1,4.2,0.8c1.9,1,4.1,1.5,4.1,1.4c0.1,0,0.6,0.1,0.6,0.1
		C314.7,423.4,315.1,423.5,315.1,423.5C315.1,423.5,315.1,423.5,315.1,423.5"/>
	<path fill="#FFFFFF" d="M315.1,423.5C315.1,423.5,315.1,423.5,315.1,423.5L315.1,423.5c-0.2,0.1-2.5-0.2-4.6-1.3
		c-2.1-1-4.5-0.9-4.5-0.9c0,0-2.4,0.1-4.6,0.9c-2.2,0.9-4.4,1.6-4.5,1.4c0,0,0,0,0,0c-0.1,0,0.3-0.1,0.3-0.1c0,0,0.5-0.1,0.6-0.1
		c0,0.1,2-0.7,4-1.5c2-0.8,4.2-0.9,4.2-0.9c-0.1,0,2.2-0.1,4.2,0.8c1.9,1,4,1.5,4.1,1.4c0.1,0,0.6,0.1,0.6,0.1
		C314.7,423.4,315.1,423.5,315.1,423.5C315.1,423.5,315.1,423.5,315.1,423.5"/>
	<path fill="#FFFFFF" d="M315.1,423.5C315.1,423.5,315.1,423.5,315.1,423.5L315.1,423.5c-0.1,0.1-2.5-0.2-4.6-1.3
		c-2.1-1-4.5-0.9-4.5-0.9c0,0-2.4,0.1-4.6,1c-2.2,0.9-4.4,1.6-4.5,1.4c0,0,0,0,0,0c0,0,0.3-0.1,0.3-0.1c0,0,0.5-0.1,0.6-0.1
		c0,0.1,2-0.7,4-1.5c2-0.8,4.2-0.9,4.2-0.9c-0.1,0,2.2-0.1,4.2,0.8c1.9,1,4,1.5,4,1.4c0.1,0,0.6,0.1,0.6,0.1
		C314.7,423.4,315.1,423.5,315.1,423.5C315.1,423.5,315.1,423.5,315.1,423.5"/>
	<path fill="#FFFFFF" d="M315.1,423.5C315.1,423.5,315.1,423.5,315.1,423.5L315.1,423.5c-0.1,0.1-2.5-0.2-4.6-1.3
		c-2.1-1.1-4.5-0.9-4.5-0.9c0,0-2.4,0.1-4.6,1c-2.2,0.9-4.4,1.6-4.5,1.4c0,0,0,0,0,0c0,0,0.3-0.1,0.3-0.1c0,0,0.5-0.1,0.6-0.1
		c0,0.1,2-0.7,4-1.5c2-0.8,4.2-0.9,4.1-0.8c-0.1,0,2.2-0.1,4.1,0.8c1.9,1,4,1.5,4,1.4c0.1,0,0.6,0.1,0.6,0.1
		C314.7,423.4,315.1,423.5,315.1,423.5C315,423.5,315.1,423.5,315.1,423.5"/>
	<path fill="#FFFFFF" d="M315.1,423.5C315.1,423.5,315.1,423.5,315.1,423.5L315.1,423.5c-0.1,0.1-2.5-0.2-4.6-1.3
		c-2.1-1.1-4.5-0.9-4.5-0.9c0,0-2.4,0.1-4.6,1c-2.2,0.9-4.4,1.6-4.5,1.4c0,0,0,0,0.1,0c0,0,0.3-0.1,0.3-0.1c0,0,0.5-0.1,0.5-0.1
		c0,0.1,2-0.7,4-1.5c2-0.8,4.2-0.9,4.1-0.8c-0.1,0,2.2-0.1,4.1,0.8c1.9,1,4,1.5,4,1.4c0.1,0,0.6,0.1,0.6,0.1
		C314.7,423.4,315.1,423.5,315.1,423.5C315,423.5,315.1,423.5,315.1,423.5"/>
	<path fill="#FFFFFF" d="M315.1,423.5C315.1,423.5,315.1,423.5,315.1,423.5L315.1,423.5c-0.1,0.1-2.5-0.2-4.6-1.3
		c-2.1-1.1-4.5-0.9-4.5-0.9c0,0-2.4,0.1-4.6,1c-2.2,0.9-4.4,1.6-4.5,1.5c0,0,0,0,0.1,0c0,0,0.4-0.1,0.4-0.1c0,0,0.5-0.1,0.6-0.1
		c0,0.1,2-0.7,4-1.5c2-0.8,4.2-0.9,4.1-0.8c-0.1,0,2.2-0.1,4.1,0.8c1.9,1,4,1.5,4,1.4c0,0,0.6,0.1,0.6,0.1
		C314.7,423.4,315.1,423.5,315.1,423.5C315.1,423.5,315.1,423.5,315.1,423.5"/>
	<path fill="#FFFFFF" d="M315.1,423.5C315.1,423.5,315.1,423.5,315.1,423.5L315.1,423.5c-0.1,0.1-2.5-0.2-4.6-1.3
		c-2.1-1.1-4.5-0.9-4.5-0.9c0,0-2.4,0.1-4.6,1c-2.2,0.9-4.4,1.6-4.5,1.5c0,0,0,0,0.1,0c0,0,0.4-0.1,0.4-0.1c0,0,0.5-0.1,0.5-0.1
		c0,0.1,2-0.7,4-1.5c2-0.8,4.2-0.9,4.1-0.8c-0.1,0,2.2-0.1,4.1,0.8c1.9,1,4,1.5,4,1.4c0,0,0.6,0.1,0.6,0.1
		C314.6,423.4,315,423.5,315.1,423.5C315,423.5,315.1,423.5,315.1,423.5"/>
	<path fill="#FFFFFF" d="M315.1,423.5C315.1,423.5,315.1,423.5,315.1,423.5L315.1,423.5c-0.1,0.1-2.5-0.2-4.6-1.3
		c-2.1-1.1-4.5-1-4.5-0.9c0,0-2.4,0.1-4.6,1c-2.2,0.9-4.4,1.6-4.5,1.5c0,0,0,0,0.1,0c0,0,0.4-0.1,0.4-0.1c0,0,0.5-0.1,0.6-0.1
		c0,0,2-0.7,4-1.5c2-0.8,4.1-0.9,4.1-0.8c0,0,2.1-0.1,4.1,0.8c1.9,1,4,1.5,4,1.4c0,0,0.6,0.1,0.6,0.1
		C314.6,423.4,315,423.5,315.1,423.5C315,423.5,315.1,423.5,315.1,423.5"/>
	<path fill="#FFFFFF" d="M315.1,423.5C315.1,423.5,315.1,423.5,315.1,423.5L315.1,423.5c-0.1,0.1-2.5-0.2-4.6-1.3
		c-2.1-1.1-4.5-1-4.5-0.9c0,0-2.4,0.1-4.6,1c-2.2,0.9-4.4,1.6-4.5,1.5c0,0,0,0,0.1,0c0,0,0.4-0.1,0.4-0.1c0,0,0.5-0.1,0.5-0.1
		c0,0.1,2-0.7,4-1.5c2-0.8,4.1-0.9,4.1-0.8c0,0,2.2-0.1,4.1,0.8c1.9,1,4,1.5,4,1.4c0,0,0.6,0.1,0.6,0.1
		C314.6,423.4,315,423.5,315.1,423.5C315.1,423.5,315.1,423.5,315.1,423.5"/>
	<path fill="#FFFFFF" d="M315.1,423.5C315.1,423.5,315.1,423.5,315.1,423.5L315.1,423.5c-0.1,0.1-2.5-0.2-4.6-1.3
		c-2.1-1.1-4.5-1-4.5-0.9c0,0-2.4,0.1-4.6,1c-2.2,0.9-4.5,1.6-4.5,1.5c0,0,0,0,0.1,0c0,0,0.4-0.1,0.4-0.1c0,0,0.5-0.1,0.5-0.1
		c0,0.1,2-0.7,4-1.5c2-0.8,4.1-0.8,4.1-0.8c0,0,2.2-0.1,4.1,0.8c1.9,1,4,1.5,4,1.4c0,0,0.6,0.1,0.6,0.1
		C314.6,423.4,315,423.5,315.1,423.5C315,423.5,315.1,423.5,315.1,423.5"/>
	<path fill="#FFFFFF" d="M315.1,423.5C315.1,423.5,315.1,423.5,315.1,423.5L315.1,423.5c-0.1,0.1-2.5-0.1-4.6-1.3
		c-2.1-1.1-4.6-1-4.5-1c0,0-2.4,0.1-4.6,1c-2.2,0.9-4.5,1.6-4.5,1.5c0,0,0,0,0.1,0c0,0,0.4-0.1,0.4-0.1c0,0,0.5-0.1,0.5-0.1
		c0,0.1,2-0.7,4-1.5c2-0.8,4.1-0.8,4.1-0.8c0,0,2.1-0.1,4.1,0.8c1.9,1,3.9,1.5,4,1.4c0,0,0.6,0.1,0.6,0.1
		C314.6,423.4,315,423.5,315.1,423.5C315,423.5,315.1,423.5,315.1,423.5"/>
	<path fill="#FFFFFF" d="M315.1,423.5C315.1,423.5,315.1,423.5,315.1,423.5L315.1,423.5c-0.1,0.1-2.5-0.1-4.6-1.3
		c-2.1-1.1-4.6-1-4.5-1c0,0-2.4,0.1-4.6,1c-2.2,0.9-4.5,1.6-4.5,1.5c0,0,0,0,0.1,0c0,0,0.5-0.1,0.5-0.1c0,0,0.5-0.1,0.5-0.1
		c0,0.1,2-0.7,3.9-1.4c2-0.7,4.1-0.8,4.1-0.8c0,0,2.1-0.1,4.1,0.8c1.9,0.9,3.9,1.5,3.9,1.4c0,0,0.6,0.1,0.6,0.1
		C314.5,423.4,315,423.5,315.1,423.5C315,423.5,315.1,423.5,315.1,423.5"/>
	<path fill="#FFFFFF" d="M296.8,423.7C296.8,423.7,296.9,423.7,296.8,423.7c3.1-0.7,5.9-2.5,9.1-2.5c3.3-0.4,5.9,2.2,9.1,2.3
		c0,0,0.1,0,0.1,0c0,0,0,0,0,0l-0.1,0c-3.2,0-5.8-2.6-9.1-2.3C302.7,421.2,300,423.1,296.8,423.7
		C296.9,423.7,296.8,423.7,296.8,423.7"/>
	<path fill="#FFFFFF" d="M319.7,397.8c-0.1,0.4-0.1,4,2.3,6.7c2.1,2.7,5.3,4.3,5.3,4.3c0.5,0.2,0.9,0.4,0.8,0.5
		c0,0.1-0.4-0.1-0.9-0.3c0,0-3.7-1.5-6.1-4.6c-2.6-3-2.4-7.2-2.4-6.6c0,0.6-0.1-3.5,2.2-6.7c2.1-3.2,5.6-5.2,5.6-5.2
		c0.4-0.3,0.8-0.5,0.8-0.5c0,0-0.3,0.3-0.7,0.6c0,0-2.9,1.9-4.7,4.9C319.7,393.7,319.6,397.4,319.7,397.8"/>
	<path fill="#FFFFFF" d="M326.4,386C326.4,386,326.4,386,326.4,386l-0.1,0.1c-0.5,0.4-3.3,2.4-5,5.3c-1.8,2.8-1.8,6.1-1.7,6.4
		c-0.1,0.4-0.1,4,2.3,6.7c2.1,2.7,5.3,4.3,5.3,4.3l0.1,0.1c0.4,0.2,0.7,0.3,0.7,0.4c0,0-0.4-0.1-0.9-0.3c0,0-3.7-1.5-6.1-4.6
		c-2.6-3-2.4-7.2-2.4-6.6c0,0.5-0.1-3.5,2.2-6.7c2.1-3.2,5.6-5.2,5.5-5.2c0.4-0.3,0.8-0.5,0.8-0.5c0,0-0.2,0.3-0.6,0.5L326.4,386z"
		/>
	<path fill="#FFFFFF" d="M326.4,386C326.4,386,326.4,386,326.4,386l-0.1,0.1c-0.5,0.4-3.3,2.4-5,5.3c-1.8,2.8-1.8,6.1-1.7,6.5
		c-0.1,0.4-0.1,4,2.3,6.7c2.2,2.7,5.3,4.3,5.3,4.3l0.1,0.1c0.4,0.2,0.6,0.3,0.6,0.4c0,0-0.5-0.1-0.9-0.3c0,0-3.6-1.5-6-4.6
		c-2.6-3-2.4-7.1-2.4-6.6c0,0.5-0.1-3.4,2.2-6.6c2.1-3.2,5.5-5.2,5.5-5.2c0.4-0.3,0.8-0.5,0.8-0.5c0,0-0.2,0.2-0.5,0.5L326.4,386z"
		/>
	<path fill="#FFFFFF" d="M326.4,386C326.4,386,326.4,386,326.4,386l-0.1,0.1c-0.5,0.4-3.3,2.4-5,5.3c-1.8,2.8-1.8,6.1-1.8,6.5
		c-0.1,0.3-0.1,4,2.3,6.7c2.1,2.7,5.3,4.3,5.3,4.3l0.1,0.1c0.4,0.2,0.6,0.3,0.6,0.3c0,0-0.5-0.1-0.9-0.3c0,0-3.6-1.5-6-4.6
		c-2.6-3-2.4-7.1-2.4-6.6c0,0.5-0.1-3.4,2.2-6.6c2.1-3.2,5.5-5.2,5.4-5.2c0.4-0.3,0.8-0.5,0.8-0.5
		C327.1,385.5,326.9,385.7,326.4,386L326.4,386z"/>
	<path fill="#FFFFFF" d="M326.4,386C326.4,386,326.4,386,326.4,386l-0.1,0.1c-0.5,0.4-3.3,2.4-5,5.2c-1.8,2.8-1.8,6.1-1.8,6.5
		c-0.1,0.3-0.1,4,2.3,6.7c2.2,2.8,5.3,4.3,5.3,4.3l0.1,0.1c0.4,0.2,0.6,0.3,0.5,0.3c0,0-0.5-0.1-0.9-0.3c0,0-3.6-1.5-6-4.5
		c-2.6-3-2.4-7.1-2.4-6.5c0,0.5-0.1-3.4,2.1-6.6c2.1-3.2,5.4-5.2,5.4-5.2c0.4-0.3,0.8-0.5,0.8-0.5C327,385.5,326.9,385.7,326.4,386
		L326.4,386z"/>
	<path fill="#FFFFFF" d="M326.4,386C326.4,386,326.4,386,326.4,386l-0.1,0.1c-0.4,0.3-3.3,2.4-5,5.2c-1.8,2.8-1.8,6.2-1.8,6.5
		c-0.1,0.3-0.1,4,2.3,6.7c2.2,2.8,5.4,4.3,5.3,4.3l0.1,0.1c0.3,0.2,0.5,0.3,0.5,0.3c0,0-0.5-0.1-0.9-0.3c0,0-3.6-1.5-5.9-4.5
		c-2.6-3-2.4-7-2.3-6.5c0,0.5-0.1-3.4,2.1-6.6c2-3.2,5.4-5.2,5.4-5.2c0.4-0.3,0.8-0.5,0.8-0.5C327,385.5,326.9,385.7,326.4,386
		L326.4,386z"/>
	<path fill="#FFFFFF" d="M326.4,386C326.4,386,326.4,386,326.4,386l-0.1,0.1c-0.4,0.3-3.3,2.4-5,5.2c-1.8,2.8-1.8,6.2-1.8,6.5
		c-0.1,0.3-0.1,4,2.3,6.7c2.2,2.8,5.4,4.3,5.4,4.3l0.1,0c0.3,0.2,0.5,0.3,0.5,0.3c0,0-0.5-0.1-0.9-0.3c0,0-3.5-1.5-5.9-4.5
		c-2.5-2.9-2.3-7-2.3-6.5c0,0.5-0.1-3.4,2.1-6.6c2-3.2,5.4-5.2,5.3-5.2c0.4-0.3,0.8-0.5,0.8-0.5C327,385.6,326.8,385.7,326.4,386
		L326.4,386z"/>
	<path fill="#FFFFFF" d="M326.4,386C326.4,386,326.4,386,326.4,386l-0.1,0.1c-0.4,0.3-3.3,2.3-5,5.2c-1.8,2.8-1.8,6.2-1.8,6.5
		c-0.1,0.3-0.1,4,2.3,6.7c2.2,2.8,5.4,4.3,5.4,4.3c0,0,0.1,0,0.1,0c0.3,0.2,0.4,0.2,0.4,0.3c0,0-0.5-0.1-0.9-0.3
		c0,0-3.5-1.5-5.8-4.5c-2.5-2.9-2.3-7-2.3-6.5c0,0.4-0.1-3.4,2.1-6.6c2-3.2,5.3-5.1,5.3-5.1c0.3-0.3,0.8-0.5,0.8-0.5
		C326.9,385.6,326.8,385.7,326.4,386L326.4,386z"/>
	<path fill="#FFFFFF" d="M326.4,386C326.4,386,326.4,386,326.4,386l-0.1,0.1c-0.4,0.3-3.3,2.3-5,5.2c-1.8,2.9-1.8,6.2-1.8,6.5
		c-0.1,0.3-0.1,4,2.3,6.7c2.2,2.8,5.4,4.3,5.4,4.3c0,0,0.1,0,0.1,0c0.3,0.2,0.4,0.2,0.4,0.2c0,0-0.5-0.2-0.9-0.3
		c0,0-3.5-1.5-5.8-4.5c-2.5-2.9-2.3-6.9-2.3-6.5c0,0.4-0.1-3.4,2.1-6.5c2-3.2,5.3-5.1,5.2-5.1c0.3-0.2,0.8-0.5,0.8-0.5
		C326.9,385.6,326.8,385.7,326.4,386C326.5,385.9,326.5,385.9,326.4,386"/>
	<path fill="#FFFFFF" d="M326.5,386C326.5,386,326.4,386,326.5,386L326.5,386c-0.5,0.4-3.4,2.4-5.1,5.3c-1.8,2.9-1.8,6.3-1.8,6.5
		c-0.1,0.3-0.1,4,2.3,6.7c2.2,2.8,5.4,4.3,5.4,4.3c0,0,0,0,0.1,0c0.3,0.1,0.4,0.2,0.3,0.2c0,0-0.5-0.2-0.9-0.3c0,0-3.5-1.5-5.7-4.5
		c-2.5-2.9-2.3-6.9-2.3-6.5c0,0.4-0.1-3.4,2.1-6.5c2-3.2,5.3-5.1,5.2-5.1c0.3-0.2,0.8-0.5,0.8-0.5
		C326.8,385.6,326.8,385.7,326.5,386C326.5,385.9,326.5,385.9,326.5,386"/>
	<path fill="#FFFFFF" d="M326.5,386C326.5,386,326.4,386,326.5,386L326.5,386c-0.5,0.4-3.4,2.4-5.1,5.3c-1.9,2.9-1.9,6.3-1.8,6.5
		c-0.1,0.3-0.1,4,2.3,6.7c2.2,2.8,5.4,4.3,5.4,4.3c0,0,0,0,0.1,0c0.3,0.1,0.3,0.2,0.3,0.2c0,0-0.5-0.2-0.9-0.4c0,0-3.5-1.5-5.7-4.5
		c-2.5-2.9-2.3-6.9-2.3-6.4c0,0.4-0.1-3.4,2.1-6.5c2-3.1,5.2-5.1,5.2-5.1c0.3-0.2,0.8-0.5,0.8-0.5
		C326.8,385.7,326.8,385.7,326.5,386C326.5,385.9,326.5,385.9,326.5,386"/>
	<path fill="#FFFFFF" d="M326.5,385.9C326.5,385.9,326.4,386,326.5,385.9L326.5,385.9c-0.4,0.4-3.4,2.4-5.1,5.3
		c-1.9,2.9-1.9,6.3-1.8,6.5c-0.1,0.2-0.1,4,2.3,6.7c2.2,2.8,5.4,4.3,5.4,4.3c0,0,0,0,0.1,0c0.3,0.1,0.3,0.2,0.3,0.2
		c0,0-0.5-0.2-0.9-0.4c0,0-3.4-1.6-5.7-4.5c-2.4-2.9-2.3-6.8-2.2-6.4c0,0.4-0.1-3.4,2-6.5c1.9-3.1,5.2-5.1,5.1-5.1
		c0.3-0.2,0.8-0.5,0.8-0.5C326.7,385.7,326.8,385.7,326.5,385.9C326.5,385.9,326.5,385.9,326.5,385.9"/>
	<path fill="#FFFFFF" d="M326.5,385.9C326.5,385.9,326.4,386,326.5,385.9L326.5,385.9c-0.4,0.3-3.4,2.4-5.1,5.3
		c-1.9,2.9-1.9,6.3-1.9,6.6c-0.1,0.2-0.1,4,2.3,6.7c2.2,2.8,5.5,4.3,5.4,4.3c0,0,0,0,0,0c0.3,0.1,0.2,0.1,0.2,0.2
		c0,0-0.6-0.2-0.9-0.4c0,0-3.4-1.6-5.6-4.5c-2.4-2.9-2.3-6.8-2.2-6.4c0,0.4,0-3.4,2-6.5c1.9-3.1,5.1-5.1,5.1-5.1
		c0.3-0.2,0.8-0.5,0.8-0.5C326.7,385.7,326.7,385.7,326.5,385.9C326.5,385.9,326.5,385.9,326.5,385.9"/>
	<path fill="#FFFFFF" d="M326.5,385.9C326.5,385.9,326.4,386,326.5,385.9L326.5,385.9c-0.4,0.3-3.4,2.3-5.1,5.3
		c-1.9,2.9-1.9,6.3-1.9,6.6c-0.1,0.2-0.1,4,2.3,6.7c2.2,2.8,5.5,4.3,5.5,4.3c0,0,0,0,0,0c0.3,0.1,0.2,0.1,0.2,0.1
		c0,0-0.6-0.2-0.9-0.4c0,0-3.4-1.6-5.6-4.5c-2.4-2.9-2.2-6.8-2.2-6.4c0,0.3,0-3.4,2-6.5c1.9-3.1,5.1-5.1,5.1-5.1
		c0.3-0.2,0.8-0.5,0.8-0.5C326.7,385.8,326.7,385.7,326.5,385.9C326.5,385.9,326.5,385.9,326.5,385.9"/>
	<path fill="#FFFFFF" d="M326.5,385.9C326.5,385.9,326.4,385.9,326.5,385.9L326.5,385.9c-0.4,0.3-3.3,2.3-5.1,5.3
		c-1.9,2.9-1.9,6.4-1.9,6.6c-0.1,0.2-0.1,4,2.3,6.7c2.2,2.8,5.5,4.3,5.5,4.3c0,0,0,0,0,0c0.2,0.1,0.1,0.1,0.1,0.1
		c0,0-0.6-0.2-0.9-0.4c0,0-3.4-1.6-5.6-4.5c-2.4-2.9-2.2-6.7-2.2-6.4c0,0.3-0.1-3.4,2-6.5c1.9-3.1,5.1-5,5-5.1
		c0.3-0.2,0.8-0.5,0.8-0.5C326.6,385.8,326.7,385.7,326.5,385.9C326.5,385.9,326.5,385.9,326.5,385.9"/>
	<path fill="#FFFFFF" d="M326.5,385.9C326.5,385.9,326.5,385.9,326.5,385.9L326.5,385.9c-0.4,0.3-3.3,2.3-5.1,5.2
		c-1.9,2.9-1.9,6.4-1.9,6.6c-0.1,0.2-0.1,4,2.3,6.7c2.2,2.8,5.5,4.3,5.5,4.3c0,0,0,0,0,0c0.2,0.1,0.1,0.1,0.1,0.1
		c0,0-0.6-0.2-0.8-0.4c0,0-3.3-1.6-5.5-4.5c-2.4-2.9-2.2-6.7-2.2-6.4c0,0.3,0-3.4,2-6.4c1.9-3.1,5-5,5-5c0.2-0.2,0.8-0.5,0.8-0.5
		C326.6,385.8,326.7,385.8,326.5,385.9C326.5,385.9,326.5,385.9,326.5,385.9"/>
	<path fill="#FFFFFF" d="M326.5,385.9C326.5,385.9,326.5,385.9,326.5,385.9L326.5,385.9c-0.4,0.3-3.3,2.3-5.1,5.2
		c-1.9,2.9-1.9,6.4-1.9,6.6c-0.1,0.2-0.1,4,2.3,6.7c2.2,2.8,5.5,4.3,5.5,4.3c0,0,0,0,0,0c0.2,0.1,0.1,0.1,0.1,0.1
		c0,0-0.6-0.2-0.8-0.4c0,0-3.3-1.6-5.5-4.4c-2.3-2.8-2.2-6.7-2.2-6.3c0,0.3,0-3.4,2-6.4c1.9-3.1,5-5,4.9-5c0.2-0.2,0.8-0.5,0.8-0.5
		C326.5,385.8,326.7,385.8,326.5,385.9C326.5,385.9,326.5,385.9,326.5,385.9"/>
	<path fill="#FFFFFF" d="M326.5,385.9C326.5,385.9,326.5,385.9,326.5,385.9L326.5,385.9c-0.3,0.3-3.3,2.3-5.1,5.2
		c-1.9,2.9-1.9,6.4-1.9,6.6c-0.1,0.2-0.1,4,2.3,6.7c2.2,2.8,5.5,4.3,5.5,4.4c0,0,0,0,0,0c0.2,0.1,0,0,0,0.1c0,0-0.6-0.2-0.8-0.4
		c0,0-3.3-1.6-5.4-4.4c-2.3-2.8-2.2-6.6-2.1-6.3c0,0.3,0-3.4,2-6.4c1.8-3.1,4.9-5,4.9-5C325.9,386.2,326.5,385.8,326.5,385.9
		C326.5,385.9,326.7,385.8,326.5,385.9C326.5,385.9,326.5,385.9,326.5,385.9"/>
	<path fill="#FFFFFF" d="M326.5,385.9C326.5,385.9,326.5,385.9,326.5,385.9L326.5,385.9c-0.3,0.3-3.3,2.3-5.2,5.2
		c-1.9,2.9-1.9,6.5-1.9,6.6c-0.1,0.1-0.1,4,2.3,6.7c2.2,2.8,5.5,4.3,5.5,4.4c0,0,0,0,0,0c0.2,0.1,0,0,0,0c0,0-0.6-0.3-0.8-0.4
		c0,0-3.3-1.6-5.4-4.4c-2.3-2.8-2.2-6.6-2.1-6.3c0,0.3,0-3.4,1.9-6.4c1.8-3,4.9-5,4.9-5C325.9,386.2,326.4,385.9,326.5,385.9
		C326.4,385.9,326.6,385.8,326.5,385.9C326.5,385.9,326.5,385.9,326.5,385.9"/>
	<path fill="#FFFFFF" d="M326.5,385.9C326.5,385.9,326.5,385.9,326.5,385.9L326.5,385.9c-0.3,0.3-3.3,2.3-5.2,5.2
		c-2,2.9-2,6.5-1.9,6.6c-0.1,0.1-0.1,3.9,2.3,6.7c2.2,2.8,5.5,4.4,5.5,4.4c0,0,0,0,0,0c0.2,0.1-0.1,0-0.1,0c0,0-0.6-0.3-0.8-0.4
		c0,0-3.2-1.6-5.4-4.4c-2.3-2.8-2.1-6.6-2.1-6.3c0,0.3,0-3.4,1.9-6.4c1.8-3,4.9-5,4.8-5C325.8,386.3,326.4,385.9,326.5,385.9
		C326.4,385.9,326.6,385.8,326.5,385.9C326.5,385.9,326.5,385.9,326.5,385.9"/>
	<path fill="#FFFFFF" d="M326.5,385.9C326.5,385.9,326.5,385.9,326.5,385.9L326.5,385.9c-0.3,0.3-3.3,2.2-5.2,5.2
		c-2,2.9-2,6.5-2,6.6c-0.1,0.1-0.1,3.9,2.3,6.7c2.2,2.8,5.6,4.4,5.6,4.4c0,0,0,0,0,0c0.2,0.1-0.1,0-0.1,0c0,0-0.6-0.3-0.8-0.4
		c0,0-3.2-1.6-5.3-4.4c-2.3-2.8-2.1-6.6-2.1-6.3c0,0.2,0-3.4,1.9-6.4c1.8-3,4.8-5,4.8-5c0.2-0.1,0.7-0.5,0.8-0.5
		C326.4,385.9,326.6,385.8,326.5,385.9C326.5,385.9,326.5,385.9,326.5,385.9"/>
	<path fill="#FFFFFF" d="M326.5,385.9C326.5,385.9,326.5,385.9,326.5,385.9L326.5,385.9c-0.3,0.2-3.3,2.2-5.2,5.2c-2,3-2,6.5-2,6.7
		c-0.1,0.1-0.1,3.9,2.3,6.7c2.2,2.8,5.6,4.4,5.6,4.4c0,0,0,0,0,0c0.2,0.1-0.1,0-0.1,0c0,0-0.6-0.3-0.8-0.4c0,0-3.2-1.6-5.3-4.4
		c-2.2-2.8-2.1-6.5-2.1-6.3c0,0.2,0-3.4,1.9-6.3c1.8-3,4.8-5,4.8-5c0.2-0.1,0.7-0.5,0.8-0.5C326.3,386,326.6,385.8,326.5,385.9
		C326.5,385.9,326.5,385.9,326.5,385.9"/>
	<path fill="#FFFFFF" d="M326.5,385.9C326.5,385.9,326.5,385.9,326.5,385.9L326.5,385.9c-0.3,0.2-3.3,2.2-5.2,5.2c-2,3-2,6.6-2,6.7
		c-0.1,0.1-0.1,3.9,2.3,6.7c2.2,2.8,5.6,4.4,5.6,4.4c0,0,0,0,0,0c0.2,0.1-0.2-0.1-0.2-0.1c0,0-0.7-0.3-0.8-0.4c0,0-3.2-1.6-5.2-4.4
		c-2.2-2.8-2.1-6.5-2.1-6.2c0,0.2,0-3.4,1.9-6.3c1.8-3,4.8-4.9,4.7-4.9c0.2-0.1,0.7-0.5,0.7-0.5C326.3,386,326.6,385.8,326.5,385.9
		C326.5,385.9,326.5,385.9,326.5,385.9"/>
	<path fill="#FFFFFF" d="M326.5,385.9C326.5,385.9,326.5,385.9,326.5,385.9L326.5,385.9c-0.2,0.2-3.3,2.2-5.2,5.2c-2,3-2,6.6-2,6.7
		c-0.1,0.1-0.1,3.9,2.3,6.7c2.2,2.8,5.6,4.4,5.6,4.4c0,0,0,0,0,0c0.1,0.1-0.2-0.1-0.2-0.1c0,0-0.7-0.3-0.8-0.4c0,0-3.1-1.6-5.2-4.4
		c-2.2-2.8-2.1-6.5-2-6.2c0,0.2,0-3.4,1.9-6.3c1.8-3,4.7-4.9,4.7-4.9c0.1-0.1,0.7-0.5,0.7-0.5C326.2,386,326.6,385.8,326.5,385.9
		C326.5,385.9,326.5,385.9,326.5,385.9"/>
	<path fill="#FFFFFF" d="M326.5,385.9C326.5,385.9,326.5,385.9,326.5,385.9L326.5,385.9c-0.2,0.2-3.3,2.2-5.2,5.2c-2,3-2,6.6-2,6.7
		c-0.1,0.1-0.1,3.9,2.3,6.7c2.2,2.8,5.6,4.4,5.6,4.4c0,0,0,0,0,0c0.1,0.1-0.3-0.1-0.3-0.1c0,0-0.7-0.3-0.8-0.4c0,0-3.1-1.6-5.2-4.4
		c-2.2-2.8-2.1-6.4-2-6.2c0,0.2,0-3.4,1.9-6.3c1.7-3,4.7-4.9,4.6-4.9c0.1-0.1,0.7-0.5,0.7-0.5C326.2,386.1,326.5,385.8,326.5,385.9
		C326.5,385.9,326.5,385.9,326.5,385.9"/>
	<path fill="#FFFFFF" d="M326.5,385.9C326.5,385.9,326.5,385.9,326.5,385.9L326.5,385.9c-0.2,0.2-3.3,2.2-5.2,5.2c-2,3-2,6.6-2,6.7
		c-0.1,0.1-0.1,3.9,2.3,6.7c2.2,2.8,5.6,4.4,5.6,4.4c0,0,0,0-0.1,0c0.1,0.1-0.3-0.1-0.3-0.1c0,0-0.7-0.3-0.8-0.4
		c0,0-3.1-1.6-5.1-4.4c-2.2-2.7-2.1-6.4-2-6.2c0,0.2,0-3.4,1.8-6.3c1.7-3,4.6-4.9,4.6-4.9c0.1-0.1,0.7-0.5,0.7-0.5
		C326.1,386.1,326.5,385.8,326.5,385.9C326.5,385.9,326.5,385.9,326.5,385.9"/>
	<path fill="#FFFFFF" d="M326.5,385.9C326.5,385.9,326.5,385.9,326.5,385.9L326.5,385.9c-0.2,0.2-3.3,2.2-5.2,5.2c-2,3-2,6.7-2,6.7
		c-0.1,0-0.1,3.9,2.3,6.7c2.3,2.8,5.6,4.4,5.7,4.4c0,0,0,0-0.1,0c0.1,0-0.3-0.2-0.3-0.2c0,0-0.7-0.3-0.8-0.4c0,0-3.1-1.6-5.1-4.4
		c-2.2-2.7-2-6.4-2-6.2c0,0.2,0-3.4,1.8-6.3c1.7-2.9,4.6-4.9,4.6-4.9c0.1-0.1,0.7-0.5,0.7-0.5C326.1,386.1,326.5,385.8,326.5,385.9
		C326.4,385.9,326.5,385.9,326.5,385.9"/>
	<path fill="#FFFFFF" d="M326.5,385.9C326.5,385.9,326.5,385.9,326.5,385.9L326.5,385.9c-0.2,0.2-3.3,2.2-5.2,5.2
		c-2,3-2.1,6.7-2,6.7c-0.1,0-0.1,3.9,2.3,6.7c2.3,2.9,5.7,4.4,5.7,4.4c0,0,0,0-0.1,0c0.1,0-0.4-0.2-0.4-0.2c0,0-0.7-0.3-0.8-0.4
		c0,0-3.1-1.6-5-4.3c-2.1-2.7-2-6.3-2-6.2c0,0.1,0-3.4,1.8-6.3c1.7-2.9,4.6-4.9,4.5-4.9c0.1-0.1,0.7-0.5,0.7-0.5
		C326.1,386.1,326.5,385.8,326.5,385.9C326.4,385.9,326.5,385.9,326.5,385.9"/>
	<path fill="#FFFFFF" d="M326.5,385.9C326.5,385.9,326.5,385.9,326.5,385.9L326.5,385.9c-0.2,0.2-3.3,2.1-5.2,5.2
		c-2.1,3-2.1,6.7-2,6.7c-0.1,0-0.1,3.9,2.3,6.7c2.3,2.9,5.7,4.4,5.7,4.4c0,0,0,0-0.1,0c0.1,0-0.4-0.2-0.4-0.2c0,0-0.7-0.4-0.8-0.4
		c0,0-3-1.6-5-4.3c-2.1-2.7-2-6.3-2-6.2c0,0.1,0-3.4,1.8-6.2c1.7-2.9,4.5-4.9,4.5-4.9c0.1-0.1,0.7-0.5,0.7-0.5
		C326,386.2,326.5,385.9,326.5,385.9C326.4,385.9,326.5,385.9,326.5,385.9"/>
	<path fill="#FFFFFF" d="M326.5,385.9C326.5,385.9,326.5,385.9,326.5,385.9L326.5,385.9c-0.1,0.1-3.3,2.1-5.2,5.1
		c-2.1,3-2.1,6.7-2.1,6.8c-0.1,0-0.1,3.9,2.3,6.7c2.3,2.9,5.7,4.4,5.7,4.4c0,0,0,0-0.1,0c0.1,0-0.5-0.2-0.5-0.2c0,0-0.7-0.4-0.8-0.4
		c0,0-3-1.6-5-4.3c-2.1-2.7-2-6.3-2-6.1c0,0.1,0-3.4,1.8-6.2c1.7-2.9,4.5-4.8,4.5-4.8c0.1-0.1,0.7-0.5,0.7-0.5
		C326,386.2,326.5,385.9,326.5,385.9C326.4,385.9,326.5,385.9,326.5,385.9"/>
	<path fill="#FFFFFF" d="M326.5,385.9C326.5,385.9,326.5,385.9,326.5,385.9L326.5,385.9c-0.1,0.1-3.2,2.1-5.2,5.1
		c-2.1,3-2.1,6.8-2.1,6.8c-0.1,0-0.1,3.9,2.3,6.7c2.3,2.9,5.7,4.4,5.7,4.4c0,0,0,0-0.1,0c0,0-0.5-0.2-0.5-0.2c0,0-0.7-0.4-0.8-0.4
		c0,0-3-1.6-4.9-4.3c-2.1-2.7-2-6.2-1.9-6.1c0,0.1,0-3.4,1.8-6.2c1.7-2.9,4.5-4.8,4.4-4.8c0.1,0,0.7-0.5,0.7-0.5
		C325.9,386.2,326.4,385.9,326.5,385.9C326.4,385.9,326.5,385.9,326.5,385.9"/>
	<path fill="#FFFFFF" d="M326.5,385.9C326.5,385.9,326.5,385.9,326.5,385.9L326.5,385.9c-0.1,0.1-3.2,2.1-5.2,5.1
		c-2.1,3-2.1,6.8-2.1,6.8c-0.1,0-0.1,3.9,2.3,6.7c2.3,2.9,5.7,4.4,5.7,4.4c0,0,0,0-0.1,0c0,0-0.5-0.3-0.5-0.3c0,0-0.7-0.4-0.8-0.4
		c0,0-3-1.6-4.9-4.3c-2.1-2.7-2-6.2-1.9-6.1c0,0.1,0-3.3,1.7-6.2c1.6-2.9,4.4-4.8,4.4-4.8c0,0,0.7-0.5,0.7-0.5
		C325.9,386.2,326.4,385.9,326.5,385.9C326.4,385.9,326.5,385.8,326.5,385.9"/>
	<path fill="#FFFFFF" d="M326.5,385.9C326.5,385.9,326.5,385.9,326.5,385.9L326.5,385.9c-0.1,0.1-3.2,2.1-5.2,5.1
		c-2.1,3-2.1,6.8-2.1,6.8c-0.1,0-0.1,3.9,2.4,6.7c2.3,2.9,5.7,4.4,5.7,4.4c0,0,0,0-0.1,0c0,0-0.6-0.3-0.6-0.3c0,0-0.7-0.4-0.8-0.4
		c0,0-2.9-1.6-4.8-4.3c-2.1-2.7-1.9-6.2-1.9-6.1c0,0.1,0-3.3,1.7-6.2c1.6-2.9,4.4-4.8,4.4-4.8c0,0,0.7-0.5,0.7-0.5
		C325.9,386.3,326.4,385.9,326.5,385.9C326.4,385.9,326.5,385.8,326.5,385.9"/>
	<path fill="#FFFFFF" d="M326.5,385.9C326.5,385.9,326.5,385.9,326.5,385.9L326.5,385.9c-0.1,0.1-3.2,2.1-5.2,5.1
		c-2.1,3-2.1,6.8-2.1,6.8c-0.1-0.1-0.1,3.9,2.4,6.7c2.3,2.9,5.7,4.4,5.8,4.4c0,0,0,0-0.1,0c0,0-0.6-0.3-0.6-0.3c0,0-0.8-0.4-0.8-0.4
		c0,0-2.9-1.6-4.8-4.3c-2-2.7-1.9-6.1-1.9-6.1c0,0.1,0-3.3,1.7-6.2c1.6-2.8,4.3-4.8,4.3-4.8c0,0,0.7-0.5,0.7-0.5
		c0,0,0.6-0.4,0.6-0.4C326.4,385.9,326.5,385.8,326.5,385.9"/>
	<path fill="#FFFFFF" d="M327.3,408.9c0,0-0.1,0-0.1,0c-4.2-2-8.3-6.1-8-11.1c-0.1-5,3.3-9.2,7.3-11.9c0.1,0,0.1-0.1,0.1-0.1
		c0,0,0,0,0,0l-0.1,0.1c-4,2.6-7.3,6.9-7.3,11.8C318.9,402.8,322.9,406.8,327.3,408.9C327.2,408.8,327.3,408.9,327.3,408.9"/>
	<path fill="#FFFFFF" d="M327.2,413.4c0,0,1.1-2.6,1.3-4.4l-0.4,0.2c0,0-1,2.5-1.7,3.6L327.2,413.4z"/>
	<path fill="#FFFFFF" d="M313.5,374.5c2.1-2.5,3.5-6.1,3.1-9.6c-3,0.1-6.7,2-8.8,4.6c-1.9,2.2-3.6,5.8-3.2,9.3
		C308,379.1,311.4,377.1,313.5,374.5"/>
	<path fill="#FFFFFF" d="M313.5,374.5c2.1-2.5,3.5-6.1,3.1-9.6c-3,0.1-6.7,2-8.8,4.6c-1.9,2.2-3.6,5.8-3.2,9.3
		C308,379.1,311.4,377.1,313.5,374.5"/>
	<path fill="#FFFFFF" d="M305.1,376.8c-0.1-0.8-0.2-1.5-0.1-2.3c-0.3,1.2-0.4,2.5-0.2,3.7c3.4,0.2,6.8-1.9,8.8-4.5
		c0.1-0.1,0.2-0.2,0.2-0.3C311.4,375.6,308.2,377,305.1,376.8"/>
	<path fill="#FFFFFF" d="M313.5,374.5c2.1-2.5,3.5-6.1,3.1-9.6c-3,0.1-6.7,2-8.8,4.6c-1.9,2.2-3.6,5.8-3.2,9.3
		C308,379.1,311.4,377.1,313.5,374.5"/>
</g>
<g>
	<defs>
		<path id="SVGID_7_" d="M308.5,369.9c-1.4,1.2-2.7,3-3.5,5c0,0.6,0,1.3,0.1,1.9c3.7,0.2,7.5-1.9,10-4.6c0.9-1.7,1.5-3.7,1.6-5.7
			C313.9,366.6,310.6,368,308.5,369.9"/>
	</defs>
	<use xlink:href="#SVGID_7_"  overflow="visible" fill="#FFFFFF"/>
	<clipPath id="SVGID_8_">
		<use xlink:href="#SVGID_7_"  overflow="visible"/>
	</clipPath>
	
		<rect x="303" y="364.2" transform="matrix(-0.8375 -0.5464 0.5464 -0.8375 367.9842 852.962)" clip-path="url(#SVGID_8_)" fill="#FFFFFF" width="15.6" height="15.2"/>
</g>
<g>
	<path fill="#FFFFFF" d="M313.5,374.5c2.1-2.5,3.5-6.1,3.1-9.6c-3,0.1-6.7,2-8.8,4.6c-1.9,2.2-3.6,5.8-3.2,9.3
		C308,379.1,311.4,377.1,313.5,374.5"/>
</g>
</svg>
