<?xml version="1.0" encoding="utf-8"?>
<!-- Generator: Adobe Illustrator 18.1.1, SVG Export Plug-In . SVG Version: 6.00 Build 0)  -->
<svg version="1.1" id="Layer_1" xmlns="http://www.w3.org/2000/svg" xmlns:xlink="http://www.w3.org/1999/xlink" x="0px" y="0px"
	 viewBox="0 0 20 20" enable-background="new 0 0 20 20" xml:space="preserve">
<g>
	<circle fill="#922A8E" cx="10" cy="10" r="10"/>
</g>
<path fill="#FFFFFF" d="M13.1,11.8L13.1,11.8c-0.3,0.3-0.6,0.5-1,0.5c-0.5,0-0.9-0.4-0.9-0.8c0-0.4,0.2-0.7,0.7-1c0,0,0.1,0,0.1,0
	l1.1,1.1C13.1,11.7,13.1,11.7,13.1,11.8C13.1,11.7,13.1,11.7,13.1,11.8C13.1,11.8,13.1,11.8,13.1,11.8z M12.4,8.1
	c0.4,0,0.5,0.2,0.5,0.5c0,0.3-0.3,0.5-0.7,0.8l0,0c0,0-0.1,0-0.1,0c0,0,0,0,0,0c-0.2-0.2-0.4-0.5-0.4-0.7C11.8,8.4,12,8.1,12.4,8.1z
	 M15.3,12.8l-1-1.1c0,0,0-0.1,0-0.1c0,0,0.8-1.3,0.8-1.3c0,0,0-0.1,0-0.1c0-0.1-0.1-0.2-0.2-0.2h-0.6c-0.1,0-0.1,0-0.1,0.1l-0.5,0.9
	c0,0-0.1,0-0.1,0c0,0-0.8-0.8-0.8-0.8c0,0,0,0,0-0.1c0,0,0,0,0-0.1l0,0c0.5-0.3,1-0.7,1-1.4c0-0.8-0.6-1.3-1.4-1.3
	c-0.8,0-1.5,0.6-1.5,1.4c0,0.4,0.2,0.7,0.5,1.1c0,0,0,0,0,0c0,0,0,0,0,0.1c0,0,0,0,0,0.1c-0.7,0.4-1,0.9-1,1.6
	c0,1.1,0.9,1.7,1.8,1.7c0.6,0,1.1-0.2,1.6-0.8c0,0,0,0,0,0c0,0,0.1,0,0.1,0l0.6,0.6c0,0,0,0,0,0c0,0,0.1,0.1,0.1,0.1h0.7
	c0.1,0,0.2-0.1,0.2-0.2C15.4,12.8,15.3,12.8,15.3,12.8L15.3,12.8z M9.6,12.3C9.6,12.3,9.6,12.3,9.6,12.3c-0.9,0-1.3-0.4-1.3-1.3V8.4
	c0,0,0-0.1,0.1-0.1h1.3c0.1,0,0.2-0.1,0.2-0.2V7.6c0-0.1-0.1-0.2-0.2-0.2H8.4c0,0-0.1,0-0.1-0.1V6.2C8.3,6.1,8.2,6,8.2,6h0L7.5,6.1
	c-0.1,0-0.2,0.1-0.2,0.2v1.1c0,0,0,0.1-0.1,0.1l-0.8,0c-0.1,0-0.2,0.1-0.2,0.2l0,0.6c0,0,0,0.1,0,0.1c0,0,0.1,0,0.1,0h0.8
	c0,0,0.1,0,0.1,0.1l0,2.8c0,1.5,1.1,2,2.1,2c0,0,0.1,0,0.2,0c0.1,0,0.2-0.1,0.2-0.2v-0.5C9.8,12.4,9.7,12.3,9.6,12.3z M4.8,10.7
	c-0.1,0.9-0.6,1.5-1.5,1.6c-0.6,0.1-1.1-0.1-1.2-0.8c0-0.7,0.8-1.3,2.3-1.2c0,0,0.1,0,0.2,0c0.1,0,0.1,0,0.1,0.1
	C4.8,10.4,4.9,10.4,4.8,10.7z M5.8,12.8c-0.1-0.1-0.1-0.3-0.1-0.4c0-0.1,0-0.3,0-0.3l0-2.7c0-1.4-1-2-2-2C3,7.5,2.3,7.6,1.9,7.9
	C1.9,8,1.8,8,1.8,8c0,0,0,0.1,0,0.1c0,0,0.4,0.5,0.4,0.5c0,0.1,0.1,0.1,0.2,0c0,0,0,0,0,0c0.3-0.2,0.8-0.3,1.2-0.3
	c1.2,0,1.1,0.9,1.1,1c0,0.1,0,0.1-0.1,0.1l-0.2,0c-0.9,0-3.2,0.3-3.2,2.1c0,1.1,0.9,1.6,1.7,1.6c0.8,0,1.5-0.3,1.8-0.7l0,0
	c0,0,0,0,0,0c0,0,0,0,0,0c0,0.1,0,0.2,0,0.3c0,0.1,0,0.2,0,0.2c0,0,0,0.1,0.1,0.1c0,0,0,0,0.1,0c0,0,0.7,0,0.7,0
	C5.8,13,5.9,13,5.8,12.8C5.9,12.9,5.8,12.8,5.8,12.8z M18.5,12.3C18.5,12.3,18.4,12.3,18.5,12.3c-0.9,0-1.3-0.4-1.3-1.3V8.4
	c0,0,0-0.1,0.1-0.1h1.3c0.1,0,0.2-0.1,0.2-0.2V7.6c0-0.1-0.1-0.2-0.2-0.2h-1.3c0,0-0.1,0-0.1-0.1V6.2C17.2,6.1,17.1,6,17,6h0
	c0,0-0.7,0.1-0.7,0.1c-0.1,0-0.2,0.1-0.2,0.2v1.1c0,0,0,0.1-0.1,0.1l-0.8,0c-0.1,0-0.2,0.1-0.2,0.2l0,0.6c0,0,0,0.1,0,0.1
	c0,0,0.1,0,0.1,0h0.8c0,0,0.1,0,0.1,0.1v2.8c0,1.5,1.1,2,2.1,2c0,0,0.1,0,0.2,0c0.1,0,0.2-0.1,0.2-0.2l0-0.5
	C18.6,12.4,18.5,12.3,18.5,12.3z"/>
</svg>
