<?xml version="1.0" encoding="utf-8"?>
<!-- Generator: Adobe Illustrator 18.1.1, SVG Export Plug-In . SVG Version: 6.00 Build 0)  -->
<svg version="1.1" id="Layer_1" xmlns="http://www.w3.org/2000/svg" xmlns:xlink="http://www.w3.org/1999/xlink" x="0px" y="0px"
	 viewBox="0 0 72 72" enable-background="new 0 0 72 72" xml:space="preserve">
<g>
	<circle fill="#047080" cx="36" cy="36" r="35.6"/>
	<g>
		<path fill="#FFFFFF" d="M54.1,29.4c-0.8,0-1.4,0.6-1.4,1.4v8.3c0,2.1-1.5,3.9-3.6,4.2c-0.4-1.2-2.1-2-4.3-2h-6.4l0.1-0.8
			c0-0.4,0.1-0.7,0.1-1h6.3c3.2,0,5.5-2.6,5.3-5.7l-1.9-23C47.8,7.6,45,5,41.9,5H30.4c-3.2,0-5.9,2.6-6.2,5.7l-1.9,23
			c-0.3,3.1,2.1,5.7,5.3,5.7h6.3c0,0.3,0,0.7,0.1,1l0.1,0.8h-6.4c-2.3,0-3.9,0.8-4.3,2c-2-0.4-3.6-2.1-3.6-4.2v-8.3
			c0-0.8-0.6-1.4-1.4-1.4c-0.8,0-1.4,0.6-1.4,1.4V39c0,3.9,3.2,7.2,7.2,7.2h0.4c1.4,1.2,3.8,2.1,6.1,2.1h4.2l0.8,7.6h-3.8
			c-3.5,0-6.9,2-7.8,4.5l-1.1,2.9c-0.8,0.1-1.4,0.6-1.4,1.3c0,0.7,0.8,1.4,1.8,1.4c1,0,1.8-0.6,1.8-1.4c0-0.4-0.3-0.8-0.6-1l1-2.8
			c0.7-1.9,3.7-3.5,6.5-3.5h3.8v6.1c-0.6,0.2-1,0.7-1,1.2c0,0.7,0.8,1.4,1.8,1.4c1,0,1.8-0.6,1.8-1.4c0-0.5-0.4-1-1-1.2v-6.1h3.8
			c2.8,0,5.8,1.6,6.5,3.5l1,2.8c-0.4,0.3-0.6,0.6-0.6,1c0,0.7,0.8,1.4,1.8,1.4c1,0,1.8-0.6,1.8-1.4c0-0.7-0.6-1.2-1.4-1.3l-1.1-2.9
			c-0.9-2.5-4.4-4.5-7.8-4.5h-3.8l0.8-7.6h4.2c2.3,0,4.7-0.9,6.1-2.1h0.4c3.9,0,7.2-3.2,7.2-7.2v-8.3C55.5,30,54.8,29.4,54.1,29.4
			L54.1,29.4z M29.2,15.7h13.9c0.4,0,0.7,0.3,0.7,0.7c0,0.4-0.3,0.7-0.7,0.7H29.2c-0.4,0-0.7-0.3-0.7-0.7
			C28.5,16,28.8,15.7,29.2,15.7L29.2,15.7z M29.2,20h13.9c0.4,0,0.7,0.3,0.7,0.7c0,0.4-0.3,0.7-0.7,0.7H29.2c-0.4,0-0.7-0.3-0.7-0.7
			C28.5,20.4,28.8,20,29.2,20L29.2,20z M29.2,25.8c-0.4,0-0.7-0.3-0.7-0.7c0-0.4,0.3-0.7,0.7-0.7h13.9c0.4,0,0.7,0.3,0.7,0.7
			c0,0.4-0.3,0.7-0.7,0.7H29.2z"/>
	</g>
</g>
</svg>
