<?xml version="1.0" encoding="utf-8"?>
<!-- Generator: Adobe Illustrator 18.1.1, SVG Export Plug-In . SVG Version: 6.00 Build 0)  -->
<svg version="1.1" id="Layer_1" xmlns="http://www.w3.org/2000/svg" xmlns:xlink="http://www.w3.org/1999/xlink" x="0px" y="0px"
	 viewBox="0 0 20 20" enable-background="new 0 0 20 20" xml:space="preserve">
<g>
	<circle fill="#922A8E" cx="10" cy="10" r="10"/>
</g>
<path fill="#FFFFFF" d="M6.5,3.7c-0.4,0-0.8,0-1.2,0.1C3.7,4.2,2.5,5.1,1.8,6.2C1.1,7.3,0.9,8.6,1.3,10c0.6,2.3,2.4,3.7,4.8,3.7
	c0.5,0,1-0.1,1.5-0.2c1.9-0.5,3-1.6,3.4-2.6L8.5,9.5c-0.3,0.6-0.8,1-1.4,1.2c-0.2,0-0.4,0.1-0.6,0.1c-1,0-1.7-0.6-1.9-1.6
	C4.2,7.8,5.1,6.9,6.1,6.6c0.2,0,0.4-0.1,0.5-0.1c0.7,0,1.4,0.4,2,1.1c0.3-0.4,1.1-1.4,2.4-2C10.6,5.3,8.8,3.7,6.5,3.7"/>
<path fill="#FFFFFF" d="M9.1,14c0.5,0.5,2.2,1.9,4.5,1.9h0c0.5,0,0.9-0.1,1.4-0.2c1.5-0.4,2.7-1.3,3.4-2.5c0.6-1.1,0.8-2.4,0.4-3.7
	c-0.6-2.2-2.5-3.6-4.8-3.6c-0.6,0-1.2,0.1-1.7,0.2c-1.9,0.5-3,1.7-3.3,2.7l2.6,1.4c0.3-0.6,0.8-1,1.4-1.2c0.2-0.1,0.4-0.1,0.6-0.1
	c0.9,0,1.6,0.6,1.9,1.5c0.4,1.4-0.4,2.3-1.4,2.5C13.8,13,13.6,13,13.4,13c-0.7,0-1.4-0.4-2-1.1C11.1,12.4,10.3,13.4,9.1,14"/>
</svg>
