<?xml version="1.0" encoding="utf-8"?>
<!-- Generator: Adobe Illustrator 18.1.1, SVG Export Plug-In . SVG Version: 6.00 Build 0)  -->
<svg version="1.1" id="Layer_1" xmlns="http://www.w3.org/2000/svg" xmlns:xlink="http://www.w3.org/1999/xlink" x="0px" y="0px"
	 viewBox="126 0 72 72" enable-background="new 126 0 72 72" xml:space="preserve">
<g>
	<circle fill="#009444" cx="162" cy="36" r="35.6"/>
	<ellipse fill="#FFFFFF" cx="157.5" cy="36.6" rx="6.4" ry="8.7"/>
	<path d="M188.9,37.2c0,4.3-0.1,8.6,0,12.9c0,2.4-1.2,4.1-3.6,5c-1.7,0.6-3.5,1-5.4,1c-1,0-1.9,0-2.9,0c-1.6,0-1.4,0.2-1.4-1.3
		c0-1.3,0-1.3,1.3-1.3c1.2,0,2.5,0,3.7,0c1.6,0,2.9-0.7,4.3-1c0.5-0.1,0.8-0.6,1.1-1c0.2-0.2,0.2-0.7,0.1-1c-0.2-0.4-0.6-0.1-0.8,0
		c-1.1,0.2-2.2,0.7-3.3,0.7c-0.8,0-1.7,0.4-2.5,0.4c-0.8,0.1-1.7,0-2.4,0c-1.2,0-2.1-1.3-1.4-2.4c0.1-0.1,0.4-0.2,0.5-0.2
		c0.8,0,1.8,0,2.7,0c1.9,0,3.7-0.5,5.7-1c0.5-0.1,1.1-0.4,1.4-0.7c0.2-0.2,0.2-0.7,0.4-1.2c-0.4-0.1-0.6-0.2-1-0.2
		c-0.2,0-0.5,0-0.6,0c-2.8,1.6-5.7,0.6-8.6,0.8c-0.1,0-0.5-0.2-0.5-0.5c-0.1-0.5,0-1.1,0-1.6c0-0.5,0.2-0.7,0.6-0.6
		c0.7,0.1,1.7-0.4,2.3,0.5c0.7-0.2,1.4-0.6,2.3-0.5c1.2,0.2,2.3-0.1,3.4-0.5c0.8-0.4,1.7-0.7,2.2-1.7c0.1-0.2,0-0.6-0.1-0.8
		c0-0.1-0.5-0.2-0.6-0.1c-2.4,1.2-4.8,1.4-7.5,1.3c-0.2,0-0.6,0-0.8,0c-0.5,0-1.2,0.1-1.4-0.1s-0.1-1-0.2-1.4c0-0.2-0.1-0.5-0.2-0.6
		c-0.2-0.4-0.2-0.5,0.1-0.5c1.2,0,2.4-0.1,3.5,0c1.6,0.2,3-0.5,4.5-0.5c0.8,0,1.6-0.7,2.4-1.2c0.2-0.1,0.2-0.5,0.2-0.7
		c0.1-0.5-0.4-0.8-0.6-0.6c-0.6,0.7-1.4,0.1-2.1,0.6c-0.7,0.6-1.4,0-2.1,0.4c-0.8,0.5-1.9,0.6-2.7,0.4c-1.3-0.6-2.7-0.5-4-0.5
		c-0.7,0-1.3-0.4-1.9-0.7c-1-0.7-1.9-1.2-3.1-1.6c-0.5-0.1-0.8-0.4-1.2-0.7c-0.2-0.2-0.5-0.6-0.4-1c0-0.5,0.4-1.1,0.4-1.6
		c0-0.5-0.4-1-0.4-1.3c0-1.1-0.2-2.3,0.4-3.4c0.4-0.6,0.4-1.9,0-2.4c-0.8-1.1-0.1-1.8,0.1-2.5s1.1-1.2,1.7-1.8
		c1-0.8,2.3-1.1,3.5-1.2c2.2-0.2,4.5-1,6.6-0.5c2.1,0.5,4.1,0.5,6,1.6c1.6,1,2.5,2.2,2.5,4.1C188.8,28.6,188.9,33,188.9,37.2z
		 M178.4,35C178.4,35,178.4,35.2,178.4,35c1.2-0.1,2.4-0.4,3.6-0.4c1.3-0.1,2.4-0.4,3.5-1.2c0.5-0.4,0.8-0.5,0.7-1.1
		c-0.1-0.8-0.8-0.5-1.2-0.4c-1,0.2-1.8,0.7-2.8,0.8c-2.5,0.1-5.1,0-7.5,0c-0.2,0-0.4-0.2-0.6-0.2c-1-0.2-2.1-0.5-3.1-0.6
		c-0.1,0-0.4,0.5-0.4,0.6c0.6,0.6,1.1,1.3,1.7,1.6c1.4,0.5,3,0.4,4.5,1C177.3,35.2,177.9,35,178.4,35z M178.4,30.2
		c0.8,0,1.8,0,2.7,0c0.8-0.1,1.8-0.2,2.7-0.5c1.1-0.1,1.8-0.8,2.4-1.6c0.1-0.1,0.1-0.6,0-0.8c-0.1-0.1-0.5-0.2-0.7-0.1
		c-1.9,0.8-3.9,1.1-5.9,1.2c-1.6,0.1-3.1,0.1-4.7-0.4c-1.1-0.2-2.2-0.5-3.3-0.7c-0.4-0.1-0.7-0.4-0.8,0c-0.1,0.2-0.1,0.7,0.1,1
		c0.2,0.4,0.7,0.8,1.1,1c1.4,0.4,2.9,1.2,4.5,1C177.1,30.1,177.7,30.2,178.4,30.2z M171.1,23c-0.1,1,0.1,1.3,1.1,0.8
		c1.9-0.8,4-1.1,6.2-1.2c0.6,0,1-0.4,1.2-0.7c0.1-0.2-0.1-0.7-0.1-1c-0.6,0.2-0.8-0.8-1.6-0.4c-0.4,0.2-0.8,0.4-1.2,0.2
		c-1.3-0.2-2.5,0.4-3.7,0.5C171.7,21.4,171.2,22.1,171.1,23z"/>
	<path fill="#FFFFFF" d="M157,24.2c6.4,0,12.9,0,19.3,0c1.8,0,2.3,0.5,2.3,2.3c0,1.1,0,2.2,0,3.4c0,1.1-0.1,2.2-0.2,3.3
		c-0.8-0.4-1.7-0.8-2.7-1.2c-0.2-0.1-0.5-0.1-0.6-0.1c-1.1,0.6-1.8-0.1-2.4-0.7c-1.1-1.1-2.3-2.1-2.2-3.7c0-0.1-0.2-0.4-0.5-0.4
		c-0.5,0-0.8,0-1.3,0c-7.9,0-15.7,0-23.6,0c-0.6,0-1.2,0-1.7,0.1c-0.7,0.2-0.4,1-0.6,1.4c-1,2.3-1.6,2.8-4.2,3.6
		c-0.7,0.2-1.1,0.6-1.1,1.3c0,1.2,0,2.4,0,3.5c0,0.7-0.2,1.4,0.1,1.9c0.1,0.2,1.1,0.1,1.6,0.4c1.9,0.7,3,1.8,3.7,4
		c0.5,1.3,0.5,1.3,1.6,1.3c3.6,0,7.2,0,10.9,0c4.5,0,8.9,0,13.4,0c0.6,0,1.3,0.2,1.9-0.2c0,0,0.2-0.1,0.4,0c1,0.7,1.9,1.6,2.8,2.4
		c0.1,0.1,0.2,0.4,0.4,0.5c-0.2,0-0.4,0.1-0.6,0.1c-8,0-16.1,0-24,0c-4.1,0-8.2,0-12.2,0c-1.6,0-2.2-0.6-2.2-2.2
		c0-6.3,0-12.4,0-18.7c0-1.7,0.6-2.3,2.4-2.3C144,24.2,150.5,24.2,157,24.2z"/>
	<path stroke="#009444" stroke-width="3.5636" stroke-miterlimit="10" d="M152.3,48.3c0-2.2,0.1-4.5,0-6.6c-0.1-1.4,0.6-2.4,1.8-3
		c1.9-1.1,4.1-1.8,6.4-1.8c1.3,0,2.7,0,4,0c2.1,0,4.1,0.6,6.4,1.8c1.3,0.7,2.1,1.4,2.1,3.1c-0.1,4.3-0.1,8.7,0,13.2
		c0.1,1.9-1,3-2.3,3.7c-1.4,0.8-3,1.3-4.8,1.3c-0.8,0-1.8,0.2-2.7,0.5c-1.2,0.2-2.3-0.5-3.4-0.4c-1.2,0.1-2.3-0.4-3.4-0.6
		c-1.6-0.4-2.8-1.3-3.7-2.7c-0.2-0.2-0.2-0.8-0.2-1.2C152.3,53.2,152.3,50.7,152.3,48.3z M162.4,57.9c1.6,0.1,3.1-0.7,4.7-0.6
		c0.6,0.1,1.3-0.5,2.1-0.8c1.1-0.5,1.2-0.7,1.1-1.8c0-0.5-0.1-0.4-0.5-0.2c-1.2,0.5-2.3,1-3.5,1.1c-2.4,0.1-4.8,0.1-7.4,0
		c-1.1-0.1-2.3-0.6-3.3-1.1c-0.4-0.1-0.5-0.2-0.5,0.2c-0.1,1.2,0.2,1.8,1.7,2.2c0.8,0.2,1.7,0.6,2.7,0.5
		C160.4,57.3,161.4,57.6,162.4,57.9z M162.2,48.4c1.2,0,2.1,0.1,2.8,0c1.7-0.1,3.3-0.7,4.7-1.4c0.5-0.2,0.6-0.8,0.5-1.3
		c-0.1-0.2-0.8-0.4-1.1-0.2c-1.1,0.6-2.2,0.8-3.4,0.8c-1.2,0-2.4,0.7-3.6,0.4c-1.9-0.6-4.1-0.1-5.9-1.3c-0.2-0.1-0.8,0-1,0.2
		c-0.1,0.2-0.1,0.8,0,1c0.4,0.5,0.8,0.8,1.6,1.1C158.6,48.2,160.6,48.6,162.2,48.4z M162.5,52.9c1,0,1.8,0,2.7,0
		c1-0.1,1.9-0.2,2.9-0.5c0.5-0.1,1-0.5,1.4-0.7c0.6-0.4,1-1.1,0.7-1.7c-0.1-0.1-0.5-0.2-0.5-0.2c-1.4,1.1-3.3,0.5-4.8,1.3
		c-3,0.1-6,0-8.9-1.1c-0.2-0.1-0.6-0.2-0.7-0.1c-0.4,0.1-0.2,1.6,0.2,1.7c0.8,0.2,1.6,0.7,2.5,1C159.5,53,161,52.8,162.5,52.9z
		 M161.3,38.7c0-0.1,0-0.1,0-0.2c-1.2,0.4-2.4,0.7-3.6,1c-0.8,0.1-1.4,0.5-2.1,0.8c-0.5,0.4-0.6,1-0.2,1.4c0.4,0.5,0.6,0.5,1.2,0.1
		c1.3-0.7,2.8-1.1,4.2-1.1c0.6,0,1.2,0,1.8,0s1-0.6,1-1.2s-0.4-1-1-1C162.1,38.5,161.8,38.7,161.3,38.7z"/>
	<path fill="#FFFFFF" d="M152.3,48.3c0-2.2,0.1-4.5,0-6.6c-0.1-1.4,0.6-2.4,1.8-3c1.9-1.1,4.1-1.8,6.4-1.8c1.3,0,2.7,0,4,0
		c2.1,0,4.1,0.6,6.4,1.8c1.3,0.7,2.1,1.4,2.1,3.1c-0.1,4.3-0.1,8.7,0,13.2c0.1,1.9-1,3-2.3,3.7c-1.4,0.8-3,1.3-4.8,1.3
		c-0.8,0-1.8,0.2-2.7,0.5c-1.2,0.2-2.3-0.5-3.4-0.4c-1.2,0.1-2.3-0.4-3.4-0.6c-1.6-0.4-2.8-1.3-3.7-2.7c-0.2-0.2-0.2-0.8-0.2-1.2
		C152.3,53.2,152.3,50.7,152.3,48.3z M162.4,57.9c1.6,0.1,3.1-0.7,4.7-0.6c0.6,0.1,1.3-0.5,2.1-0.8c1.1-0.5,1.2-0.7,1.1-1.8
		c0-0.5-0.1-0.4-0.5-0.2c-1.2,0.5-2.3,1-3.5,1.1c-2.4,0.1-4.8,0.1-7.4,0c-1.1-0.1-2.3-0.6-3.3-1.1c-0.4-0.1-0.5-0.2-0.5,0.2
		c-0.1,1.2,0.2,1.8,1.7,2.2c0.8,0.2,1.7,0.6,2.7,0.5C160.4,57.3,161.4,57.6,162.4,57.9z M162.2,48.4c1.2,0,2.1,0.1,2.8,0
		c1.7-0.1,3.3-0.7,4.7-1.4c0.5-0.2,0.6-0.8,0.5-1.3c-0.1-0.2-0.8-0.4-1.1-0.2c-1.1,0.6-2.2,0.8-3.4,0.8c-1.2,0-2.4,0.7-3.6,0.4
		c-1.9-0.6-4.1-0.1-5.9-1.3c-0.2-0.1-0.8,0-1,0.2c-0.1,0.2-0.1,0.8,0,1c0.4,0.5,0.8,0.8,1.6,1.1C158.6,48.2,160.6,48.6,162.2,48.4z
		 M162.5,52.9c1,0,1.8,0,2.7,0c1-0.1,1.9-0.2,2.9-0.5c0.5-0.1,1-0.5,1.4-0.7c0.6-0.4,1-1.1,0.7-1.7c-0.1-0.1-0.5-0.2-0.5-0.2
		c-1.4,1.1-3.3,0.5-4.8,1.3c-3,0.1-6,0-8.9-1.1c-0.2-0.1-0.6-0.2-0.7-0.1c-0.4,0.1-0.2,1.6,0.2,1.7c0.8,0.2,1.6,0.7,2.5,1
		C159.5,53,161,52.8,162.5,52.9z M161.3,38.7c0-0.1,0-0.1,0-0.2c-1.2,0.4-2.4,0.7-3.6,1c-0.8,0.1-1.4,0.5-2.1,0.8
		c-0.5,0.4-0.6,1-0.2,1.4c0.4,0.5,0.6,0.5,1.2,0.1c1.3-0.7,2.8-1.1,4.2-1.1c0.6,0,1.2,0,1.8,0s1-0.6,1-1.2s-0.4-1-1-1
		C162.1,38.5,161.8,38.7,161.3,38.7z"/>
	<path fill="#FFFFFF" d="M160.9,20.5c6.3,0,12.4,0,18.7,0c0.5,0,0.8,0,1.3,0c1.1,0,1.4,0.4,1.4,1.4c0,3.1,0,6.3,0,9.3
		c0,0.1-0.5,0.5-0.8,0.5c-1.3,0.4-1.3,0.4-1.3-0.8c0-1.6-0.1-3.3,0-4.8c0.1-1.1-0.4-1.8-1.1-2.5c-0.7-0.5-1.4-0.7-2.4-0.7
		c-11.8,0-23.6,0-35.4,0c-0.4,0-0.7,0-1.1,0c-0.5-0.1-1.2,0.4-1.2-0.7c0-1.1,0.4-1.4,1.3-1.4C147.3,20.5,154.1,20.5,160.9,20.5z"/>
	<path stroke="#009444" stroke-width="4.4546" stroke-miterlimit="10" d="M188.9,37.2c0,4.3-0.1,8.6,0,12.9c0,2.4-1.2,4.1-3.6,5
		c-1.7,0.6-3.5,1-5.4,1c-1,0-1.9,0-2.9,0c-1.6,0-1.4,0.2-1.4-1.3c0-1.3,0-1.3,1.3-1.3c1.2,0,2.5,0,3.7,0c1.6,0,2.9-0.7,4.3-1
		c0.5-0.1,0.8-0.6,1.1-1c0.2-0.2,0.2-0.7,0.1-1c-0.2-0.4-0.6-0.1-0.8,0c-1.1,0.2-2.2,0.7-3.3,0.7c-0.8,0-1.7,0.4-2.5,0.4
		c-0.8,0.1-1.7,0-2.4,0c-1.2,0-2.1-1.3-1.4-2.4c0.1-0.1,0.4-0.2,0.5-0.2c0.8,0,1.8,0,2.7,0c1.9,0,3.7-0.5,5.7-1
		c0.5-0.1,1.1-0.4,1.4-0.7c0.2-0.2,0.2-0.7,0.4-1.2c-0.4-0.1-0.6-0.2-1-0.2c-0.2,0-0.5,0-0.6,0c-2.8,1.6-5.7,0.6-8.6,0.8
		c-0.1,0-0.5-0.2-0.5-0.5c-0.1-0.5,0-1.1,0-1.6c0-0.5,0.2-0.7,0.6-0.6c0.7,0.1,1.7-0.4,2.3,0.5c0.7-0.2,1.4-0.6,2.3-0.5
		c1.2,0.2,2.3-0.1,3.4-0.5c0.8-0.4,1.7-0.7,2.2-1.7c0.1-0.2,0-0.6-0.1-0.8c0-0.1-0.5-0.2-0.6-0.1c-2.4,1.2-4.8,1.4-7.5,1.3
		c-0.2,0-0.6,0-0.8,0c-0.5,0-1.2,0.1-1.4-0.1s-0.1-1-0.2-1.4c0-0.2-0.1-0.5-0.2-0.6c-0.2-0.4-0.2-0.5,0.1-0.5c1.2,0,2.4-0.1,3.5,0
		c1.6,0.2,3-0.5,4.5-0.5c0.8,0,1.6-0.7,2.4-1.2c0.2-0.1,0.2-0.5,0.2-0.7c0.1-0.5-0.4-0.8-0.6-0.6c-0.6,0.7-1.4,0.1-2.1,0.6
		c-0.7,0.6-1.4,0-2.1,0.4c-0.8,0.5-1.9,0.6-2.7,0.4c-1.3-0.6-2.7-0.5-4-0.5c-0.7,0-1.3-0.4-1.9-0.7c-1-0.7-1.9-1.2-3.1-1.6
		c-0.5-0.1-0.8-0.4-1.2-0.7c-0.2-0.2-0.5-0.6-0.4-1c0-0.5,0.4-1.1,0.4-1.6c0-0.5-0.4-1-0.4-1.3c0-1.1-0.2-2.3,0.4-3.4
		c0.4-0.6,0.4-1.9,0-2.4c-0.8-1.1-0.1-1.8,0.1-2.5s1.1-1.2,1.7-1.8c1-0.8,2.3-1.1,3.5-1.2c2.2-0.2,4.5-1,6.6-0.5
		c2.1,0.5,4.1,0.5,6,1.6c1.6,1,2.5,2.2,2.5,4.1C188.8,28.6,188.9,33,188.9,37.2z M178.4,35C178.4,35,178.4,35.2,178.4,35
		c1.2-0.1,2.4-0.4,3.6-0.4c1.3-0.1,2.4-0.4,3.5-1.2c0.5-0.4,0.8-0.5,0.7-1.1c-0.1-0.8-0.8-0.5-1.2-0.4c-1,0.2-1.8,0.7-2.8,0.8
		c-2.5,0.1-5.1,0-7.5,0c-0.2,0-0.4-0.2-0.6-0.2c-1-0.2-2.1-0.5-3.1-0.6c-0.1,0-0.4,0.5-0.4,0.6c0.6,0.6,1.1,1.3,1.7,1.6
		c1.4,0.5,3,0.4,4.5,1C177.3,35.2,177.9,35,178.4,35z M178.4,30.2c0.8,0,1.8,0,2.7,0c0.8-0.1,1.8-0.2,2.7-0.5
		c1.1-0.1,1.8-0.8,2.4-1.6c0.1-0.1,0.1-0.6,0-0.8c-0.1-0.1-0.5-0.2-0.7-0.1c-1.9,0.8-3.9,1.1-5.9,1.2c-1.6,0.1-3.1,0.1-4.7-0.4
		c-1.1-0.2-2.2-0.5-3.3-0.7c-0.4-0.1-0.7-0.4-0.8,0c-0.1,0.2-0.1,0.7,0.1,1c0.2,0.4,0.7,0.8,1.1,1c1.4,0.4,2.9,1.2,4.5,1
		C177.1,30.1,177.7,30.2,178.4,30.2z M171.1,23c-0.1,1,0.1,1.3,1.1,0.8c1.9-0.8,4-1.1,6.2-1.2c0.6,0,1-0.4,1.2-0.7
		c0.1-0.2-0.1-0.7-0.1-1c-0.6,0.2-0.8-0.8-1.6-0.4c-0.4,0.2-0.8,0.4-1.2,0.2c-1.3-0.2-2.5,0.4-3.7,0.5
		C171.7,21.4,171.2,22.1,171.1,23z"/>
	<path fill="#FFFFFF" d="M188.9,37.2c0,4.3-0.1,8.6,0,12.9c0,2.4-1.2,4.1-3.6,5c-1.7,0.6-3.5,1-5.4,1c-1,0-1.9,0-2.9,0
		c-1.6,0-1.4,0.2-1.4-1.3c0-1.3,0-1.3,1.3-1.3c1.2,0,2.5,0,3.7,0c1.6,0,2.9-0.7,4.3-1c0.5-0.1,0.8-0.6,1.1-1c0.2-0.2,0.2-0.7,0.1-1
		c-0.2-0.4-0.6-0.1-0.8,0c-1.1,0.2-2.2,0.7-3.3,0.7c-0.8,0-1.7,0.4-2.5,0.4c-0.8,0.1-1.7,0-2.4,0c-1.2,0-2.1-1.3-1.4-2.4
		c0.1-0.1,0.4-0.2,0.5-0.2c0.8,0,1.8,0,2.7,0c1.9,0,3.7-0.5,5.7-1c0.5-0.1,1.1-0.4,1.4-0.7c0.2-0.2,0.2-0.7,0.4-1.2
		c-0.4-0.1-0.6-0.2-1-0.2c-0.2,0-0.5,0-0.6,0c-2.8,1.6-5.7,0.6-8.6,0.8c-0.1,0-0.5-0.2-0.5-0.5c-0.1-0.5,0-1.1,0-1.6
		c0-0.5,0.2-0.7,0.6-0.6c0.7,0.1,1.7-0.4,2.3,0.5c0.7-0.2,1.4-0.6,2.3-0.5c1.2,0.2,2.3-0.1,3.4-0.5c0.8-0.4,1.7-0.7,2.2-1.7
		c0.1-0.2,0-0.6-0.1-0.8c0-0.1-0.5-0.2-0.6-0.1c-2.4,1.2-4.8,1.4-7.5,1.3c-0.2,0-0.6,0-0.8,0c-0.5,0-1.2,0.1-1.4-0.1s-0.1-1-0.2-1.4
		c0-0.2-0.1-0.5-0.2-0.6c-0.2-0.4-0.2-0.5,0.1-0.5c1.2,0,2.4-0.1,3.5,0c1.6,0.2,3-0.5,4.5-0.5c0.8,0,1.6-0.7,2.4-1.2
		c0.2-0.1,0.2-0.5,0.2-0.7c0.1-0.5-0.4-0.8-0.6-0.6c-0.6,0.7-1.4,0.1-2.1,0.6c-0.7,0.6-1.4,0-2.1,0.4c-0.8,0.5-1.9,0.6-2.7,0.4
		c-1.3-0.6-2.7-0.5-4-0.5c-0.7,0-1.3-0.4-1.9-0.7c-1-0.7-1.9-1.2-3.1-1.6c-0.5-0.1-0.8-0.4-1.2-0.7c-0.2-0.2-0.5-0.6-0.4-1
		c0-0.5,0.4-1.1,0.4-1.6c0-0.5-0.4-1-0.4-1.3c0-1.1-0.2-2.3,0.4-3.4c0.4-0.6,0.4-1.9,0-2.4c-0.8-1.1-0.1-1.8,0.1-2.5
		s1.1-1.2,1.7-1.8c1-0.8,2.3-1.1,3.5-1.2c2.2-0.2,4.5-1,6.6-0.5c2.1,0.5,4.1,0.5,6,1.6c1.6,1,2.5,2.2,2.5,4.1
		C188.8,28.6,188.9,33,188.9,37.2z M178.4,35C178.4,35,178.4,35.2,178.4,35c1.2-0.1,2.4-0.4,3.6-0.4c1.3-0.1,2.4-0.4,3.5-1.2
		c0.5-0.4,0.8-0.5,0.7-1.1c-0.1-0.8-0.8-0.5-1.2-0.4c-1,0.2-1.8,0.7-2.8,0.8c-2.5,0.1-5.1,0-7.5,0c-0.2,0-0.4-0.2-0.6-0.2
		c-1-0.2-2.1-0.5-3.1-0.6c-0.1,0-0.4,0.5-0.4,0.6c0.6,0.6,1.1,1.3,1.7,1.6c1.4,0.5,3,0.4,4.5,1C177.3,35.2,177.9,35,178.4,35z
		 M178.4,30.2c0.8,0,1.8,0,2.7,0c0.8-0.1,1.8-0.2,2.7-0.5c1.1-0.1,1.8-0.8,2.4-1.6c0.1-0.1,0.1-0.6,0-0.8c-0.1-0.1-0.5-0.2-0.7-0.1
		c-1.9,0.8-3.9,1.1-5.9,1.2c-1.6,0.1-3.1,0.1-4.7-0.4c-1.1-0.2-2.2-0.5-3.3-0.7c-0.4-0.1-0.7-0.4-0.8,0c-0.1,0.2-0.1,0.7,0.1,1
		c0.2,0.4,0.7,0.8,1.1,1c1.4,0.4,2.9,1.2,4.5,1C177.1,30.1,177.7,30.2,178.4,30.2z M171.1,23c-0.1,1,0.1,1.3,1.1,0.8
		c1.9-0.8,4-1.1,6.2-1.2c0.6,0,1-0.4,1.2-0.7c0.1-0.2-0.1-0.7-0.1-1c-0.6,0.2-0.8-0.8-1.6-0.4c-0.4,0.2-0.8,0.4-1.2,0.2
		c-1.3-0.2-2.5,0.4-3.7,0.5C171.7,21.4,171.2,22.1,171.1,23z"/>
</g>
</svg>
