<?xml version="1.0" encoding="utf-8"?>
<!-- Generator: Adobe Illustrator 18.1.1, SVG Export Plug-In . SVG Version: 6.00 Build 0)  -->
<svg version="1.1" id="Layer_1" xmlns="http://www.w3.org/2000/svg" xmlns:xlink="http://www.w3.org/1999/xlink" x="0px" y="0px"
	 viewBox="0 0 72 72" enable-background="new 0 0 72 72" xml:space="preserve">
<g>
	<circle fill="#1BAB98" cx="36" cy="36" r="35.6"/>
	<path fill="#FFFFFF" d="M54.8,55.4c1.7-0.6,1.5-2.1,1.5-3.3c0-11.6,0-23.3,0-34.9c0-0.4-0.1-0.7-0.1-1.3c-0.8,0.3-1.6,0.3-2.2,0.5
		c-0.8,0.4-0.8,1.2-0.7,2.1c0,11.5,0,23,0,34.5C53.1,54.3,53.6,55,54.8,55.4z"/>
	<g>
		<path fill="#FFFFFF" d="M61,37c0-5.8,0-11.5,0-17.3c0-1.2-0.1-2.3-1.5-3c-1.8,0.6-1.7,1.9-1.7,3.3c0,10.7,0,21.3,0,31.9
			c0,1,0.1,1.8,0,2.8c-0.5,2.8-2.4,3.8-4.7,2.4c-1.1-0.6-1.3-1.7-1.5-2.7c-0.3-0.8,0-1.8,0-2.8c0-11.4,0-22.9,0-34.3
			c0-2.4-0.4-2.9-2.5-2.9c-11.4,0-22.9,0-34.3,0c-2.2,0-2.5,0.5-2.5,2.8c0,12.5,0,25,0,37.4c0,3.6,2.4,6.3,6.1,6.3
			c12.2,0,24.5,0,36.6,0c0.8,0,1.6-0.1,2.5-0.5c2.7-1.5,3.5-3.8,3.6-6.4C61.1,48.2,61,42.7,61,37z M17.1,57.6
			c-0.7-0.7-1.2-1.2-1.8-1.8c0-12.7,0-25.4,0-38.2c10.9,0,21.8,0,32.8,0c0,0.8,0.1,1.8,0.1,2.9c0,10.3,0,20.7,0,31
			c0,1.9,0.3,4,0.5,6.1C38.4,57.6,27.8,57.6,17.1,57.6z"/>
		<path fill="#FFFFFF" d="M44.4,43.4c0-0.7,0-1.3,0-2.1c-8.6,0-17.2,0-25.8,0c0,0.7,0,1.3,0,2.1C27.1,43.4,35.6,43.4,44.4,43.4z"/>
		<path fill="#FFFFFF" d="M44.4,36.4c-1,0-1.8,0-2.7,0c-6.8,0-13.6,0-20.5,0c-1.5,0-2.5,0.3-2.9,2.3c8.9,0,17.5,0,26.1,0
			C44.4,37.9,44.4,37.3,44.4,36.4z"/>
		<path fill="#FFFFFF" d="M18.4,48.1c8.6,0,17.2,0,25.9,0c0-0.5,0-0.8,0-1.3c-8.6,0-17.2,0-25.9,0C18.4,47.3,18.4,47.6,18.4,48.1z"
			/>
		<path fill="#FFFFFF" d="M18.4,52.8c2.7,0,5.2,0,7.8,0c0-0.7,0-1.3,0-2.1c-2.7,0-5.1,0-7.8,0C18.4,51.5,18.4,52.1,18.4,52.8z"/>
		<g>
			<path fill="#FFFFFF" d="M19.8,24.6l0.6,8.5h-1.2v-9.5l-0.6-2h2.8l2.2,6.4L23,21.7h1.2v11.4h-1.7L19.8,24.6z"/>
			<path fill="#FFFFFF" d="M27.4,32.1l2.6-0.7v1.7h-5.1V21.8h4.9v1.7l-2.4-0.7v2.5l2.8-0.7v2.1l-2.8-0.8V32.1z"/>
			<path fill="#FFFFFF" d="M39,33.1h-2.6l-0.5-2.6l-0.4,1.5l0.2,1H33l-2.3-11.4h2.6l1.9,9.1l0.3-1.9L34,21.7h2.6l1.8,8.8l0.7-8.8
				h1.3l-1.7,10.4L39,33.1z"/>
			<path fill="#FFFFFF" d="M43.5,33.3c-1.1,0-1.6-0.9-2.4-1.8l0.5-1.6c0.5,1.8,1.3,2.9,2,2.9c0.3,0,0.5-0.2,0.5-0.7
				c0-0.4,0-0.8-0.7-1.8l-1.1-1.6c-0.6-0.8-1-2-1-3.2c0-2.2,1.2-4,2.7-4c0.7,0,1.4,0.4,2,1.3l-0.3,1.6c-0.3-1-0.7-2.4-1.4-2.4
				c-0.5,0-0.7,0.4-0.7,0.9c0,0.4,0.1,0.8,0.9,2l0.9,1.4c0.6,0.9,1,1.8,1,3.1C46.2,31.5,45,33.3,43.5,33.3z"/>
		</g>
	</g>
</g>
</svg>
