<?xml version="1.0" encoding="utf-8"?>
<!-- Generator: Adobe Illustrator 18.1.1, SVG Export Plug-In . SVG Version: 6.00 Build 0)  -->
<svg version="1.1" id="Layer_1" xmlns="http://www.w3.org/2000/svg" xmlns:xlink="http://www.w3.org/1999/xlink" x="0px" y="0px"
	 viewBox="0 0 72 72" enable-background="new 0 0 72 72" xml:space="preserve">
<circle fill="#557699" cx="36" cy="36" r="35.6"/>
<g>
	<path fill="#FFFFFF" d="M19.9,51.5C20.2,51.5,21,51.5,19.9,51.5L19.9,51.5z"/>
	<path fill="#FFFFFF" d="M23.5,51.4C23,51.4,24.7,51.4,23.5,51.4L23.5,51.4z"/>
	<path fill="#FFFFFF" d="M54.4,57.7V14.5l-5.9-1.6V8.1L40,5.3l0,0l0,0l0,0L26.3,8.2V13l-7.9,1.5v43.3h-1.8V62h39.7v-4.2L54.4,57.7
		L54.4,57.7z M21.3,55.1c-0.8,0-1.5,0-2.3,0.1c0-0.3,0-3.3,0-3.6c0.4,0,0.7,0,0.9,0c-0.3,0-0.2,0,1.4,0
		C21.3,51.8,21.3,54.8,21.3,55.1z M21.3,47.1c-0.8,0-1.5,0.1-2.3,0.1c0-0.3,0-3.3,0-3.6c0.8,0,1.5-0.1,2.3-0.1
		C21.3,43.8,21.3,46.8,21.3,47.1z M21.3,39.1c-0.8,0.1-1.5,0.1-2.3,0.2c0-0.3,0-3.3,0-3.6c0.8-0.1,1.5-0.1,2.3-0.2
		C21.3,35.7,21.3,38.8,21.3,39.1z M21.3,31.1c-0.8,0.1-1.5,0.2-2.3,0.3c0-0.3,0-3.3,0-3.6c0.8-0.1,1.5-0.2,2.3-0.3
		C21.3,27.7,21.3,30.8,21.3,31.1z M21.3,23c-0.8,0.1-1.5,0.2-2.3,0.4c0-0.3,0-3.3,0-3.6c0.8-0.1,1.5-0.2,2.3-0.4
		C21.3,19.7,21.3,22.7,21.3,23z M24.9,55.1c-0.8,0-1.7,0-2.5,0.1c0-0.4,0-3.4,0-3.7c0.5,0,0.9,0,1.1,0s0.6,0,1.4,0
		C24.9,51.7,24.9,54.7,24.9,55.1z M24.9,46.9C24.1,47,23.2,47,22.4,47c0-0.3,0-3.4,0-3.7c0.8-0.1,1.7-0.1,2.5-0.1
		C24.9,43.5,24.9,46.6,24.9,46.9z M24.9,38.8c-0.8,0.1-1.7,0.1-2.5,0.2c0-0.3,0-3.4,0-3.7c0.8-0.1,1.7-0.1,2.5-0.2
		C24.9,35.4,24.9,38.5,24.9,38.8z M24.9,30.7c-0.8,0.1-1.7,0.2-2.5,0.3c0-0.3,0-3.4,0-3.7c0.8-0.1,1.7-0.2,2.5-0.3
		C24.9,27.3,24.9,30.3,24.9,30.7z M24.9,22.5c-0.8,0.1-1.7,0.3-2.5,0.4c0-0.3,0-3.4,0-3.7c0.8-0.1,1.7-0.3,2.5-0.4
		C24.9,19.1,24.9,22.2,24.9,22.5z M29.1,55c-0.9,0-1.9,0-2.8,0.1c0-0.4,0-3.5,0-3.8c4-0.1-1.1,0,2.8-0.1
		C29.1,51.6,29.1,54.7,29.1,55z M29.1,46.8c-0.9,0.1-1.9,0.1-2.8,0.1c0-0.4,0-3.5,0-3.8c0.9-0.1,1.9-0.1,2.8-0.1
		C29.1,43.3,29.1,46.4,29.1,46.8z M29.1,38.5c-0.9,0.1-1.9,0.2-2.8,0.3c0-0.4,0-3.5,0-3.8c0.9-0.1,1.9-0.2,2.8-0.3
		C29.1,35,29.1,38.1,29.1,38.5z M29.1,30.2c-0.9,0.1-1.9,0.2-2.8,0.3c0-0.4,0-3.5,0-3.8c0.9-0.1,1.9-0.2,2.8-0.3
		C29.1,26.7,29.1,29.8,29.1,30.2z M29.1,21.9c-0.9,0.1-1.9,0.3-2.8,0.4c0-0.4,0-3.5,0-3.8c0.9-0.1,1.9-0.3,2.8-0.4
		C29.1,18.4,29.1,21.5,29.1,21.9z M33.9,55c-1,0-2,0-3,0.1c0-0.4,0-3.5,0-3.9c4-0.1-0.9,0,3-0.1C33.9,51.4,33.9,54.5,33.9,55z
		 M33.9,46.5c-1,0.1-2,0.1-3,0.2c0-0.4,0-3.5,0-3.9c1-0.1,2-0.1,3-0.2C33.9,43,33.9,46.1,33.9,46.5z M33.9,38.1c-1,0.1-2,0.2-3,0.3
		c0-0.4,0-3.5,0-3.9c1-0.1,2-0.2,3-0.3C33.9,34.5,33.9,37.6,33.9,38.1z M33.9,29.6c-1,0.1-2,0.3-3,0.4c0-0.4,0-3.5,0-3.9
		c1-0.1,2-0.3,3-0.4C33.9,26.1,33.9,29.2,33.9,29.6z M33.9,21.2c-1,0.2-2,0.3-3,0.5c0-0.4,0-3.5,0-3.9c1-0.2,2-0.3,3-0.5
		C33.9,17.7,33.9,20.8,33.9,21.2z M39.7,54.9L36.5,55c0-0.4,0-3.6-0.1-4.1l3.2-0.1l0.1,0.1V54.9z M39.7,46.2l-3.2,0.2
		c0-0.4,0-3.6,0-4l3.2-0.2V46.2z M39.7,37.6l-3.2,0.3c0-0.4,0-3.6,0-4l3.2-0.3V37.6z M39.7,28.9l-3.2,0.4c0-0.4,0-3.6,0-4l3.2-0.4
		V28.9z M39.7,20.3l-3.2,0.5c0-0.4,0-3.6,0-4l3.2-0.5V20.3z M40.1,54.9v-4L40,50.8l3,0.1c0.1,0.5,0.1,3.7,0.1,4.1L40.1,54.9z
		 M43.1,46.4l-3-0.2v-4l3,0.2C43.1,42.8,43.1,46,43.1,46.4z M43.1,37.9l-3-0.3v-4l3,0.3C43.1,34.3,43.1,37.4,43.1,37.9z M43.1,29.3
		l-3-0.4v-4l3,0.4C43.1,25.7,43.1,28.9,43.1,29.3z M43.1,20.8l-3-0.5v-4l3,0.5C43.1,17.2,43.1,20.4,43.1,20.8z M48.7,55
		c-1,0-2,0-3-0.1c0-0.4,0-3.5,0-3.9c3.9,0.1-1,0,3,0.1C48.7,51.5,48.7,54.6,48.7,55z M48.7,46.7c-1-0.1-2-0.1-3-0.2
		c0-0.4,0-3.5,0-3.9c1,0.1,2,0.1,3,0.2C48.7,43.1,48.7,46.3,48.7,46.7z M48.7,38.3c-1-0.1-2-0.2-3-0.3c0-0.4,0-3.5,0-3.9
		c1,0.1,2,0.2,3,0.3C48.7,34.8,48.7,37.9,48.7,38.3z M48.7,30c-1-0.1-2-0.3-3-0.4c0-0.4,0-3.5,0-3.9c1,0.1,2,0.3,3,0.4
		C48.7,26.5,48.7,29.6,48.7,30z M48.7,21.6c-1-0.1-2-0.3-3-0.5c0-0.4,0-3.5,0-3.9c1,0.1,2,0.3,3,0.5C48.7,18.1,48.7,21.2,48.7,21.6z
		 M53.2,55c-0.9,0-1.9,0-2.8-0.1c0-0.4,0.1-3.4,0.1-3.8c0.9,0,1.9,0,2.8,0.1C53.3,51.6,53.2,54.6,53.2,55z M53.3,46.9
		c-0.9,0-1.9-0.1-2.8-0.1c0-0.4,0-3.5,0-3.8c0.9,0,1.9,0.1,2.8,0.1C53.3,43.4,53.3,46.5,53.3,46.9z M53.3,38.7
		c-0.9-0.1-1.9-0.2-2.8-0.3c0-0.4,0-3.5,0-3.8c0.9,0.1,1.9,0.2,2.8,0.3C53.3,35.2,53.3,38.3,53.3,38.7z M53.3,30.5
		c-0.9-0.1-1.9-0.2-2.8-0.3c0-0.4,0-3.5,0-3.8c0.9,0.1,1.9,0.2,2.8,0.3C53.3,27.1,53.3,30.1,53.3,30.5z M53.3,22.3
		c-0.9-0.1-1.9-0.3-2.8-0.4c0-0.4,0-3.5,0-3.8c0.9,0.1,1.9,0.3,2.8,0.4C53.3,18.9,53.3,22,53.3,22.3z"/>
</g>
</svg>
