<?xml version="1.0" encoding="utf-8"?>
<!-- Generator: Adobe Illustrator 18.1.1, SVG Export Plug-In . SVG Version: 6.00 Build 0)  -->
<svg version="1.1" id="Layer_1" xmlns="http://www.w3.org/2000/svg" xmlns:xlink="http://www.w3.org/1999/xlink" x="0px" y="0px"
	 viewBox="0 0 72 72" enable-background="new 0 0 72 72" xml:space="preserve">
<path fill="#EDA93F" d="M0.4,36C0.4,16.3,16.3,0.4,36,0.4c19.7,0,35.6,16,35.6,35.6S55.7,71.6,36,71.6C16.3,71.6,0.4,55.7,0.4,36"/>
<g>
	<path fill="#FFFFFF" d="M32.2,64.9v-6.7c-4.7-0.2-9.3-1.6-12-3l2.1-8.3c3,1.6,7.2,3.1,11.7,3.1c4.1,0,6.9-1.6,6.9-4.4
		c0-2.7-2.3-4.4-7.6-6.2c-7.6-2.5-12.7-6.1-12.7-13c0-6.3,4.4-11.2,12-12.6V7.1h6.9v6.2c4.7,0.1,7.9,1.2,10.3,2.3l-2.1,8
		c-1.8-0.8-5.1-2.5-10.2-2.5c-4.6,0-6.1,2-6.1,4c0,2.3,2.5,3.8,8.6,6c8.4,3,11.7,6.9,11.7,13.3c0,6.3-4.4,11.7-12.5,13v7.3
		L32.2,64.9L32.2,64.9z"/>
</g>
</svg>
