<?xml version="1.0" encoding="utf-8"?>
<!-- Generator: Adobe Illustrator 18.1.1, SVG Export Plug-In . SVG Version: 6.00 Build 0)  -->
<svg version="1.1" id="Layer_1" xmlns="http://www.w3.org/2000/svg" xmlns:xlink="http://www.w3.org/1999/xlink" x="0px" y="0px"
	 viewBox="126 0 72 72" enable-background="new 126 0 72 72" xml:space="preserve">
<circle fill="#68C2E3" cx="162" cy="36" r="35.6"/>
<path fill="#FFFFFF" d="M151.5,20.7c0.4-0.1,0.7-0.2,1-0.4c0.2-0.1,0.6-0.2,0.8-0.2c0.8-0.1,1.7-0.1,2.5-0.4
	c1.7-0.5,3.4-0.2,5.2-0.2c1.2,0,2.3,0,3.5,0.2c1.1,0.2,2.2,0.2,3.2,0.7c2.3,0.2,4.2,1.3,6.2,2.4c1.5,0.7,2.8,1.6,4,2.8
	c1.2,1.2,2.5,2.4,3.5,3.9c0-0.1-0.1-0.4-0.1-0.5c-0.2-0.5-0.5-1-0.6-1.6c-0.1-0.8,0.1-1.6,0.5-2.3c0.7-1.2,1.8-2.2,3.4-1.9
	c1.9,0.2,3.5,1.3,3.6,3.8c0,0.7,0.1,1.6-0.4,2.3c0.8-0.4,1.8-1.1,2.1-1.6c0.1,0.1,0.5,0.1,0.4,0.5c-0.5,1.7-1.7,2.5-3.3,3
	c-0.2,0.1-0.5,0.1-0.6,0.2c-1,1-1.9,1.7-3,2.4c-0.1,0.1-0.4,0.6-0.2,0.7c0.5,0.6,0.2,1.2,0.2,1.8c0,0.6,0,1.1-0.2,1.7
	c-0.2,0.5-0.1,1.1-0.2,1.7c-0.2,1.7-1.1,3.2-2.1,4.6c-0.7,1.1-1.6,2.2-2.5,3.2c-0.5,0.6-1.2,1-1.8,1.6c0.4,1,0.7,1.9,1.1,2.8
	c0.6,1.2,0.5,1.6-0.7,2.2c-1,0.5-2.2,0.8-3.2,1.3c-0.8,0.4-1.8,0.7-2.7,1.2c-0.7,0.4-1.5,0-1.7-0.7c-0.4-1-0.8-1.9-1.2-2.9
	c-2.7,0.8-5.3,1.1-8.1,1.1s-5.6-0.2-8.2-1c-0.5,1-0.8,1.9-1.3,2.8c-0.5,1-1,1.1-1.9,0.7c-1.7-0.6-3.2-1.5-4.8-2.1
	c-0.6-0.2-1.5-0.4-1.7-1.3c-0.1-0.4-0.1-0.5,0-0.8c0.4-0.8,0.7-1.8,1.1-2.8c0.2-0.6,0.2-0.8-0.2-1.1c-1.3-1-2.9-2.5-3.8-3.9
	c-0.4-0.6-0.8-1.2-1.1-1.9c-0.2-0.5-0.5-0.6-1-0.6c-0.7,0-1.5,0-2.2,0c-0.2-0.2-0.4-0.4-0.7-0.7c0-0.2,0-0.6,0-1
	c-0.1-2.7-0.2-5.3-0.4-8c0.5-0.6,1-1.2,1.7-1.2c0.1,0,0.4-0.1,0.4-0.1c0.4,0.6,0.8-0.1,1.2,0c0.8,0.1,1.1-0.6,1.6-1
	c0.1-1,0.8-1.5,1.3-2.2s1.1-1.5,1.8-2.1c0.7-0.7,1.6-1.5,2.4-1.8c0.8-0.4,0.8-1.1,1.1-1.7c0.1-0.4,0.1-0.8,0.2-1.3
	c0.4-0.7-0.4-1.6-0.2-2.4c-0.7-1.1-1-2.5-2.5-2.9c-0.1,0-0.2-0.2-0.4-0.4c1-0.4,2.7-0.2,3.9,0.1c1.2,0.4,2.4,0.8,3.5,1.7
	C150.4,18.3,151,19.5,151.5,20.7z M169,24.8c0-0.4,0-0.6,0-0.8c0.1-0.7,0-0.8-0.5-1.1c-0.5-0.2-1.1-0.1-1.6-0.2
	c-0.6-0.2-1.2-0.4-1.8-0.5c-0.7-0.1-1.3,0.1-2.1-0.2c-0.6-0.2-1.3-0.1-2.1,0c-1.2,0.1-2.5-0.2-3.8,0.2c-0.4,0.1-0.8,0-1.2,0
	c-0.4,0-0.7,0.2-1.1,0.2c-0.6,0.1-0.8,0.2-0.8,0.8c0,0.4,0,0.7,0,1.1c0.6,0,1.2,0.1,1.7,0c0.6-0.2,1.1-0.1,1.7-0.2s1.1-0.2,1.7-0.2
	c1.8-0.2,3.6,0.4,5.5,0.2c0.5,0.5,1.1,0.2,1.7,0.4C167,24.7,167.9,24.9,169,24.8z M149.4,31.7c0.1-0.7-0.2-1.3-0.7-1.9
	c-0.6-0.7-1.6-0.5-2.2-1.1c-0.6,0.5-1.5,0.2-2.1,1c-0.6,0.7-1.1,1.3-1.1,2.2c0,0.5,0,1,0.2,1.3c0.4,0.6,0.8,1.1,1.5,1.5
	c0.4,0.2,1,0.1,1.5,0.4c0.1,0,1.8-0.7,1.9-0.8C149.3,33.7,149.6,32.7,149.4,31.7z M183.7,25.7c-0.7,0.7-0.8,1.5-0.6,2.2
	c0.1,0.6,0.6,1.1,1.1,1.5c0.2,0.2,0.6,0.4,0.8,0c0.4-0.5,0.8-1,0.8-1.7C185.8,26,185.6,25.7,183.7,25.7z"/>
<path fill="#FFFFFF" d="M162.4,27.3c0.6,0.1,1.7,0.1,2.7,0.6c1.3,0.6,2.7,1.3,3.6,2.7c0.5,0.7,1,1.6,1.3,2.3
	c0.4,0.7,0.4,1.5,0.6,2.2c0.2,0.6,0.4,1.6-0.2,2.2c0,1-0.4,1.8-0.8,2.7c-1.5,2.7-2.8,3.5-5.5,4.5c-0.4,0.1-0.8,0-1.2,0.1
	c-0.4,0-0.8,0.4-1.1,0.2c-0.6-0.2-1.2-0.1-1.7-0.2c-0.7-0.2-1.5-0.4-2.1-0.7c-2.1-1.1-3.9-3.3-4.5-5.5c-0.2-1.1-0.8-2.3-0.1-3.5
	c0-1,0.4-1.8,0.8-2.7c0.7-1.5,1.7-2.5,3-3.5C158.9,27.7,160.3,27.3,162.4,27.3z"/>
</svg>
