<?xml version="1.0" encoding="utf-8"?>
<!-- Generator: Adobe Illustrator 18.1.1, SVG Export Plug-In . SVG Version: 6.00 Build 0)  -->
<svg version="1.1" id="Layer_1" xmlns="http://www.w3.org/2000/svg" xmlns:xlink="http://www.w3.org/1999/xlink" x="0px" y="0px"
	 viewBox="0 0 1232 487" enable-background="new 0 0 1232 487" xml:space="preserve">
<path fill="#EDA83F" d="M416.9,243.9c0-109.7,88.9-198.7,198.7-198.7c109.7,0,198.7,89,198.7,198.7c0,109.7-89,198.7-198.7,198.7
	C505.9,442.6,416.9,353.7,416.9,243.9"/>
<g>
	<path fill="#FFFFFF" d="M594.9,405.6v-37.5c-26.4-1.2-52.1-8.7-67.1-17l11.8-46.2c16.6,9.1,39.9,17.4,65.5,17.4
		c22.9,0,38.3-9.1,38.3-24.5c0-15-12.6-24.5-42.2-34.3c-42.2-14.2-71-33.9-71-72.2c0-35.1,24.5-62.4,66.7-70.3V83.5h38.7v34.7
		c26.1,0.8,43.8,6.7,57.6,13l-11.8,44.6c-9.9-4.7-28.4-13.8-56.8-13.8c-25.7,0-33.9,11.4-33.9,22.5c0,12.6,13.8,21.3,47.8,33.5
		c47,16.6,65.5,38.3,65.5,74.2c0,35.1-24.5,65.1-69.9,72.6v40.7H594.9z"/>
</g>
</svg>
