<?xml version="1.0" encoding="utf-8"?>
<!-- Generator: Adobe Illustrator 18.1.1, SVG Export Plug-In . SVG Version: 6.00 Build 0)  -->
<svg version="1.1" id="Layer_1" xmlns="http://www.w3.org/2000/svg" xmlns:xlink="http://www.w3.org/1999/xlink" x="0px" y="0px"
	 viewBox="0 0 72 72" enable-background="new 0 0 72 72" xml:space="preserve">
<g>
	<circle fill="#922A8E" cx="36" cy="36" r="35.6"/>
	<path fill="#FFFFFF" d="M59.4,37.6c0.6-0.8,1.2-1.7,1.8-2.7c1.5-2.4,0.8-4.6-1.6-6.1c-0.8-0.5-1.7-1-2.5-1.5
		c0.1-1.1,0.4-1.9,0.5-2.9c0.5-2.9-1.1-4.9-4.1-5c-0.8,0-1.8-0.1-2.7-0.1c-0.4-1.2-0.6-2.2-1-3.2c-1-2.5-2.7-3.4-5.2-2.7
		c-1.1,0.4-2.1,0.8-3.2,1.2c-0.7-0.7-1.2-1.5-1.8-2.1c-1.9-2.2-4.2-2.4-6.1-0.3c-1.7,1.9-3.2,2.4-5.4,1.1c-1.7-1.1-4.2,0-5.2,2.3
		c-0.3,0.6-0.4,1.2-0.5,1.9c-0.5,1.6-0.6,1.7-2.2,1.7c-0.3,0-0.5,0-0.7,0c-3.4,0-5,1.9-4.4,5.2c0.1,0.8,0.4,1.7,0.5,2.7
		c-1.1,0.6-2.1,1.1-2.9,1.6c-2.2,1.3-2.7,3.5-1.3,5.7c0.5,0.8,1.2,1.7,1.9,2.8c-0.7,1.1-1.3,1.9-1.9,2.8c-1.3,2.1-0.8,4.6,1.5,5.6
		c2.4,1.1,3,2.3,2.4,4.9c-0.6,2.5,1,4.5,3.3,4.5c2.8-0.1,4,0.8,4.6,3.6c0.6,2.5,2.9,3.4,5.4,2.4c0.8-0.4,1.8-0.7,2.9-1.2
		c0.7,0.8,1.3,1.7,2.1,2.4c1.8,1.8,4.2,1.8,6.1,0c0.7-0.7,1.5-1.6,2.2-2.3c1,0.4,1.9,0.8,2.8,1.1c2.7,1,4.5,0.1,5.4-2.5
		c0.4-1.1,0.7-2.2,1.1-3.2c1.2-0.1,2.3-0.1,3.3-0.3c2.3-0.3,3.5-1.6,3.4-3.9c0-1.3-0.3-2.5-0.4-4c0.7-0.4,1.5-0.7,2.2-1.1
		c2.9-1.6,3.4-3.8,1.7-6.4C60.5,39.2,60,38.4,59.4,37.6z M20.6,35.9c-1.6-3.8-0.3-8.2,2.9-10.5c4-2.7,9.7-0.3,10.4,4.5
		c0.1,0.7,0.1,1.5,0.1,2.2c0.1,2.7-0.7,5.1-2.9,6.7C27.3,41.8,22.2,39.9,20.6,35.9z M30.7,50.5c-1.1,0.1-2.1,0.1-3.3,0.3
		c0.1-0.5,0.1-0.8,0.3-1.2c4.4-7.8,8.6-15.6,13-23.4c1.2-2.1,1.3-2.2,4.1-1.3C40.4,33.6,35.4,41.9,30.7,50.5z M51.8,45.8
		c-1.1,3.3-3.4,4.9-6.8,4.9c-2.7,0-4.7-1.2-5.8-3.8c-1.5-3.2-1.3-6.2,0.6-9.1c1.5-2.3,3.8-3.2,6.3-2.9c2.8,0.3,4.9,1.7,5.8,4.5
		C52.6,41.6,52.5,43.6,51.8,45.8z"/>
	<ellipse fill="#FFFFFF" cx="26.9" cy="32.3" rx="3.3" ry="5"/>
	<ellipse fill="#FFFFFF" cx="45.2" cy="42.4" rx="3.3" ry="5"/>
</g>
</svg>
