<?xml version="1.0" encoding="utf-8"?>
<!-- Generator: Adobe Illustrator 18.1.1, SVG Export Plug-In . SVG Version: 6.00 Build 0)  -->
<svg version="1.1" id="Layer_1" xmlns="http://www.w3.org/2000/svg" xmlns:xlink="http://www.w3.org/1999/xlink" x="0px" y="0px"
	 viewBox="0 0 20 20" enable-background="new 0 0 20 20" xml:space="preserve">
<g>
	<circle fill="#922A8E" cx="10" cy="10" r="10"/>
</g>
<path fill="#FFFFFF" d="M17.9,8.4c-3.1,2.8-14.7,11-12.8,3.2C9,11.1,14.3,8.5,15,4.9c0.7-3.5-8.3-2.7-11.9,4.4
	c-2.3,4.7,0.1,7.1,3.4,7.1c4.7,0,11-6.3,11.9-7.5C18.7,8.6,18.2,8.3,17.9,8.4z M12.6,4.1C13,4.1,13.5,4,13.7,4.3
	c0.2,0.3,0.2,0.9,0,1.2C13,7.8,7.8,10,6,10C6.3,9.7,10,4.6,12.6,4.1z"/>
</svg>
