<?xml version="1.0" encoding="utf-8"?>
<!-- Generator: Adobe Illustrator 18.1.1, SVG Export Plug-In . SVG Version: 6.00 Build 0)  -->
<svg version="1.1" id="Layer_1" xmlns="http://www.w3.org/2000/svg" xmlns:xlink="http://www.w3.org/1999/xlink" x="0px" y="0px"
	 viewBox="0 0 216 216" enable-background="new 0 0 216 216" xml:space="preserve">
<g>
	<g>
		<path fill="#FCFAE3" d="M209.8,108c0,56.2-45.6,101.8-101.8,101.8C51.7,209.8,6.2,164.2,6.2,108C6.2,51.7,51.7,6.1,108,6.1
			C164.2,6.1,209.8,51.7,209.8,108z"/>
		<path fill="#231F20" d="M108,213.7C49.7,213.7,2.3,166.3,2.3,108S49.7,2.3,108,2.3S213.7,49.7,213.7,108S166.3,213.7,108,213.7z
			 M108,10c-54,0-98,44-98,98s43.9,98,98,98s98-43.9,98-98S162,10,108,10z"/>
	</g>
	<g>
		<path fill="#221F1F" d="M120.2,186.5c-2.3-0.1-4.8-0.1-7.1-0.1c-2.5-0.1-5.1-0.1-7.6-0.2c-4-0.1-8-0.3-12-0.5
			c1.2-0.1,2.3-0.1,3.5-0.2c3.6,0.2,7.1,0.2,10.6,0.1c1.2-0.1,2.4-0.1,3.6-0.2c2.8,0,5.5,0,8.3-0.2c0.1,0,0.1-0.1,0-0.1
			c-1.7,0-3.4,0-5.1,0.1c0.8-0.1,1.6-0.2,2.3-0.3c0.8,0.1,1.5,0.1,2.3,0.1c0.1,0,0.1-0.1,0-0.1c-0.4,0-0.8-0.1-1.3-0.1
			c0.6-0.1,1.3-0.2,2-0.3c0.1,0,0-0.1,0-0.1c-1,0.1-2.1,0.2-3.1,0.3c-1.1-0.1-2.2-0.1-3.3-0.1c-1.4,0-2.9-0.1-4.3-0.1
			c0.1,0,0.2,0,0.3,0c0.1,0,0.1,0,0,0c-0.9,0-1.8,0-2.7,0c0,0,0,0-0.1,0c-0.2,0-0.4,0-0.6,0c1.7-0.1,3.4-0.1,5.1-0.1
			c0.1,0,0.1-0.1,0-0.1c-2.8,0-5.7,0-8.5,0c1.2-0.1,2.5-0.2,3.8-0.3c1.5-0.1,3-0.1,4.5-0.2c2.1,0.1,4.1,0.3,6.1,0.6
			c0.2,0,0.2-0.2,0-0.2c-1.5-0.2-3-0.4-4.4-0.5c0.4-0.1,0.8-0.1,1.3-0.1c0.1,0,0.1-0.1,0-0.1c-1.4-0.2-2.9-0.1-4.3,0
			c-1.4-0.1-2.8-0.1-4.1,0c2.2-0.2,4.4-0.4,6.6-0.6c0,0,0-0.1,0-0.1c-2.9,0.2-5.8,0.3-8.7,0.6c-0.2,0-0.5,0-0.7,0.1
			c-2.5,0.1-4.9,0.2-7.4,0.4c-1.4,0-2.9,0.1-4.3,0.1c-0.6,0-1.3,0-1.9,0c-0.1,0-0.1,0-0.1,0.1c-0.8,0-1.7,0-2.6,0.1
			c-0.2,0-0.2,0.2,0,0.2c0.5,0.1,1.1,0.2,1.6,0.3c-0.2,0-0.4,0-0.5,0.1c-0.1,0-0.1,0.1,0,0.1c0.5,0,1.1,0,1.7-0.1
			c0.3,0.1,0.6,0.1,0.8,0.1c-0.1,0-0.2,0-0.3,0c0,0,0,0,0,0c0.2,0,0.3,0,0.5,0c0.1,0,0.1,0,0.2,0c-1.6,0.1-3.2,0.2-4.8,0.4
			c-0.1,0-0.1,0,0,0c1.9-0.1,3.9-0.2,5.8-0.4c1.3,0.1,2.5,0.1,3.8,0.1c-1.4,0.1-2.7,0.2-4,0.2c0,0-0.1,0-0.1,0.1
			c-0.2-0.1-0.4-0.1-0.6-0.1c-0.1,0-0.1,0.1,0,0.1c0.6,0.1,1.2,0.1,1.8,0.1l0,0h0c4.5,0.2,8.9,0.4,13.3,0.6c2.5,0.1,5.1,0.2,7.6,0.2
			C115.4,186.7,117.8,186.7,120.2,186.5C120.2,186.6,120.2,186.5,120.2,186.5z M98,185.5c0.4-0.1,0.9-0.1,1.3-0.1c2.2,0,4.3,0,6.5,0
			c0.3,0,0.7,0,1,0C103.9,185.5,101,185.5,98,185.5z M97.6,185.4c-0.5,0-0.9,0-1.4,0c0.3,0,0.6,0,0.9,0c0.6,0,1.3,0,2,0
			C98.6,185.4,98.1,185.4,97.6,185.4z M114.4,184.9c-0.6,0.1-1.2,0.2-1.8,0.2c0,0,0-0.1-0.1-0.1c-0.3,0-0.7,0-1.1-0.1
			C112.4,184.9,113.4,184.9,114.4,184.9z M111.3,185.1c-1.5,0.1-3.1,0.1-4.6,0.1v0c1.6,0,3.1,0,4.7,0c-0.3,0-0.5,0-0.7,0
			c-1.4,0-2.7,0-4.1,0c-1.8,0-3.6,0-5.5,0c1.5-0.1,3-0.1,4.6-0.2C107.6,185,109.4,185,111.3,185.1z M101.1,185.2c-0.9,0-1.7,0-2.6,0
			c2.4-0.1,4.7-0.2,7.1-0.2C104.1,185.1,102.6,185.2,101.1,185.2z M103.7,184.8c-0.5,0-1.2,0.1-1.8,0.1c0,0,0,0,0,0
			c-0.2,0-0.2-0.1-0.4-0.1C102.2,184.8,102.9,184.8,103.7,184.8z M103.7,183.7c1.2-0.1,2.5-0.1,3.8-0.1c-0.1,0-0.2,0-0.4,0
			c-2.1,0.1-4.2,0.3-6.2,0.5c-0.4,0-0.7,0-1.1-0.1C101,184,102.3,183.8,103.7,183.7z M101.4,183.8c-0.9,0.1-1.8,0.2-2.7,0.3
			c-0.6,0-1.2,0-1.7,0C98.4,183.9,99.9,183.9,101.4,183.8z M95.3,184.5c0.2,0.1,0.4,0.1,0.6,0.1c-0.3,0-0.5,0.1-0.8,0.1
			c-0.3,0-0.7,0-1,0C94.5,184.6,94.9,184.6,95.3,184.5z M94.6,184.5c-0.4,0.1-0.9,0.1-1.3,0.2c-0.8,0-1.5,0-2.3,0
			C92.2,184.6,93.4,184.5,94.6,184.5z M88.9,184.7c-0.4,0-0.8-0.1-1.2-0.1c0.1,0,0.3-0.1,0.4-0.1c1,0,1.9,0,2.9-0.1
			C90.3,184.5,89.6,184.6,88.9,184.7z M92.5,184.8c-0.8,0-1.5,0-2.3,0l0,0c0.1,0,0.3,0,0.4,0C91.2,184.8,91.9,184.8,92.5,184.8
			C92.5,184.8,92.5,184.8,92.5,184.8z M93,185c0.6-0.1,1.3-0.1,2-0.2c1.3,0,2.6,0,4,0c0.3,0,0.6,0,0.9,0c-1.9,0.1-3.9,0.1-5.8,0.1
			c-0.1,0,0,0.1,0,0.1c1.5,0,3,0,4.5-0.1C96.7,185.1,94.9,185.1,93,185z M91.8,185.6c1.3-0.1,2.5-0.1,3.8-0.2c0,0,0,0,0,0
			c0.3,0.1,0.6,0.1,0.9,0.1c-1.1,0-2.1,0.1-3.2,0.2L91.8,185.6z"/>
		<g>
			<path fill="#F7BC22" d="M128.9,90.2c0.2-5.7-1.6-10-4.7-13.6c-0.6-1.4-1.5-2.6-2.5-3.8c-3.4-3.5-8.1-5.3-12.3-7.5
				c-0.8-0.4-1.5,0.8-0.8,1.3c2.3,1.8,5.1,3.8,7.8,6c2.7,3.2,4.4,7.1,5.5,11.2c-0.3,0-0.7,0.2-0.9,0.4c-1,1.9-1.8,3.8-2.5,5.8
				c0.3-1.8,0.5-3.6,0.6-5.4c0-0.9-1.1-1.3-1.5-0.4c-0.3,0.6-0.5,1.2-0.8,1.9c0.2-2,0.2-4-0.1-6c-0.1-0.8-1.1-0.9-1.5-0.2
				c-1,1.8-1.9,3.6-2.7,5.4c0.2-1.5,0.3-2.9,0.3-4.4c0-0.8-1.1-0.8-1.5-0.2c-0.4,0.7-0.7,1.5-1.1,2.2c0.2-1.3,0.4-2.6,0.5-3.8
				c0.1-0.9-1.2-1.3-1.5-0.5c-0.1,0.4-0.2,0.8-0.4,1.1c0.3-1.9,0.5-3.9,0.6-5.8c0.1-0.8-1.2-1.3-1.5-0.4c-0.6,1.6-1.1,3.3-1.5,5
				c0.3-2.2,0.4-4.3,0.4-6.5c0-0.8-1.2-0.9-1.5-0.3c-0.8,1.8-1.5,3.6-2.1,5.4c-0.1-0.7-1.2-1-1.5-0.2c-1.4,4-2.3,8.2-3.2,12.5
				c-0.1-1.5-0.3-2.9-0.4-4.4c0.4-1.9,0.7-3.9,1-5.8c0.1-1-1.3-1.2-1.5-0.3c-0.1,0.5-0.2,1-0.3,1.5c-0.2-1.2-0.5-2.3-0.8-3.5
				c-0.2-0.6-1.1-0.6-1.4,0v0c0-0.4-0.1-0.7-0.1-1.1c-0.1-0.7-1.1-0.8-1.4-0.2c-0.4,0.8-0.7,1.6-1,2.5c-0.6,0.7-1.3,1.5-1.9,2.2
				c-0.2-0.2-0.3-0.5-0.4-0.7C90,79,89.2,79.1,89,79.6c-0.3,0.9-0.7,1.9-0.9,2.9c-0.1-0.2-0.2-0.5-0.3-0.9c-0.1-0.2-0.3-0.3-0.5-0.4
				c0.7-0.9,1.4-1.9,2-2.8c1-1.3,2-2.8,2.8-4.2c0.4-0.7-0.7-1.4-1.2-0.7c-1.2,1.9-2.5,3.7-3.8,5.6c-0.7,1-1.5,2-2.3,3
				c-0.2-0.4-0.8-0.5-1.1-0.2c-1.2,1.5-2.3,3.1-3.2,4.9c-0.4,0.4-0.8,0.8-1.2,1.1c1.3-1.9,2.7-3.9,4.1-5.7c2.9-2.9,5.1-6.5,7.2-10
				c0.9-1.4,1.8-2.9,2.6-4.4c0.3-0.7-0.8-1.4-1.2-0.7c-0.1,0-0.1,0.1-0.1,0.2l0,0h0c-0.8,1.3-1.6,2.7-2.4,4.1
				c-2.1,3.4-4.6,6.6-6.9,9.8c-0.6,0.6-1.3,1.2-2,1.7c0.4-1.1,0.8-2.2,1.2-3.3c0.4-0.8,0.8-1.6,1.2-2.5c2.4-2.6,4.4-5.8,5.9-8.7
				c0.4-0.8-0.7-1.2-1.2-0.7c-0.9,0.9-1.8,1.8-2.6,2.8c0-0.3-0.2-0.6-0.4-0.6c0.4-0.6,0.7-1.3,1.1-1.9c0.4-0.6-0.5-1.3-1-0.9
				c-1.5,1.1-2.9,2.3-4.1,3.7c-3.2,2.3-6,5.3-8.3,8.6c-0.2-0.5-0.4-0.8-0.8-1.1c-0.6-0.4-1.3,0.4-0.7,0.9c0.3,0.2,0.4,0.5,0.6,0.9
				c-0.1,0.1-0.2,0.3-0.2,0.5c0,0.1,0,0.2,0,0.4c-0.8,1.3-1.6,2.6-2.2,4c-0.4,0.1-0.7,0.3-0.6,0.8c0,0,0,0.1,0,0.1
				c-0.2,0.3-0.4,0.6-0.6,0.9c-0.5,0.6,0.2,1.4,0.9,1.1c0.2,1.6,0.5,3.2,0.7,4.9c-0.4,0-0.8,0.4-0.7,1c0.2,0.7,0.3,1.4,0.5,2.2
				c-0.1,0.2,0,0.4,0.1,0.5c0,0.3,0.1,0.6,0.2,0.9c0,0.3,0,0.6,0,0.9c-0.5-0.1-0.9,0.2-0.8,0.7c0.3,1.2,0.6,2.4,1,3.5
				c0.1,1.2,0.3,2.4,0.6,3.6c-0.1,0.2-0.1,0.3,0,0.5c0.3,0.9,0.7,1.7,1.2,2.5c0,0.1,0,0.1,0,0.2c0.2,0.9,0.5,1.9,0.9,2.8
				c-1,1.2,0.9,3.2,1.6,4.4c0.1,0.2,0.2,0.4,0.3,0.6c-0.4,0-0.9,0.4-0.7,1c1.5,3.8,3.8,7,6.3,10.1c0.8,2.1,1.9,4.1,3.5,5.8
				c-0.3,0.3-0.4,0.8,0,1.1c0.6,0.4,1.3,0.8,1.9,1.2c0.3,0.4,0.7,0.9,1,1.3c0,0.8,0,1.5,0,2.2c-0.3-0.6-1.3-0.3-1.3,0.4
				c0,3.6,0.3,7.3,1,10.8c0,0.2,0.2,0.4,0.4,0.5c0,0.5,0,1,0.1,1.5c0,0.3,0.3,0.6,0.5,0.6c1.5,0.2,2.7,0.4,4,0.2
				c1.4,0.2,2.9,0.5,4.4,0.6c0.1,0.1,0.3,0.2,0.6,0.1c0.5-0.1,1.1-0.3,1.6-0.3c0.1,0.2,0.3,0.3,0.7,0.3c0.9-0.1,1.9-0.1,2.8-0.1
				c-0.2,0.4,0,1,0.5,1.1c1.9,0.5,3.8,0.6,5.5,0.2c2.5,0.3,4.9,0.8,7.4,0.8c0.8,0,0.9-1.1,0.2-1.5c-0.6-0.3-1.2-0.5-1.8-0.8
				c0.7-0.1,1.5-0.2,2.3-0.4c0.8-0.2,0.6-1.3-0.2-1.5c-0.4-0.1-0.8-0.2-1.2-0.2c0.1-0.2,0.1-0.3,0.1-0.4c-0.1-1.4-0.1-2.7-0.1-4.1
				c0.2,0,0.4-0.1,0.5-0.4c1.9-4.9,0.6-11,0.6-16.7c3.5-6.8,7.5-14.1,9.8-21.6C127.2,102.9,128.6,96.4,128.9,90.2z M127.3,90.8
				c-0.1,1.9-0.3,4-0.6,6c0-0.2,0-0.4,0-0.6c0.1-1.5,0.2-3.1,0.2-4.7c0.2-0.6,0.4-1.2,0.5-1.8C127.3,90,127.3,90.4,127.3,90.8z
				 M114.8,97c0.6-2,1.2-4,1.9-5.9c-0.7,3.8-1.8,7.5-2.9,11.2c0-0.5-0.1-1-0.1-1.5c0.2-0.6,0.3-1.2,0.6-1.9
				C114.4,98.3,114.5,97.6,114.8,97z M88.9,129.8c0.3,0,0.5-0.1,0.7-0.3c0.2,0.9,0.4,1.8,0.6,2.8v0.1l0,0c0,0,0,0.1,0,0.2
				c0,0.1,0.1,0.2,0.1,0.2c0,0.1,0,0.2,0,0.3c-0.2-0.6-0.3-1-0.5-1.4c-0.2-0.3-0.5-0.5-0.8-0.5c0,0,0-0.1,0-0.1
				C89.1,130.6,89,130.2,88.9,129.8z M84.5,84.8c0.2,0.6,0.3,1.2,0.5,1.9c-0.4,0.4-0.8,0.8-1.2,1.2c-0.4-0.1-1,0.2-1,0.8
				c0,0.1,0,0.2,0,0.3c-0.8,0.8-1.6,1.6-2.5,2.4c0.2-0.7,0.4-1.3,0.7-2C82,87.9,83.2,86.3,84.5,84.8z M112.3,107
				c-0.6,2-1.2,4.1-1.7,6.2c-0.2-0.2-0.5-0.2-0.7-0.1c0.9-2.7,1.7-5.4,2.5-8.1C112.3,105.7,112.3,106.3,112.3,107z M95.1,116.8
				c-0.1,0.4-0.1,0.8-0.2,1.3c0-0.3,0-0.6,0-1c0-0.1,0.1-0.3,0.2-0.5C95,116.7,95.1,116.8,95.1,116.8z M87.7,102.3
				c0.1-0.5,0.1-0.9,0.2-1.4c0.2,1.1,0.3,2.1,0.5,3.2c-0.1,0.6-0.1,1.2-0.2,1.8c-0.1-0.4-0.2-0.8-0.3-1.2
				C87.8,104,87.8,103.1,87.7,102.3z M97.7,144c-0.2-0.5-0.3-1-0.3-1.5c0.1,0,0.2,0.1,0.2,0.1C97.6,143.1,97.7,143.6,97.7,144z
				 M100.8,150.4c0.2-0.1,0.5-0.2,0.5-0.5c0-0.9,0-1.9,0.1-2.8c0.1,0.1,0.1,0.2,0.2,0.4c0,0,0,0,0,0c0,0.2,0.1,0.3,0.2,0.4
				c0.1,0.1,0.1,0.2,0.1,0.3c0.3,0.8,1.3,0.5,1.5-0.1c0.1,0.4,0.2,0.9,0.3,1.3c-0.8,0.4-1.8,0.7-2.7,1
				C100.9,150.4,100.9,150.4,100.8,150.4z M105.9,137.6c0,0.3-0.1,0.6-0.1,0.8c-0.1,0.4,0.1,0.6,0.3,0.8c0,0.4,0.1,0.8,0.1,1.2
				c-0.2,1.3-0.5,2.6-0.9,3.8c-0.1-1.4-0.3-2.8-0.4-4.2c0.3-1.4,0.6-2.8,0.9-4.2C105.7,136.5,105.8,137.1,105.9,137.6z M105.4,122.9
				c0,0,0.2,0,0.2-0.1c0,2.2-0.1,4.4-0.1,6.7c-0.3,1.3-0.6,2.7-0.9,4.1c0.2-2.9,0.5-5.8,0.4-8.7
				C105.2,124.2,105.2,123.5,105.4,122.9z M106.9,149.7c0.1-0.2,0.1-0.5,0.1-0.7c0.2-1.5,0.4-3.2,0.6-4.7c0.2-0.1,0.4-0.1,0.6-0.3
				c0.1,1.9,0.2,3.9,0.7,5.9c0.1,0.3,0.3,0.6,0.6,0.6l0,0c-0.9,0-1.8,0-2.7,0.1C106.7,150.3,106.8,149.9,106.9,149.7z M113.2,122.2
				c-0.2,0-0.5,0.1-0.6,0.2c0-1.2-0.2-2.4-0.3-3.6c0,0,0.1,0,0.1,0c-0.2,0.8,0.8,1.4,1.3,0.8C113.5,120.5,113.4,121.4,113.2,122.2z
				 M97.5,140.9c-0.2-0.1-0.3-0.1-0.4-0.2c-0.3-2.6-0.3-5.3-0.1-8c0.2,0.9,0.3,1.7,0.4,2.6C97.4,137.2,97.4,139,97.5,140.9z
				 M95.1,147.5c0.2-1.9,0.3-3.7,0.5-5.5c0,0,0,0,0,0c0.3,2.1,0.9,4.2,1.8,6.2c0.1,0.2,0.4,0.5,0.7,0.5c0.1,0.4,0.1,0.8,0.2,1.2
				c-0.8-0.3-1.7-0.7-2.4-1.3c-0.3-0.2-0.6-0.5-0.9-0.9C95.1,147.6,95.1,147.6,95.1,147.5z M94.5,106.9c0.1-1.4,0.2-2.7,0.2-4
				c0.1,0.8,0.2,1.6,0.3,2.4C94.8,105.8,94.7,106.4,94.5,106.9z M80.3,93.9c-0.1-0.2-0.2-0.4-0.2-0.5c0.6-0.6,1.2-1.1,1.8-1.6
				C81.3,92.5,80.8,93.2,80.3,93.9z M85.5,109.3c0,0.1,0,0.2,0,0.3c-0.2-0.8-0.4-1.6-0.6-2.4c0-0.2,0-0.3,0-0.5
				C85.1,107.6,85.3,108.4,85.5,109.3z M87.9,120.4c0-0.3-0.1-0.6-0.1-0.8c0.1,0.3,0.2,0.7,0.3,1c0,0.2,0.1,0.4,0.1,0.6
				c0,0,0,0,0,0.1C88.1,121,88,120.7,87.9,120.4z M114.3,124.1C114.3,124.1,114.3,124.1,114.3,124.1c0.5-2.2,0.8-4.3,1.2-6.5
				c0,0,0.2,0.1,0.3,0.1c0.1,0.5,0.7,0.7,1.2,0.3c0,0.5-0.1,0.9-0.1,1.4C115.6,120.9,114.8,122.4,114.3,124.1z M124.9,97.9
				c-0.7,4.9-2.3,9.6-4.9,13.8C121.4,107,123.4,102.5,124.9,97.9z M122.5,98c-0.2,0.4-0.4,0.9-0.6,1.2c0.7-3,1.2-6,1.3-9.2
				c0.1-0.4-0.2-0.7-0.6-0.9c0-0.5,0.1-1,0.2-1.5c0.4,2.1,0.8,4.4,1.2,6.5c0,0,0,0.1,0,0.1C123.5,95.5,123,96.7,122.5,98z M109,108
				c0-0.6-0.1-1.3-0.2-2c0.8-2.7,1.7-5.4,2.8-7.9c0.2,0.8,0.3,1.6,0.4,2.3C111.1,102.9,110.1,105.4,109,108z M100.7,124.9
				c-0.1,1.7-0.1,3.4-0.2,5.1c-0.1-1.8-0.2-3.6-0.3-5.4C100.3,124.8,100.5,124.9,100.7,124.9z M86.3,85.1c-0.1,0.1-0.2,0.2-0.2,0.3
				c-0.2-0.6-0.3-1.2-0.5-1.8c0.3-0.3,0.6-0.7,0.9-1.1C86.3,83.4,86.3,84.2,86.3,85.1z M92.2,124.8c0.1-0.1,0.2-0.2,0.2-0.3
				c0.1,0,0.1,0.1,0.2,0.1c0.1,0.8,0.2,1.6,0.3,2.5c0,0.3,0.2,0.5,0.4,0.6c0,2.9,0.1,5.9,0.1,8.8c0,1.2-0.1,2.4-0.2,3.7
				c-0.3-3-0.6-6.1-0.8-9.2C92.5,128.9,92.4,126.9,92.2,124.8z M117.1,121.7c-0.3,1.7-1,3.3-1.8,4.9
				C115.5,124.8,116.1,123.2,117.1,121.7z M118.7,117.7c0.1-0.6,0.2-1.2,0.3-1.9c1.2-1.5,2.3-3,3.2-4.7
				C121.1,113.4,119.9,115.7,118.7,117.7z M123.8,80.5c0.5,1.8,0.8,3.6,1,5.4c0.2,1.7,0.4,3.4,0.4,5.1c0,0.2-0.1,0.4-0.2,0.6
				c-1-5.2-2-10.4-4.3-15C122,77.8,123,79.1,123.8,80.5z M113.5,95.6c-0.2,0.5-0.3,1.1-0.5,1.6c-0.1-0.6-0.3-1.3-0.5-1.9
				c-0.1-0.4-0.6-0.6-1-0.4c1-2.8,2.2-5.6,3.6-8.3c-0.2,2.2-0.5,4.5-1,6.6C113.9,94.1,113.8,94.9,113.5,95.6z M103.4,82.1
				c0.5-1.9,1.1-3.8,1.8-5.6c-0.6,5.9-2.2,11.7-4,17.4C102.3,90,103.1,86.1,103.4,82.1z M79.9,74.4c-0.9,1.2-1.8,2.5-2.7,3.7
				c0.5-0.8,1-1.7,1.6-2.5C79.1,75.1,79.5,74.8,79.9,74.4z M76.6,88.5c-0.1-0.3-0.2-0.7-0.3-1c0.2-0.2,0.3-0.4,0.5-0.6
				c0,0,0,0,0,0.1c0.1,0.3,0.1,0.6,0.2,1C76.9,88.1,76.8,88.3,76.6,88.5z M81.9,74.1c0.1-0.1,0.1-0.3,0.2-0.4c0.3-0.5,0.7-1.1,1-1.7
				c0,0.2-0.1,0.5-0.2,0.8C82.6,73.2,82.2,73.7,81.9,74.1z M74.2,80.5c-0.2,0.4-0.4,0.8-0.6,1.2c-0.1,0-0.1-0.1-0.2-0.1
				C73.7,81.2,73.9,80.8,74.2,80.5z M75.3,82.7c-0.1,0.7-0.2,1.4-0.3,2.1c-0.5,0.6-1,1.3-1.5,1.9l0,0c0.1-0.9,0.2-1.8,0.3-2.6
				C74.3,83.6,74.8,83.1,75.3,82.7z M75.5,92.9c0.3-0.4,0.6-0.8,0.8-1.2c0,0.1,0.1,0.2,0.2,0.2c0.1,0.4,0.2,0.9,0.3,1.3
				c-0.3,0.4-0.6,1-0.8,1.4C75.8,94.1,75.6,93.5,75.5,92.9z M81.8,98c0.2-0.2,0.3-0.3,0.5-0.5c0,0.1,0,0.3,0,0.4
				c-0.1,0.2-0.2,0.3-0.4,0.4C81.9,98.2,81.8,98.1,81.8,98z M86.7,127.1c0.2,0.8,0.4,1.6,0.6,2.4c0,0.1,0,0.1,0,0.2
				c-0.4-1.4-0.7-2.7-1-4.1C86.5,126.1,86.6,126.6,86.7,127.1z M105.4,153.9c0.2,0,0.4-0.1,0.7-0.1c0,0,0,0,0.1,0
				c0.4,0.1,0.7,0.2,1.1,0.3c-0.1,0-0.1,0-0.2,0C106.5,154,106,153.9,105.4,153.9z M103.6,115c0.3-0.9,0.6-1.8,0.9-2.8
				C104.2,113.2,103.9,114.1,103.6,115z M111.1,84.7c-1.2,11.1-6.6,21.3-9.5,32c-0.4,0-0.8,0.3-0.8,0.8c0,0.8,0,1.6,0,2.4
				c-0.3,1.2-0.5,2.4-0.7,3.6c-0.1-1.6-0.2-3.2-0.3-4.7c2.1-6,3.8-12.3,5.6-18.4c0.9-2.7,1.8-5.4,2.7-8.1
				C109,89.7,110,87.2,111.1,84.7z M102.8,97.5c-1.7,5.4-3.5,10.9-4.8,16.4c0.2-2.1,0.4-4.2,0.6-6.3c1.7-6.3,4-12.6,5.8-18.9
				C103.8,91.6,103.3,94.5,102.8,97.5z M96.5,99.8c-0.1-1.2-0.2-2.4-0.4-3.7c0.4-2.2,0.8-4.3,1.2-6.5c0.2,1.8,0.2,3.6,0.2,5.4
				C97.2,96.6,96.9,98.3,96.5,99.8z M70.7,87.7c0,0.3-0.1,0.6-0.1,0.9c-0.1-0.6-0.2-1.2-0.3-1.9c0.1,0,0.2-0.1,0.3-0.2
				c0.2-0.1,0.3-0.1,0.4-0.2c0,0.2-0.1,0.5-0.1,0.7c-0.1,0.1-0.2,0.2-0.1,0.4C70.7,87.5,70.7,87.6,70.7,87.7z M71.6,97.2
				c0.1-1.3,0.3-2.6,0.4-3.9c0-0.1,0-0.1,0-0.1c0.2,0.6,0.4,1.2,0.7,1.9c0.1,0.3,0.1,0.7,0.2,1c0.1,2,0.1,4.1,0.2,6
				C72.8,100.5,72.2,98.8,71.6,97.2z M73.5,108.5c-0.1-0.1-0.1-0.3-0.2-0.4c0.1-0.5,0.1-0.9,0.2-1.4c0.1,0.4,0.1,0.8,0.1,1.2
				c0.1,0.4,0.1,0.7,0.2,1.1C73.7,108.8,73.7,108.7,73.5,108.5z M73.7,90.6c-0.1-0.6-0.9-0.5-1,0v0c0.1-0.6,0.3-1.2,0.3-1.8
				c0.2,0,0.3,0,0.4,0c0.2,0.8,0.5,1.7,0.7,2.6c0,0.4,0,0.8,0,1.3c0,0.2,0.1,0.4,0.2,0.5c0.1,0.6,0.1,1.3,0.2,1.9
				C74.2,93.7,74,92.2,73.7,90.6z M75.1,110.4c-0.3-1.3-0.5-2.6-0.6-3.9c-0.1-0.8-0.2-1.5-0.2-2.3c0.2,1.2,0.4,2.4,0.6,3.6
				c0,0,0,0.1,0,0.2c0,0.9,0.2,1.7,0.3,2.6C75.2,110.5,75.1,110.4,75.1,110.4z M76.4,96.5C76.4,96.4,76.4,96.4,76.4,96.5
				c0.3-0.2,0.5-0.4,0.7-0.6c0.2,1.8,0.3,3.5,0.5,5.3C77.1,99.6,76.8,98,76.4,96.5z M80.3,106.1c-0.1-0.4-0.2-0.8-0.2-1.2
				c0.2,0.6,0.3,1.2,0.5,1.8C80.5,106.5,80.4,106.3,80.3,106.1z M80.2,101.5c0.1,0,0.1-0.1,0.2-0.1c0.2,0.6,0.4,1.1,0.6,1.6
				c0.3,0.7,0.6,1.4,0.8,2.2c0,0.2,0.1,0.4,0.1,0.6c-0.2-0.2-0.4-0.2-0.6-0.1C80.9,104.3,80.5,103,80.2,101.5z M82.2,119.5
				c0.1-0.1,0.1-0.2,0-0.3c-0.2-0.6-0.4-1.2-0.5-1.8c0.5,1.3,1.3,2.5,2.1,3.6c0,0.3,0.1,0.5,0.2,0.7c0.1,0.7,0.3,1.4,0.4,2.1
				c-0.1-0.1-0.2-0.1-0.2-0.2C83.5,122.2,82.9,120.8,82.2,119.5z M84.9,131.9c-0.1-0.2-0.3-0.5-0.4-0.8c-0.1-0.7-0.3-1.4-0.5-2.1
				c0.1-0.1,0.1-0.1,0.2-0.2c1,1.9,1.9,3.7,2.9,5.6c0,0.1,0.1,0.3,0.1,0.4C86.4,133.7,85.6,132.8,84.9,131.9z M87.8,131.6
				c0.1,0.2,0.3,0.2,0.6,0.2c0,0.1,0,0.1,0,0.1c0.2,0.7,0.3,1.3,0.4,2c-0.3-0.8-0.6-1.6-1-2.3C87.8,131.7,87.8,131.6,87.8,131.6z
				 M90.6,150c0-0.3,0-0.5,0-0.9c0.1,0.3,0.1,0.5,0.2,0.8c0,0.1,0,0.2,0.1,0.2C90.9,150.1,90.8,150.1,90.6,150z M92.2,149.6
				c-0.1-0.3-0.1-0.6-0.2-1c0-0.1,0-0.1,0-0.1c0-0.8,0.1-1.6,0.1-2.4c0.1,0.1,0.1,0.2,0.1,0.3c0.1,0.9,0.1,1.9,0.2,2.8
				c0,0.4,0.3,0.6,0.5,0.6c-0.1,0.3-0.1,0.7,0.2,0.9c0.1,0,0.1,0.1,0.2,0.1c-0.6-0.2-1.2-0.4-1.9-0.6
				C91.9,150.3,92.2,150,92.2,149.6z M95.2,152.3c0.2,0.2,0.4,0.3,0.5,0.5c0,0-0.1,0-0.1,0c-0.2,0-0.5-0.1-0.7-0.2
				C95,152.6,95.2,152.4,95.2,152.3z"/>
			<path fill="#FFCC61" d="M105.1,57.3c-2.8,0.1-5.5,0.7-8.2,1.6c-0.1-0.1-0.3-0.1-0.5,0c-0.3,0.1-0.5,0.2-0.8,0.4
				c-0.7,0.2-1.4,0.4-2.1,0.6c0.6-0.3,1.1-0.7,1.7-1.1c0.5-0.4,0.2-1.2-0.4-1.1c0.4-0.4,0.2-1.2-0.5-1.1c-0.2,0.1-0.5,0.1-0.7,0.2
				c-0.2-0.2-0.4-0.2-0.7-0.1c-1,0.3-2,0.7-3,1.1c-6.4,1.8-12.8,4.8-16.8,10.1c-1.9,1.4-3.4,3.2-4.5,5.3c-0.3,0-0.5,0.2-0.6,0.6
				c-0.1,0.4-0.2,0.8-0.3,1.2c-0.5,1-0.9,2.1-1.3,3.1c0,0,0,0,0,0c0.1-0.9-1.3-1.2-1.4-0.2c-0.5,3.3-0.5,6.6-0.5,10
				c0,0.6,0.8,0.8,1.2,0.5c0,0.2,0.1,0.3,0.1,0.5c0.1,0.9,0.1,1.8,0.2,2.6l0,0c0,0.1,0,0.1,0,0.2c-0.2-0.6-0.4-1.3-0.6-1.9
				c-0.3-0.8-1.4-0.4-1.4,0.3c0,6.6,0.6,15.4,5.6,20.4c-0.2,0.2-0.2,0.6,0,0.8c0.4,0.6,0.8,1.1,1.2,1.6c-0.1,0.2-0.1,0.5,0.1,0.7
				c2.8,3.8,5.2,7.7,6.6,12.2c0.1,0.3,0.3,0.4,0.5,0.5c1.6,2.3,3.2,4.8,4.7,7.2c0.5,0.9,1.3,2.1,1.9,3.2c-0.2,0.2-0.2,0.5-0.1,0.9
				c0.3,0.5,0.6,1.2,1.2,1.6c0.4,0.2,1.1-0.3,1-0.8c-0.2-1.1-0.9-2.3-1.6-3.4c0.3-0.1,0.5-0.5,0.4-0.9c-0.3-1.1-0.8-2.1-1.3-3.1
				c-2-4.2-4.6-8.1-7.3-11.9c-0.2-0.6-0.4-1.3-0.6-2c0.2-0.2,0.3-0.5,0.2-0.8c-0.8-2.6-2.2-4.8-3.9-6.9c-0.5-1-1-2-1.6-3
				c0.5,0.2,1.3-0.2,1.1-0.9c-1.5-4.5-2.4-9.1-3.7-13.6c0.1-0.6,0.1-1.3,0.2-1.9c0.1,0.1,0.3,0.1,0.5,0c0.3,0.5,1.2,0.3,1.3-0.3
				c0.2-1.2,0.5-2.5,0.7-3.8c0.8-1.8,1.5-3.8,2-5.7c0.8-1.2,1.6-2.4,2.3-3.7c1.6-1.3,2.9-3,3.9-4.8c1.2-1,2.5-1.9,3.9-2.8
				c0,0.4,0.3,0.8,0.8,0.8c1.8-0.2,3.5-0.8,5.1-1.6c5.4,0,9.7-3.5,14.7-5c0.8-0.2,0.4-1.3-0.3-1.4c-1.4,0-2.9,0.1-4.4,0.3
				c0.3-0.5-0.4-1.2-1.1-0.9c-0.8,0.4-1.5,0.9-2.3,1.3c-0.4,0-0.8,0-1.1,0.1c0.9-0.6,1.8-1.3,2.6-2c1.1-0.3,2.3-0.6,3.5-0.9
				c-0.3,0.5,0.1,1.3,0.7,1c1.4-0.5,2.7-1.7,4.2-1.7C106.2,58.7,106,57.3,105.1,57.3z M69.4,75.7c0.2-0.3,0.5-0.7,0.8-1.1
				c-0.1,0.2-0.2,0.3-0.2,0.5C69.8,75.3,69.6,75.5,69.4,75.7z M82.1,64.8c1.1-0.8,2.2-1.5,3.3-2.3c0,0,0,0.1,0.1,0.1
				c-1.2,0.7-2.2,1.5-3.2,2.3c-0.1,0-0.1,0-0.1,0C82.1,64.9,82.1,64.9,82.1,64.8z M86.8,61.6c1.6-1.1,3.4-2.2,5.1-3
				c0.7-0.2,1.3-0.3,2-0.5c-1.9,0.9-3.7,2-5.5,3.2C87.9,61.4,87.3,61.5,86.8,61.6z M79.6,67.3c-0.2,0.2-0.3,0.6-0.5,0.9
				c-0.3,0.2-0.6,0.4-0.9,0.6C78.6,68.2,79.1,67.7,79.6,67.3z M66.5,84.4c0.2,1,0.3,2.1,0.3,3.2c-0.2-1.2-0.3-2.3-0.5-3.4
				C66.4,84.3,66.4,84.3,66.5,84.4z M67.7,105.5c-1.5-3.1-2.1-6.7-2.3-10.2c0.2,0.5,0.3,0.9,0.4,1.3c0.1,0.8,0.2,1.6,0.4,2.4
				c-0.1,0.2-0.2,0.4-0.1,0.7c0.5,1.9,1.1,3.8,1.7,5.6C67.8,105.4,67.8,105.4,67.7,105.5z M71.3,77.9c-0.1,0.2-0.2,0.4-0.3,0.6
				c-0.1,0.2-0.1,0.3-0.1,0.5c-0.3,1.2-0.7,2.4-1,3.7c-0.1-1.3-0.2-2.5-0.4-3.7c0-0.1-0.1-0.1-0.1-0.1c0-0.1,0-0.2,0-0.2
				c0-0.3-0.2-0.6-0.4-0.7c0.6-0.5,1.1-1.2,1.8-1.8c0,0,0.1-0.1,0.2-0.1c-0.1,0.2-0.2,0.4-0.3,0.6c-0.2,0.5,0.2,0.9,0.6,0.9
				C71.4,77.8,71.3,77.9,71.3,77.9z M96.1,63.6c0.9-0.1,1.8-0.2,2.7-0.3c-2.2,1-4.3,2.1-6.6,2.7C93.5,65.3,94.7,64.4,96.1,63.6z
				 M92.4,63.8c-1,0.6-2.1,1.2-3.2,1.9c0.9-0.6,1.8-1.2,2.7-1.8C92.1,63.9,92.3,63.9,92.4,63.8z"/>
			<path fill="#FADCA2" d="M135.5,98c1-3.7,1.5-7.6,0.6-11.4c-0.1-0.4-0.6-0.4-0.9-0.2c0-0.6,0.1-1.2,0-1.8c0.4-0.1,0.7-0.6,0.6-1.1
				c-0.2-0.3-0.3-0.7-0.4-1.1c-0.6-3.5-2.4-6.7-4.2-9.8c-0.3-0.7-0.6-1.3-1-2c0.6,0.2,1.1-0.6,0.8-1.2c-2.2-3.5-6.3-7.7-10.7-10
				c0.9,0,1.8,0.2,2.8,0.3c0.8,0.2,1-1.1,0.2-1.3c-5.2-1.4-10.1-3.3-15.6-3.2l0,0c-0.4,0-0.5,0.6-0.4,0.9c-2.8-0.9-5.6-0.9-8.5-0.2
				c-0.7,0.1-1.4,0.2-2.1,0.3c-0.2-0.2-0.4-0.4-0.7-0.4c-0.2,0-0.4,0-0.6,0c-0.1-0.2-0.3-0.3-0.5-0.3c-0.1,0-0.2,0-0.2,0l0,0l0,0
				c-2.7-0.1-5.1,0.4-7.5,1.5c-7.5,1.9-14.5,5.3-20.3,11c-0.5,0.5,0.3,1.3,0.9,0.9c2.8-2.2,5.6-4.4,8.7-6.2c-1.5,1-2.9,2.2-4.2,3.5
				c-0.3-0.1-0.6,0-0.8,0.2c-1.2,1.6-2.4,3.3-3.5,5c-0.2,0.2-0.4,0.5-0.6,0.7c-0.1,0.1-0.1,0.2-0.1,0.3c0,0.1-0.1,0.1-0.1,0.1
				c-0.8,1.2-1.6,2.4-2.4,3.7c-0.2,0.4,0,0.8,0.2,1c-0.5,1-0.9,2-1.4,3c-0.4,0.8,0.9,1.4,1.2,0.6c1.7-3.8,3.9-7.2,6-10.7
				c2.1-2.2,4.3-4.2,6.7-6.1c2.5-1.6,5.3-2.8,8.6-3.4c0.6-0.1,0.5-0.9-0.1-0.9c-2.1,0.1-4,0.6-5.7,1.3c-0.1-0.1-0.2-0.2-0.3-0.2
				c0,0,0.1,0,0.2,0c1.5-0.7,3.1-1.2,4.7-1.7c0.2,0.3,0.5,0.4,0.9,0.3c0.2-0.1,0.4-0.2,0.6-0.2c-0.2,0.5,0.3,1.2,1,1
				c1.1-0.3,2.2-0.7,3.3-1c0,0,0.1,0.1,0.1,0.1c0.3-0.1,0.7-0.1,1-0.1c0.1,0.3,0.3,0.6,0.8,0.6c4.7-0.3,9.3-1.4,14-1.3
				c0.3,0,0.6-0.2,0.7-0.4c0.3,0,0.6-0.1,1-0.1c0.9-0.1,0.7-1.5-0.1-1.4c-0.1,0-0.3,0-0.4,0c0,0,0,0-0.1,0c0-0.1,0-0.1,0-0.1
				c0.3,0.1,0.6,0.1,0.9,0.1c0.9,0.2,1.7,0.7,2.4,1c0.4,0.2,0.7-0.5,0.3-0.6c0,0,0,0,0,0c1.9,0.3,3.7,0.7,5.5,1.2
				c-0.3,0-0.5,0-0.8,0.1c-1-0.2-2.1-0.3-3.1-0.2c-0.7,0.1-0.6,1.2,0.1,1.2c0.4,0,0.7,0,1.1,0c0,0.1,0.1,0.2,0.3,0.2
				c0.6,0.1,1.2,0.1,1.9,0.2c4.3,1.1,8.5,4.9,11.4,8.4c-3.5-2.1-6.8-4.7-10.6-6.5c-0.8-0.3-1.5,0.8-0.8,1.3c1.3,0.9,2.5,1.8,3.8,2.7
				c0,0.1,0,0.1,0,0.1c2,5.5,5.2,10.6,10.1,14c0.3,0.2,0.6,0.2,0.9,0.1c0.1,0.2,0.3,0.5,0.4,0.8c0.1,0.3,0.1,0.6,0.1,0.9
				c-0.3,3.3-0.2,6.5-0.2,9.8c0,0.3,0.1,0.4,0.2,0.6c-0.2,0.4-0.3,0.9-0.4,1.3c-1.4,2.7-2.3,5.5-3.1,8.3c-2.1,4.1-3.3,8.8-4.3,13.4
				c-0.2,0.5-0.4,0.9-0.6,1.4c-2.3,4-4.6,7.9-6.6,11.9c-0.3,0.1-0.6,0.3-0.7,0.7c-0.1,1.7-0.3,3.5-0.5,5.3c0,0.3-0.1,0.6-0.2,0.9
				c-0.1-1.3-0.2-2.6-0.3-3.9c-0.1-1.1-1.6-0.8-1.6,0.2c0,0.2-0.1,0.5-0.1,0.7c-0.1,0.1-0.2,0.2-0.2,0.4c-0.9,4-0.8,8.1-1,12.2
				c-0.1,1.2-0.2,2.3-0.3,3.5c0,0.3,0.1,0.6,0.3,0.7c0,0.6,0.6,0.9,1.1,0.6c0,0.9-0.1,1.9-0.1,2.8l0,0l0,0c0,0.1,0,0.1,0,0.2
				c0,0.9,1.5,0.9,1.6,0c0-0.4,0.1-0.8,0.1-1.2c0.4,0.1,0.9-0.1,0.9-0.6c0.1-2.4,0.3-4.8,0.2-7.2c0.2-2,0.4-3.9,0.7-5.8
				c2-4,3.8-8,5.4-12.1c0.1-0.1,0.1-0.1,0.1-0.2c1.1-2.4,2.2-4.8,3.2-7.1c0.4,0.2,0.9,0.1,1.1-0.4c0.3-0.8,0.6-1.5,1-2.4
				c-0.2,1.1-0.5,2.3-0.9,3.4c0,0.2,0,0.2-0.1,0.3c-0.2,0.8,1.2,1.3,1.5,0.4c0,0,0-0.1,0-0.2l0,0c1.1-4.1,2.6-8,4.1-12
				c1.5-2.7,2.6-5.5,3.2-8.7C135.6,98.3,135.6,98.2,135.5,98z M127.5,69.1c0,0.1,0,0.2,0,0.2c0,0.1,0.1,0.2,0.1,0.3
				c-0.3-0.3-0.6-0.6-0.8-1C127.1,68.9,127.3,69,127.5,69.1z M123.2,67.7c1.7,1.5,3.2,3.1,4.6,4.8c0.8,1.2,1.4,2.6,1.8,4.1
				C126.9,74.1,124.8,71.1,123.2,67.7z M134,98.1c-0.1,0.1-0.2,0.2-0.3,0.4c0.1-0.9,0.2-2,0.3-3c0-0.3-0.1-0.4-0.2-0.6
				c0-0.5,0-0.9,0-1.4c0.6-1.9,1.1-3.8,1.3-5.6C135.7,91.2,135,94.7,134,98.1z"/>
			<path fill="#FADCA2" d="M124.4,85c-0.2-0.2-0.3-0.4-0.4-0.6c0-0.1,0-0.1,0-0.2c-0.2-3.6-1.6-6.6-4-9.2c-0.6-0.6-1.4-0.3-1.5,0.3
				l0,0c-0.2-0.2-0.3-0.3-0.5-0.4c-1.3-1.8-2.7-3.5-4.4-4.9c0.3,0,0.6-0.1,0.9-0.1c0.9-0.1,1-1.6,0-1.6c0,0-0.2,0-0.2,0l0,0l0,0
				c-0.5-0.1-1.1-0.1-1.6-0.1c-0.1-0.5-0.9-0.8-1.1-0.2c0,0.1-0.1,0.1-0.1,0.2c-0.1,0-0.1,0-0.2,0c0,0,0,0,0,0
				c0.3-1.1,0.6-2.2,0.6-3.5c0-0.6-0.6-1.1-1.2-0.7c-1.2,0.8-2.3,1.6-3.4,2.5c-1.9-0.5-3.9-0.6-6.1-0.1c-0.5,0.1-0.9,0.6-0.7,1.1
				c0.3,0.7,0.6,1.3,1,1.8c0,0-0.1,0-0.2,0c-0.2,0-0.3,0-0.5,0c-0.2,0.1-0.4,0.1-0.6,0.2c0,0,0.1,0,0.1-0.1c0.8-0.5,0.1-1.6-0.7-1.4
				c-0.1,0-0.2,0.1-0.3,0.1c0.3-0.6-0.3-1.4-1-1.1c-0.5,0.2-1.1,0.4-1.6,0.6c-1.4,0.5-2.8,1-4.1,1.6c-0.6,0.3-0.6,1.1-0.2,1.4
				c0,0,0,0,0,0.1c-0.5,0.3-1,0.6-1.5,0.9c-0.7,0.5-0.2,1.4,0.5,1.5c-0.2,0.2-0.3,0.2-0.5,0.3c-0.6,0.6-0.2,1.5,0.6,1.5
				c0.9,0,1.9,0,2.8,0.1c2.3,4.3,6.7,6.4,11.2,7.8c0.9,0.3,1.6-1.1,0.6-1.4c-2.3-0.7-4.7-1.7-6.7-3.1c0-0.2,0-0.3-0.2-0.5
				c-0.1-0.2-0.2-0.3-0.3-0.4c0.2,0.2,0.6,0.2,0.9,0c1.3-0.8,2.6-1.7,3.8-2.7c2.9,3.5,6.2,6.4,9.9,9.2c0.3,0.2,0.6,0.2,0.8,0.1
				c0.2,0.1,0.3,0.2,0.5,0.4c0.8,0.6,1.7-0.4,1.2-1.2c-0.2-0.4-0.4-0.7-0.7-1.1c0.9,0.9,1.8,1.8,2.8,2.8c0.3,0.3,0.8,0.2,1.1,0
				c0,0,0.1,0.1,0.1,0.1c0.3,0.6,1.2,0.4,1.4-0.1c0.4,0.4,1.2,0.2,1.4-0.3c0.3,0.5,0.7,1,1,1.5C123.7,87,125,86,124.4,85z
				 M96.9,73.3c-0.6-0.4-1.3-0.7-2-1c0.2-0.2,0.4-0.3,0.6-0.5c0.2,0.3,0.5,0.5,0.9,0.4c0.5-0.2,1-0.3,1.5-0.4c0,0.1,0,0.2,0,0.2
				c-0.2,0.2-0.5,0.4-0.7,0.6C97,72.7,96.9,73,96.9,73.3z M106.4,72.9c-0.1-0.1-0.2-0.2-0.3-0.4c0-0.1,0-0.1,0.1-0.1
				c0.2-0.1,0.5-0.2,0.7-0.2C106.6,72.3,106.4,72.6,106.4,72.9z M109.4,73.8c0.1-0.1,0.2-0.2,0.3-0.2c0.4,0.3,0.9,0.5,1.4,0.8
				c0.3,0.4,0.7,0.8,1,1.3c-0.4-0.2-0.8-0.3-1.3-0.5C110.3,74.7,109.8,74.2,109.4,73.8z M116.1,80c0.2,0.3,0.3,0.7,0.5,1
				c-0.3-0.2-0.6-0.5-0.9-0.8C115.9,80.2,116,80.1,116.1,80z M109.6,67.4c0-0.1,0.1-0.2,0.2-0.3c0.1-0.2,0.1-0.3,0-0.5
				c0.1-0.1,0.2-0.1,0.3-0.2c-0.1,0.4-0.2,0.8-0.3,1.1C109.7,67.5,109.7,67.4,109.6,67.4z M102.6,67.9c0.8-0.1,1.6-0.1,2.3,0
				c0,0.2,0,0.4,0.1,0.6c0,0.1,0,0.1,0,0.1c-0.1,0.1-0.2,0.2-0.3,0.3c-0.3,0-0.7,0-1,0C103.3,68.7,102.9,68.3,102.6,67.9z
				 M97.2,75.5c0.2,0,0.4,0,0.6,0.1c0.9,0.1,1.2-1.1,0.4-1.5c-0.1-0.1-0.1-0.1-0.2-0.1c0,0,0.1,0,0.1,0c0.5-0.4,0.9-0.7,1.3-0.9
				c-0.1,0.5,0.2,1.1,0.8,1c-0.6,0.8-1.1,1.5-1.7,2.3c-0.2,0.2-0.2,0.5-0.1,0.8C98.1,76.5,97.6,76,97.2,75.5z"/>
			<path fill="#FFF2DD" d="M107.4,72.7c-0.2,0.2-0.3,0.4-0.5,0.6c-0.1-0.1-0.2-0.3-0.4-0.3c0.1-0.4,0.1-0.8,0.2-1.2
				c0-0.1,0-0.2-0.1-0.4c0.2,0,0.3,0,0.4,0c0.9,0,0.8-1.2,0.1-1.5c-0.2,0-0.4-0.1-0.5-0.2c0.5-0.2,0.5-1-0.1-1.3
				c-3-1.5-6.1-1.7-9.3-1.3c0-0.5-0.3-0.8-0.8-0.8c-1.4,0-2.3,1.6-2.9,3.3c-0.6,0.4-1.2,0.8-1.7,1.2c0.1-0.1,0.1-0.3,0.2-0.4
				c0.3-0.7-0.5-1.3-1-0.9c-0.9,0.5-1.5,1.3-2.3,1.9c-0.7,0.5,0.1,1.5,0.8,1.1c0.1-0.1,0.2-0.2,0.3-0.3c-0.1,0.3-0.2,0.7-0.4,1
				c-0.3,0.8,0.7,1.3,1.2,0.7c0.1-0.1,0.2-0.2,0.4-0.4c0.1,0.5,0.7,0.8,1.1,0.3c0.2-0.3,0.4-0.5,0.7-0.8c0.1,0.1,0.2,0.2,0.3,0.2
				c-0.2,0.2-0.3,0.3-0.5,0.5c-0.5,0.5,0.2,1.4,0.7,1.1c0.1-0.1,0.2-0.1,0.4-0.2c0.1,0,0.2,0,0.3-0.1c0.3-0.2,0.7-0.5,1-0.7
				c0.2-0.1,0.4-0.3,0.6-0.4c0.8,0,1.6,0,2.4,0.1c0,0,0.1,0,0.1,0.1c-1.1,0.3-2.2,0.6-3.4,0.9c-0.7,0.2-0.9,1.4,0,1.5
				c2.2,0.2,4.3,0.1,6.5,0c0.2,0.3,0.6,0.4,1,0.2c0.1-0.1,0.2-0.2,0.4-0.3c0.6-0.1,1.2-0.1,1.8-0.2c0,0,0,0,0,0.1
				c-0.2,0.7,0.7,1,1.1,0.7c0.4-0.2,0.8-0.5,1.1-0.8c0.2,0.4,0.3,0.8,0.3,1.3c0.1,0.9,1.5,0.8,1.5-0.2c0-1.2,0.3-2.4,0.2-3.6
				C108.7,72.4,107.8,72.3,107.4,72.7z M98.5,71.1c0.4-0.4,0.8-0.8,1.2-1.2c0.1,0,0.1,0,0.1,0c-0.1,0.3,0,0.7,0.4,0.9
				c0.3,0.1,0.6,0.3,0.9,0.4c-0.1,0-0.3,0.1-0.4,0.2C99.6,71.4,99,71.6,98.5,71.1z"/>
			<path fill="#FFF2DD" d="M114.5,60.6c-0.6,0-1.1,0-1.7-0.1c0,0,0.1,0,0.2,0c0.7-0.1,0.7-1.1,0.1-1.2c-2.4-0.5-4.8-1-7.3-1.3
				c-0.5,0-0.7,0.5-0.5,0.9c0,0.1,0.2,0.2,0.2,0.4c0,0,0,0.1-0.1,0.1c-1.5,0.1-2.9,0.2-4.4,0.5c-0.7,0.1-0.9,1.3,0,1.4
				c0.1,0,0.2,0,0.3,0c0.1,0.1,0.2,0.2,0.4,0.2c0.2,0.1,0.4,0.1,0.5,0.1c0,0,0,0-0.1,0c-0.7-0.1-1.2,1.1-0.4,1.4
				c3.5,1.2,7.1,1.6,10.7,2.2c0.7,0.1,1.2-0.9,0.6-1.3c-0.3-0.2-0.6-0.5-0.9-0.7c0.2,0,0.3,0,0.5,0c0.6,0,0.7-0.6,0.5-1
				c0.5,0,0.9,0,1.4,0c0.5,0,0.7-0.3,0.6-0.7C115.3,61,115,60.6,114.5,60.6z"/>
			<path fill="#FFF2DD" d="M135.7,71.1c-0.1-0.1-0.2-0.3-0.3-0.4c-0.3-0.6-0.6-1.3-0.9-1.9c-1.9-3.6-4.9-6.5-8.2-8.7
				c-3.2-2-6.6-3.3-10.3-4c0-0.3-0.1-0.7-0.6-0.8c-2.4-0.6-4.8-0.8-7.2-0.9c-2.7-0.6-5.5-0.9-8.4-0.8c-0.8,0.1-0.8,1.2,0,1.3
				c0.9,0.2,1.7,0.3,2.6,0.5c-0.3,0.4,0,1.1,0.7,1.1c7.5,0.1,15.2,0.8,21.8,4.5c0.3,0.1,0.5,0.3,0.8,0.5c-0.7-0.2-1.5-0.3-2.3-0.4
				c-0.5,0-0.6,0.6-0.1,0.7c2.9,0.7,5.3,2,7.1,3.9c0.9,1,1.7,2.1,2.5,3.4c0.5,0.8,0.9,1.6,1.3,2.4c0,0.2,0,0.4,0.1,0.5
				c0.1,0.1,0.2,0.2,0.2,0.2c0.5,1.5,0.9,3.1,1.1,4.8c-0.2,0.1-0.3,0.3-0.2,0.5c0.4,3.3,0.4,6.6,0.2,9.8c-0.5,3.4-1.4,6.5-2.7,9.2
				c-0.3,0.7,0.4,1.2,1,0.9c-0.4,1.7-1,3.4-1.6,5.1c-0.2-0.4-0.9-0.3-1,0.2c-0.2,1-0.4,1.8-0.3,2.8c-1.4,2.5-2.9,5-4.3,7.5
				c-0.2,0.5,0.1,0.9,0.5,1c-1.7,2.8-3.3,5.7-4.4,8.7c-2.2,3.9-3.8,8.3-4.8,12.1c-0.1,0.2,0,0.5,0.2,0.6c-0.1,0.3-0.1,0.6-0.2,0.9
				c0,0.2,0,0.3,0.2,0.4c-0.2,0.1-0.4,0.2-0.4,0.5c-0.2,0.9-0.2,2.1-0.2,3.4c-0.2,0.1-0.3,0.3-0.4,0.4c-0.1,0.1-0.1,0.3-0.1,0.4
				c0-0.1,0-0.1,0-0.1c0-0.8-0.1-1.5-0.1-2.3c0-0.7-1.2-0.7-1.2,0c0,0,0,0.1,0,0.2l0,0l0,0c0,0.7,0,1.4,0,2.2
				c-0.1,0.1-0.2,0.2-0.2,0.4c0.1,0.8,0.1,1.5,0.2,2.3c0,1.6,0,3.3-0.1,4.9c-0.1,0.1,0,0.2,0,0.3c-0.1,0.7-0.2,1.4-0.3,2.1
				c-0.2,0.1-0.3,0.2-0.6,0.3c-0.4,0.2-0.6,0.6-0.4,1c0.2,0.7,0.5,1.3,0.7,2.1c0.2,0.7,1.5,0.6,1.5-0.2c0-0.4,0.1-0.8,0.1-1.2
				c0.4,0.1,0.9-0.2,0.9-0.8c0-0.5,0-0.9,0-1.5c0.4-0.5,0.6-1.1,0.9-1.7c0,0.3,0,0.6,0,0.9c0,1,1.4,0.8,1.5-0.1c0.1-4,0-7.9,0-11.8
				c0-0.3-0.1-0.5-0.3-0.6c0.2-1.7,0.5-3.3,0.7-5c0-0.1,0-0.2,0-0.2c0.3-0.8,0.7-1.6,1-2.4c0.4-0.7,0.9-1.4,1.4-2.1
				c0.3,0.1,0.6,0.1,0.9-0.2c0.6-0.9,1.2-1.7,1.9-2.7c0,0.1,0,0.1,0.1,0.2c-0.1,0.3-0.1,0.6-0.2,0.9c-0.1,0.8,0.9,1.2,1.4,0.6
				c3.4-4.1,5.5-8.9,7.6-13.8c1.7-2.7,3.1-5.6,3.9-8.7c0,0,0,0,0-0.1c0.3,0,0.6-0.1,0.7-0.5c0.3-0.9,0.6-1.9,0.9-2.8
				c1.3-4.2,2.5-8.3,2-12.8c0-0.3-0.2-0.6-0.5-0.6c0-0.4-0.1-0.7-0.1-1c0,0.1,0.1,0.3,0.1,0.4c0.3,0.9,1.5,0.5,1.5-0.3
				C142.7,80.9,140.7,74.4,135.7,71.1z M128.1,122.3c0.2-0.7,0.5-1.3,0.8-2c0.3-0.3,0.5-0.6,0.8-0.9
				C129.2,120.4,128.7,121.4,128.1,122.3z M136.7,90c0-0.3,0.1-0.5,0.1-0.8c0.3-1.6,0.5-3.4,0.6-5.1c0.1,0,0.2,0.1,0.2,0.1
				C137.5,86.2,137.2,88.1,136.7,90z"/>
			<path opacity="0.49" fill="#FFF2DD" d="M84.7,70.7c-0.6-0.2-1.2-0.2-1.8,0c0,0-0.1-0.1-0.1-0.1c-0.1-0.2-0.3-0.3-0.5-0.2
				c-3.8,1.4-6.1,5.6-7.8,9c-1.9,3.8-4.1,9.1-3.5,13.4c0.1,0.6,1,0.7,1.2,0.1c0.2-0.9,0.4-1.9,0.6-2.9c0.1,0.4,0.2,0.8,0.3,1.2
				c0,0.1,0.1,0.2,0.2,0.2c-0.2,1.4-0.3,2.9-0.1,4.2c0.1,0.7,1,0.6,1.1,0c0-0.1,0.1-0.3,0.1-0.4c0.3,0.2,0.9,0.1,1-0.4
				c0-0.7,0-1.4,0-2c0.2,0.3,0.4,0.7,0.7,1c0.4,0.5,1.3,0.1,0.9-0.5c-0.6-1.3-1-2.8-1.1-4.5c0.6-2.8,1.3-5.4,2.5-7.9
				c0.6-0.7,1.3-1.3,2.2-1.8c0.6-0.3,0.3-1.3-0.4-1c-0.1,0-0.1,0-0.1,0c0.4-0.5,0.8-1.1,1.3-1.6c0.2-0.2,0-0.6-0.3-0.5
				c0,0,0,0-0.1,0c0.1-0.1,0.2-0.2,0.3-0.4c0.3-0.3,0.1-0.9-0.3-0.9c0.2-0.1,0.5-0.1,0.7-0.1c0.7,0,0.7-1.2,0-1.2
				c-0.2,0-0.4,0-0.6,0c1.1-1.2,2.3-2,3.3-1.8C85,71.6,85.2,70.9,84.7,70.7z"/>
			<path opacity="0.77" fill="#FFF2DD" d="M90.3,68.1c-0.3-0.4-0.7-0.7-1.1-0.9c0.2-0.1,0.4-0.2,0.6-0.3c0.5-0.3,0.1-1.1-0.4-0.9
				c-3.7,1.3-6.9,3.7-9.6,6.5c0.9-1.4,1.9-2.6,3.3-3.4c0.4-0.2,0.1-0.8-0.4-0.7c-2.3,0.9-3.6,3.4-4.6,5.5c-0.2-0.1-0.5,0-0.6,0.3
				c-2.2,5.1-4.4,10.1-5.8,15.4c-0.3-0.1-0.7,0.1-0.7,0.4c-0.2,1.2-0.2,2.4-0.1,3.5c-0.4,3.8-0.2,7.9,2.4,10.4
				c0,0.2,0.1,0.3,0.1,0.4c-0.3,0.2-0.5,0.6-0.3,1c0.3,0.6,0.7,1.2,1,1.8c-0.1,0.2-0.1,0.5,0.1,0.7c1.8,2.9,3.6,5.7,5.5,8.4
				c0.5,0.8,1.6,0,1.1-0.8c-0.5-0.9-1.1-1.8-1.6-2.8c0.1,0,0.1-0.1,0.1-0.2c0.5,0,0.9-0.5,0.7-1c-2-4.9-3.3-9.6-3.2-14.8
				c0.3-2.8,0.5-5.4,0.6-8.2c0.3-0.9,0.7-1.9,1-2.9c0.2-0.5-0.2-1-0.6-1.1c0.4-1.2,0.8-2.5,1.2-3.8c0.1-0.4-0.1-0.8-0.3-0.9
				c0.7-1.5,1.5-3,2.4-4.4c0.8-0.8,1.5-1.6,2.3-2.5c0.5-0.6,1-1.3,1.6-2c1.1-0.8,2.3-1.5,3.6-2c0.3,0,0.7,0,1,0.2
				C90,69.4,90.6,68.7,90.3,68.1z M73.1,89.6c0.1-0.9,0.3-1.7,0.6-2.5c0-0.1,0-0.2,0-0.3c0.3-1,0.6-1.9,1-2.9
				c-0.1,0.3-0.2,0.7-0.2,1.1c0,0.1,0,0.2,0,0.2c-0.2,0.7-0.4,1.4-0.5,2.1c0,0.1,0,0.1,0,0.2C73.6,88.2,73.3,88.9,73.1,89.6z
				 M73.8,99.2c0.4,1.4,1,2.8,1.5,4.2C74.7,102,74.2,100.6,73.8,99.2z M76.9,79.4c0.2-0.6,0.3-1.2,0.5-1.8c0-0.1,0.1-0.1,0.1-0.1
				c0.2-0.1,0.3-0.1,0.5-0.2C77.7,78,77.3,78.6,76.9,79.4z"/>
			<path fill="#F7BC22" d="M142.2,86.5c-0.1-0.6-0.8-0.7-1.1-0.4c0.2-8.9-2-17.9-8.9-23.2c-0.3-0.3-0.7-0.2-0.9,0.1
				c0,0-0.1-0.1-0.1-0.1c-0.2-0.2-0.5-0.2-0.7,0c-0.3-0.3-0.7-0.7-1.1-1c1,0.3,2,0.3,3.2,0.4c0.7,0.1,1.1-1,0.3-1.3
				c-2.5-1-5.1-1.7-7.6-2.5c-0.1-0.1-0.2-0.1-0.3-0.1c-2.2-0.7-4.4-1.6-6.5-2.8c-0.6-0.4-1.2,0.7-0.7,1.2c0.9,0.7,1.8,1.4,2.7,1.9
				c-0.4-0.1-0.8-0.2-1.3-0.3c-1.6-1-3.4-1.6-5.4-1.6c-0.6,0-0.5,1,0.1,1c0.1,0,0.1,0,0.2,0c-0.4,0.2-0.4,0.8,0.1,1.1
				c3.3,1.9,6.9,3.1,10.6,4.4c0.5,0.2,0.8-0.2,0.8-0.6c0.8,0.8,1.7,1.5,2.6,2.3c2.5,3.3,4.6,6.9,7.2,10.2c0.2,0.3,0.5,0.7,0.7,1
				c0.1,0.2,0.2,0.2,0.4,0.3c0.2,0.2,0.3,0.4,0.5,0.6c0,0.8,0,1.5,0,2.2c-0.2-0.6-0.6-1.2-1-1.8c-0.1-0.2-0.1-0.4-0.2-0.7
				c-0.1-0.4-0.5-0.5-0.9-0.3c-0.3-0.2-0.8,0.1-0.9,0.5c-0.7,2.9-0.2,5.5,0.7,8.2c-1.8,7.4-3.5,15-3.4,22.6
				c-1.2,1.8-2.2,3.6-3.2,5.6c-0.4,0.7-0.8,1.4-1.2,2.1c0,0-0.1,0.1-0.2,0.1c-0.1,0.1-0.2,0.2-0.2,0.4c-0.3-0.4-0.9-0.5-1.1,0
				c-1,2.4-2,4.9-2.9,7.3c-0.1,0.2-0.2,0.5-0.3,0.8c-0.3-0.3-1.1-0.3-1.2,0.3c-0.4,1.7-0.7,3.3-1.1,5.1c-0.9,1.9-1.8,3.9-2.7,5.9
				c-0.3,0.6,0.6,1.2,1.1,0.6c0.1-0.1,0.2-0.3,0.3-0.5c-0.1,0.5-0.2,0.9-0.3,1.4c-0.1,0.1-0.2,0.2-0.2,0.3c0,0.3,0,0.5,0,0.8
				c-0.4,1.6-0.8,3.1-1.2,4.7c-0.1,0.5,0.3,0.8,0.8,0.6c0,1.3,0,2.6,0,3.9c0,0.1,0,0.2,0.2,0.3c-0.2,0.9-0.2,1.9-0.4,2.9
				c-0.3,2.2-0.7,4.3-1.1,6.4c-0.1,0.8,1.2,1,1.3,0.2c0.2-1.1,0.4-2.2,0.6-3.3c0.3,0.4,1.1,0.3,1.2-0.3c0.2-1.5,0.4-3.1,0.5-4.5l0,0
				c0.2,0.8,1.4,0.4,1.3-0.3c-0.2-1.7-0.4-3.3-0.6-5c0.1-3.3,0.9-6.7,1.8-9.7c0-0.2,0.1-0.4,0.2-0.7c0.3,0.2,0.7,0.1,0.9-0.3
				c0.3-0.7,0.7-1.5,1-2.2c1.1-2,2.2-4,3.1-6.1c0.3-0.6,0.5-1.1,0.8-1.6c0.1,0,0.1-0.1,0.2-0.2c3.5-4.8,7-9.6,9.4-15.1
				c0.2-0.5-0.2-0.9-0.6-0.9c0.4-1.1,0.7-2.2,1-3.3c0.2-0.2,0.3-0.5,0.4-0.7c0.2,0.2,0.4,0.2,0.5,0.2c0.1,0.6,1.1,0.7,1.3,0.1
				C141.9,97.7,142.8,92.2,142.2,86.5z M136.6,99.8c0.2-1.2,0.4-2.3,0.6-3.5c0.1,0.7,0.1,1.5,0.1,2.2
				C137.1,99,136.8,99.4,136.6,99.8C136.6,99.8,136.6,99.8,136.6,99.8z M129.1,63.8C129,63.8,129,63.8,129.1,63.8
				c-0.3-0.3-0.5-0.6-0.8-0.9c0.1,0.1,0.2,0.1,0.3,0c0.2,0.2,0.5,0.4,0.7,0.6C129.2,63.7,129.1,63.8,129.1,63.8z M139.3,92.2
				c0-0.1,0-0.2,0-0.2c-0.1-1.4-0.2-2.8-0.5-4.2c0.1-0.8,0.2-1.5,0.3-2.4c0.1-0.7-0.7-1-1.1-0.6c0-0.1-0.1-0.2-0.1-0.2
				c0.1-2.3,0.2-4.7,0.2-7c0.2-0.2,0.3-0.4,0.2-0.7c0.2,0.1,0.4,0,0.6-0.1C140,81.7,139.9,87.1,139.3,92.2z M124.3,61.4
				c0,0.2,0.1,0.3,0.2,0.5c-0.6-0.3-1.2-0.7-1.8-1.1C123.3,61,123.8,61.2,124.3,61.4z M118.2,59.5c0.3,0.1,0.6,0.2,1,0.2
				c0.2,0.2,0.4,0.3,0.7,0.5C119.3,60,118.8,59.7,118.2,59.5z M135.1,87.6c-0.6,5.1-1.7,10.2-2.3,15.3c-0.1,0.4,0.2,0.6,0.5,0.8
				c-0.1,0.4-0.2,0.8-0.4,1.2c-0.2,0.3-0.4,0.5-0.6,0.8C132.5,99.7,133.8,93.6,135.1,87.6z M119.7,137.4c0.1-1.1,0.3-2.2,0.5-3.4
				c0.3-1.2,0.7-2.3,1-3.4c0.4-0.9,0.8-1.6,1.1-2.5c0.3-0.6,0.7-1.3,1.1-2c0,0,0,0,0,0c-1.2,2.6-2.2,5.4-2.9,8.1
				C120.2,135.2,119.9,136.3,119.7,137.4z"/>
			<path fill="#849EA9" d="M120.1,161c0-0.2,0-0.3-0.1-0.5c-0.1-0.6-0.9-0.8-1.2-0.2c0-0.6-0.1-1.1-0.3-1.8
				c-0.2-0.5-0.8-0.6-1.1-0.2c-0.9,1.1-1.5,2.3-2.3,3.5c-0.1-0.2-0.3-0.4-0.6-0.4c-0.1,0-0.3,0-0.4,0c-0.1-0.1-0.2-0.3-0.4-0.3
				c-1.8-0.1-3.6-0.2-5.4-0.2c-0.3,0-0.5,0.2-0.7,0.4c-1-0.1-2-0.2-3.1-0.1c-0.6,0-0.8,1.1-0.2,1.3c0.3,0.1,0.5,0.1,0.7,0.2
				c-2-0.1-4-0.4-6-0.4c-0.2,0-0.3,0-0.4,0.1c-1.1-0.1-2.2-0.3-3.4-0.4c0-0.1-0.1-0.1-0.2-0.1c-0.8-0.6-1.6-1.1-2.6-1.5
				c-0.6-0.3-1.2,0.6-0.6,1c0.4,0.3,0.7,0.5,1.1,0.7c-0.1,0.2-0.1,0.4,0,0.5c-0.1,0-0.2-0.1-0.3-0.1c-0.7-0.5-1.4-1.1-2.1-1.6
				c-0.2-0.2-0.5-0.1-0.7,0c-0.6-0.5-1.2-0.9-1.9-1.3c-0.5-0.3-1.2,0.2-0.8,0.8c0.2,0.2,0.3,0.4,0.5,0.6c-0.3-0.1-0.6-0.2-0.9-0.2
				c-0.4-0.1-0.6,0.2-0.6,0.5c0,0,0,0-0.1,0c0.1-0.2,0.1-0.3,0.1-0.5c0.1-0.2,0-0.4-0.2-0.5c0.1-0.8,0.2-1.5,0.4-2.3
				c0.2-0.7-0.9-0.9-1.1-0.2c-0.3,1.1-0.5,2.1-0.5,3.1c-0.2,0.2-0.4,0.4-0.6,0.5c-0.1,0-0.2,0.1-0.3,0.3c-0.4-0.1-0.8,0.4-0.5,0.9
				c0.6,1.1,1.2,1.6,2.3,2.2c0.4,0.2,0.8-0.3,0.7-0.7c-0.1-0.1-0.1-0.2-0.2-0.4c1.4,0.2,2.8,0.3,4.2,0.5c0.2,0,0.5,0,0.7,0.1
				c0.4,0.2,0.9,0.4,1.3,0.5c0.2,0.1,0.4,0,0.6-0.1c0.3,0.1,0.6,0.2,1,0.3c0.2,0.1,0.4,0.1,0.6-0.1c0.4,0,0.8,0,1.1,0
				c0.5,0.1,1,0.3,1.5,0.4c0.2,0.1,0.5-0.1,0.6-0.3c2.8,0.1,5.5,0.1,8.3,0.1c0.2,0,0.4-0.1,0.5-0.2c0.9-0.1,1.7-0.1,2.6-0.2
				c0.2,0,0.3-0.1,0.4-0.2c2.1,0.5,3.7,0.6,5.7-0.2c0.8-0.2,1.6-0.4,2.2-0.8c0,0.1,0,0.2,0.1,0.3c0,0.5,0.7,0.7,1,0.4
				c0.4,0.2,0.9,0.1,1-0.4c0.1-0.3,0.1-0.5,0.2-0.7c0.3,0.1,0.7-0.1,0.8-0.5c0.1-0.2,0.1-0.4,0.2-0.6
				C120.6,161.4,120.4,161.1,120.1,161z M116.3,162.4c0.2-0.3,0.4-0.6,0.5-0.8c0,0.1,0,0.2,0.1,0.3
				C116.8,162.1,116.5,162.2,116.3,162.4z"/>
			<path fill="#849EA9" d="M120.2,154.7c-2.3-0.4-4.5-0.4-6.8,0c-0.5,0.1-0.7,0.5-0.5,0.9c-0.4,0.1-0.9,0.1-1.3,0.1
				c-0.2,0-0.3,0-0.4,0.1c-1.3,0-2.7-0.2-4.1-0.4c-0.4,0-0.6,0.2-0.7,0.5c-1.8-0.1-3.6-0.1-5.5-0.2c-0.2,0-0.4,0-0.5,0.1
				c-1.8-0.3-3.6-0.6-5.4-1c-0.7-0.1-1.1,0.9-0.5,1.3c-1.5,0-3,0-4.6,0c0-0.3-0.2-0.7-0.6-0.8c-1.5-0.2-2.6,0.1-4.1,0.3
				c-0.8,0.1-0.7,1.5,0.2,1.4c0.6-0.1,1.1-0.2,1.6-0.2c-0.2,0.4,0,1,0.5,1c1.9,0.3,3.8,0.5,5.7,0.5c0.5,0,0.8-0.4,0.7-0.8
				c1.9,0,3.8,0.1,5.7,0.3c0.4,0,0.7-0.2,0.8-0.5c1.6,0.2,3.1,0.5,4.7,0.8c0.5,0.1,0.8-0.4,0.8-0.8c1.5,0,3,0,4.5,0
				c0.2,0,0.3,0,0.4-0.1c1.6,0.1,3.2,0.1,4.8,0.1c0.4,0,0.6-0.4,0.6-0.7c0.2,0,0.3,0,0.5,0c0.5-0.1,0.7-0.6,0.5-1c1,0,2,0,3.1,0
				C120.6,155.5,120.6,154.8,120.2,154.7z"/>
			<path fill="#849EA9" d="M116.9,168c-1.4,0-2.9,0.1-4.3-0.2c-0.2-0.1-0.4-0.2-0.6-0.2c-0.2,0-0.5,0.1-0.6,0.3
				c-0.1,0-0.2-0.1-0.3-0.1c-0.8,0-1.6,0-2.4,0c0.5-0.3,1-0.6,1.6-1c0.6-0.5,0.1-1.6-0.6-1.2c-1.4,0.7-2.7,1.2-4.2,1.5
				c-0.1-0.1-0.3-0.3-0.5-0.2c-2.8,0.1-5.5,0.5-8.2,1c-0.6,0.1-0.7,0.7-0.4,1.1c-1.4,0.2-2.8,0.3-4.3,0.2c-0.1,0-0.2,0-0.3,0.1
				c-1-0.3-2.1-0.7-3.1-1c-0.8-0.2-1.3,0.8-0.5,1.2c0.5,0.2,1,0.4,1.5,0.6c-1-0.1-2.1-0.1-3.2-0.1c-0.6-0.3-1.1-0.8-1.4-1.4
				c0.3,0,0.6-0.2,0.6-0.6c-0.2-1.1,0.1-1.9,0.7-2.4c0.5-0.4-0.1-1.1-0.6-0.8c-0.3,0.2-0.6,0.5-0.8,0.7c0-0.2-0.1-0.3-0.2-0.5
				c-0.2-0.6-1-0.4-1.1,0.1c-0.6,2.7,0.1,4.5,1.5,5.5c0,0.3,0.1,0.6,0.5,0.6c0.4,0.1,0.8,0.1,1.2,0.2c0.8,0.2,1.7,0.3,2.6,0.3
				c1.9,0.1,3.9,0.2,5.8,0.1c0.3,0,0.5-0.2,0.6-0.5c0.2,0,0.3,0,0.5,0c0.2,0,0.5,0,0.7,0c0.6,0,0.7-0.7,0.3-1.1
				c0.9-0.1,1.7-0.2,2.6-0.5c1.6,0.1,3.1,0,4.6-0.3c0.1,0.1,0.2,0.1,0.2,0.1c2.8,0.5,5.6,0.3,8.4,0.3c0.3,0,0.5-0.2,0.5-0.5
				c0.7,0.1,1.4,0.1,2.1,0.1c0.1,0.1,0.2,0.1,0.4,0.1c0.2,0,0.3,0,0.5-0.1C117.6,169.2,117.7,168,116.9,168z"/>
			<path fill="#849EA9" d="M109.6,180.8c-2,1.1-4.5,1.9-7,1.9c0.2-0.3,0.2-0.7-0.3-0.9c-1.6-0.7-3.3-1.2-5-1.6c0-0.1,0-0.1,0-0.2
				c0-0.1,0-0.2,0-0.4c0.3,0.3,0.6,0.5,0.9,0.7c0.5,0.3,1,0.1,1.1-0.4c0.2-0.4,0.2-0.8,0.1-1.3c1.9-0.1,3.9-0.3,5.8-0.2
				c0.4,0,0.6-0.2,0.7-0.4c0.4,0,0.8,0,1.2-0.1l0,0c0.2,0,0.3,0,0.5,0l0,0l0,0c0,0,0.1,0,0.2,0c0.8,0,0.9-1.4,0-1.4
				c-0.4,0-0.8,0-1.2,0c-2.7-0.5-5.3-0.6-8-0.5c-0.4,0-0.6,0.4-0.6,0.7c-0.4,0.1-0.9,0.1-1.3,0.1c0,0,0,0,0,0
				c-0.1-0.2-0.4-0.3-0.6-0.3c-0.1,0-0.1,0-0.2,0c-0.2,0.1-0.4,0.3-0.6,0.4c-0.1,0-0.2,0-0.3,0c-0.2-0.2-0.4-0.5-0.6-0.7
				c-0.5-0.6-1.6-0.1-1.2,0.6c0.1,0.1,0.1,0.2,0.1,0.2c-0.2,0-0.4,0.1-0.6,0.1c-0.5-0.4-1-0.9-1.5-1.3c-0.6-0.5-1.2,0.2-1,0.8
				c-0.3-0.1-0.5-0.2-0.7-0.4c-1.2-1-2.3-2.1-3.4-3.2c-0.5-0.4-1.1,0.3-0.6,0.8c0.2,0.1,0.3,0.3,0.4,0.4c-0.5,0.1-0.8,0.6-0.3,1.1
				c2.3,2.2,4.8,3.9,7.6,5.3c0.2,0.1,0.4,0,0.6-0.1c0.2,0.1,0.3,0.2,0.5,0.2c4.1,4.4,11.2,3.9,16,1.1
				C111.3,181.5,110.4,180.3,109.6,180.8z M98.1,178.4c-0.2-0.2-0.3-0.3-0.5-0.5c0.2,0,0.3,0,0.5,0c0,0.1,0,0.2,0,0.3
				C98,178.2,98,178.3,98.1,178.4z"/>
			<path fill="#A0D6E8" d="M119.9,157.6c-0.6-0.3-1.2-0.2-1.8-0.5c-0.3-0.2-0.7,0-0.9,0.3c0,0,0,0-0.1,0c-1.9,0-3.8,0-5.6-0.2
				c-0.7,0-1.1,0.8-0.7,1.2c-0.4,0-0.8,0-1.3,0c-0.1,0-0.2-0.1-0.3-0.1c0.4-0.3,0.4-1.3-0.3-1.3c-1.7-0.1-3.5-0.1-5.3,0
				c-0.8,0-1.7,0-2.6,0c-1,0-2.1,0-3.1,0c-0.5,0-0.7,0.4-0.6,0.8c-0.3,0.1-0.5,0.3-0.5,0.6c-0.3,0-0.7,0-1.1,0.1
				c-2.1-0.2-4.2-0.4-6.3-0.4c-0.7-0.1-1.5-0.2-2.3-0.4c-0.1-0.2-0.2-0.3-0.5-0.3c-0.2,0.1-0.4,0-0.6,0c-0.5,0-0.9,0.6-0.5,1
				c0.6,0.5,1.2,1,1.8,1.5c0.5,0.4,1-0.2,0.9-0.6c0,0,0.1,0,0.1,0.1c0.4,0.1,0.8,0.2,1.3,0.3c-0.4,0-0.8,0.1-1.3,0.2
				c-0.7,0.1-0.8,1.2,0,1.3c2.9,0.5,5.8,0.5,8.8,0.6c1.2,0.1,2.5,0.2,3.8,0.2c0,0,0,0,0,0l0,0c0.1,0,0.1,0,0.2,0
				c0.2,0,0.3-0.1,0.5-0.2c0,0,0.1,0,0.1,0c4.1,0.8,8.1,0.1,12-1.3c0.2-0.1,0.3-0.3,0.4-0.5c0.4,0.1,0.8,0.1,1.2,0.1
				c0.2,0,0.3,0,0.4-0.1c-0.1,0.1-0.1,0.2-0.2,0.3c-0.4,0.8,0.9,1.4,1.3,0.5c0.1-0.2,0.2-0.4,0.3-0.6c0.3,0,0.7-0.2,0.8-0.6
				c0-0.3,0.1-0.5,0.2-0.7c0.4,0,0.9,0.1,1.3,0.1C120.3,159,120.7,157.9,119.9,157.6z"/>
			<path fill="#A0D6E8" d="M119.1,166.5c-0.9-1-1.8-1-3.1-1.3c-0.3-0.1-0.5,0.1-0.5,0.3c-1.8,0-3.7,0.5-5.6,0.7
				c-0.3,0-0.6,0.4-0.5,0.7c-0.2,0.1-0.4,0.1-0.7,0.2c-0.6,0.2-0.5,1.2,0.1,1.1c0.8-0.1,1.5-0.3,2.3-0.5c2.5,0.1,5-0.1,7.5-0.1
				C119.1,167.6,119.5,166.9,119.1,166.5z"/>
			<path fill="#A0D6E8" d="M95.4,167.4c-1.7-1.7-4.3-1.8-6.7-1.9c-1.1-0.1-2.2-0.1-3.4,0c-0.7,0.1-0.8,1.3,0,1.3
				c0.3,0,0.5,0.1,0.8,0.1c0.4,0.1,0.9,0.2,1.4,0.4c-0.2,0-0.3,0.1-0.5,0.1c-0.6,0.2-0.4,1.3,0.2,1.2c1.2-0.2,2.3-0.6,3.4-0.8
				c0.8,0,1.7,0.1,2.6,0.1c0.2,0,0.4-0.1,0.5-0.3c0.4,0.1,0.9,0.3,1.3,0.6C95.4,168.4,95.7,167.8,95.4,167.4z"/>
			<path fill="#A0D6E8" d="M116.9,170.8c0,0.1-0.1,0.2-0.1,0.3c-0.3-0.3-0.8-0.3-1,0c0,0,0,0.1-0.1,0.1c-0.3-0.2-1,0-1.1,0.5
				c0,0-0.1,0.1-0.1,0.2c-0.2,0-0.5,0.1-0.7,0.1c-0.1-0.1-0.2-0.1-0.2-0.1c-0.2,0-0.3,0-0.5-0.1c0.2-0.4,0-0.9-0.6-1
				c-0.1,0-0.1,0-0.2,0l0,0c0,0,0,0,0,0c-1.4,0-2.7,0.2-4.1,0.4c-0.5,0-0.9,0.1-1.4,0.1c-0.4,0-0.8,0-1.1,0
				c-0.4,0.1-0.6,0.3-0.6,0.6c-0.5,0.2-1,0.3-1.5,0.4c-0.2,0-0.5,0-0.8,0c-0.4,0-0.7,0.3-0.8,0.6c-1.3,0-2.7,0-4,0c0,0-0.1,0-0.1,0
				c-1.2-0.1-2.4-0.2-3.6-0.2c-0.8-0.1-1.1,1.2-0.1,1.3c0.6,0.1,1.2,0.2,1.9,0.2c-0.2,0.1-0.3,0.2-0.4,0.4c-0.1,0.2-0.1,0.5,0.1,0.6
				c0.3,0.2,0.8,0.2,1.2,0.3c0.3,0,0.5-0.2,0.6-0.4c1.1-0.1,2.1-0.2,3.2-0.2c0.5-0.1,1-0.1,1.6-0.1c0.1,0.3,0.3,0.4,0.7,0.4
				c1.6,0,3.2,0,4.8,0c0.8,0,1.6,0,2.4,0.1c-3,2-6.8,1.7-10.2,2.4c-0.3,0.1-0.4,0.3-0.5,0.5c-0.8,0-1.5,0-2.3,0
				c-0.9,0-0.7,1.4,0.1,1.4c1.2,0,2.4,0.2,3.6,0.4c-0.2,0.3-0.3,0.5-0.6,0.8c-0.4,0.5,0.2,1.3,0.8,1.1c0.4-0.2,0.9-0.3,1.3-0.6
				c0,0.1,0,0.2,0,0.2c0.1,0.6,0.7,0.8,1.1,0.5c0.8-0.6,1.4-1.2,1.9-1.8c0.1,0.3,0.2,0.6,0.4,0.9c0.2,0.3,0.6,0.4,1,0.2
				c0.4-0.3,0.8-0.7,1.2-1.1c0,0.3,0,0.6,0,0.9c0.1,0.5,0.5,0.7,0.9,0.5c0.2-0.1,0.4-0.1,0.6-0.2c0,0.5,0.5,1.1,1.1,0.6
				c0.2-0.1,0.3-0.3,0.4-0.4c0.2,0.1,0.5,0.1,0.7-0.2c0.3-0.3,0.6-0.7,0.9-1.1c0,0,0.1-0.2,0.2-0.2c0-0.1,0.1-0.1,0.1-0.1
				c0.5-0.7,1-1.3,1.5-2c0.3,0.1,0.6,0,0.8-0.4c0.2-0.5,0.4-0.9,0.6-1.3c0,0,0-0.1,0.1-0.1c0.2,0,0.5-0.2,0.6-0.4
				c0.3-0.5,0.5-1.2,0.9-1.6c0.1-0.2,0.2-0.5,0.1-0.6c0-0.1,0-0.2-0.1-0.3c0.2-0.7,0.5-1.4,0.6-2.2
				C118.4,170.4,117.2,170,116.9,170.8z M109.5,178.8c0-0.6-0.6-0.8-1.1-0.5c-0.2,0.1-0.3,0.3-0.5,0.4c-0.5-0.1-1-0.1-1.6-0.2
				c0-0.1-0.1-0.1-0.1-0.1c1.8-0.4,3.5-0.9,5-1.9c0.1,0,0.3,0,0.4-0.1c0.6-0.3,1.1-0.8,1.7-1.2c0.1,0,0.2,0,0.3,0
				c-0.8,2.1-2,4.1-4,5.1C109.5,179.6,109.5,179.2,109.5,178.8z"/>
			<path d="M143.7,84.3c-0.5-6.9-3.1-13.5-7.5-18.8c-4.4-5.3-10.6-8.7-17.1-10.6c-15-4.2-32.3-1.3-44.4,8.7
				c-5.9,4.9-9.7,11.6-11,19.2c-1.3,7.6,0.1,15.4,2.5,22.5c4.1,12.1,11.6,23.1,18.4,33.8c0,3.1,0.1,6.1,0.1,9.2
				c-0.1,1.5-0.1,3-0.1,4.5c0,0.9-0.2,2,0.3,2.8c0.1,0.1,0.3,0.1,0.3,0c0-0.1,0-0.2,0.1-0.2c1.5,0.1,3.1-0.2,4.6-0.2
				c2.2,0,4.5,0.1,6.6,0.2c3.7,0.2,7.3,0.7,11,0.7c3,0.1,6.1-0.2,9.1-0.4c1.4-0.1,2.6-0.7,3.4-1.8c-0.2,2.9,0.5,6.1,0.3,9
				c0,0.2,0,0.5-0.1,0.8h0c-0.1,0-0.8-0.1-1.2,0c-1.1,0.2-2.2,0.3-3.4,0.5c-3.3,0.5-6.5,0.7-9.8,0.7c-3.8,0.1-7.6-0.2-11.4-0.4
				c-3.3-0.2-7-0.7-10.4-0.1c0-0.2,0-0.3,0-0.5c0-0.1-0.1-0.1-0.1-0.1c0,0,0,0.1-0.1,0.1c0,0,0-0.1,0-0.1c-0.3-0.7-1.1-0.9-1-1.8
				c0.1-0.6,0.7-1,1.1-1.5c0,0.1,0,0.2,0,0.3c0.1,0.4,0.6,0.3,0.6,0c-0.1-1.1-0.1-2.2,0-3.2c0-0.6,0.5-1.6,0.2-2.2
				c0-0.1,0-0.1,0-0.1c-0.6,0.3-0.6,1.6-0.7,2.2c-0.1,0.9-0.2,1.8-0.1,2.7c-0.8,0.2-1.4,1-1.6,1.7c-0.2,0.8,0.5,1.9,1.3,2.1
				c-1.1,0.8-1,3.1-1,4.2c0.1,2.2,1,4.4,2.5,6c-0.2-0.2-0.4,0.1-0.3,0.3c5.7,7.1,16.1,12.8,25.1,8.5c4.2-2,7.1-6,8.9-10.2
				c1.2-2.8,1.7-5.7,2.3-8.7c0.3-1.8,0.2-3.7,0.1-5.5c-0.1-2.1-0.1-4.2-0.3-6.2c0.8-2.9,0.6-6.3,0.8-9.2c0.2-3.5,0.6-7.2,2.4-10.3
				C133.6,118.4,144.9,102.9,143.7,84.3z M118.1,171.9c-1.5,4.2-4.3,8.1-8.2,10.4c-3.7,2.1-8.2,2.1-12.2,0.9
				c-5-1.6-8.9-4.9-12.5-8.5c0.3,0.1,0.7-0.2,0.4-0.5c-1-1.2-1.7-2.4-2.1-3.8c0.7,0.5,1.9,0.6,2.7,0.7c1.3,0.2,2.7,0.2,4.1,0.3
				c2.9,0.2,5.9,0.1,8.8-0.1c3-0.1,6.1-0.4,9.1-0.7c3.3-0.4,6.8,0.1,10-0.8c0.4-0.1,0.2-0.7-0.2-0.7c-3.1,0.2-6.3,0.2-9.4,0.6
				c-2.8,0.3-5.6,0.6-8.5,0.8c-3.1,0.2-6.1,0.3-9.2,0.3c-1.4-0.1-2.8-0.1-4.2-0.3c-1-0.1-2.2-0.5-3.2-0.3c0,0,0,0-0.1,0
				c-0.1-0.5-0.2-0.9-0.2-1.4c-0.1-0.9,0-1.7,0.1-2.6c0.1-0.4,0.2-0.8,0.4-1.2c1.7,0.2,3.5,0.2,5.2,0.2c1.9,0.1,3.9,0.2,5.8,0.3
				c3.7,0.2,7.4,0.4,11,0.4c3.3,0,6.6-0.2,9.9-0.7c1.1-0.1,2.3-0.3,3.4-0.5c0.2-0.1,0.6-0.1,0.9-0.1c0-0.1,0.1-0.1,0.2-0.1
				C119.7,167.1,119,169.6,118.1,171.9z M133.3,116.9c-3.1,5.4-6.8,10.5-10.2,15.7c-0.2,0.3-0.1,0.6,0.1,0.7c-1.5,2.7-2,5.9-2.2,9
				c-0.2,1.9-0.3,3.9-0.4,5.8c-0.1,1.5-0.4,2.9-0.6,4.3c0,0.1,0,0.1-0.1,0.1c-0.6,0.8-1.1,1.8-2.2,2.2c-0.9,0.3-2,0.2-3,0.2
				c-3.3,0-6.4,0.5-9.8,0.3c-3.4-0.2-6.9-0.6-10.3-0.8c-3-0.2-6.6-0.5-9.5,0.5c0.1-0.6,0-1.3,0-1.9c0-1.6,0-3.2,0-4.9
				c0-3.2,0.3-6.6-0.3-9.8c0-0.2-0.2-0.2-0.3-0.2c-8.8-15.8-20.7-31.1-20.6-50.1c0-8.3,3.1-16.2,9.1-22.2c6-6,14.2-9.6,22.4-11.3
				c14.9-3.1,32.7,0.4,42,13.4C147.9,83.2,141.6,102.6,133.3,116.9z"/>
		</g>
		<path fill="#F7BC22" d="M51.8,73.4c-3.3-2.1-7.3-3.2-10.8-4.7c-0.9-0.4-1.8,1-0.9,1.5c3.3,2,6.8,4.7,10.8,5.2
			C52,75.7,52.8,74.1,51.8,73.4z"/>
		<path fill="#F7BC22" d="M62.9,53.6c-0.8-2.2-1.9-4.5-3.1-6.5c-0.2-0.4-0.6-0.8-0.9-1.2c-0.3-0.3-0.6-0.5-0.8-0.5
			c-1.1-0.2-1.2,1.1-1.1,1.9c0.1,0.4,0.4,0.6,0.7,0.7c0.3,0.7,0.5,1.4,0.8,2.1c0.7,1.6,1.3,3.7,2.7,4.8C62,55.6,63.3,54.6,62.9,53.6
			z"/>
		<path fill="#F7BC22" d="M89.7,34.7c-0.5-1.7-1.3-4.3-3.1-5.1c-0.6-0.3-1.2,0.3-1.1,1c0.6,1.8,1.5,3.4,1.9,5.3
			c0.5,2.2,0.6,4.4,0.9,6.5c0.2,1.2,2,1.3,2.1,0.1C90.9,39.9,90.4,37.2,89.7,34.7z"/>
		<path fill="#F7BC22" d="M124.3,29.9c-0.1-1-1.7-1.1-1.8,0c-0.4,4-0.4,8-0.8,12c-0.1,1.2,1.6,1.5,1.9,0.3
			C124.6,38.2,124.6,33.9,124.3,29.9z"/>
		<path fill="#F7BC22" d="M151.6,39.6c-2.4,4.5-5.2,8.7-7.6,13.1c-0.6,1.1,1,2,1.8,1.1c3.4-3.9,5.8-8.7,7.7-13.4
			C154,39.2,152.2,38.4,151.6,39.6z"/>
		<path fill="#F7BC22" d="M159.6,59.6c-1.7,1.3-2.9,3.1-4.3,4.7c-1.6,1.9-3.3,3.8-4.8,5.8c-0.7,0.9,0.5,2.3,1.5,1.5
			c1.9-1.5,3.5-3.2,5-5.1c1.5-1.8,3.1-3.7,4.1-5.8C161.4,59.9,160.4,59,159.6,59.6z"/>
		<path fill="#F7BC22" d="M164.6,84.9c-3.5,1-7.1,3.7-9.7,6.2c-0.8,0.8,0.3,2.3,1.3,1.8c1.6-0.8,3.1-1.9,4.6-2.9
			c1.6-1.1,3.3-2.1,4.8-3.3C166.5,86,165.8,84.6,164.6,84.9z"/>
	</g>
</g>
</svg>
