<?xml version="1.0" encoding="utf-8"?>
<!-- Generator: Adobe Illustrator 18.1.1, SVG Export Plug-In . SVG Version: 6.00 Build 0)  -->
<svg version="1.1" id="Layer_1" xmlns="http://www.w3.org/2000/svg" xmlns:xlink="http://www.w3.org/1999/xlink" x="0px" y="0px"
	 viewBox="246.5 56.5 72 72" enable-background="new 246.5 56.5 72 72" xml:space="preserve">
<g>
	<circle fill="#FDE271" cx="282.5" cy="92.5" r="36"/>
	<path fill="#FFFFFF" d="M280.1,80.8c5.7,1.5,11.3,3,17.1,4.6c1.6-3,3.9-4.8,7.4-5.2c2.3-0.2,4.6,0.4,6.4,1.8
		c3.9,3,4.6,8.7,1.6,12.3c-3,3.9-8.3,4.6-12.3,1.8c-4.2,4.2-8.6,8.7-12.8,12.9c1.2,1.9,1.5,4.1,0.7,6.4c-0.6,1.7-1.7,3-3.3,4.1
		c-3.3,1.8-7.5,0.8-9.6-2.3c-1.8-2.7-1.9-7.5,2.3-10.3c-1.9-5.7-3.9-11.3-5.7-17.1c-0.4,0-0.7,0-1,0c-3.5,0.4-6.5-0.8-8.8-3.4
		c-1.9-2.1-2.8-4.6-2.7-7.5c0.1-4.8,3.5-9.1,8.6-9.9c5.7-1.1,11.1,2.5,12.3,8.3C280.1,78.5,280.1,79.6,280.1,80.8z M274.3,89
		c1.9,5.7,3.9,11.4,5.7,16.9c1,0.1,1.8,0.1,2.7,0.4c0.8,0.2,1.6,0.6,2.4,0.8c4.2-4.2,8.6-8.6,12.7-12.7c-0.5-1.1-1-2.1-1.2-3
		c-0.2-1-0.2-2.1-0.4-3.2c-5.4-1.5-10.9-3-16.3-4.2c-0.7-0.2-0.7-0.2-1.1,0.5c-0.6,1.2-1.5,2.3-2.5,3.3
		C275.6,87.9,275,88.4,274.3,89z M269.6,72.8c-3.9-0.1-6.6,3.3-6.6,6.6c0,3.5,3,6.6,6.8,6.6c3.2,0,6.6-2.4,6.6-6.6
		C276.1,75.3,272.8,72.7,269.6,72.8z M310.6,89c0-3-2.4-5.4-5.3-5.4c-3.6,0.1-5.3,3.2-5.3,5.5c0.1,2.4,1.9,5.3,5.5,5.3
		C308.4,94.2,310.7,91.8,310.6,89z M285,113.1c0-1.8-1.5-3.9-4.1-4.1c-2.2,0-4.1,1.8-4.1,4.1c0,1.9,1.5,4.1,4.1,4.1
		C283.8,117.2,285,114.8,285,113.1z"/>
</g>
</svg>
