<?xml version="1.0" encoding="utf-8"?>
<!-- Generator: Adobe Illustrator 18.1.1, SVG Export Plug-In . SVG Version: 6.00 Build 0)  -->
<svg version="1.1" id="Layer_1" xmlns="http://www.w3.org/2000/svg" xmlns:xlink="http://www.w3.org/1999/xlink" x="0px" y="0px"
	 viewBox="0 0 72 72" enable-background="new 0 0 72 72" xml:space="preserve">
<g>
	<circle fill="#009444" cx="36" cy="36" r="36"/>
</g>
<g>
	<g>
		<g>
			<g>
				<g>
					<path fill="#FFFFFF" d="M22.9,21.6h-1.4c-1.6,0-2.8,1.3-2.8,2.8v1.4c0,1.5,1.3,2.8,2.8,2.8h1.4c1.5,0,2.8-1.3,2.8-2.8v-1.4
						C25.7,22.9,24.5,21.6,22.9,21.6z"/>
					<path fill="#FFFFFF" d="M31.3,21.6h-1.4c-1.6,0-2.8,1.3-2.8,2.8v1.4c0,1.5,1.3,2.8,2.8,2.8h1.4c1.5,0,2.8-1.3,2.8-2.8v-1.4
						C34.1,22.9,32.9,21.6,31.3,21.6z"/>
					<path fill="#FFFFFF" d="M39.7,21.6h-1.4c-1.6,0-2.8,1.3-2.8,2.8v1.4c0,1.5,1.3,2.8,2.8,2.8h1.4c1.5,0,2.8-1.3,2.8-2.8v-1.4
						C42.5,22.9,41.2,21.6,39.7,21.6z"/>
					<path fill="#FFFFFF" d="M48.1,21.6h-1.4c-1.6,0-2.8,1.3-2.8,2.8v1.4c0,1.5,1.3,2.8,2.8,2.8h1.4c1.5,0,2.8-1.3,2.8-2.8v-1.4
						C50.9,22.9,49.6,21.6,48.1,21.6z"/>
				</g>
				<g>
					<path fill="#FFFFFF" d="M22.9,30h-1.4c-1.6,0-2.8,1.3-2.8,2.8v1.4c0,1.5,1.3,2.8,2.8,2.8h1.4c1.5,0,2.8-1.3,2.8-2.8v-1.4
						C25.7,31.3,24.5,30,22.9,30z"/>
					<path fill="#FFFFFF" d="M48.1,30h-1.4c-1.6,0-2.8,1.3-2.8,2.8v1.4c0,1.5,1.3,2.8,2.8,2.8h1.4c1.5,0,2.8-1.3,2.8-2.8v-1.4
						C50.9,31.3,49.6,30,48.1,30z"/>
				</g>
				<g>
					<path fill="#FFFFFF" d="M22.9,38.4h-1.4c-1.6,0-2.8,1.3-2.8,2.8v1.4c0,1.5,1.3,2.8,2.8,2.8h1.4c1.5,0,2.8-1.3,2.8-2.8v-1.4
						C25.7,39.7,24.5,38.4,22.9,38.4z"/>
					<path fill="#FFFFFF" d="M48.1,38.4h-1.4c-1.6,0-2.8,1.3-2.8,2.8v1.4c0,1.5,1.3,2.8,2.8,2.8h1.4c1.5,0,2.8-1.3,2.8-2.8v-1.4
						C50.9,39.7,49.6,38.4,48.1,38.4z"/>
				</g>
				<g>
					<path fill="#FFFFFF" d="M22.9,46.8h-1.4c-1.6,0-2.8,1.3-2.8,2.8V51c0,1.5,1.3,2.8,2.8,2.8h1.4c1.5,0,2.8-1.3,2.8-2.8v-1.4
						C25.7,48.1,24.5,46.8,22.9,46.8z"/>
					<path fill="#FFFFFF" d="M31.3,46.8h-1.4c-1.6,0-2.8,1.3-2.8,2.8V51c0,1.5,1.3,2.8,2.8,2.8h1.4c1.5,0,2.8-1.3,2.8-2.8v-1.4
						C34.1,48.1,32.9,46.8,31.3,46.8z"/>
					<path fill="#FFFFFF" d="M39.7,46.8h-1.4c-1.6,0-2.8,1.3-2.8,2.8V51c0,1.5,1.3,2.8,2.8,2.8h1.4c1.5,0,2.8-1.3,2.8-2.8v-1.4
						C42.5,48.1,41.2,46.8,39.7,46.8z"/>
					<path fill="#FFFFFF" d="M48.1,46.8h-1.4c-1.6,0-2.8,1.3-2.8,2.8V51c0,1.5,1.3,2.8,2.8,2.8h1.4c1.5,0,2.8-1.3,2.8-2.8v-1.4
						C50.9,48.1,49.6,46.8,48.1,46.8z"/>
				</g>
				<path fill="#FFFFFF" d="M57.1,13.2h-1.2c-1.2,0-2.2,1-2.2,2.2v1.2c0,1.2,1,2.2,2.2,2.2h1.2c1.2,0,2.2-1,2.2-2.2v-1.2
					C59.3,14.2,58.3,13.2,57.1,13.2z"/>
				<path fill="#FFFFFF" d="M39.6,13.2h-1.2c-1.2,0-2.2,1-2.2,2.2v1.2c0,1.2,1,2.2,2.2,2.2h1.2c1.2,0,2.2-1,2.2-2.2v-1.2
					C41.8,14.2,40.8,13.2,39.6,13.2z"/>
				<path fill="#FFFFFF" d="M31.2,13.2H30c-1.2,0-2.2,1-2.2,2.2v1.2c0,1.2,1,2.2,2.2,2.2h1.2c1.2,0,2.2-1,2.2-2.2v-1.2
					C33.4,14.2,32.4,13.2,31.2,13.2z"/>
				<path fill="#FFFFFF" d="M13.6,13.2h-1.2c-1.2,0-2.2,1-2.2,2.2v1.2c0,1.2,1,2.2,2.2,2.2h1.2c1.2,0,2.2-1,2.2-2.2v-1.2
					C15.8,14.2,14.8,13.2,13.6,13.2z"/>
				<path fill="#FFFFFF" d="M13.6,30.8h-1.2c-1.2,0-2.2,1-2.2,2.2v1.2c0,1.2,1,2.2,2.2,2.2h1.2c1.2,0,2.2-1,2.2-2.2V33
					C15.8,31.8,14.8,30.8,13.6,30.8z"/>
				<path fill="#FFFFFF" d="M13.6,47.5h-1.2c-1.2,0-2.2,1-2.2,2.2v1.2c0,1.2,1,2.2,2.2,2.2h1.2c1.2,0,2.2-1,2.2-2.2v-1.2
					C15.8,48.5,14.8,47.5,13.6,47.5z"/>
				<path fill="#FFFFFF" d="M57.1,30.7h-1.2c-1.2,0-2.2,1-2.2,2.2v1.2c0,1.2,1,2.2,2.2,2.2h1.2c1.2,0,2.2-1,2.2-2.2V33
					C59.3,31.7,58.3,30.7,57.1,30.7z"/>
				<path fill="#FFFFFF" d="M57.1,39.1h-1.2c-1.2,0-2.2,1-2.2,2.2v1.2c0,1.2,1,2.2,2.2,2.2h1.2c1.2,0,2.2-1,2.2-2.2v-1.2
					C59.3,40.1,58.3,39.1,57.1,39.1z"/>
				<path fill="#FFFFFF" d="M57.1,56.7h-1.2c-1.2,0-2.2,1-2.2,2.2v1.2c0,1.2,1,2.2,2.2,2.2h1.2c1.2,0,2.2-1,2.2-2.2v-1.2
					C59.3,57.7,58.3,56.7,57.1,56.7z"/>
				<path fill="#FFFFFF" d="M39.6,56.7h-1.2c-1.2,0-2.2,1-2.2,2.2v1.2c0,1.2,1,2.2,2.2,2.2h1.2c1.2,0,2.2-1,2.2-2.2v-1.2
					C41.8,57.7,40.8,56.7,39.6,56.7z"/>
				<path fill="#FFFFFF" d="M22.8,56.7h-1.2c-1.2,0-2.2,1-2.2,2.2v1.2c0,1.2,1,2.2,2.2,2.2h1.2c1.2,0,2.2-1,2.2-2.2v-1.2
					C25,57.7,24,56.7,22.8,56.7z"/>
			</g>
		</g>
	</g>
</g>
</svg>
