<?xml version="1.0" encoding="utf-8"?>
<!-- Generator: Adobe Illustrator 18.1.1, SVG Export Plug-In . SVG Version: 6.00 Build 0)  -->
<svg version="1.1" id="Layer_1" xmlns="http://www.w3.org/2000/svg" xmlns:xlink="http://www.w3.org/1999/xlink" x="0px" y="0px"
	 viewBox="0 0 20 20" enable-background="new 0 0 20 20" xml:space="preserve">
<g>
	<circle fill="#922A8E" cx="10" cy="10" r="10"/>
</g>
<g>
	<g>
		<g>
			<g>
				<g>
					<path fill="#FFFFFF" d="M6.4,6H6C5.5,6,5.2,6.4,5.2,6.8v0.4c0,0.4,0.4,0.8,0.8,0.8h0.4c0.4,0,0.8-0.4,0.8-0.8V6.8
						C7.1,6.4,6.8,6,6.4,6z"/>
					<path fill="#FFFFFF" d="M8.7,6H8.3C7.9,6,7.5,6.4,7.5,6.8v0.4c0,0.4,0.4,0.8,0.8,0.8h0.4c0.4,0,0.8-0.4,0.8-0.8V6.8
						C9.5,6.4,9.1,6,8.7,6z"/>
					<path fill="#FFFFFF" d="M11,6h-0.4c-0.4,0-0.8,0.4-0.8,0.8v0.4c0,0.4,0.4,0.8,0.8,0.8H11c0.4,0,0.8-0.4,0.8-0.8V6.8
						C11.8,6.4,11.4,6,11,6z"/>
					<path fill="#FFFFFF" d="M13.4,6H13c-0.4,0-0.8,0.4-0.8,0.8v0.4c0,0.4,0.4,0.8,0.8,0.8h0.4c0.4,0,0.8-0.4,0.8-0.8V6.8
						C14.1,6.4,13.8,6,13.4,6z"/>
				</g>
				<g>
					<path fill="#FFFFFF" d="M6.4,8.3H6c-0.4,0-0.8,0.4-0.8,0.8v0.4c0,0.4,0.4,0.8,0.8,0.8h0.4c0.4,0,0.8-0.4,0.8-0.8V9.1
						C7.1,8.7,6.8,8.3,6.4,8.3z"/>
					<path fill="#FFFFFF" d="M13.4,8.3H13c-0.4,0-0.8,0.4-0.8,0.8v0.4c0,0.4,0.4,0.8,0.8,0.8h0.4c0.4,0,0.8-0.4,0.8-0.8V9.1
						C14.1,8.7,13.8,8.3,13.4,8.3z"/>
				</g>
				<g>
					<path fill="#FFFFFF" d="M6.4,10.7H6c-0.4,0-0.8,0.4-0.8,0.8v0.4c0,0.4,0.4,0.8,0.8,0.8h0.4c0.4,0,0.8-0.4,0.8-0.8v-0.4
						C7.1,11,6.8,10.7,6.4,10.7z"/>
					<path fill="#FFFFFF" d="M13.4,10.7H13c-0.4,0-0.8,0.4-0.8,0.8v0.4c0,0.4,0.4,0.8,0.8,0.8h0.4c0.4,0,0.8-0.4,0.8-0.8v-0.4
						C14.1,11,13.8,10.7,13.4,10.7z"/>
				</g>
				<g>
					<path fill="#FFFFFF" d="M6.4,13H6c-0.4,0-0.8,0.4-0.8,0.8v0.4c0,0.4,0.4,0.8,0.8,0.8h0.4c0.4,0,0.8-0.4,0.8-0.8v-0.4
						C7.1,13.4,6.8,13,6.4,13z"/>
					<path fill="#FFFFFF" d="M8.7,13H8.3c-0.4,0-0.8,0.4-0.8,0.8v0.4c0,0.4,0.4,0.8,0.8,0.8h0.4c0.4,0,0.8-0.4,0.8-0.8v-0.4
						C9.5,13.4,9.1,13,8.7,13z"/>
					<path fill="#FFFFFF" d="M11,13h-0.4c-0.4,0-0.8,0.4-0.8,0.8v0.4c0,0.4,0.4,0.8,0.8,0.8H11c0.4,0,0.8-0.4,0.8-0.8v-0.4
						C11.8,13.4,11.4,13,11,13z"/>
					<path fill="#FFFFFF" d="M13.4,13H13c-0.4,0-0.8,0.4-0.8,0.8v0.4c0,0.4,0.4,0.8,0.8,0.8h0.4c0.4,0,0.8-0.4,0.8-0.8v-0.4
						C14.1,13.4,13.8,13,13.4,13z"/>
				</g>
				<path fill="#FFFFFF" d="M15.9,3.7h-0.3c-0.3,0-0.6,0.3-0.6,0.6v0.3c0,0.3,0.3,0.6,0.6,0.6h0.3c0.3,0,0.6-0.3,0.6-0.6V4.3
					C16.5,3.9,16.2,3.7,15.9,3.7z"/>
				<path fill="#FFFFFF" d="M11,3.7h-0.3c-0.3,0-0.6,0.3-0.6,0.6v0.3c0,0.3,0.3,0.6,0.6,0.6H11c0.3,0,0.6-0.3,0.6-0.6V4.3
					C11.6,3.9,11.3,3.7,11,3.7z"/>
				<path fill="#FFFFFF" d="M8.7,3.7H8.3C8,3.7,7.7,3.9,7.7,4.3v0.3c0,0.3,0.3,0.6,0.6,0.6h0.3c0.3,0,0.6-0.3,0.6-0.6V4.3
					C9.3,3.9,9,3.7,8.7,3.7z"/>
				<path fill="#FFFFFF" d="M3.8,3.7H3.4c-0.3,0-0.6,0.3-0.6,0.6v0.3c0,0.3,0.3,0.6,0.6,0.6h0.3c0.3,0,0.6-0.3,0.6-0.6V4.3
					C4.4,3.9,4.1,3.7,3.8,3.7z"/>
				<path fill="#FFFFFF" d="M3.8,8.6H3.4c-0.3,0-0.6,0.3-0.6,0.6v0.3c0,0.3,0.3,0.6,0.6,0.6h0.3c0.3,0,0.6-0.3,0.6-0.6V9.2
					C4.4,8.8,4.1,8.6,3.8,8.6z"/>
				<path fill="#FFFFFF" d="M3.8,13.2H3.4c-0.3,0-0.6,0.3-0.6,0.6v0.3c0,0.3,0.3,0.6,0.6,0.6h0.3c0.3,0,0.6-0.3,0.6-0.6v-0.3
					C4.4,13.5,4.1,13.2,3.8,13.2z"/>
				<path fill="#FFFFFF" d="M15.9,8.5h-0.3c-0.3,0-0.6,0.3-0.6,0.6v0.3c0,0.3,0.3,0.6,0.6,0.6h0.3c0.3,0,0.6-0.3,0.6-0.6V9.2
					C16.5,8.8,16.2,8.5,15.9,8.5z"/>
				<path fill="#FFFFFF" d="M15.9,10.9h-0.3c-0.3,0-0.6,0.3-0.6,0.6v0.3c0,0.3,0.3,0.6,0.6,0.6h0.3c0.3,0,0.6-0.3,0.6-0.6v-0.3
					C16.5,11.1,16.2,10.9,15.9,10.9z"/>
				<path fill="#FFFFFF" d="M15.9,15.8h-0.3c-0.3,0-0.6,0.3-0.6,0.6v0.3c0,0.3,0.3,0.6,0.6,0.6h0.3c0.3,0,0.6-0.3,0.6-0.6v-0.3
					C16.5,16,16.2,15.8,15.9,15.8z"/>
				<path fill="#FFFFFF" d="M11,15.8h-0.3c-0.3,0-0.6,0.3-0.6,0.6v0.3c0,0.3,0.3,0.6,0.6,0.6H11c0.3,0,0.6-0.3,0.6-0.6v-0.3
					C11.6,16,11.3,15.8,11,15.8z"/>
				<path fill="#FFFFFF" d="M6.3,15.8H6c-0.3,0-0.6,0.3-0.6,0.6v0.3c0,0.3,0.3,0.6,0.6,0.6h0.3c0.3,0,0.6-0.3,0.6-0.6v-0.3
					C6.9,16,6.7,15.8,6.3,15.8z"/>
			</g>
		</g>
	</g>
</g>
</svg>
