<?xml version="1.0" encoding="utf-8"?>
<!-- Generator: Adobe Illustrator 18.1.1, SVG Export Plug-In . SVG Version: 6.00 Build 0)  -->
<svg version="1.1" id="Layer_1" xmlns="http://www.w3.org/2000/svg" xmlns:xlink="http://www.w3.org/1999/xlink" x="0px" y="0px"
	 viewBox="270 360 72 72" enable-background="new 270 360 72 72" xml:space="preserve">
<g>
	<circle fill="#922A8E" cx="306" cy="396" r="36"/>
</g>
<g>
	<g>
		<path fill="#FFFFFF" d="M306.5,367.5c-11.3,0-15.3,17.6-19,31.7c-1.3-1.4-5.5-5.5-5.5-5.5c-0.8-0.8-1.8-0.6-2.4,0
			c-0.6,0.6-0.7,1.7,0,2.3c0,0,5.6,5.6,7.5,7.5c0.5,0.5,1.3,0.8,2.1,0.4c0.8-0.5,0.9-1.4,0.9-1.4c6.6-29.6,12.5-31.8,16.3-31.8
			c3.2,0,6.9,2.4,6.9,7.1c4.8,0,7.8,6.3,4,10.2c3.2,1.6,4.6,3.5,4.6,5.9c0,2.4-2,4.9-5,4.9c-2.9,0-4.4-1.9-6.7-1.9
			c-1,0-1.7,0.8-1.7,1.7v6h-4.3v-6c0-0.9-0.7-1.7-1.6-1.7c0,0-0.4,0-0.4,0l-5.8,0.7c-0.7,0.1-1.3,0.9-1.3,1.6c0,0.9,0.7,1.7,1.8,1.7
			c0.1,0,0.3,0,0.3,0c0,0,3.7-0.5,3.7-0.5s0,5.9,0,5.9c0,0.8,0.8,1.5,1.6,1.5h7.7c0.9,0,1.7-0.8,1.7-1.7V401c1.6,1,3.8,1.4,5,1.4
			c4.3,0,8.4-3.4,8.4-8.3c0-4.5-3.5-6.7-3.5-6.7c2-5.4-1.2-10.6-5.5-12C314.9,369.7,310.1,367.5,306.5,367.5"/>
	</g>
	<g>
		<path fill="#FFFFFF" d="M306.5,367.5c-11.3,0-15.3,17.6-19,31.7c-1.3-1.4-5.5-5.5-5.5-5.5c-0.8-0.8-1.8-0.6-2.4,0
			c-0.6,0.6-0.7,1.7,0,2.3c0,0,5.6,5.6,7.5,7.5c0.5,0.5,1.3,0.8,2.1,0.4c0.8-0.5,0.9-1.4,0.9-1.4c6.6-29.6,12.5-31.8,16.3-31.8
			c3.2,0,6.9,2.4,6.9,7.1c4.8,0,7.8,6.3,4,10.2c3.2,1.6,4.6,3.5,4.6,5.9c0,2.4-2,4.9-5,4.9c-2.9,0-4.4-1.9-6.7-1.9
			c-1,0-1.7,0.8-1.7,1.7v6h-4.3v-6c0-0.9-0.7-1.7-1.6-1.7c0,0-0.4,0-0.4,0l-5.8,0.7c-0.7,0.1-1.3,0.9-1.3,1.6c0,0.9,0.7,1.7,1.8,1.7
			c0.1,0,0.3,0,0.3,0c0,0,3.7-0.5,3.7-0.5s0,5.9,0,5.9c0,0.8,0.8,1.5,1.6,1.5h7.7c0.9,0,1.7-0.8,1.7-1.7V401c1.6,1,3.8,1.4,5,1.4
			c4.3,0,8.4-3.4,8.4-8.3c0-4.5-3.5-6.7-3.5-6.7c2-5.4-1.2-10.6-5.5-12C314.9,369.7,310.1,367.5,306.5,367.5"/>
	</g>
</g>
<g>
	<path fill="#FFFFFF" d="M301.6,414.6c0,1.4,1.6,2.2,4.1,3.4c2,1,3.2,2,3.2,2.8c0,1.3-1.4,1.8-2.7,1.8c-2,0-3.2-0.8-3.9-2.6
		l-0.1-0.2h-0.2c-0.4,0-0.6,0-0.8,0.2c-0.1,0.2-0.1,0.4,0,0.7c0,0,0.4,1.9,0.4,1.9c0.1,0.5,0.3,0.5,1,0.7c0.3,0.1,2,0.3,3.4,0.3
		c3.9,0,5.6-1.6,5.6-3.1c0-1.1-1.1-2.2-3.6-3.4l-1.1-0.5c-1.7-0.8-2.7-1.3-2.7-2.1c0-0.8,1-1.4,2.5-1.4c1.9,0,2.5,1.1,2.7,2l0,0.2
		h0.2c0.4,0,0.7,0,0.9-0.2c0.1-0.1,0.1-0.2,0.1-0.4l-0.2-1.6c0-0.5-0.4-0.6-1-0.7c-0.7-0.1-1.4-0.3-2.6-0.3
		C303.6,412,301.6,413,301.6,414.6"/>
</g>
<g>
	<path fill="#FFFFFF" d="M312.8,417.9c0,2.8,2.4,5.7,7.1,5.7c2.4,0,3.7-0.5,4.7-1.1l0.3-0.1l-0.4-0.5l0,0c-0.1-0.1-0.2-0.2-0.3-0.2
		l-0.2,0.1c-0.4,0.2-1.4,0.7-3.4,0.7c-2.4,0-5-1.6-5-5c0-3.3,2.8-4.5,5.2-4.5c1.7,0,2.7,0.6,2.8,1.9l0,0.2h0.2c0.2,0,0.8,0,0.8-0.4
		v-1.9c0-0.5-0.5-0.5-0.8-0.6l-0.2,0c-0.6-0.1-1.1-0.1-2.5-0.1C316.3,412,312.8,414.5,312.8,417.9"/>
</g>
<g>
	<path fill="#FFFFFF" d="M295.2,412.1l-4.2,0l-2.8,0l-0.4,0c-0.2,0-0.4,0.2-0.4,0.4c0,0.1,0,0.5,0.5,0.5c1.7,0,1.8,0.1,1.8,0.8
		l0,0.4l0,1.7v3.7c0,0.6,0,1.6-0.1,2.4c0,0.2,0,0.4-1.5,0.4c-0.4,0-0.7,0.1-0.7,0.5c0,0.1,0,0.4,0.4,0.4l0.1,0c0.2,0,0.7,0,3,0
		c2.5,0,3,0,3.2,0l0.1,0c0.3,0,0.6,0,0.6-0.4c0-0.5-0.4-0.5-1-0.5c-1.5,0-1.5-0.2-1.5-0.4c0-0.7-0.1-1.7-0.1-2.4c0,0,0-1,0-1.3
		c0.3,0,1.3,0,1.3,0c1.9,0,2.2,0.1,2.4,1.5c0.1,0.3,0.3,0.4,0.5,0.4c0.5,0,0.5-0.2,0.5-0.4l0-0.6c0-0.3-0.1-0.7-0.1-1.3v-2.3
		c0-0.3-0.4-0.3-0.6-0.3c-0.4,0-0.5,0.2-0.7,1.3c-0.1,0.4-0.9,0.6-2.2,0.6c0,0-0.8,0-1.1,0c0-0.4,0-3.4,0-3.4c0-0.9,0.2-0.9,0.4-0.9
		c0.7,0,2.5-0.1,3.1-0.1c0.5,0,1,0.1,1.3,0.3c1,0.6,1.4,1,1.7,1.2c0.3,0.2,0.5,0.4,0.7,0.4c0.1,0,0.5,0,0.5-0.4c0-0.1,0-0.2-0.2-0.5
		c-0.2-0.3-0.4-0.9-0.8-1.8c-0.1-0.3-0.4-0.3-1-0.3L295.2,412.1"/>
</g>
<g>
	<path fill="#FFFFFF" d="M322.6,373c-0.5,0-0.9-0.1-1.4-0.4c-0.4-0.2-0.8-0.6-1-1c-0.3-0.4-0.4-0.9-0.4-1.4c0-0.5,0.1-1,0.4-1.4
		c0.2-0.4,0.6-0.8,1-1c0.4-0.2,0.9-0.4,1.4-0.4c0.5,0,0.9,0.1,1.4,0.4c0.4,0.2,0.8,0.6,1,1c0.2,0.4,0.4,0.9,0.4,1.4
		c0,0.5-0.1,1-0.4,1.4c-0.3,0.4-0.6,0.8-1,1C323.5,372.9,323.1,373,322.6,373 M322.6,372.6c0.4,0,0.8-0.1,1.2-0.3
		c0.4-0.2,0.6-0.5,0.9-0.8c0.2-0.4,0.3-0.8,0.3-1.2c0-0.4-0.1-0.8-0.3-1.2c-0.2-0.4-0.5-0.7-0.9-0.9c-0.4-0.2-0.8-0.3-1.2-0.3
		c-0.4,0-0.8,0.1-1.2,0.3c-0.4,0.2-0.7,0.5-0.9,0.9c-0.2,0.4-0.3,0.8-0.3,1.2c0,0.4,0.1,0.8,0.3,1.2c0.2,0.4,0.5,0.6,0.9,0.8
		C321.8,372.5,322.2,372.6,322.6,372.6z"/>
</g>
<g>
	<g>
		<path fill="#FFFFFF" d="M322.6,372.7c-0.4,0-0.8-0.1-1.2-0.3c-0.4-0.2-0.7-0.5-0.9-0.9c-0.2-0.4-0.3-0.8-0.3-1.2
			c0-0.4,0.1-0.8,0.3-1.2c0.2-0.4,0.5-0.7,0.9-0.9c0.4-0.2,0.8-0.3,1.2-0.3c0.4,0,0.8,0.1,1.2,0.3c0.4,0.2,0.7,0.5,0.9,0.9
			c0.2,0.4,0.3,0.8,0.3,1.2c0,0.4-0.1,0.8-0.3,1.2c-0.2,0.4-0.5,0.7-0.9,0.9C323.4,372.5,323,372.7,322.6,372.7z M322.6,368
			c-0.4,0-0.8,0.1-1.2,0.3c-0.4,0.2-0.6,0.5-0.9,0.8c-0.2,0.4-0.3,0.7-0.3,1.2c0,0.4,0.1,0.8,0.3,1.2c0.2,0.4,0.5,0.6,0.9,0.8
			c0.4,0.2,0.7,0.3,1.1,0.3s0.8-0.1,1.1-0.3c0.4-0.2,0.6-0.5,0.9-0.8c0.2-0.4,0.3-0.8,0.3-1.2c0-0.4-0.1-0.8-0.3-1.2
			c-0.2-0.4-0.5-0.6-0.9-0.8C323.4,368.1,323,368,322.6,368z"/>
	</g>
	<g>
		<path fill="#FFFFFF" d="M322.6,373.1c-0.5,0-0.9-0.1-1.4-0.4c-0.4-0.2-0.8-0.6-1-1c-0.3-0.4-0.4-0.9-0.4-1.4c0-0.5,0.1-1,0.4-1.4
			c0.2-0.4,0.6-0.8,1-1c0.4-0.2,0.9-0.4,1.4-0.4c0.5,0,1,0.1,1.4,0.4c0.4,0.2,0.8,0.6,1,1c0.2,0.4,0.4,0.9,0.4,1.4
			c0,0.5-0.1,1-0.4,1.4c-0.3,0.4-0.6,0.8-1,1C323.6,373,323.1,373.1,322.6,373.1z M322.6,367.6c-0.5,0-0.9,0.1-1.4,0.4
			c-0.4,0.2-0.8,0.6-1,1c-0.2,0.4-0.4,0.9-0.4,1.4c0,0.5,0.1,1,0.4,1.4c0.3,0.4,0.6,0.8,1,1c0.4,0.2,0.9,0.4,1.3,0.4
			c0.5,0,0.9-0.1,1.3-0.4c0.4-0.2,0.8-0.6,1-1s0.4-0.9,0.4-1.4c0-0.5-0.1-0.9-0.4-1.4c-0.2-0.4-0.6-0.8-1-1
			C323.5,367.7,323.1,367.6,322.6,367.6z"/>
	</g>
</g>
<g>
	<path fill="#FFFFFF" d="M323.8,371.8l-0.5-0.9c-0.1-0.2-0.2-0.3-0.3-0.4c0.2-0.1,0.3-0.2,0.4-0.4c0.1-0.2,0.1-0.3,0.1-0.5
		c0-0.2,0-0.3-0.1-0.4c-0.1-0.1-0.2-0.2-0.3-0.3c-0.1-0.1-0.3-0.1-0.6-0.1h-1v3.1h0.5v-1.3h0.3c0,0,0.1,0,0.2,0.3
		c0,0,0.1,0.2,0.1,0.2l0.4,0.8l0,0L323.8,371.8L323.8,371.8 M322.5,370.2h-0.3v-1h0.4c0.2,0,0.3,0,0.3,0.1c0.1,0,0.1,0.1,0.2,0.2
		c0,0.1,0.1,0.1,0.1,0.2c0,0.1,0,0.3-0.1,0.4S322.7,370.2,322.5,370.2z"/>
</g>
</svg>
