<?xml version="1.0" encoding="utf-8"?>
<!-- Generator: Adobe Illustrator 18.1.1, SVG Export Plug-In . SVG Version: 6.00 Build 0)  -->
<svg version="1.1" id="Layer_1" xmlns="http://www.w3.org/2000/svg" xmlns:xlink="http://www.w3.org/1999/xlink" x="0px" y="0px"
	 viewBox="126 0 72 72" enable-background="new 126 0 72 72" xml:space="preserve">
<g>
	<path fill="#ED1C24" d="M126.4,36c0-19.7,16-35.6,35.6-35.6s35.6,16,35.6,35.6s-16,35.6-35.6,35.6C142.3,71.5,126.4,55.7,126.4,36"
		/>
	<path fill="#FFFFFF" d="M167.6,63.6c-0.4-0.4-0.8-0.2-1.3-0.5c-0.2-0.1-0.5-0.1-0.7-0.2c-1.6-0.7-2.9-1.6-4.2-2.8
		c-0.5-0.5-1.1-0.8-1.6-1.4c-1.3-1.6-2.6-3.1-3.8-4.8c-0.8-1.2-1.6-2.4-2.4-3.6c-0.4-0.5-0.6-1-0.8-1.4c-0.5-1-1-1.8-1.6-2.8
		c-1.1-1.9-2-4-3-6c-0.5-1-1-1.8-1.3-2.8s-0.7-1.8-1.1-2.8c-0.5-1.2-1-2.3-1.3-3.6c-0.4-1.2-0.8-2.4-1.1-3.6
		c-0.1-0.8-0.2-1.7-0.5-2.5c-0.1-0.7,0-1.4-0.2-2c-0.2-0.7-0.1-1.3-0.1-1.9c-0.1-0.6,0.2-1.2,0.2-1.8s0.2-1.2,0.4-1.8
		c0.2-0.6,0.5-1.1,0.7-1.7c0.7-1.3,1.7-2.3,2.9-3c0.5-0.2,1-0.6,1.4-0.8c1,1.7,1.7,3.4,2.6,5c0.8,1.7,1.6,3.4,2.4,5
		c0.8,1.7,1.7,3.4,2.6,5.2c-0.7,0.1-1,0.8-1.1,1.4c-0.1,0.6-0.5,1.3-0.2,1.9c0.2,1.2,0.4,2.3,0.7,3.5c0.6,1.9,1.4,3.8,2.3,5.6
		c0.7,1.4,1.6,2.6,2.5,4c0.5,0.7,1.1,1.3,1.7,1.9c0.7,0.7,1.4,1.3,2.6,1.7h1.6c2.5,4.9,4.9,9.8,7.4,14.9c-0.2,0.1-0.5,0.2-0.6,0.4
		c-0.1,0.1-0.4,0.1-0.6,0.2c-0.7,0.4-1.4,0.6-2.2,0.6c-0.1,0-0.1,0.1-0.1,0.2h-2.3V63.6z"/>
	<path fill="#FFFFFF" d="M156,8.4c1.7,3.5,3.5,7,5.2,10.3c0.7,1.3,1.3,2.8,2,4.1c0.1,0.1,0.1,0.4,0.1,0.5c-1.6,0.7-3,1.4-4.4,2.3
		c-2.5-4.9-4.9-9.8-7.4-14.9c1.4-0.7,2.8-1.3,4.2-2c0.1,0,0.1-0.1,0.1-0.2C155.8,8.4,156,8.4,156,8.4z"/>
	<path fill="#FFFFFF" d="M181.1,58.6c-1.4,0.7-2.9,1.4-4.4,2.3c-0.5-1-1-1.9-1.4-2.8c-1.6-3.1-3-6.1-4.6-9.2c-0.5-1-1-1.8-1.6-2.8
		c1.4-0.8,3-1.6,4.6-2.3C176,48,180.8,57.7,181.1,58.6"/>
</g>
</svg>
