<?xml version="1.0" encoding="utf-8"?>
<!-- Generator: Adobe Illustrator 18.1.1, SVG Export Plug-In . SVG Version: 6.00 Build 0)  -->
<svg version="1.1" id="Layer_1" xmlns="http://www.w3.org/2000/svg" xmlns:xlink="http://www.w3.org/1999/xlink" x="0px" y="0px"
	 viewBox="0 0 72 72" enable-background="new 0 0 72 72" xml:space="preserve">
<g>
	<path fill="#29AAE1" d="M0.4,36c0-19.7,16-35.6,35.6-35.6s35.6,16,35.6,35.6S55.7,71.6,36,71.6S0.4,55.7,0.4,36"/>
	<path fill="#FFFFFF" d="M9.5,33.6c1.9-2.6,4.1-3.8,7-3.7c2.9,0,4.9,1.3,6.4,4c0.5-0.6,0.7-1.1,1.1-1.4c1.9-2.3,5.5-3.1,8.4-2
		c1.3,0.5,1.8,1.2,1.8,2.6c0,7.8,0,15.7,0,23.5c0,0.6-0.1,1.3-0.4,1.9c-0.5,1.2-1.6,1.3-2.5,0.5c-0.7-0.6-1.1-1.4-1.1-2.4
		c0-0.8,0-1.8-0.1-2.6c-0.2-1.1-1.1-1.8-1.9-1.9c-1,0-1.8,0.7-2.2,1.9c0,0.1-0.1,0.2-0.1,0.5c0,1.3-0.1,2.8,0,4.1
		c0.7,4.9,6,7.2,10.1,4.6c1.9-1.3,2.8-3.2,2.9-5.5c0-2.6,0-5.3,0-7.8c0-5.6,0-11.2,0-16.8c0-1.9,0.2-2.3,2-2.6
		c2.4-0.5,4.8-0.1,6.8,1.4c0.7,0.6,1.2,1.4,1.9,2.3c1-1.6,2-2.9,3.8-3.4c1.6-0.6,3.4-0.7,4.8-0.2c1.6,0.6,2.9,1.7,4.4,2.6
		c-0.2-1.3-0.4-2.4-0.6-3.5c-1.4-7.1-5.4-12.5-11.5-16.2c-6.7-4.1-13.9-5.2-21.6-3.1c-8,2.2-13.8,7-17.3,14.4
		C10.4,27.3,9.7,30.2,9.5,33.6"/>
</g>
</svg>
