<?xml version="1.0" encoding="utf-8"?>
<!-- Generator: Adobe Illustrator 18.1.1, SVG Export Plug-In . SVG Version: 6.00 Build 0)  -->
<svg version="1.1" id="Layer_1" xmlns="http://www.w3.org/2000/svg" xmlns:xlink="http://www.w3.org/1999/xlink" x="0px" y="0px"
	 viewBox="126 0 72 72" enable-background="new 126 0 72 72" xml:space="preserve">
<g>
	<circle fill="#92278F" cx="162" cy="36" r="35.6"/>
	<path fill="#FFFFFF" d="M155.6,52.9c11.6,0,23,0,34.2,0c0-1.8,0-3.5,0-5.1c-11.5,0-22.8,0-34.2,0C155.6,49.5,155.6,51.1,155.6,52.9
		z M189.9,37.6c0-1.7,0-3,0-4.2c-0.4-0.4-0.7-0.7-1-1c-10.8,0-21.5,0-32.1,0c-0.6,0.5-1,0.7-1.1,1c0,1.6,0,3,0,4.3
		C167.2,37.6,178.4,37.6,189.9,37.6z M156.6,23c10.3,0,20.3,0,30.3,0c0.1,0,0.4-0.4,0.2-0.2c1.1,0.1,2.1,0.4,2.9,0.5
		c0-1.9,0-3.5,0-5.3c-11.5,0-22.8,0-34.3,0c0,1.4,0,2.8,0,4.2C156,22.3,156.2,22.6,156.6,23z M148.6,56.1c0-3.7,0-7.1,0-10.6
		c-1.9,0-3.6,0-5.4,0c-1.7,0-3.5,0-5.1,0c0,3.7,0,7.1,0,10.6C141.6,56.1,145,56.1,148.6,56.1z M148.6,30.2c-3.7,0-7.1,0-10.6,0
		c0,1.9,0,3.6,0,5.4c0,1.7-0.2,3.5,0.1,5.1c3.6,0,7,0,10.5,0C148.6,37.1,148.6,33.7,148.6,30.2z M148.6,25.4c0-3.7,0-7.1,0-10.6
		c-1.9,0-3.6,0-5.4,0c-1.7,0-3.5-0.2-5.1,0.1c0,3.6,0,7,0,10.5C141.6,25.4,145,25.4,148.6,25.4z"/>
	<path fill="#FFFFFF" d="M155.6,52.9c0-1.8,0-3.4,0-5.1c11.4,0,22.7,0,34.2,0c0,1.6,0,3.3,0,5.1C178.6,52.9,167.3,52.9,155.6,52.9z"
		/>
	<path fill="#FFFFFF" d="M189.9,37.6c-11.5,0-22.7,0-34.2,0c0-1.3,0-2.8,0-4.3c0.1-0.1,0.6-0.5,1.1-1c10.5,0,21.4,0,32.1,0
		c0.2,0.2,0.6,0.6,1,1C189.9,34.6,189.9,35.9,189.9,37.6z"/>
	<path fill="#FFFFFF" d="M156.6,23c-0.4-0.4-0.6-0.6-0.8-0.8c0-1.3,0-2.8,0-4.2c11.5,0,22.8,0,34.3,0c0,1.7,0,3.4,0,5.3
		c-1-0.1-1.8-0.2-2.9-0.5c0.1-0.1,0,0.2-0.2,0.2C176.7,23,166.7,23,156.6,23z"/>
	<path fill="#FFFFFF" d="M148.6,56.1c-3.5,0-7,0-10.5,0c0-3.5,0-6.9,0-10.6c1.6,0,3.4,0,5.1,0c1.8,0,3.5,0,5.4,0
		C148.6,48.9,148.6,52.3,148.6,56.1z M141.1,52.9c1.9,0,3.6,0,5.3,0c-0.1-1.8,0.1-3.5-0.2-5.1c-1.8,0-3.5,0-5.2,0
		C141.1,49.5,141.1,51.1,141.1,52.9z"/>
	<path fill="#FFFFFF" d="M148.6,30.2c0,3.5,0,6.9,0,10.5c-3.5,0-6.9,0-10.5,0c-0.4-1.6-0.1-3.3-0.1-5.1c0-1.8,0-3.5,0-5.4
		C141.5,30.2,144.8,30.2,148.6,30.2z M141.1,38.3c1.9,0,3.6,0,5.3,0c-0.2-2.1,0.1-4.1-0.2-5.9c-1.9,0-3.5,0-5.2,0
		C141.1,34.4,141.1,36.4,141.1,38.3z"/>
	<path fill="#FFFFFF" d="M148.6,25.4c-3.5,0-6.9,0-10.5,0c0-3.5,0-6.9,0-10.5c1.6-0.4,3.3-0.1,5.1-0.1c1.8,0,3.5,0,5.4,0
		C148.6,18.2,148.6,21.6,148.6,25.4z M146.3,17.2c-1.9,0-3.6,0-5.3,0c0.2,2.1-0.1,4.1,0.2,5.9c1.9,0,3.5,0,5.2,0
		C146.3,21,146.3,19.1,146.3,17.2z"/>
</g>
</svg>
