<?xml version="1.0" encoding="utf-8"?>
<!-- Generator: Adobe Illustrator 18.1.1, SVG Export Plug-In . SVG Version: 6.00 Build 0)  -->
<svg version="1.1" id="Layer_1" xmlns="http://www.w3.org/2000/svg" xmlns:xlink="http://www.w3.org/1999/xlink" x="0px" y="0px"
	 viewBox="0 0 72 72" enable-background="new 0 0 72 72" xml:space="preserve">
<circle fill="#AB1825" cx="36" cy="36" r="35.6"/>
<g>
	<path fill="#FFFFFF" d="M69.2,41.9l-3.4-21.1l-0.2-1.3l-1.3,0.3L52.2,23c-1,0-5.4-2.6-7.8-4.1c-3.5-2.1-4.7-2.8-5.5-2.8
		c-0.9,0-3.8,1.4-6.3,3c-0.4-0.4-0.8-0.6-1-0.5C29.1,19,21.5,25.1,20,24.7S6.5,21.2,6.5,21.2L3.4,41.9c0,0,8.7,2.3,12.4,3.3
		l-1.1,1.6c-0.5,0.8-0.6,1.8-0.1,2.8c0.8,1.5,2.5,2.6,4.2,2.6c0.2,0,0.3,0,0.5,0c0.1,0.4,0.3,0.8,0.6,1.2c0.9,1.3,2.7,2.1,4.3,2.1
		c0.2,0,0.4,0,0.6-0.1c0.2,0.5,0.4,1,0.8,1.4c1,1.2,2.7,2,4.3,2c0.2,0,0.3,0,0.4,0c0.1,0.5,0.4,1.1,0.8,1.5c0.8,1,2.2,1.7,3.5,1.7
		c1.1,0,2-0.5,2.5-1.3c0.6-0.8,1.6-2.7,2.6-4.4c0.2-0.4,0.4-0.8,0.6-1.1c1.4,0.6,2.3,1,2.3,1c3.1,1.2,4.7-3.4,3.3-4.6l2.2,0.8
		c3.2,1.3,6-2.6,3.5-5c1.2,0.5,2.3,0.3,3.1-0.4l0,0l2.8-0.6l10.7-3l1-0.3L69.2,41.9z M36.1,60c-0.3,0.5-0.9,0.7-1.5,0.7
		c-1.6,0-3.6-1.4-3.1-3.6c-0.5,0.3-1,0.4-1.6,0.4c-2.1,0-4.4-1.8-4.1-3.9c-0.5,0.4-1.1,0.5-1.7,0.5c-2.1,0-4.4-1.8-3.8-3.8
		c-0.5,0.4-1.1,0.5-1.6,0.5c-2,0-4.1-2.2-3.2-3.5l2.2-3.2c0.3-0.6,0.9-0.8,1.5-0.8c1.5,0,3.3,1.6,3.1,2.9c0.9-1.5,1.9-2.7,3-2.9
		c0.2,0,0.4-0.1,0.6-0.1c2,0,3.7,1.8,3.7,3.3c0.8-1.2,1.8-1.7,2.8-1.7c2.3,0,4.5,2.3,3.8,4c0.4-0.4,0.9-0.5,1.5-0.5
		c1.9,0,4.1,2,2.7,4.4C39.3,54.6,37,58.7,36.1,60L36.1,60z M57.3,45.1c0.2-0.6,0.2-1.3,0.1-1.9c1.6-0.3,3-1.5,3.5-3.1
		c0.6-1.6,0.1-3.3-1.2-4.4l-0.2-0.1c-0.1-0.1-9-5-17.5-10.2l-2.4,0.1c-0.6,0.3-2.2,1.1-2.4,1.9c-0.3,0.9-1.5,5.5-2.1,7.7
		c-0.1,0.6-0.8,0.8-1.5,0.8c-2.2,0-5.9-1.9-5.5-3.6c0.5-2.3,1.5-7.7,1.9-9.3c0.4-1.6,7.6-5.7,8.9-5.7s10.9,6.8,13.4,6.8
		c0.1,0,0.2,0,0.2,0c2-0.5,12.1-3.1,12.1-3.1L68,42.1L57.3,45.1z"/>
</g>
</svg>
