<?xml version="1.0" encoding="utf-8"?>
<!-- Generator: Adobe Illustrator 18.1.1, SVG Export Plug-In . SVG Version: 6.00 Build 0)  -->
<svg version="1.1" id="Layer_1" xmlns="http://www.w3.org/2000/svg" xmlns:xlink="http://www.w3.org/1999/xlink" x="0px" y="0px"
	 viewBox="0 0 72 72" enable-background="new 0 0 72 72" xml:space="preserve">
<g>
	<circle fill="#005B9D" cx="36" cy="36" r="35.6"/>
	<path fill="#FFFFFF" d="M59,11.8c0,0,5.4,0,1.6,3.8L16.3,60.2c0,0-3.8,3.9-3.8-1.6l0-41.2c0,0,0-5.4,5.4-5.5L59,11.8z"/>
	<path fill="none" stroke="#005B9E" stroke-width="0.8313" d="M59,11.8c0,0,5.4,0,1.6,3.8L16.3,60.2c0,0-3.8,3.9-3.8-1.6l0-41.2
		c0,0,0-5.4,5.4-5.5L59,11.8z"/>
	<path fill="#005B9D" d="M52.5,13.6c0,0,0-4.5-3.2-1.3L12.8,49.1c0,0-3.2,3.2,1.3,3.2L48,52.2c0,0,4.5,0,4.5-4.5L52.5,13.6z"/>
	<path fill="none" stroke="#FFFFFF" stroke-width="1.6618" d="M52.5,13.6c0,0,0-4.5-3.2-1.3L12.8,49.1c0,0-3.2,3.2,1.3,3.2L48,52.2
		c0,0,4.5,0,4.5-4.5L52.5,13.6z"/>
</g>
</svg>
