<?xml version="1.0" encoding="utf-8"?>
<!-- Generator: Adobe Illustrator 18.1.1, SVG Export Plug-In . SVG Version: 6.00 Build 0)  -->
<svg version="1.1" id="Layer_1" xmlns="http://www.w3.org/2000/svg" xmlns:xlink="http://www.w3.org/1999/xlink" x="0px" y="0px"
	 viewBox="246.5 56.5 72 72" enable-background="new 246.5 56.5 72 72" xml:space="preserve">
<circle fill="#31F2F4" cx="282.5" cy="92.5" r="36"/>
<path fill="#FFFFFF" d="M271.1,106.5l-2.5-2.5l25.3-25.3l2.5,2.5L271.1,106.5z M283.3,99.3l-7.1,7.1l-2.5,2.5l-2.6,2.6
	c-1.4,1.4-3.6,1.4-5.1,0l-2.5-2.5c-1.4-1.4-1.4-3.6,0-5.1l2.5-2.5l2.5-2.5l7.2-7.2c-3.9-1.9-8.9-1.2-12.2,2l-5.1,5.1
	c-4.1,4.1-4.1,11,0,15.2l2.5,2.5c4.1,4.1,11,4.1,15.2,0l5.1-5.1C284.5,108.2,285.1,103.4,283.3,99.3z M306.5,71l-2.5-2.5
	c-4.1-4.1-11-4.1-15.2,0l-5.1,5.1c-3.3,3.3-3.9,8.2-2,12.2l7.2-7.2l2.5-2.5l2.5-2.5c1.4-1.4,3.6-1.4,5.1,0l2.5,2.5
	c1.4,1.4,1.4,3.6,0,5.1l-2.5,2.5l-2.6,2.5l-7.1,7.2c3.9,1.9,8.9,1.2,12.2-2l5.1-5.1C310.7,82,310.7,75.3,306.5,71z"/>
</svg>
