<?xml version="1.0" encoding="utf-8"?>
<!-- Generator: Adobe Illustrator 18.1.1, SVG Export Plug-In . SVG Version: 6.00 Build 0)  -->
<svg version="1.1" id="Layer_1" xmlns="http://www.w3.org/2000/svg" xmlns:xlink="http://www.w3.org/1999/xlink" x="0px" y="0px"
	 viewBox="126 0 72 72" enable-background="new 126 0 72 72" xml:space="preserve">
<g>
	<path fill="#167EBB" d="M126.4,36c0-19.7,16-35.6,35.7-35.6c19.6,0,35.6,16,35.6,35.6s-16,35.6-35.6,35.6
		C142.3,71.8,126.4,55.8,126.4,36"/>
	<path fill="#FFFFFF" d="M177.3,12l-4,7.9h-22.6l-4-7.9c-2.1,0.2-3.8,2-3.8,4.1v40.4c0,2.4,1.9,4.3,4.3,4.3h29.6
		c2.4,0,4.3-1.9,4.3-4.3V16.2C181,14,179.3,12.2,177.3,12"/>
	<polygon fill="#FFFFFF" points="171.8,17.5 174.6,12 168.4,12 166.6,6.6 157.6,6.6 155.6,12 149.5,12 152.2,17.5 	"/>
</g>
</svg>
