<?xml version="1.0" encoding="utf-8"?>
<!-- Generator: Adobe Illustrator 18.1.1, SVG Export Plug-In . SVG Version: 6.00 Build 0)  -->
<svg version="1.1" id="Layer_1" xmlns="http://www.w3.org/2000/svg" xmlns:xlink="http://www.w3.org/1999/xlink" x="0px" y="0px"
	 viewBox="0 0 72 72" enable-background="new 0 0 72 72" xml:space="preserve">
<g>
	<path fill="#9A4298" d="M0.4,36c0-19.7,16-35.6,35.6-35.6s35.6,16,35.6,35.6S55.7,71.6,36,71.6S0.4,55.7,0.4,36"/>
	<path fill="#FFFFFF" d="M36.5,32.8c-5.3,0-9.7,3-9.7,8.5c0,0.5,0.5,7.1,0.5,7.1c0.1,1.6,1.4,2.8,2.9,2.8H31l0.5,11.4
		c0.1,1.6,1.4,2.8,3,2.8h4.3c1.6,0,2.9-1.3,3-2.8l0.5-11.4h0.6c1.5,0,2.8-1.3,2.9-2.8c0,0,0.5-6.6,0.5-7.1
		C46.2,35.8,41.8,32.8,36.5,32.8"/>
	<path fill="#FFFFFF" d="M36.5,31.4c2.5,0,4.6-2.4,4.6-5c0-2.5-2.1-4.6-4.6-4.6c-2.5,0-4.6,2.1-4.6,4.6C31.9,29,34,31.4,36.5,31.4"
		/>
	<path fill="#FFFFFF" d="M38.1,10.3c-1.2-0.1-2.2,1.2-2.3,2.3l-0.3-1c-0.3-1.1-1.5-1.8-2.6-1.5c-1.1,0.3-1.8,1.5-1.5,2.6l0.3,1
		c-0.6-1-2.2-1.6-3.1-0.9c-1,0.6-1.3,2-0.6,3l2.5,3.7c0.5,0.8,1.5,1.1,2.3,0.9c0.2-0.1,5.3-1.4,5.5-1.5c0.9-0.2,1.5-1,1.6-1.9
		l0.3-4.5C40.1,11.4,39.3,10.4,38.1,10.3"/>
	<path fill="#FFFFFF" d="M32.7,9.4c0.8-0.2,1.2-1,1-1.7c-0.2-0.8-1-1.2-1.7-1c-0.8,0.2-1.2,1-1,1.7C31.2,9.2,32,9.6,32.7,9.4"/>
	<path fill="#FFFFFF" d="M28.6,10.5c-0.2-0.8-1-1.2-1.7-1c-0.8,0.2-1.2,1-1,1.7c0.2,0.8,1,1.2,1.7,1C28.4,12.1,28.8,11.3,28.6,10.5"
		/>
	<path fill="#FFFFFF" d="M37.8,6.6c-0.8,0.2-1.2,1-1,1.7c0.2,0.8,1,1.2,1.7,1c0.8-0.2,1.2-1,1-1.7C39.4,6.8,38.6,6.4,37.8,6.6"/>
</g>
</svg>
