<?xml version="1.0" encoding="utf-8"?>
<!-- Generator: Adobe Illustrator 18.1.1, SVG Export Plug-In . SVG Version: 6.00 Build 0)  -->
<svg version="1.1" id="Layer_1" xmlns="http://www.w3.org/2000/svg" xmlns:xlink="http://www.w3.org/1999/xlink" x="0px" y="0px"
	 viewBox="246.5 56.5 72 72" enable-background="new 246.5 56.5 72 72" xml:space="preserve">
<g>
	<g>
		<circle fill="#414042" cx="282.5" cy="92.5" r="36"/>
	</g>
	<g>
		<circle fill="#FFFFFF" cx="282.8" cy="92.7" r="8.8"/>
		<path fill="#FFFFFF" d="M308.5,75.4h-14.5l-0.4-3.4c0-1.9-1.6-3.5-3.5-3.5h-14.9c-1.9,0-3.5,1.6-3.5,3.5l-0.4,3.4h-14.4
			c-1.3,0-2.3,1-2.3,2.3v30.1c0,1.3,1.1,2.4,2.3,2.4h51.6c1.3,0,2.3-1.1,2.3-2.4V77.6C310.9,76.4,309.8,75.4,308.5,75.4z M282.7,107
			c-7.9,0-14.3-6.4-14.3-14.3s6.4-14.3,14.3-14.3c7.9,0,14.3,6.4,14.3,14.3C297.1,100.6,290.7,107,282.7,107z M308.2,81.5H296v-3.6
			h12.2V81.5z"/>
	</g>
</g>
</svg>
