<?xml version="1.0" encoding="utf-8"?>
<!-- Generator: Adobe Illustrator 18.1.1, SVG Export Plug-In . SVG Version: 6.00 Build 0)  -->
<svg version="1.1" id="Layer_1" xmlns="http://www.w3.org/2000/svg" xmlns:xlink="http://www.w3.org/1999/xlink" x="0px" y="0px"
	 viewBox="0 0 72 72" enable-background="new 0 0 72 72" xml:space="preserve">
<g>
	<circle fill="#A17C60" cx="36" cy="36" r="35.6"/>
	<path fill="#FFFFFF" d="M26,43.5l-0.3,0.1h-5.5c-0.1-5.3,0-10.5,0-15.7l5.8,0V43.5z"/>
	<path fill="#FFFFFF" stroke="#FFFFFF" stroke-width="1.6941" d="M53.2,30c-0.2,0.2-0.4,0.4-0.6,0.6c-0.1-0.1-0.3-0.3-0.4-0.4
		c-0.8-1-1.9-1.5-3.3-1.3c-1.1,0.1-1.9,0.9-2.4,1.9c-0.3,0.7-0.3,1.6,0.1,2.2c0.6,0.9,1.7,1.4,2.6,1.8l2.9,1.6
		c1.2,0.7,1.9,2.1,1.7,3.6c-0.2,1.8-1.7,3.1-3.4,3.6c-0.8,0.3-1.7,0.3-2.5,0.1c-1.7-0.3-3.1-1.6-3.7-3.2c0.3-0.1,0.6-0.3,0.9-0.4
		c0.5,1.4,1.8,2.7,3.4,2.8c1.7,0.1,3.4-0.8,4.1-2.3c0.3-0.8,0.4-1.7-0.1-2.4c-0.7-1.1-2-1.6-3.1-2.2c-1.4-1-3.6-1.3-4.1-3.2
		c-0.2-1,0-2.2,0.5-3.1c0.8-1.3,2.4-1.9,4-1.7C51.3,28.1,52.5,28.8,53.2,30z"/>
	<path fill="#FFFFFF" stroke="#FFFFFF" stroke-width="1.6941" d="M67.8,29.8c0.1,0.4,0,0.9,0.1,1.3c-1.8-2-4.8-3-7.5-2
		c-2.8,1.1-4.8,3.5-4.9,6.6c-0.1,2.8,1.8,5.2,4.1,6.3c1.8,1,4.3,1,6.1,0.1c0.8-0.4,1.6-0.9,2.2-1.6v1.3c-2.2,1.9-5.8,2.4-8.5,1.1
		c-2.8-1.2-4.9-4-4.9-7.2c0-3,1.8-5.6,4.4-7C61.7,27.3,65.6,27.7,67.8,29.8z"/>
	<g>
		<g>
			<path fill="#FFFFFF" d="M19,31.1c-0.8-2-2.8-3.2-4.8-3.3H5.7l0,15.7h5.5v-4.7l0.1,0l3.4,0c1.3-0.1,2.6-0.5,3.5-1.5
				C19.6,35.7,19.8,33.1,19,31.1z M13.7,34.1c-0.5,0.8-1.6,0.6-2.4,0.7l-0.1-0.1v-2.6l0.1-0.1c0.9,0.1,2.1-0.1,2.5,0.8
				C14,33.3,13.9,33.7,13.7,34.1z"/>
		</g>
	</g>
	<g>
		<g>
			<path fill="#FFFFFF" d="M44,42.2c-0.1-0.1-0.1-0.4-0.2-0.4c-1.6-4.6-3.3-9.3-5-13.9c-2.2,0-4.3,0-6.5,0c-1.6,4.3-3.1,8.7-4.7,13
				c-0.3,0.9-0.7,1.8-1,2.7c2,0,4.2,0,6.2,0c0.1-0.7,0.3-1.3,0.5-1.9c1.4,0,3,0,4.4,0c0.1,0.6,0.4,1.3,0.5,1.9c2,0.1,4.2,0,6.2,0
				C44.3,43,44.1,42.7,44,42.2z M34.4,37.9c0.3-1.6,0.7-3.2,1.1-4.8c0.1-0.1,0.2-0.1,0.2,0.1c0.2,1.7,0.7,3.2,1,4.7H34.4z"/>
		</g>
	</g>
</g>
</svg>
