<?xml version="1.0" encoding="utf-8"?>
<!-- Generator: Adobe Illustrator 18.1.1, SVG Export Plug-In . SVG Version: 6.00 Build 0)  -->
<svg version="1.1" id="Layer_1" xmlns="http://www.w3.org/2000/svg" xmlns:xlink="http://www.w3.org/1999/xlink" x="0px" y="0px"
	 viewBox="0 0 72 72" enable-background="new 0 0 72 72" xml:space="preserve">
<circle fill="#2E3192" cx="36" cy="36" r="36"/>
<g>
	<path fill="#FFFFFF" stroke="#FFFFFF" stroke-width="0.5163" d="M61.9,38.2c-1.2-5.5-4.7-9.7-10.7-9.7c-2.4,0-5.2,1-7.3,3.2
		c-1.9,2-4,5.3-4,12.9c0,11.1,5.8,15.7,11.9,15.7c6,0,9.4-3.7,10.9-5.3l0.9,0.9c0,0.1-4.2,6.7-13.1,6.7c-7.8,0-16.2-5-16.2-18.1
		c0-11.7,8.1-18.1,16.5-18.1c4.3,0,7.5,1.7,8.5,1.7c0.2,0,1.8,0,2.2-1.7h1l0.4,11.8H61.9z"/>
	<path fill="#FFFFFF" stroke="#FFFFFF" stroke-width="0.5163" d="M24.5,55.3c3.1-0.1,3.6-1,3.6-4.7V27.5c0-3.8-0.5-4.5-3.6-4.7v-1
		h10.9v1c-2.7,0.2-3.6,0.5-3.6,4.7v23.1c0,4.1,0.9,4.6,3.6,4.7v1H24.5V55.3z"/>
	<path fill="#FFFFFF" stroke="#FFFFFF" stroke-width="0.5163" d="M11,12.1h15.7c8.2,0,15.6,2.9,15.6,9.8c0,4.2-2.6,6.5-3.6,7.3
		c-2.6,2.2-6.4,3.2-12.6,3.2c-1.4,0-2.6-0.1-4-0.2v9.9c0,4,1,4.8,5.6,4.9v1H11v-1c5-0.3,5-1.6,5-5.5V18.1c0-3.9-0.7-4.5-5-4.9V12.1z
		 M22.1,30.1c1.1,0.1,2.3,0.2,3.6,0.2c2.2,0,10.2,0,10.2-8.3c0-7.8-8.7-7.9-11.3-7.9c-1.8,0-2.4,0.1-2.4,1.8V30.1z"/>
	
		<path fill="#FFFFFF" stroke="#FFFFFF" stroke-width="5.163264e-03" stroke-linecap="round" stroke-linejoin="round" stroke-miterlimit="3.8637" d="
		M16.2,30.3c-0.3,0-0.9,0.2-1.5,0.2c-0.6,0-1.5,0.3-1.5,0.3l-1.3,0.6c0,0-0.8,0.8-1,1.2c-0.3,0.5,0,1,0.4,1.1
		c0.5,0.1,0.6-0.5,1.9-1.1c2-0.8,3.2-0.3,3.2-0.3S16.5,30.3,16.2,30.3L16.2,30.3z"/>
</g>
</svg>
