<?xml version="1.0" encoding="utf-8"?>
<!-- Generator: Adobe Illustrator 18.1.1, SVG Export Plug-In . SVG Version: 6.00 Build 0)  -->
<svg version="1.1" id="Layer_1" xmlns="http://www.w3.org/2000/svg" xmlns:xlink="http://www.w3.org/1999/xlink" x="0px" y="0px"
	 viewBox="0 0 20 20" enable-background="new 0 0 20 20" xml:space="preserve">
<g>
	<circle fill="#922A8E" cx="10" cy="10" r="10"/>
</g>
<path fill-rule="evenodd" clip-rule="evenodd" fill="#FFFFFF" d="M13.3,18.7l-4.7,0l-1.1-4.6c0,0,2.4,2.2,5.4,0.2l-1.1,3.5l1.3,0.2
	L13.3,18.7z"/>
<path fill="#FFFFFF" d="M10.4,6.5c-2.3,0-4.1,1.8-4.1,4.1c0,2.3,1.8,4.1,4.1,4.1c2.3,0,4.1-1.8,4.1-4.1C14.5,8.3,12.7,6.5,10.4,6.5z
	 M10.4,13c-1.4,0-2.5-1.1-2.5-2.5c0-1.4,1.1-2.5,2.5-2.5c1.4,0,2.5,1.1,2.5,2.5C12.8,11.9,11.7,13,10.4,13z"/>
<path fill="#FFFFFF" d="M12.5,10.6c0,1.2-1,2.1-2.1,2.1c-0.6,0-1.2-0.3-1.5-0.7c-0.1-0.1,0.4,0.2,0.8,0.3c0.4,0.1,0.9,0,1.1-0.1
	c0.4-0.1,0.7-0.3,0.7-0.3l-0.1-0.5c0,0-0.4,0-0.9-0.1c-0.5-0.1-0.7-0.2-1-0.6c-0.3-0.4-0.3-0.9-0.3-1c0-0.1,0.2-0.1,0.2,0
	c0,0.2,0.3,0.6,0.5,0.8c0.2,0.2,0.4,0.3,0.7,0.3c0.3,0,0.6,0,0.6,0s0-0.3,0-0.5c0-0.2,0-0.3,0-0.4c-0.2-1.5-1-1.5-0.7-1.5
	C11.6,8.4,12.5,9.4,12.5,10.6z"/>
<path fill="#FFFFFF" d="M10.6,3.2c0-0.1-0.1-0.2-0.1-0.3c0.1,0,1.4-0.8,1.4-0.8l-0.3-0.5c0,0-0.6,0.2-0.9,0.4
	c-0.2,0.1-0.3,0.1-0.5,0.1C10.1,2.1,9.9,2,9.8,2C9.4,1.6,8.8,1.3,8.1,1.3C6.7,1.3,5.5,2.5,5.5,4c0,1.4,1.2,2.6,2.6,2.6
	c1.2,0,2.2-0.8,2.5-2C10.8,4.5,11.8,4,11.8,4l-0.4-1.1C11.4,2.9,10.9,3.1,10.6,3.2z M10.3,4.3c0,0.2-0.1,0.5-0.2,0.7
	C9.9,5,9.6,5,9.5,4.7L9.2,4.9c0,0,0.2,0.4,0.7,0.4c-0.4,0.5-1,0.8-1.7,0.8c-0.8,0-1.5-0.4-1.9-1.1c0,0,3.9-2.1,3.9-2.1
	c0.1,0.2,0.2,0.5,0.2,0.7c0.1,0,0.8-0.3,0.8-0.3l0.1,0.3C11.2,3.8,10.4,4.3,10.3,4.3z"/>
</svg>
