<?xml version="1.0" encoding="utf-8"?>
<!-- Generator: Adobe Illustrator 18.1.1, SVG Export Plug-In . SVG Version: 6.00 Build 0)  -->
<svg version="1.1" id="Layer_1" xmlns="http://www.w3.org/2000/svg" xmlns:xlink="http://www.w3.org/1999/xlink" x="0px" y="0px"
	 viewBox="0 0 360 360" enable-background="new 0 0 360 360" xml:space="preserve">
<circle fill="#FBAF47" cx="180" cy="180" r="180"/>
<g>
	<path fill="#FFFFFF" d="M321.5,261c-8,0.5-16,1.5-24,2c-11.5,1-22.5,0.5-33.5-1.5c-7-1.5-14-3-21-4.5c-21-3-41.5-2-61.5,6.5
		c-1,0.5-2.5,0.5-3.5,0c-14.5-6-30-8-45.5-7.5c-11,0.5-21.5,2-32,5C89,264,77,265,65,264.5c-8.5-0.5-17-1-26-1.5c-0.5,0-1,0-1.5,0
		c0-1,0-2,0-3.5c0-25.5,0-51.5,0-77c0-25,0-49.5-0.5-74.5c0-2,1.5-3.5,3.5-3.5c21.5,1.5,43,0,64-5.5c22.5-5.5,45-5.5,67,1.5
		c2.5,1,5,2.5,7.5,2.5s4.5-1.5,7-2.5c16-5.5,32-6.5,49-5c10.5,1,20.5,3.5,30.5,5.5c12.5,2.5,24.5,3,37,3c5,0,10-0.5,15-0.5
		c1.5,0,2,1.5,3,2.5c0,0.5,0,1,0,1.5c0,30.5,0,61,0,91.5c0,19.5,0,39,0,59C321.5,258,321.5,259,321.5,261z M178,258.5
		c0-23,0-46.5,0-70c0-21.5,0-42.5,0-64c0-5.5,0-11.5,0-17c0-1.5-0.5-2-1.5-2.5c-3-1-5.5-2-8.5-3c-21.5-6-43-5.5-64,0
		c-17,4.5-34.5,5.5-52,5.5c-3,0-6,0-9.5,0c-1,50.5-1,101-1.5,152c1,0,1.5,0,2.5,0c7.5-0.5,14.5-0.5,22-1C77,257.5,88,256,99,253
		c21-5.5,42-6.5,62.5-0.5C167,254.5,172.5,256.5,178,258.5z M318.5,257.5c-1-50.5-1.5-101-2.5-151c-9,0-17.5,0-25.5,0
		c-11.5-0.5-22.5-1.5-34-4.5c-13-3-25.5-4.5-39-4c-12,0.5-23.5,2.5-35,7c-1.5,0.5-2,1.5-2,3.5c0,28,0.5,56,0.5,84
		c0,21,0,42.5,0,63.5c0,1,0,2,0,3.5c1.5-0.5,2.5-1.5,4-2c22-9.5,44.5-11,67.5-6.5c16.5,3.5,33.5,6.5,50.5,6.5
		C308,257.5,313,257.5,318.5,257.5z M207.5,253v0.5c0.5,0,1.5,0,2,0c13-1.5,26-0.5,39,1.5c8.5,1.5,17,3.5,26,4.5
		c3,0.5,5.5,0.5,8.5,0.5c2.5,0,5.5,0,8,0c-10.5-1.5-21.5-3-31.5-5c-11-2.5-22.5-4.5-34-4C220,251.5,214,252.5,207.5,253z
		 M150.5,253.5L150.5,253.5c0-0.5-0.5-0.5-1-0.5c-13.5-2-27-2-40,0.5C101,255,93,257,84.5,259c-5.5,1-10.5,1.5-16,2
		c0.5,0,0.5,0,0.5,0c10.5,0,20.5-1,30.5-3.5c14-3.5,27.5-5.5,42-5C144.5,253,147.5,253.5,150.5,253.5z"/>
	<path fill="#FFFFFF" d="M165.5,157.5c-1,1.5-1.5,3-2,4c-8-3.5-16.5-5-25-6c-11-1-22,0.5-33,3c-10,2.5-20,3.5-30,4c-5,0-10,0-15.5,0
		c-1,0-2,0-3-0.5c0-1.5,0.5-3,0.5-4c2,0,4,0,6,0c15.5,0.5,31-1,46.5-4.5c17-4,34-3.5,50.5,2C162,156,164,156.5,165.5,157.5z"/>
	<path fill="#FFFFFF" d="M165.5,128c-1,1.5-1.5,2.5-2,4c-3.5-1-6.5-2.5-10-3c-16-4-32-3.5-47.5,0.5c-14.5,4-29.5,4.5-44.5,3.5
		c-1.5,0-2.5,0-4-0.5c0,0,0,0-0.5-0.5c0-1.5,0-2.5,0.5-4c3,0,6,0.5,8.5,0.5c14.5,0.5,28-1,42-4.5c17.5-4,35.5-4,53,2
		C162.5,126.5,164,127,165.5,128z"/>
	<path fill="#FFFFFF" d="M166,217c-0.5,1.5-1.5,2.5-2,3.5c-5.5-1.5-10.5-3-15.5-4c-14-3-28.5-2-42,2c-12.5,3-25,4-38,4
		c-3.5,0-7,0-10.5,0c0-2,0-3.5,0.5-5c3,0,6,0.5,8.5,0.5c14.5,0.5,28.5-1,42.5-4.5c17-4,34.5-4,51.5,1.5c1.5,0.5,3,1,4.5,1.5
		C165,216.5,165.5,216.5,166,217z"/>
	<path fill="#FFFFFF" d="M57.5,192.5c0-2,0.5-3.5,0.5-4.5c2.5,0,4.5,0,7,0c15,0.5,30-1,45-4.5c17.5-4,35-3.5,52,2.5
		c1.5,0.5,2.5,1,4,1.5c-0.5,1.5-1.5,2.5-2,3.5c-5-1.5-9.5-3-14.5-4c-14.5-3-28.5-2.5-42.5,1.5c-13,3.5-26.5,4.5-40,4
		C63.5,192,60.5,192.5,57.5,192.5z"/>
	<path fill="#FFFFFF" d="M307,127c0,21.5,0,42.5,0,64c-3.5,0-7,0.5-10.5,0.5c-13,0.5-26,0-39-3.5c-8-2-16-3.5-24.5-3.5
		c-13,0-25.5,1.5-37,7.5c0,0-0.5,0-1,0.5c0-1,0-1.5,0-2c0-20,0-40,0-60c0-2,0.5-2.5,2-3c7.5-3.5,15.5-5,23.5-6c13-1.5,26,0,38.5,3
		c11.5,3,23.5,3,35.5,3C299,127.5,303,127,307,127z M302.5,132c-1,0-1.5,0-2,0c-12.5,0.5-25,0.5-37.5-2c-8-1.5-16-3.5-24-4
		c-12.5-1.5-25,0-37,4.5c-1.5,0.5-2,1.5-2,3c0,17,0,33.5,0,50.5c0,0.5,0,1,0,2c0.5,0,1-0.5,1.5-0.5c13.5-4.5,27-6,41-4
		c6.5,1,13.5,2.5,20,4c9,2,18.5,2.5,28,2.5c4,0,8-0.5,12-0.5C302.5,168.5,302.5,150.5,302.5,132z"/>
	<path fill="#FFFFFF" d="M305,216.5c0,1,0.5,2.5,0.5,4C302,221,299,221,296,221c-11.5,0.5-23,0-34.5-2.5c-7-1.5-14-3-21-4
		c-14-1.5-27.5,0-40.5,5.5h-0.5c-0.5-1-1.5-2.5-2-4c5-2.5,10.5-4,16-5c15-3,30-2,45,1.5c12.5,3,25,3.5,38,3.5
		C298.5,216.5,302,216.5,305,216.5z"/>
</g>
</svg>
