<?xml version="1.0" encoding="utf-8"?>
<!-- Generator: Adobe Illustrator 18.1.1, SVG Export Plug-In . SVG Version: 6.00 Build 0)  -->
<svg version="1.1" id="Layer_1" xmlns="http://www.w3.org/2000/svg" xmlns:xlink="http://www.w3.org/1999/xlink" x="0px" y="0px"
	 viewBox="0 0 72 72" enable-background="new 0 0 72 72" xml:space="preserve">
<g>
	<circle fill="#231F20" cx="36" cy="36" r="35.6"/>
	<g enable-background="new    ">
		<path fill="#FFFFFF" d="M29.5,14.2c-3.4-5.9-5.2-6.4-6.9-6c-1,0.3-1.7,4.5-0.9,9.6l1.3,8.9c0.8,5.2,2.3,9.7,4.4,10.6
			c2.4,1.1,6.5-1,11-4l9-5.9c4.5-3,7-6.4,6.4-7.3c-0.9-1.3-3.4-1.8-9.3,0.1c-4.1,1.4-7.3,1.3-9,0.4C33.7,19.8,31.8,18,29.5,14.2z"/>
		<path fill="#FFFFFF" d="M36.2,8.7c1.2-1,2.7-0.8,4.7-0.3c2,0.5,3.3,2.6,2.7,4.3c-0.6,1.7-2.4,3.5-4,4.1C38,17.4,36.1,17,35.3,16
			c-0.8-1-1.1-2.9-0.8-4.1C34.8,10.7,35.6,9.2,36.2,8.7z"/>
		<path fill="#FFFFFF" d="M14.7,42.4c-5.3,4.3-5.5,6.2-4.9,7.7c0.4,0.9,4.7,1,9.7-0.6l8.6-2.6c5-1.6,9.2-3.8,9.8-6
			c0.7-2.6-2-6.3-5.7-10.3L25,22.7c-3.7-3.9-7.4-5.9-8.2-5.2c-1.2,1.1-1.2,3.7,1.6,9.1c2,3.9,2.4,7,1.8,8.8
			C19.6,37.4,18.2,39.6,14.7,42.4z"/>
		<path fill="#FFFFFF" d="M9,36.9c-1.2-1.1-1.3-2.5-1.1-4.6c0.2-2.1,2.1-3.7,3.8-3.4c1.8,0.3,3.8,1.8,4.7,3.3
			c0.8,1.5,0.8,3.4-0.1,4.4c-0.9,0.9-2.6,1.6-3.9,1.4C11.1,37.9,9.6,37.4,9,36.9z"/>
		<path fill="#FFFFFF" d="M41.8,58.7c3.4,5.9,5.2,6.4,6.9,6c1-0.3,1.7-4.5,0.9-9.6l-1.3-8.9c-0.8-5.2-2.3-9.7-4.4-10.6
			c-2.4-1.1-6.5,1-11,4l-9,5.9c-4.5,3-7,6.4-6.4,7.3c0.9,1.3,3.4,1.8,9.3-0.1c4.1-1.3,7.3-1.2,9-0.4C37.7,53.1,39.6,54.8,41.8,58.7z
			"/>
		<path fill="#FFFFFF" d="M35.4,63.5c-1.2,1-2.7,0.8-4.7,0.3c-2-0.5-3.3-2.6-2.7-4.3c0.6-1.7,2.4-3.5,4-4.1c1.6-0.6,3.5-0.2,4.3,0.8
			c0.8,1,1.1,2.9,0.8,4.1C36.8,61.6,36.1,63,35.4,63.5z"/>
		<path fill="#FFFFFF" d="M56.8,30c5.4-4.2,5.7-6,5-7.6c-0.4-0.9-4.7-1.1-9.7,0.3l-8.6,2.5c-5,1.5-9.3,3.6-9.9,5.8
			c-0.7,2.6,1.9,6.3,5.4,10.4l7.1,8.1c3.6,4,7.3,6.1,8.1,5.4c1.2-1,1.3-3.6-1.4-9.2c-1.9-3.9-2.2-7.1-1.6-8.9
			C51.9,34.8,53.3,32.7,56.8,30z"/>
		<path fill="#FFFFFF" d="M62.5,35.6c1.2,1.1,1.2,2.5,1,4.6c-0.2,2.1-2.2,3.6-3.9,3.3c-1.7-0.4-3.8-1.9-4.6-3.4
			c-0.8-1.5-0.7-3.5,0.2-4.4c0.9-0.9,2.7-1.5,4-1.4C60.3,34.5,61.9,35.1,62.5,35.6z"/>
		<path fill="#FFFFFF" d="M29.5,14.2c-3.4-5.9-5.2-6.4-6.9-6c-1,0.3-1.7,4.5-0.9,9.6l1.3,8.9c0.8,5.2,2.3,9.7,4.4,10.6
			c2.4,1.1,6.5-1,11-4l9-5.9c4.5-3,7-6.4,6.4-7.3c-0.9-1.3-3.4-1.8-9.3,0.1c-4.1,1.4-7.3,1.3-9,0.4C33.7,19.8,31.8,18,29.5,14.2z"/>
		<path fill="#FFFFFF" d="M36.2,8.7c1.2-1,2.7-0.8,4.7-0.3c2,0.5,3.3,2.6,2.7,4.3c-0.6,1.7-2.4,3.5-4,4.1C38,17.4,36.1,17,35.3,16
			c-0.8-1-1.1-2.9-0.8-4.1C34.8,10.7,35.6,9.2,36.2,8.7z"/>
		<path fill="#FFFFFF" d="M14.7,42.4c-5.3,4.3-5.5,6.2-4.9,7.7c0.4,0.9,4.7,1,9.7-0.6l8.6-2.6c5-1.6,9.2-3.8,9.8-6
			c0.7-2.6-2-6.3-5.7-10.3L25,22.7c-3.7-3.9-7.4-5.9-8.2-5.2c-1.2,1.1-1.2,3.7,1.6,9.1c2,3.9,2.4,7,1.8,8.8
			C19.6,37.4,18.2,39.6,14.7,42.4z"/>
		<path fill="#FFFFFF" d="M9,36.9c-1.2-1.1-1.3-2.5-1.1-4.6c0.2-2.1,2.1-3.7,3.8-3.4c1.8,0.3,3.8,1.8,4.7,3.3
			c0.8,1.5,0.8,3.4-0.1,4.4c-0.9,0.9-2.6,1.6-3.9,1.4C11.1,37.9,9.6,37.4,9,36.9z"/>
		<path fill="#FFFFFF" d="M41.8,58.7c3.4,5.9,5.2,6.4,6.9,6c1-0.3,1.7-4.5,0.9-9.6l-1.3-8.9c-0.8-5.2-2.3-9.7-4.4-10.6
			c-2.4-1.1-6.5,1-11,4l-9,5.9c-4.5,3-7,6.4-6.4,7.3c0.9,1.3,3.4,1.8,9.3-0.1c4.1-1.3,7.3-1.2,9-0.4C37.7,53.1,39.6,54.8,41.8,58.7z
			"/>
		<path fill="#FFFFFF" d="M35.4,63.5c-1.2,1-2.7,0.8-4.7,0.3c-2-0.5-3.3-2.6-2.7-4.3c0.6-1.7,2.4-3.5,4-4.1c1.6-0.6,3.5-0.2,4.3,0.8
			c0.8,1,1.1,2.9,0.8,4.1C36.8,61.6,36.1,63,35.4,63.5z"/>
		<path fill="#FFFFFF" d="M56.8,30c5.4-4.2,5.7-6,5-7.6c-0.4-0.9-4.7-1.1-9.7,0.3l-8.6,2.5c-5,1.5-9.3,3.6-9.9,5.8
			c-0.7,2.6,1.9,6.3,5.4,10.4l7.1,8.1c3.6,4,7.3,6.1,8.1,5.4c1.2-1,1.3-3.6-1.4-9.2c-1.9-3.9-2.2-7.1-1.6-8.9
			C51.9,34.8,53.3,32.7,56.8,30z"/>
		<path fill="#FFFFFF" d="M62.5,35.6c1.2,1.1,1.2,2.5,1,4.6c-0.2,2.1-2.2,3.6-3.9,3.3c-1.7-0.4-3.8-1.9-4.6-3.4
			c-0.8-1.5-0.7-3.5,0.2-4.4c0.9-0.9,2.7-1.5,4-1.4C60.3,34.5,61.9,35.1,62.5,35.6z"/>
		<path fill="#FFFFFF" d="M29.5,14.2c-3.4-5.9-5.2-6.4-6.9-6c-1,0.3-1.7,4.5-0.9,9.6l1.3,8.9c0.8,5.2,2.3,9.7,4.4,10.6
			c2.4,1.1,6.5-1,11-4l9-5.9c4.5-3,7-6.4,6.4-7.3c-0.9-1.3-3.4-1.8-9.3,0.1c-4.1,1.4-7.3,1.3-9,0.4C33.7,19.8,31.8,18,29.5,14.2z"/>
		<path fill="#FFFFFF" d="M36.2,8.7c1.2-1,2.7-0.8,4.7-0.3c2,0.5,3.3,2.6,2.7,4.3c-0.6,1.7-2.4,3.5-4,4.1C38,17.4,36.1,17,35.3,16
			c-0.8-1-1.1-2.9-0.8-4.1C34.8,10.7,35.6,9.2,36.2,8.7z"/>
		<path fill="#FFFFFF" d="M14.7,42.4c-5.3,4.3-5.5,6.2-4.9,7.7c0.4,0.9,4.7,1,9.7-0.6l8.6-2.6c5-1.6,9.2-3.8,9.8-6
			c0.7-2.6-2-6.3-5.7-10.3L25,22.7c-3.7-3.9-7.4-5.9-8.2-5.2c-1.2,1.1-1.2,3.7,1.6,9.1c2,3.9,2.4,7,1.8,8.8
			C19.6,37.4,18.2,39.6,14.7,42.4z"/>
		<path fill="#FFFFFF" d="M9,36.9c-1.2-1.1-1.3-2.5-1.1-4.6c0.2-2.1,2.1-3.7,3.8-3.4c1.8,0.3,3.8,1.8,4.7,3.3
			c0.8,1.5,0.8,3.4-0.1,4.4c-0.9,0.9-2.6,1.6-3.9,1.4C11.1,37.9,9.6,37.4,9,36.9z"/>
		<path fill="#FFFFFF" d="M41.8,58.7c3.4,5.9,5.2,6.4,6.9,6c1-0.3,1.7-4.5,0.9-9.6l-1.3-8.9c-0.8-5.2-2.3-9.7-4.4-10.6
			c-2.4-1.1-6.5,1-11,4l-9,5.9c-4.5,3-7,6.4-6.4,7.3c0.9,1.3,3.4,1.8,9.3-0.1c4.1-1.3,7.3-1.2,9-0.4C37.7,53.1,39.6,54.8,41.8,58.7z
			"/>
		<path fill="#FFFFFF" d="M35.4,63.5c-1.2,1-2.7,0.8-4.7,0.3c-2-0.5-3.3-2.6-2.7-4.3c0.6-1.7,2.4-3.5,4-4.1c1.6-0.6,3.5-0.2,4.3,0.8
			c0.8,1,1.1,2.9,0.8,4.1C36.8,61.6,36.1,63,35.4,63.5z"/>
		<path fill="#FFFFFF" d="M56.8,30c5.4-4.2,5.7-6,5-7.6c-0.4-0.9-4.7-1.1-9.7,0.3l-8.6,2.5c-5,1.5-9.3,3.6-9.9,5.8
			c-0.7,2.6,1.9,6.3,5.4,10.4l7.1,8.1c3.6,4,7.3,6.1,8.1,5.4c1.2-1,1.3-3.6-1.4-9.2c-1.9-3.9-2.2-7.1-1.6-8.9
			C51.9,34.8,53.3,32.7,56.8,30z"/>
		<path fill="#FFFFFF" d="M62.5,35.6c1.2,1.1,1.2,2.5,1,4.6c-0.2,2.1-2.2,3.6-3.9,3.3c-1.7-0.4-3.8-1.9-4.6-3.4
			c-0.8-1.5-0.7-3.5,0.2-4.4c0.9-0.9,2.7-1.5,4-1.4C60.3,34.5,61.9,35.1,62.5,35.6z"/>
		<path fill="#DAE03D" d="M29.5,14.2c-3.4-5.9-5.2-6.4-6.9-6c-1,0.3-1.7,4.5-0.9,9.6l1.3,8.9c0.8,5.2,2.3,9.7,4.4,10.6
			c2.4,1.1,6.5-1,11-4l9-5.9c4.5-3,7-6.4,6.4-7.3c-0.9-1.3-3.4-1.8-9.3,0.1c-4.1,1.4-7.3,1.3-9,0.4C33.7,19.8,31.8,18,29.5,14.2z"/>
		<path fill="#DAE03D" d="M36.2,8.7c1.2-1,2.7-0.8,4.7-0.3c2,0.5,3.3,2.6,2.7,4.3c-0.6,1.7-2.4,3.5-4,4.1C38,17.4,36.1,17,35.3,16
			c-0.8-1-1.1-2.9-0.8-4.1C34.8,10.7,35.6,9.2,36.2,8.7z"/>
		<path fill="#6DCEF4" d="M14.7,42.4c-5.3,4.3-5.5,6.2-4.9,7.7c0.4,0.9,4.7,1,9.7-0.6l8.6-2.6c5-1.6,9.2-3.8,9.8-6
			c0.7-2.6-2-6.3-5.7-10.3L25,22.7c-3.7-3.9-7.4-5.9-8.2-5.2c-1.2,1.1-1.2,3.7,1.6,9.1c2,3.9,2.4,7,1.8,8.8
			C19.6,37.4,18.2,39.6,14.7,42.4z"/>
		<path fill="#6DCEF4" d="M9,36.9c-1.2-1.1-1.3-2.5-1.1-4.6c0.2-2.1,2.1-3.7,3.8-3.4c1.8,0.3,3.8,1.8,4.7,3.3
			c0.8,1.5,0.8,3.4-0.1,4.4c-0.9,0.9-2.6,1.6-3.9,1.4C11.1,37.9,9.6,37.4,9,36.9z"/>
		<path fill="#E35B26" d="M41.8,58.7c3.4,5.9,5.2,6.4,6.9,6c1-0.3,1.7-4.5,0.9-9.6l-1.3-8.9c-0.8-5.2-2.3-9.7-4.4-10.6
			c-2.4-1.1-6.5,1-11,4l-9,5.9c-4.5,3-7,6.4-6.4,7.3c0.9,1.3,3.4,1.8,9.3-0.1c4.1-1.3,7.3-1.2,9-0.4C37.7,53.1,39.6,54.8,41.8,58.7z
			"/>
		<path fill="#E35B26" d="M35.4,63.5c-1.2,1-2.7,0.8-4.7,0.3c-2-0.5-3.3-2.6-2.7-4.3c0.6-1.7,2.4-3.5,4-4.1c1.6-0.6,3.5-0.2,4.3,0.8
			c0.8,1,1.1,2.9,0.8,4.1C36.8,61.6,36.1,63,35.4,63.5z"/>
		<path fill="#F99C21" d="M56.8,30c5.4-4.2,5.7-6,5-7.6c-0.4-0.9-4.7-1.1-9.7,0.3l-8.6,2.5c-5,1.5-9.3,3.6-9.9,5.8
			c-0.7,2.6,1.9,6.3,5.4,10.4l7.1,8.1c3.6,4,7.3,6.1,8.1,5.4c1.2-1,1.3-3.6-1.4-9.2c-1.9-3.9-2.2-7.1-1.6-8.9
			C51.9,34.8,53.3,32.7,56.8,30z"/>
		<path fill="#F99C21" d="M62.5,35.6c1.2,1.1,1.2,2.5,1,4.6c-0.2,2.1-2.2,3.6-3.9,3.3c-1.7-0.4-3.8-1.9-4.6-3.4
			c-0.8-1.5-0.7-3.5,0.2-4.4c0.9-0.9,2.7-1.5,4-1.4C60.3,34.5,61.9,35.1,62.5,35.6z"/>
	</g>
</g>
</svg>
