<?xml version="1.0" encoding="utf-8"?>
<!-- Generator: Adobe Illustrator 18.1.1, SVG Export Plug-In . SVG Version: 6.00 Build 0)  -->
<svg version="1.1" id="Layer_1" xmlns="http://www.w3.org/2000/svg" xmlns:xlink="http://www.w3.org/1999/xlink" x="0px" y="0px"
	 viewBox="0 0 72 72" enable-background="new 0 0 72 72" xml:space="preserve">
<g>
	<circle fill="#EFB61D" cx="36" cy="36" r="35.6"/>
	<g>
		<path fill="#FFFFFF" d="M51.6,30.6v-7c0-8.7-7.1-15.7-15.7-15.7S20.1,15,20.1,23.6v7h-3.1v29.2h37.9V30.6H51.6z M39.5,45.7v6.2
			c0,1.6-1.3,2.9-2.9,2.9c-1.6,0-2.9-1.3-2.9-2.9v-6.2c-1-0.9-1.7-2.1-1.7-3.5c0-2.5,2.1-4.6,4.6-4.6s4.6,2.1,4.6,4.6
			C41.2,43.6,40.6,44.9,39.5,45.7L39.5,45.7z M45.8,30.6h-20v-7c0-5.5,4.5-10,10-10s10,4.5,10,10C45.8,23.6,45.8,30.6,45.8,30.6z"/>
	</g>
</g>
</svg>
