<?xml version="1.0" encoding="utf-8"?>
<!-- Generator: Adobe Illustrator 18.1.1, SVG Export Plug-In . SVG Version: 6.00 Build 0)  -->
<svg version="1.1" id="Layer_1" xmlns="http://www.w3.org/2000/svg" xmlns:xlink="http://www.w3.org/1999/xlink" x="0px" y="0px"
	 viewBox="0 0 72 72" enable-background="new 0 0 72 72" xml:space="preserve">
<g>
	<circle fill="#13743B" cx="36" cy="36" r="35.6"/>
	<g>
		<path fill="#FFFFFF" d="M64.9,52c-1.6,0.1-3.2,0.3-4.8,0.4c-2.3,0.2-4.5,0.1-6.7-0.3c-1.4-0.3-2.8-0.6-4.2-0.9
			c-4.2-0.6-8.3-0.4-12.3,1.3c-0.2,0.1-0.5,0.1-0.7,0c-2.9-1.2-6-1.6-9.1-1.5c-2.2,0.1-4.3,0.4-6.4,1c-2.3,0.6-4.7,0.8-7.1,0.7
			c-1.7-0.1-3.4-0.2-5.2-0.3c-0.1,0-0.2,0-0.3,0c0-0.2,0-0.4,0-0.7c0-5.1,0-10.3,0-15.4c0-5,0-9.9-0.1-14.9c0-0.4,0.3-0.7,0.7-0.7
			c4.3,0.3,8.6,0,12.8-1.1c4.5-1.1,9-1.1,13.4,0.3c0.5,0.2,1,0.5,1.5,0.5s0.9-0.3,1.4-0.5c3.2-1.1,6.4-1.3,9.8-1
			c2.1,0.2,4.1,0.7,6.1,1.1c2.5,0.5,4.9,0.6,7.4,0.6c1,0,2-0.1,3-0.1c0.3,0,0.4,0.3,0.6,0.5c0,0.1,0,0.2,0,0.3c0,6.1,0,12.2,0,18.3
			c0,3.9,0,7.8,0,11.8C64.9,51.4,64.9,51.6,64.9,52z M36.2,51.5c0-4.6,0-9.3,0-14c0-4.3,0-8.5,0-12.8c0-1.1,0-2.3,0-3.4
			c0-0.3-0.1-0.4-0.3-0.5c-0.6-0.2-1.1-0.4-1.7-0.6c-4.3-1.2-8.6-1.1-12.8,0c-3.4,0.9-6.9,1.1-10.4,1.1c-0.6,0-1.2,0-1.9,0
			C8.9,31.4,8.9,41.5,8.8,51.7c0.2,0,0.3,0,0.5,0c1.5-0.1,2.9-0.1,4.4-0.2c2.3-0.2,4.5-0.5,6.7-1.1c4.2-1.1,8.4-1.3,12.5-0.1
			C34,50.7,35.1,51.1,36.2,51.5z M64.3,51.3c-0.2-10.1-0.3-20.2-0.5-30.2c-1.8,0-3.5,0-5.1,0c-2.3-0.1-4.5-0.3-6.8-0.9
			c-2.6-0.6-5.1-0.9-7.8-0.8c-2.4,0.1-4.7,0.5-7,1.4c-0.3,0.1-0.4,0.3-0.4,0.7c0,5.6,0.1,11.2,0.1,16.8c0,4.2,0,8.5,0,12.7
			c0,0.2,0,0.4,0,0.7c0.3-0.1,0.5-0.3,0.8-0.4c4.4-1.9,8.9-2.2,13.5-1.3c3.3,0.7,6.7,1.3,10.1,1.3C62.2,51.3,63.2,51.3,64.3,51.3z
			 M42.1,50.4c0,0,0,0.1,0,0.1c0.1,0,0.3,0,0.4,0c2.6-0.3,5.2-0.1,7.8,0.3c1.7,0.3,3.4,0.7,5.2,0.9c0.6,0.1,1.1,0.1,1.7,0.1
			c0.5,0,1.1,0,1.6,0c-2.1-0.3-4.3-0.6-6.3-1c-2.2-0.5-4.5-0.9-6.8-0.8C44.6,50.1,43.4,50.3,42.1,50.4z M30.7,50.5
			C30.7,50.5,30.7,50.5,30.7,50.5c0-0.1-0.1-0.1-0.2-0.1c-2.7-0.4-5.4-0.4-8,0.1c-1.7,0.3-3.3,0.7-5,1.1c-1.1,0.2-2.1,0.3-3.2,0.4
			c0.1,0,0.1,0,0.1,0c2.1,0,4.1-0.2,6.1-0.7c2.8-0.7,5.5-1.1,8.4-1C29.5,50.4,30.1,50.5,30.7,50.5z"/>
		<path fill="#FFFFFF" d="M33.7,31.3c-0.2,0.3-0.3,0.6-0.4,0.8c-1.6-0.7-3.3-1-5-1.2c-2.2-0.2-4.4,0.1-6.6,0.6c-2,0.5-4,0.7-6,0.8
			c-1,0-2,0-3.1,0c-0.2,0-0.4,0-0.6-0.1c0-0.3,0.1-0.6,0.1-0.8c0.4,0,0.8,0,1.2,0c3.1,0.1,6.2-0.2,9.3-0.9c3.4-0.8,6.8-0.7,10.1,0.4
			C33,31,33.4,31.1,33.7,31.3z"/>
		<path fill="#FFFFFF" d="M33.7,25.4c-0.2,0.3-0.3,0.5-0.4,0.8c-0.7-0.2-1.3-0.5-2-0.6c-3.2-0.8-6.4-0.7-9.5,0.1
			c-2.9,0.8-5.9,0.9-8.9,0.7c-0.3,0-0.5,0-0.8-0.1c0,0,0,0-0.1-0.1c0-0.3,0-0.5,0.1-0.8c0.6,0,1.2,0.1,1.7,0.1
			c2.9,0.1,5.6-0.2,8.4-0.9c3.5-0.8,7.1-0.8,10.6,0.4C33.1,25.1,33.4,25.2,33.7,25.4z"/>
		<path fill="#FFFFFF" d="M33.8,43.2c-0.1,0.3-0.3,0.5-0.4,0.7c-1.1-0.3-2.1-0.6-3.1-0.8c-2.8-0.6-5.7-0.4-8.4,0.4
			c-2.5,0.6-5,0.8-7.6,0.8c-0.7,0-1.4,0-2.1,0c0-0.4,0-0.7,0.1-1c0.6,0,1.2,0.1,1.7,0.1c2.9,0.1,5.7-0.2,8.5-0.9
			c3.4-0.8,6.9-0.8,10.3,0.3c0.3,0.1,0.6,0.2,0.9,0.3C33.6,43.1,33.7,43.1,33.8,43.2z"/>
		<path fill="#FFFFFF" d="M12.1,38.3c0-0.4,0.1-0.7,0.1-0.9c0.5,0,0.9,0,1.4,0c3,0.1,6-0.2,9-0.9c3.5-0.8,7-0.7,10.4,0.5
			c0.3,0.1,0.5,0.2,0.8,0.3c-0.1,0.3-0.3,0.5-0.4,0.7c-1-0.3-1.9-0.6-2.9-0.8c-2.9-0.6-5.7-0.5-8.5,0.3c-2.6,0.7-5.3,0.9-8,0.8
			C13.3,38.2,12.7,38.3,12.1,38.3z"/>
		<path fill="#FFFFFF" d="M62,25.2c0,4.3,0,8.5,0,12.8c-0.7,0-1.4,0.1-2.1,0.1c-2.6,0.1-5.2,0-7.8-0.7c-1.6-0.4-3.2-0.7-4.9-0.7
			c-2.6,0-5.1,0.3-7.4,1.5c0,0-0.1,0-0.2,0.1c0-0.2,0-0.3,0-0.4c0-4,0-8,0-12c0-0.4,0.1-0.5,0.4-0.6c1.5-0.7,3.1-1,4.7-1.2
			c2.6-0.3,5.2,0,7.7,0.6c2.3,0.6,4.7,0.6,7.1,0.6C60.4,25.3,61.2,25.2,62,25.2z M61.1,26.2c-0.2,0-0.3,0-0.4,0
			c-2.5,0.1-5,0.1-7.5-0.4c-1.6-0.3-3.2-0.7-4.8-0.8c-2.5-0.3-5,0-7.4,0.9c-0.3,0.1-0.4,0.3-0.4,0.6c0,3.4,0,6.7,0,10.1
			c0,0.1,0,0.2,0,0.4c0.1,0,0.2-0.1,0.3-0.1c2.7-0.9,5.4-1.2,8.2-0.8c1.3,0.2,2.7,0.5,4,0.8c1.8,0.4,3.7,0.5,5.6,0.5
			c0.8,0,1.6-0.1,2.4-0.1C61.1,33.5,61.1,29.9,61.1,26.2z"/>
		<path fill="#FFFFFF" d="M61.6,43.1c0,0.2,0.1,0.5,0.1,0.8C61,44,60.4,44,59.8,44c-2.3,0.1-4.6,0-6.9-0.5c-1.4-0.3-2.8-0.6-4.2-0.8
			c-2.8-0.3-5.5,0-8.1,1.1c0,0-0.1,0-0.1,0c-0.1-0.2-0.3-0.5-0.4-0.8c1-0.5,2.1-0.8,3.2-1c3-0.6,6-0.4,9,0.3c2.5,0.6,5,0.7,7.6,0.7
			C60.3,43.1,61,43.1,61.6,43.1z"/>
	</g>
</g>
</svg>
