<?xml version="1.0" encoding="utf-8"?>
<!-- Generator: Adobe Illustrator 18.1.1, SVG Export Plug-In . SVG Version: 6.00 Build 0)  -->
<svg version="1.1" id="Layer_1" xmlns="http://www.w3.org/2000/svg" xmlns:xlink="http://www.w3.org/1999/xlink" x="0px" y="0px"
	 viewBox="0 0 20 20" enable-background="new 0 0 20 20" xml:space="preserve">
<g>
	<circle fill="#922A8E" cx="10" cy="10" r="10"/>
</g>
<g>
	<path fill="#FFFFFF" d="M5.2,12.3H3.8l-1.2-1.7H2v1.7H0.8V7.7h2c0.3,0,0.5,0,0.7,0C3.7,7.8,3.8,7.9,4,8c0.2,0.1,0.3,0.2,0.4,0.4
		C4.5,8.5,4.6,8.7,4.6,9c0,0.3-0.1,0.6-0.2,0.8C4.2,10,4,10.2,3.7,10.3L5.2,12.3z M3.4,9.1c0-0.1,0-0.2-0.1-0.3
		c0-0.1-0.1-0.1-0.2-0.2C3,8.6,2.9,8.6,2.8,8.6c-0.1,0-0.2,0-0.4,0H2v1.2h0.4c0.2,0,0.3,0,0.5,0c0.1,0,0.2-0.1,0.3-0.1
		c0.1-0.1,0.1-0.1,0.2-0.2C3.3,9.3,3.4,9.2,3.4,9.1z"/>
	<path fill="#FFFFFF" d="M10.3,12.3H9l-0.3-0.9H7l-0.3,0.9H5.5l1.7-4.6h1.4L10.3,12.3z M8.4,10.5L7.9,8.9l-0.6,1.6H8.4z"/>
	<path fill="#FFFFFF" d="M12.8,12.4c-0.3,0-0.7-0.1-0.9-0.2c-0.3-0.1-0.5-0.3-0.7-0.4c-0.2-0.2-0.4-0.4-0.5-0.7
		c-0.1-0.3-0.2-0.6-0.2-1c0-0.4,0.1-0.7,0.2-1c0.1-0.3,0.3-0.5,0.5-0.8c0.2-0.2,0.4-0.4,0.7-0.5c0.3-0.1,0.6-0.2,1-0.2
		c0.2,0,0.4,0,0.5,0c0.2,0,0.3,0,0.4,0.1c0.1,0,0.3,0.1,0.4,0.1c0.1,0,0.2,0.1,0.3,0.1v1.1h-0.1c-0.1,0-0.1-0.1-0.2-0.2
		c-0.1-0.1-0.2-0.1-0.3-0.2c-0.1-0.1-0.2-0.1-0.4-0.2c-0.1,0-0.3-0.1-0.4-0.1c-0.2,0-0.3,0-0.5,0.1c-0.1,0.1-0.3,0.1-0.4,0.3
		C12,9,11.9,9.1,11.8,9.3c-0.1,0.2-0.1,0.4-0.1,0.7c0,0.3,0,0.5,0.1,0.7c0.1,0.2,0.2,0.3,0.3,0.5c0.1,0.1,0.3,0.2,0.4,0.2
		c0.2,0,0.3,0.1,0.5,0.1c0.1,0,0.3,0,0.4-0.1c0.1,0,0.3-0.1,0.4-0.2c0.1-0.1,0.2-0.1,0.3-0.2c0.1-0.1,0.2-0.1,0.2-0.2h0.1V12
		c-0.1,0.1-0.2,0.1-0.3,0.1c-0.1,0-0.2,0.1-0.3,0.1c-0.1,0-0.3,0.1-0.4,0.1C13.2,12.4,13.1,12.4,12.8,12.4z"/>
	<path fill="#FFFFFF" d="M19.2,12c-0.2,0.1-0.5,0.2-0.8,0.2c-0.3,0.1-0.7,0.1-1,0.1c-0.8,0-1.4-0.2-1.8-0.6c-0.4-0.4-0.7-1-0.7-1.8
		c0-0.7,0.2-1.3,0.7-1.7c0.4-0.4,1.1-0.7,1.9-0.7c0.3,0,0.6,0,0.9,0.1c0.3,0.1,0.6,0.2,0.9,0.3v1.1h-0.1c-0.1,0-0.1-0.1-0.3-0.2
		c-0.1-0.1-0.2-0.1-0.3-0.2c-0.1-0.1-0.3-0.1-0.4-0.2c-0.2,0-0.3-0.1-0.5-0.1c-0.2,0-0.4,0-0.6,0.1c-0.2,0.1-0.3,0.2-0.5,0.3
		c-0.1,0.1-0.2,0.3-0.3,0.5c-0.1,0.2-0.1,0.4-0.1,0.7c0,0.5,0.1,0.9,0.4,1.2c0.3,0.3,0.7,0.4,1.2,0.4c0,0,0.1,0,0.1,0
		c0.1,0,0.1,0,0.1,0v-0.9h-0.9V9.8h2.1V12z"/>
</g>
</svg>
