<?xml version="1.0" encoding="utf-8"?>
<!-- Generator: Adobe Illustrator 18.1.1, SVG Export Plug-In . SVG Version: 6.00 Build 0)  -->
<svg version="1.1" id="Layer_1" xmlns="http://www.w3.org/2000/svg" xmlns:xlink="http://www.w3.org/1999/xlink" x="0px" y="0px"
	 viewBox="0 0 72 72" enable-background="new 0 0 72 72" xml:space="preserve">
<g>
	<circle fill="#2DB050" cx="36" cy="36" r="36"/>
	<path fill="#FFFFFF" d="M54.7,33.8c0,0-0.1-0.1-0.2-0.1c-0.3-0.1-0.6-0.2-0.5-1.3c0.1-1.2,0.7-1.5,1.1-1.8c0,0,0,0,0,0
		c3-1.8,5.1-5.1,5.1-8.8c0-5.6-4.6-10.2-10.3-10.2s-10.3,4.6-10.3,10.2c0,3.9,2.2,7.3,5.4,9c0,0,0,0,0,0c0.3,0.2,0.3,0.7,0.3,1.3
		c0,0.9,0.1,1.2-0.3,1.3c0,0,0,0,0,0c-7,1.7-13.2,7.6-13.2,14.1l0,6.6H66V47C66,41,60.9,35.8,54.7,33.8z"/>
	<path fill="#2DB050" d="M41,32.8c-0.1,0-0.1-0.1-0.2-0.1c-0.4-0.2-0.7-0.3-0.6-1.7c0.1-1.5,0.9-1.9,1.3-2.2c0,0,0,0,0,0
		c3.7-2.2,6.2-6.3,6.2-11c0-7.1-5.6-12.8-12.4-12.8s-12.4,5.7-12.4,12.8c0,4.9,2.7,9.1,6.6,11.3c0,0,0,0,0,0
		c0.3,0.2,0.4,0.8,0.4,1.7c-0.1,1.2,0.1,1.5-0.3,1.6c0,0,0,0-0.1,0c-8.5,2.1-16,9.5-16,17.6l0,8.3h41.4v-8.8
		C54.7,41.8,48.6,35.3,41,32.8z"/>
	<path fill="#FFFFFF" d="M37.7,32.8c-0.1,0-0.1-0.1-0.2-0.1c-0.4-0.2-0.7-0.3-0.6-1.7c0.1-1.5,0.9-1.9,1.3-2.2c0,0,0,0,0,0
		c3.7-2.2,6.2-6.3,6.2-11c0-7.1-5.6-12.8-12.4-12.8s-12.4,5.7-12.4,12.8c0,4.9,2.7,9.1,6.6,11.3c0,0,0,0,0,0
		c0.3,0.2,0.4,0.8,0.4,1.7c-0.1,1.2,0.1,1.5-0.3,1.6c0,0,0,0-0.1,0c-8.5,2.1-16,9.5-16,17.6l0,8.3h41.4v-8.8
		C51.4,41.8,45.2,35.3,37.7,32.8z"/>
	<ellipse fill="#FFFFFF" cx="44.3" cy="20.4" rx="1" ry="1.2"/>
	<g>
		<polygon fill="#2DB050" points="55.8,37.2 55.9,51.7 64.2,44.4 		"/>
		<path fill="#2DB050" d="M44.5,47.6C41.8,50.7,41.5,58,41.5,58h0.8c0,0,0.3-2.8,1-4.4c1.2-2.8,5-5.8,7-6.5c2-0.7,5.6-0.2,5.6-0.2
			v-5.3c0,0-2,0.1-4.1,0.6S47.4,44.3,44.5,47.6z"/>
	</g>
</g>
</svg>
