<?xml version="1.0" encoding="utf-8"?>
<!-- Generator: Adobe Illustrator 18.1.1, SVG Export Plug-In . SVG Version: 6.00 Build 0)  -->
<svg version="1.1" id="Layer_1" xmlns="http://www.w3.org/2000/svg" xmlns:xlink="http://www.w3.org/1999/xlink" x="0px" y="0px"
	 viewBox="270 360 72 72" enable-background="new 270 360 72 72" xml:space="preserve">
<path fill="#33BA17" d="M270,396c0-19.9,16.2-36,36.1-36c19.8,0,35.9,16.2,35.9,36s-16.2,36-35.9,36C286.1,432.2,270,416,270,396"/>
<polygon fill="#FFFFFF" points="315.8,377.3 318.7,371.7 312.4,371.7 310.6,366.3 301.5,366.3 299.5,371.7 293.3,371.7 296.1,377.3 
	"/>
<path fill="#FFFFFF" d="M321.4,371.7l-4,8h-22.8l-4-8c-2.1,0.2-3.8,2-3.8,4.1v40.9c0,2.4,1.9,4.3,4.3,4.3h29.9
	c2.4,0,4.3-1.9,4.3-4.3V376C325.1,373.8,323.4,371.9,321.4,371.7z M290.6,386.4h29.1v2h-29.1V386.4z M290.6,392.4h29.1v2h-29.1
	V392.4z M290.6,398.4h29.1v2h-29.1V398.4z M290.6,406.4v-2h29.1v2H290.6z M321.7,410.1l-2.5,3.3l-1.7,2.7l-0.4,0.7
	c-0.1,0.1-0.1,0.3-0.3,0.3c-0.2,0.1-0.5,0.1-0.7,0.1c-0.4,0-0.5,0-0.6-0.1c-0.1-0.1-0.2-0.3-0.3-0.4c-0.3-0.6-0.7-1.8-0.7-2.4
	c0-0.2,0.1-0.3,0.3-0.4c0.3-0.2,0.6-0.4,0.9-0.4c0.2,0,0.3,0.2,0.3,0.4l0.2,0.6c0,0.1,0.1,0.4,0.3,0.4c0.1,0,0.3-0.3,0.3-0.4
	l2.8-4.1l1-1.2c0.4-0.5,1.4-0.7,2.1-0.7l0.1,0.2L321.7,410.1z"/>
</svg>
