<?xml version="1.0" encoding="utf-8"?>
<!-- Generator: Adobe Illustrator 18.1.1, SVG Export Plug-In . SVG Version: 6.00 Build 0)  -->
<svg version="1.1" id="Layer_1" xmlns="http://www.w3.org/2000/svg" xmlns:xlink="http://www.w3.org/1999/xlink" x="0px" y="0px"
	 viewBox="270 360 72 72" enable-background="new 270 360 72 72" xml:space="preserve">
<g>
	<circle cx="306" cy="396" r="36"/>
</g>
<g id="vVHb98.tif">
	<g>
		<path fill="#FFFFFF" d="M326,421.9c-1.1-1.1-2.2-2.3-3.3-3.4c-3.1-3.1-6.2-6.2-9.4-9.4c-1-1-1-1.9-0.3-2.9c-1.5-1.5-3-3-4.5-4.5
			c-0.2,0.1-0.5,0.4-0.9,0.6c-10.5,7.2-24.7,2.3-28.6-9.9c-0.3-1.1-0.5-2.2-0.7-3.4c0-0.2-0.1-0.3-0.1-0.5c0-1.1,0-2.2,0-3.3
			c0-0.3,0.1-0.6,0.1-0.8c1.1-7.9,6.8-14.1,14.7-15.8c0.7-0.2,1.5-0.3,2.2-0.4c1.1,0,2.3,0,3.4,0c0.8,0.1,1.5,0.2,2.3,0.4
			c7.8,1.7,13.5,7.9,14.6,15.8c0.7,5-0.6,9.6-3.6,13.7c-0.2,0.2-0.3,0.4-0.4,0.6c1.5,1.5,3,3,4.5,4.5c0.2-0.1,0.4-0.3,0.7-0.4
			c0.9-0.3,1.6,0,2.3,0.6c2,2,4,4,6,6c2.2,2.2,4.4,4.4,6.6,6.6c0.1,0.1,0.2,0.2,0.4,0.3c0,0.2,0,0.4,0,0.7c-0.5,0.4-0.9,0.9-1.4,1.3
			c-1.2,1.2-2.3,2.3-3.4,3.5C326.8,421.9,326.4,421.9,326,421.9z M297,372.2c-8.2,0-14.8,6.5-14.8,14.7c0,8.2,6.6,14.9,14.8,14.9
			c8.1,0,14.8-6.6,14.8-14.8C311.8,378.9,305.2,372.2,297,372.2z"/>
	</g>
</g>
</svg>
