<?xml version="1.0" encoding="utf-8"?>
<!-- Generator: Adobe Illustrator 18.1.1, SVG Export Plug-In . SVG Version: 6.00 Build 0)  -->
<svg version="1.1" id="Layer_1" xmlns="http://www.w3.org/2000/svg" xmlns:xlink="http://www.w3.org/1999/xlink" x="0px" y="0px"
	 viewBox="0 0 72 72" enable-background="new 0 0 72 72" xml:space="preserve">
<g>
	<circle fill="#009444" cx="36" cy="36" r="36"/>
</g>
<path fill="#FFFFFF" d="M13.1,27.6c0-0.4-0.3-0.8-0.7-1c-0.3-0.3-0.8-0.4-1.3-0.4c-0.8,0-1.7,0.2-1.7,1c0,0.4,0.3,0.6,0.7,0.7
	c0.9,0.4,3.1,0.5,4.9,1c1.9,0.5,3.5,1.6,3.5,3.7c0,3.7-3.9,4.7-7.5,4.7c-3.5,0-7.3-1.3-7.4-4.7H9c0,0.5,0.3,0.9,0.7,1.2
	c0.3,0.2,0.8,0.4,1.5,0.4s1.9-0.3,1.9-1c0-0.8-0.5-1-3.1-1.4c-4.3-0.7-6-1.9-6-4.2c0-3.4,4-4.3,7-4.3c3.2,0,7,0.8,7.2,4.2L13.1,27.6
	"/>
<rect x="19.9" y="14.2" fill="#FFFFFF" width="5.6" height="22.9"/>
<path fill="#FFFFFF" d="M35,27c-2.1,0-2.4,1.9-2.4,3.3s0.3,3.3,2.4,3.3c2.1,0,2.4-1.9,2.4-3.3S37.2,27,35,27 M35,37.4
	c-5.5,0-8-3.3-8-7.1c0-3.7,2.5-7,8-7s8,3.3,8,7C43.1,34.1,40.6,37.4,35,37.4z"/>
<polyline fill="#FFFFFF" points="63.1,37.1 57.3,37.1 55.2,28.8 55.2,28.8 53,37.1 47.2,37.1 42.6,23.7 48.4,23.7 50.6,31.9 
	50.7,31.9 52.6,23.7 57.8,23.7 59.8,31.9 59.9,31.9 61.9,23.7 67.8,23.7 63.1,37.1 "/>
<path fill="#FFFFFF" d="M22.4,49.1c2,0,2.5-1.7,2.5-3.3s-0.5-3.3-2.5-3.3s-2.5,1.7-2.5,3.3C19.9,47.3,20.4,49.1,22.4,49.1 M14.5,39
	h5.4v1.5H20c0.7-0.9,1.6-1.8,4.3-1.8c4.2,0,6.2,3.7,6.2,7.1c0,3.2-1.3,7-6.3,7c-1.7,0-3.2-0.7-4-1.8h-0.1v5.8h-5.6V39z"/>
<path fill="#FFFFFF" d="M41.3,46.4c-0.7,0.3-1.5,0.5-2.2,0.6c-1.3,0.3-1.9,0.5-1.9,1.4c0,0.6,0.7,1.2,1.8,1.2c1.3,0,2.3-0.7,2.4-2.1
	L41.3,46.4 M46.7,49.5c0,1,0.1,2.1,0.7,3h-5.7c-0.1-0.4-0.2-0.9-0.2-1.3h-0.1c-1.2,1.2-2.9,1.6-4.7,1.6c-2.8,0-5.2-1.2-5.2-4.1
	c0-4.2,5.5-4.1,8.3-4.6c0.8-0.1,1.5-0.3,1.5-1.2s-0.9-1.2-1.8-1.2c-1.7,0-2.1,0.8-2.1,1.4h-5.2c0.2-3.8,4.1-4.4,7.6-4.4
	c7.1,0,7,2.7,7,5.2L46.7,49.5L46.7,49.5z"/>
<path fill="#FFFFFF" d="M58.5,51.4c-0.5,1.2-1,2.7-1.8,3.7c-1.5,1.7-3.8,1.7-5.9,1.7h-2.6v-4.1h1.3c0.6,0,1.3,0.1,1.7-0.1
	c0.3-0.2,0.5-0.4,0.5-1s-2.2-5.6-2.5-6.4L46.7,39h6l2.4,7.7h0.1l2.4-7.7h5.8L58.5,51.4"/>
</svg>
