<?xml version="1.0" encoding="utf-8"?>
<!-- Generator: Adobe Illustrator 18.1.1, SVG Export Plug-In . SVG Version: 6.00 Build 0)  -->
<svg version="1.1" id="Layer_1" xmlns="http://www.w3.org/2000/svg" xmlns:xlink="http://www.w3.org/1999/xlink" x="0px" y="0px"
	 viewBox="0 0 72 72" enable-background="new 0 0 72 72" xml:space="preserve">
<g>
	<circle fill="#5B441A" cx="36" cy="36" r="35.6"/>
	<g>
		<path fill="#FFFFFF" d="M49.7,7.8H24.2c-2.1,0-3.8,1.7-3.8,3.8V61c0,2.1,1.7,3.8,3.8,3.8h25.4c2.1,0,3.8-1.7,3.8-3.8V11.7
			C53.5,9.6,51.8,7.8,49.7,7.8L49.7,7.8z M32.9,10.6H41c0.3,0,0.5,0.2,0.5,0.5c0,0.3-0.2,0.5-0.5,0.5h-8.1c-0.3,0-0.5-0.2-0.5-0.5
			C32.4,10.8,32.6,10.6,32.9,10.6L32.9,10.6z M36.9,62.9c-1.1,0-1.9-0.9-1.9-1.9s0.9-1.9,1.9-1.9c1.1,0,1.9,0.9,1.9,1.9
			S38,62.9,36.9,62.9L36.9,62.9z M50.8,57.7H23.1V14h27.8C50.8,14,50.8,57.7,50.8,57.7z"/>
	</g>
</g>
</svg>
