<?xml version="1.0" encoding="utf-8"?>
<!-- Generator: Adobe Illustrator 18.1.1, SVG Export Plug-In . SVG Version: 6.00 Build 0)  -->
<svg version="1.1" id="Layer_1" xmlns="http://www.w3.org/2000/svg" xmlns:xlink="http://www.w3.org/1999/xlink" x="0px" y="0px"
	 viewBox="0 0 72 72" enable-background="new 0 0 72 72" xml:space="preserve">
<g>
	<path fill="#EB602E" d="M0.4,36C0.4,16.3,16.3,0.4,36,0.4S71.6,16.3,71.6,36S55.7,71.6,36,71.6S0.4,55.7,0.4,36z"/>
	<g>
		<path fill="#FFFFFF" d="M22,58.9c-1.2,0.3-2.7,1.2-4.1,1c-1.9-0.3-2.1-2.2-2.1-4c0-4.9,0-9.8,0-14.6c-4-1.4-4.1-1.7-4.1-5.9
			c0-2.3,0-4.5,0-6.8c0-2,0.3-3.9,2.4-4.8c2.3-0.9,5.1-0.2,6.5,1.7c0.3,0.4,0.7,0.7,1.4,1.5c1.2-4.2,4.4-3.4,7.3-3.4
			c3,0,5.9,0,8.9,0c2.1,0,3.9,0.5,4.1,3c0.1,1.9-1.3,3-4,3.1c-2.5,0-5.1,0.1-7.6,0c-1.9-0.1-2.6,0.5-2.6,2.5c0.1,8,0,15.9,0.1,23.8
			c0,1.7-0.1,3.5-1.9,3.8C25.2,60.1,23.6,59.3,22,58.9z"/>
		<path fill="#FFFFFF" d="M59.9,31.7c0,4.4-0.1,8.7,0,13.1c0.1,2.4-0.6,3.4-3.3,3.4c-7.9-0.2-15.7,0-23.6-0.1c-1.2,0-3,0.6-3-1.5
			c0-2.2,1.8-1.7,3.1-1.8c6.7-0.1,13.5-0.1,20.2,0c2.4,0,3.2-0.7,3.1-3.1c-0.1-7.2-0.1-14.3,0-21.5c0-2.1-0.7-2.7-2.7-2.6
			c-7.1,0.1-14.2,0.1-21.2,0c-0.8,0-1.7-0.7-2.5-1.2c0.8-0.5,1.6-1.3,2.5-1.5c1.1-0.3,2.3,0.1,3.4-0.1c1.1-0.2,2.3-0.7,3-1.4
			c1.9-1.9,4.1-1.9,5.9,0c0.8,0.7,2,1.4,3,1.4c3,0.2,6.1,0.1,9.2,0.1c2,0,2.8,0.8,2.8,2.8C59.8,22.5,59.9,27.1,59.9,31.7z"/>
		<path fill="#FFFFFF" d="M21.9,22.9c-2.9,0-5.3-2.4-5.4-5.3c0-3,2.4-5.5,5.4-5.5c2.9,0,5.3,2.4,5.4,5.3
			C27.3,20.3,24.8,22.9,21.9,22.9z"/>
		<path fill="#FFFFFF" d="M41.5,51.8c-1.8,2.2-3.1,3.9-4.6,5.4c-0.5,0.5-1.5,0.4-2.2,0.5c0.2-0.7,0.1-1.7,0.5-2.2
			c1.6-1.8,3.3-3.3,4.9-5.1c1.1-1.1,2-1.2,3.1-0.1c1.6,1.7,3.4,3.3,4.9,5c0.5,0.5,0.4,1.4,0.6,2.2c-0.8-0.2-1.9-0.1-2.4-0.6
			C44.9,55.7,43.6,54.1,41.5,51.8z"/>
	</g>
</g>
</svg>
