<?xml version="1.0" encoding="utf-8"?>
<!-- Generator: Adobe Illustrator 18.1.1, SVG Export Plug-In . SVG Version: 6.00 Build 0)  -->
<svg version="1.1" id="Layer_1" xmlns="http://www.w3.org/2000/svg" xmlns:xlink="http://www.w3.org/1999/xlink" x="0px" y="0px"
	 viewBox="0 0 72 72" enable-background="new 0 0 72 72" xml:space="preserve">
<g>
	<path fill="#EB602E" d="M0.4,36c0-19.7,16-35.6,35.6-35.6s35.6,16,35.6,35.6S55.7,71.6,36,71.6S0.4,55.7,0.4,36z"/>
	<path fill="#FFFFFF" d="M35.2,27.7c1.2-0.9,2.4-1.9,3.7-2.8c1.9,1.1,3.9,2.3,6,3.5c-1,2.1-3.2,3.5-2.9,6c-1.8,2.2,0.2,4,0.5,6.1
		c-4.4,0-8.9,0-13.6,0c1.6-1.5-0.2-3.7,1.3-5.2c-0.8-0.8-0.2-2.3-0.7-2.8c-1.2-1.4-1.6-3.4-3.5-4.2c-0.9-0.4-1.9-0.9-2.6-1.5
		c-0.8-0.8-1.5-1.6-1.9-2.8c-0.8-2.3-2.1-4.4-2.8-6.8c-0.1-0.2-0.3-0.3-0.4-0.5c-0.6-1.4-0.4-2.6,0.5-3.2c1-0.7,2.6-0.5,3.4,0.6
		c1.1,1.6,1.9,3.3,2.8,5c1.4,2.7,1.4,2.8,3.6,4.2c1.1,0.8,2.4,1.3,3.5,2.1C33.2,26.1,34.1,26.9,35.2,27.7z"/>
	<path fill="#FFFFFF" d="M52,45c2.8,1.9,4.9,3.4,7.4,5.2c1.8-0.1,4.1-0.2,5.7,1.7c0,2,0,4.1,0,6.3c-8.5,0-16.9,0-25.4,0
		c-0.4,0-0.7,0-1.1,0C37.7,58,37,57.4,37,56.3c0-1.5,0-2.9,0-4.3c0-1.2,0.7-1.7,1.7-1.8c1.4-0.1,2.9,0,4.5,0c1.2-1.1,2.3-2.4,4.1-3
		c0.8-0.2,2.2-0.3,2.1-1.8C50.4,45.2,51.4,45.1,52,45z"/>
	<path fill="#FFFFFF" d="M28.6,50.2c1.8,0,3.5,0,5.3,0c0,2.5,0,5,0,7.8c-4.4,0.2-8.9,0.1-13.4,0.1c-4.6,0-9.1,0-13.9,0
		c0-2.1,0-4.1,0-6.3c1-1.1,2.3-1.8,4.1-1.7c0.7,0.1,1.3-0.2,1.9-0.6c1.5-1,3.2-1.7,4.7-2.6c0.5-0.3,0.8-1.1,1.2-1.8c0.4,0,1,0,1.6,0
		c1.1,0,2.4-0.4,2.7,1.3c0.1,0.4,1.1,0.6,1.8,0.8C26.2,47.7,27.4,48.8,28.6,50.2z"/>
	<path fill="#FFFFFF" d="M34.9,21.8c-4.9,0.8-8.2-5.1-7.4-8.6c0.7-2.9,3.6-6.1,6.9-6c2.7,0.1,5.1,0.4,6.9,2.6c1.9,2.3,1.9,5,1,7.6
		c-1,2.8-3.1,4.6-6.3,4.4C35.7,21.8,35.3,21.8,34.9,21.8z"/>
	<path fill="#FFFFFF" d="M44.2,36.2c0-4.2,2.8-7,6.9-7.1c2,0,4,0,5.4,1.8c1.1,1.5,2.4,3.1,2.3,5.2c-0.1,2.2-1.4,3.7-2.5,5.4
		c-1.3,1.8-3.4,1.1-4.9,2.1c-0.4,0.2-4.9-1.6-5.2-2.2C45.3,39.7,43.8,38.2,44.2,36.2z"/>
	<path fill="#FFFFFF" d="M27.5,36c0.2,1.9-0.6,3.3-1.8,4.7c-1.3,1.6-3.1,2.8-5,2.7c-1.9-0.1-4-0.8-5.5-2.3c-1.3-1.3-2.3-3.4-2.2-5.2
		c0.1-4.1,3.1-6.8,7.5-6.8C24.7,29.1,27.6,31.9,27.5,36z"/>
</g>
</svg>
