<?xml version="1.0" encoding="utf-8"?>
<!-- Generator: Adobe Illustrator 18.1.1, SVG Export Plug-In . SVG Version: 6.00 Build 0)  -->
<svg version="1.1" id="Layer_1" xmlns="http://www.w3.org/2000/svg" xmlns:xlink="http://www.w3.org/1999/xlink" x="0px" y="0px"
	 viewBox="0 0 360 360" enable-background="new 0 0 360 360" xml:space="preserve">
<g>
	<circle fill="#09743B" cx="180" cy="180" r="178"/>
</g>
<g>
	<g>
		<path fill="#FFFFFF" d="M75.3,157.8c18,6.8,35.1,6.5,40.6-0.2l-70.5-29.3C45.4,128.3,55.5,150.3,75.3,157.8z M77.5,94.1
			c8.6,7.7,18.2,11.2,22.6,8.7L67.2,71.3C67.2,71.3,68.1,85.7,77.5,94.1z M81.3,276c-8.3,9.6-7.3,24-7.3,24l27.2-35.8
			C96.2,263.4,88.1,268.1,81.3,276z M87.3,125.9c-19.8-7.5-41.9,2.4-41.9,2.4l72.1,22C115.6,142.1,103.6,132.1,87.3,125.9z
			 M45.2,174c-12.6,0.6-22.4,11.2-22.4,11.2l44.7-4.9C64.6,176.3,55.6,173.6,45.2,174z M68.4,184.7l-45.6,0.5c0,0,10.7,9.7,23.3,9.1
			C57.6,193.8,66.9,189.7,68.4,184.7z M91,79c-9.4-8.4-23.9-7.7-23.9-7.7l35.4,27.8C103.3,94.1,98.8,85.9,91,79z M288.7,94.9
			c0,0-14.4-0.8-23.9,7.6c-8.6,7.6-13.2,16.8-11.2,21.5L288.7,94.9z M278.3,117.7c9.5-8.4,10.4-22.8,10.4-22.8l-31.7,32
			C261.9,128.2,270.5,124.7,278.3,117.7z M74,299.9c0,0,14.4-1.1,22.7-10.7c7.5-8.7,10.9-18.3,8.3-22.8L74,299.9z M241.6,86
			c8.1-19.6-1.2-42-1.2-42l-24.2,71.4C224.6,113.8,235,102.2,241.6,86z M178.7,63.6l-3.4-45.5c0,0-9,11.3-7.6,23.9
			C169,53.4,173.7,62.5,178.7,63.6z M209.1,113.7l31.4-69.6c0,0-22.3,9.4-30.3,29C202.8,90.9,202.6,108,209.1,113.7z M187.9,39.8
			c-1.4-12.6-12.6-21.7-12.6-21.7l7.6,44.3C186.9,59.3,189,50.2,187.9,39.8z M279,223.2c12.6-0.3,22.7-10.7,22.7-10.7l-44.8,3.9
			C259.7,220.5,268.5,223.4,279,223.2z M249.4,269c10.4,18.4,33.7,25,33.7,25l-41.2-63.1C238,238.4,240.8,253.8,249.4,269z M256,212
			l45.6,0.5c0,0-10.5-9.9-23.1-9.6C267,203.1,257.6,207.1,256,212z M247.7,226.3l35.4,67.6c0,0,6.3-23.3-4.1-41.8
			C269.5,235.4,256.2,224.7,247.7,226.3z M260.3,174.3c7.2,4.4,22.8,2.7,38.5-4.9c19.1-9.2,27.2-31.9,27.2-31.9L260.3,174.3z
			 M284.1,138.8c-17.3,8.3-29,20.9-27.9,29.5l69.9-30.7C326,137.5,303.2,129.6,284.1,138.8z M202.2,263.2
			c2.4,12.4,14.4,20.5,14.4,20.5l-11.4-43.5C201.6,243.7,200.2,253,202.2,263.2z M153.2,71.7c-8.5-19.4-31-28.2-31-28.2l34.7,66.9
			C161.5,103.3,160.3,87.7,153.2,71.7z M150.6,114.3l-28.4-70.8c0,0-8.6,22.6-0.1,42C129.8,103.1,142,115.1,150.6,114.3z
			 M64.4,235.6c0,0,23.7,5,41.5-6.5c16.2-10.4,26.2-24.3,24.1-32.7L64.4,235.6z M209.4,238.7l7.2,45c0,0,8-12,5.6-24.4
			C220,248,214.5,239.4,209.4,238.7z M161.9,242.2c0,0,37.1-14.4,51-22.7c13.9-8.3,40.5-26.3,40.5-26.3L232,179.5
			c0,0-23.6,13.3-43,22.7c-19.4,9.4-27.2,9.4-27.2,9.4s2.2-21.6,6.1-40.5c3.9-18.8,22.7-55.4,22.7-55.4l-5-7.2
			c0,0-40.5,49.9-42.7,119.2c-2.2,69.3,23.8,114.7,23.8,114.7l36.6-0.7c0,0-22.5-33.2-29.9-53.9
			C167.9,272.2,161.9,242.2,161.9,242.2z M87.4,200.5c-17.8,11.5-23,35.1-23,35.1l60.6-44.7C117.3,187.5,102.1,191.1,87.4,200.5z"/>
	</g>
</g>
</svg>
