<?xml version="1.0" encoding="utf-8"?>
<!-- Generator: Adobe Illustrator 18.1.1, SVG Export Plug-In . SVG Version: 6.00 Build 0)  -->
<svg version="1.1" id="Layer_1" xmlns="http://www.w3.org/2000/svg" xmlns:xlink="http://www.w3.org/1999/xlink" x="0px" y="0px"
	 viewBox="126.5 0 72 72" enable-background="new 126.5 0 72 72" xml:space="preserve">
<g>
	<path fill="#FAAF40" d="M126.9,36c0-19.7,15.9-35.6,35.6-35.6s35.6,15.9,35.6,35.6c0,19.7-15.9,35.6-35.6,35.6S126.9,55.7,126.9,36
		"/>
	<path fill="#FFFFFF" d="M186.9,43V13.2c0-1.2-0.8-2.2-1.8-2.2h-44.5c-1,0-1.8,1-1.8,2.2V43l-4.8,6.2c-0.3,0.4-0.5,0.9-0.5,1.4v4.2
		c0,0.5,0.3,0.8,0.7,0.8h57.3c0.4,0,0.7-0.4,0.7-0.8v-4.2c0-0.5-0.2-1-0.5-1.4L186.9,43z M141.8,14.6h42.4v27.6h-42.4V14.6z
		 M158.7,48.2l0.9-2.2h9l0.9,2.2H158.7z"/>
	<g>
		<path fill="#FFFFFF" d="M148.3,35.2c0.4,1.5,0.8,3,1.4,4.4c0.3-0.8,0.5-1.6,0.8-2.3c-0.1-0.1-0.3-0.2-0.4-0.3
			c-0.4-0.3-0.4-0.7,0-1l0,0c0.2-0.1,0.4-0.3,0.6-0.2c0.3,0.1,0.6,0.3,0.8,0.6c0.1,0.2,0,0.4-0.1,0.5c-0.2,0.2-0.3,0.3-0.5,0.4
			c0.1,0.4,0.3,0.7,0.4,1.1c0.1,0.4,0.3,0.8,0.4,1.2c0.3-0.7,0.6-1.4,0.8-2.2s0.4-1.5,0.6-2.2c0.2,0.1,0.4,0.2,0.6,0.2
			c0.9,0.4,1.7,0.8,2.5,1.4c0.4,0.3,0.8,0.6,1,1.1c0.4,1,0.2,1.9-0.8,2.4c-0.7,0.3-1.4,0.5-2.1,0.6c-1.3,0.2-2.6,0.3-4,0.2
			c-0.9,0-1.7-0.1-2.6-0.1c-1-0.1-1.9-0.3-2.8-0.7c-0.2-0.1-0.4-0.3-0.6-0.4c-0.3-0.2-0.4-0.5-0.4-0.9c0-0.6,0.1-1.2,0.6-1.7
			c0.2-0.2,0.4-0.4,0.6-0.5c0.9-0.7,1.9-1.1,2.9-1.6C148.1,35.2,148.2,35.2,148.3,35.2z"/>
		<path fill="#FFFFFF" d="M150.7,25.5c0.9,0,1.8,0.3,2.5,0.9c0.5,0.5,0.9,1.2,1,1.9c0.2,0.9,0.1,1.7-0.1,2.6
			c-0.3,0.9-0.7,1.8-1.3,2.5c-0.2,0.3-0.3,0.5-0.3,0.9c0,0.1,0,0.1,0,0.2c0.1,0.2,0,0.3-0.1,0.4c-0.9,0.8-2.5,0.8-3.3-0.1
			c-0.1-0.1-0.1-0.1-0.1-0.2c0.1-0.4,0-0.7-0.2-1c-1.1-1.3-1.7-2.9-1.6-4.6c0.1-1,0.4-1.9,1.2-2.5C149.1,25.7,149.9,25.5,150.7,25.5
			z"/>
	</g>
	<g>
		<path fill="#FFFFFF" d="M173.7,35.2c0.4,1.5,0.8,3,1.4,4.4c0.3-0.8,0.5-1.6,0.8-2.3c-0.1-0.1-0.3-0.2-0.4-0.3
			c-0.4-0.3-0.4-0.7,0-1l0,0c0.2-0.1,0.4-0.3,0.6-0.2c0.3,0.1,0.6,0.3,0.8,0.6c0.1,0.2,0,0.4-0.1,0.5c-0.2,0.2-0.3,0.3-0.5,0.4
			c0.1,0.4,0.3,0.7,0.4,1.1s0.3,0.8,0.4,1.2c0.3-0.7,0.6-1.4,0.8-2.2s0.4-1.5,0.6-2.2c0.2,0.1,0.4,0.2,0.6,0.2
			c0.9,0.4,1.7,0.8,2.5,1.4c0.4,0.3,0.8,0.6,1,1.1c0.4,1,0.2,1.9-0.8,2.4c-0.7,0.3-1.4,0.5-2.1,0.6c-1.3,0.2-2.6,0.3-4,0.2
			c-0.9,0-1.7-0.1-2.6-0.1c-1-0.1-1.9-0.3-2.8-0.7c-0.2-0.1-0.4-0.3-0.6-0.4c-0.3-0.2-0.4-0.5-0.4-0.9c0-0.6,0.1-1.2,0.6-1.7
			c0.2-0.2,0.4-0.4,0.6-0.5c0.9-0.7,1.9-1.1,2.9-1.6C173.6,35.2,173.6,35.2,173.7,35.2z"/>
		<path fill="#FFFFFF" d="M176.2,25.5c0.9,0,1.8,0.3,2.5,0.9c0.5,0.5,0.9,1.2,1,1.9c0.2,0.9,0.1,1.7-0.1,2.6
			c-0.3,0.9-0.7,1.8-1.3,2.5c-0.2,0.3-0.3,0.5-0.3,0.9c0,0.1,0,0.1,0,0.2c0.1,0.2,0,0.3-0.1,0.4c-0.9,0.8-2.5,0.8-3.3-0.1
			c-0.1-0.1-0.1-0.1-0.1-0.2c0.1-0.4,0-0.7-0.2-1c-1.1-1.3-1.7-2.9-1.6-4.6c0.1-1,0.4-1.9,1.2-2.5C174.5,25.7,175.3,25.5,176.2,25.5
			z"/>
	</g>
	<g>
		<path fill="#FFFFFF" d="M161,25c0.4,1.5,0.8,3,1.4,4.4c0.3-0.8,0.5-1.6,0.8-2.3c-0.1-0.1-0.3-0.2-0.4-0.3c-0.4-0.3-0.4-0.7,0-1
			l0,0c0.2-0.1,0.4-0.3,0.6-0.2c0.3,0.1,0.6,0.3,0.8,0.6c0.1,0.2,0,0.4-0.1,0.5c-0.2,0.2-0.3,0.3-0.5,0.4c0.1,0.4,0.3,0.7,0.4,1.1
			c0.1,0.4,0.3,0.8,0.4,1.2c0.3-0.7,0.6-1.4,0.8-2.2c0.2-0.7,0.4-1.5,0.6-2.2c0.2,0.1,0.4,0.2,0.6,0.2c0.9,0.4,1.7,0.8,2.5,1.4
			c0.4,0.3,0.8,0.6,1,1.1c0.4,1,0.2,1.9-0.8,2.4c-0.7,0.3-1.4,0.5-2.1,0.6c-1.3,0.2-2.6,0.3-4,0.2c-0.9,0-1.7-0.1-2.6-0.1
			c-1-0.1-1.9-0.3-2.8-0.7c-0.2-0.1-0.4-0.3-0.6-0.4c-0.3-0.2-0.4-0.5-0.4-0.9c0-0.6,0.1-1.2,0.6-1.7c0.2-0.2,0.4-0.4,0.6-0.5
			c0.9-0.7,1.9-1.1,2.9-1.6C160.9,25.1,160.9,25.1,161,25z"/>
		<path fill="#FFFFFF" d="M163.5,15.3c0.9,0,1.8,0.3,2.5,0.9c0.5,0.5,0.9,1.2,1,1.9c0.2,0.9,0.1,1.7-0.1,2.6
			c-0.3,0.9-0.7,1.8-1.3,2.5c-0.2,0.3-0.3,0.5-0.3,0.9c0,0.1,0,0.1,0,0.2c0.1,0.2,0,0.3-0.1,0.4c-0.9,0.8-2.5,0.8-3.3-0.1
			c-0.1-0.1-0.1-0.1-0.1-0.2c0.1-0.4,0-0.7-0.2-1c-1.1-1.3-1.7-2.9-1.6-4.6c0.1-1,0.4-1.9,1.2-2.5C161.8,15.6,162.6,15.3,163.5,15.3
			z"/>
	</g>
	<circle fill="#FFFFFF" cx="163.8" cy="36.4" r="2.8"/>
	<line fill="none" stroke="#FFFFFF" stroke-width="5.263" stroke-miterlimit="10" x1="161" y1="36.4" x2="157.3" y2="37.9"/>
	<line fill="none" stroke="#FFFFFF" stroke-width="5.263" stroke-miterlimit="10" x1="169.8" y1="37.9" x2="166.1" y2="36.4"/>
	<line fill="none" stroke="#FFFFFF" stroke-width="5.263" stroke-miterlimit="10" x1="163.8" y1="33.6" x2="163.8" y2="31.1"/>
</g>
</svg>
