<?xml version="1.0" encoding="utf-8"?>
<!-- Generator: Adobe Illustrator 18.1.1, SVG Export Plug-In . SVG Version: 6.00 Build 0)  -->
<svg version="1.1" id="Layer_1" xmlns="http://www.w3.org/2000/svg" xmlns:xlink="http://www.w3.org/1999/xlink" x="0px" y="0px"
	 viewBox="0 0 72 72" enable-background="new 0 0 72 72" xml:space="preserve">
<g>
	<path fill="#1BB0BE" d="M36,71.6c-19.7,0-35.6-16-35.6-35.6S16.3,0.4,36,0.4s35.6,16,35.6,35.6S55.7,71.6,36,71.6"/>
	<path fill="#FFFFFF" d="M30,54.2c-0.6,0.8-1.2,1.6-1.7,2.5h15.1c-0.6-0.8-1.2-1.6-1.7-2.5H30z"/>
	<path fill="#FFFFFF" d="M44.2,57.5H27.4c-0.4,0-0.8,0.4-0.8,0.9v0.3H45v-0.3C45,57.9,44.7,57.5,44.2,57.5"/>
	<path fill="#FFFFFF" d="M10.4,48.5v3.6c0,0.7,0.6,1.3,1.3,1.3h48.2c0.7,0,1.3-0.6,1.3-1.3v-3.6H10.4z"/>
	<path fill="#FFFFFF" d="M61.2,48.5V17.8c0-0.7-0.6-1.3-1.3-1.3H11.7c-0.7,0-1.3,0.6-1.3,1.3v30.7H61.2z"/>
	<rect x="12.6" y="18.6" fill="#1BB0BE" width="46.4" height="27.7"/>
	<path fill="#FFFFFF" d="M15.7,34.2c-0.3,0-0.6-0.3-0.6-0.6V22.7c0-0.3,0.3-0.6,0.6-0.6h13.1c0.3,0,0.6,0.3,0.6,0.6v10.9
		c0,0.3-0.3,0.6-0.6,0.6H15.7z"/>
	<path fill="#A9DAE8" d="M28.8,22.2c0.3,0,0.5,0.2,0.5,0.5v10.9c0,0.3-0.2,0.5-0.5,0.5H15.6c-0.3,0-0.5-0.2-0.5-0.5V22.7
		c0-0.3,0.2-0.5,0.5-0.5H28.8 M28.8,22H15.6c-0.4,0-0.7,0.3-0.7,0.7v10.9c0,0.4,0.3,0.7,0.7,0.7h13.1c0.4,0,0.7-0.3,0.7-0.7V22.7
		C29.5,22.3,29.2,22,28.8,22"/>
	<path fill="#A9DAE8" d="M28.8,22H15.6c-0.4,0-0.7,0.3-0.7,0.7V24h14.5v-1.3C29.5,22.3,29.2,22,28.8,22"/>
	<path fill="#FFFFFF" d="M16.4,23c0,0.2-0.2,0.4-0.4,0.4s-0.4-0.2-0.4-0.4s0.2-0.4,0.4-0.4S16.4,22.8,16.4,23"/>
	<path fill="#FFFFFF" d="M17.4,23c0,0.2-0.2,0.4-0.4,0.4s-0.4-0.2-0.4-0.4s0.2-0.4,0.4-0.4S17.4,22.8,17.4,23"/>
	<path fill="#FFFFFF" d="M18.5,23c0,0.2-0.2,0.4-0.4,0.4s-0.4-0.2-0.4-0.4s0.2-0.4,0.4-0.4S18.5,22.8,18.5,23"/>
	<rect x="19.6" y="22.7" fill="#FFFFFF" width="8.9" height="0.7"/>
	<rect x="15.7" y="25.1" fill="#1BB0BE" width="3.2" height="0.3"/>
	<rect x="15.7" y="31.1" fill="#1BB0BE" width="3.4" height="0.3"/>
	<rect x="15.7" y="31.9" fill="#A9DAE8" width="12.6" height="0.3"/>
	<rect x="15.7" y="32.7" fill="#A9DAE8" width="12.6" height="0.3"/>
	<rect x="26.4" y="25.1" fill="#1BB0BE" width="2" height="0.3"/>
	<rect x="23.9" y="25.1" fill="#1BB0BE" width="2" height="0.3"/>
	<rect x="21.3" y="25.1" fill="#1BB0BE" width="2" height="0.3"/>
	<rect x="15.7" y="26.4" fill="#1BB0BE" width="12.7" height="3.8"/>
	<path fill="#0A899D" d="M28.5,30.3H15.7v-3.9h12.8V30.3z M15.8,30.1h12.5v-3.6H15.8V30.1z"/>
	<polygon fill="#0A899D" points="17.9,30.2 28.4,30.2 28.4,26.4 24.1,26.4 	"/>
	<path fill="#FFFFFF" d="M20.2,44.8c-0.3,0-0.6-0.3-0.6-0.6V33.3c0-0.3,0.3-0.6,0.6-0.6h13.1c0.3,0,0.6,0.3,0.6,0.6v10.9
		c0,0.3-0.3,0.6-0.6,0.6H20.2z"/>
	<path fill="#A9DAE8" d="M33.4,32.8c0.3,0,0.5,0.2,0.5,0.5v10.9c0,0.3-0.2,0.5-0.5,0.5H20.2c-0.3,0-0.5-0.2-0.5-0.5V33.3
		c0-0.3,0.2-0.5,0.5-0.5H33.4 M33.4,32.6H20.2c-0.4,0-0.7,0.3-0.7,0.7v10.9c0,0.4,0.3,0.7,0.7,0.7h13.1c0.4,0,0.7-0.3,0.7-0.7V33.3
		C34.1,32.9,33.8,32.6,33.4,32.6"/>
	<path fill="#A9DAE8" d="M33.4,32.6H20.2c-0.4,0-0.7,0.3-0.7,0.7v1.3h14.5v-1.3C34.1,32.9,33.8,32.6,33.4,32.6"/>
	<path fill="#FFFFFF" d="M21,33.6c0,0.2-0.2,0.4-0.4,0.4s-0.4-0.2-0.4-0.4s0.2-0.4,0.4-0.4C20.8,33.3,21,33.4,21,33.6"/>
	<path fill="#FFFFFF" d="M22,33.6c0,0.2-0.2,0.4-0.4,0.4s-0.4-0.2-0.4-0.4s0.2-0.4,0.4-0.4S22,33.4,22,33.6"/>
	<path fill="#FFFFFF" d="M23.1,33.6c0,0.2-0.2,0.4-0.4,0.4c-0.2,0-0.4-0.2-0.4-0.4s0.2-0.4,0.4-0.4C22.9,33.3,23.1,33.4,23.1,33.6"
		/>
	<rect x="24.2" y="33.3" fill="#FFFFFF" width="8.9" height="0.7"/>
	<rect x="20.3" y="35.7" fill="#1BB0BE" width="3.2" height="0.3"/>
	<rect x="31" y="35.7" fill="#1BB0BE" width="2" height="0.3"/>
	<rect x="28.5" y="35.7" fill="#1BB0BE" width="2" height="0.3"/>
	<rect x="25.9" y="35.7" fill="#1BB0BE" width="2" height="0.3"/>
	<rect x="20.3" y="37" fill="#1BB0BE" width="2.5" height="2.8"/>
	<path fill="#0A899D" d="M22.9,39.9h-2.7V37h2.7V39.9z M20.4,39.7h2.3v-2.6h-2.3V39.7z"/>
	<path fill="#0A899D" d="M22.8,39.9h-2.5l-0.1,0l0-0.1l2.5-2.8l0.1,0l0,0.1L22.8,39.9L22.8,39.9z M20.5,39.7h2.2v-2.5L20.5,39.7z"/>
	<path fill="#0A899D" d="M22.8,39.9h-2.5l-0.1-0.1V37l0-0.1l0.1,0l2.5,2.8L22.8,39.9L22.8,39.9z M20.4,39.7h2.2l-2.2-2.5V39.7z"/>
	<rect x="23.7" y="37" fill="#1BB0BE" width="2.5" height="2.8"/>
	<path fill="#0A899D" d="M26.3,39.9h-2.7V37h2.7V39.9z M23.8,39.7h2.3v-2.6h-2.3V39.7z"/>
	<path fill="#0A899D" d="M26.2,39.9h-2.5l-0.1,0l0-0.1l2.5-2.8l0.1,0l0,0.1L26.2,39.9L26.2,39.9z M23.9,39.7h2.2v-2.5L23.9,39.7z"/>
	<path fill="#0A899D" d="M26.2,39.9h-2.5l-0.1-0.1V37l0-0.1l0.1,0l2.5,2.8L26.2,39.9L26.2,39.9z M23.8,39.7H26l-2.2-2.5V39.7z"/>
	<rect x="27.1" y="37" fill="#1BB0BE" width="2.5" height="2.8"/>
	<rect x="30.5" y="37" fill="#1BB0BE" width="2.5" height="2.8"/>
	<path fill="#0A899D" d="M33.1,39.9h-2.7V37h2.7V39.9z M30.6,39.7h2.3v-2.6h-2.3V39.7z"/>
	<path fill="#0A899D" d="M33,39.9h-2.5l-0.1,0l0-0.1l2.5-2.8l0.1,0l0,0.1L33,39.9L33,39.9z M30.7,39.7h2.2v-2.5L30.7,39.7z"/>
	<path fill="#0A899D" d="M33,39.9h-2.5l-0.1-0.1V37l0-0.1l0.1,0l2.5,2.8L33,39.9L33,39.9z M30.6,39.7h2.2l-2.2-2.5V39.7z"/>
	<rect x="20.3" y="40.6" fill="#1BB0BE" width="2.5" height="2.8"/>
	<path fill="#0A899D" d="M22.9,43.4h-2.7v-2.9h2.7V43.4z M20.4,43.2h2.3v-2.6h-2.3V43.2z"/>
	<path fill="#0A899D" d="M22.8,43.4h-2.5l-0.1,0l0-0.1l2.5-2.8l0.1,0l0,0.1L22.8,43.4L22.8,43.4z M20.5,43.2h2.2v-2.5L20.5,43.2z"/>
	<path fill="#0A899D" d="M22.8,43.4h-2.5l-0.1-0.1v-2.8l0-0.1l0.1,0l2.5,2.8L22.8,43.4L22.8,43.4z M20.4,43.2h2.2l-2.2-2.5V43.2z"/>
	<rect x="23.7" y="40.6" fill="#1BB0BE" width="2.5" height="2.8"/>
	<path fill="#0A899D" d="M26.3,43.4h-2.7v-2.9h2.7V43.4z M23.8,43.2h2.3v-2.6h-2.3V43.2z"/>
	<path fill="#0A899D" d="M26.2,43.4h-2.5l-0.1,0l0-0.1l2.5-2.8l0.1,0l0,0.1L26.2,43.4L26.2,43.4z M23.9,43.2h2.2v-2.5L23.9,43.2z"/>
	<path fill="#0A899D" d="M26.2,43.4h-2.5l-0.1-0.1v-2.8l0-0.1l0.1,0l2.5,2.8L26.2,43.4L26.2,43.4z M23.8,43.2H26l-2.2-2.5V43.2z"/>
	<rect x="27.1" y="40.6" fill="#1BB0BE" width="2.5" height="2.8"/>
	<path fill="#0A899D" d="M29.7,43.4H27v-2.9h2.7V43.4z M27.2,43.2h2.3v-2.6h-2.3C27.2,40.6,27.2,43.2,27.2,43.2z"/>
	<path fill="#0A899D" d="M29.6,43.4h-2.5l-0.1,0l0-0.1l2.5-2.8l0.1,0l0,0.1L29.6,43.4L29.6,43.4z M27.3,43.2h2.2v-2.5L27.3,43.2z"/>
	<path fill="#0A899D" d="M29.6,43.4h-2.5L27,43.3v-2.8l0-0.1l0.1,0l2.5,2.8L29.6,43.4L29.6,43.4z M27.2,43.2h2.2l-2.2-2.5
		C27.2,40.8,27.2,43.2,27.2,43.2z"/>
	<rect x="30.5" y="40.6" fill="#1BB0BE" width="2.5" height="2.8"/>
	<path fill="#0A899D" d="M33.1,43.4h-2.7v-2.9h2.7V43.4z M30.6,43.2h2.3v-2.6h-2.3V43.2z"/>
	<path fill="#0A899D" d="M33,43.4h-2.5l-0.1,0l0-0.1l2.5-2.8l0.1,0l0,0.1L33,43.4L33,43.4z M30.7,43.2h2.2v-2.5L30.7,43.2z"/>
	<path fill="#0A899D" d="M33,43.4h-2.5l-0.1-0.1v-2.8l0-0.1l0.1,0l2.5,2.8L33,43.4L33,43.4z M30.6,43.2h2.2l-2.2-2.5V43.2z"/>
	<polygon fill="#FFFFFF" points="29.1,38.3 27.8,38 28.1,39.3 28.3,38.9 28.8,39.3 29.1,39 28.7,38.6 	"/>
	<path fill="#FFFFFF" d="M32.6,42.7c-0.6,0-1.1-0.5-1.1-1.1V26.2c0-0.6,0.5-1.1,1.1-1.1h21.8c0.6,0,1.1,0.5,1.1,1.1v15.5
		c0,0.6-0.5,1.1-1.1,1.1L32.6,42.7L32.6,42.7z"/>
	<path fill="#A9DAE8" d="M54.4,25.2c0.6,0,1,0.4,1,1v15.5c0,0.6-0.4,1-1,1H32.6c-0.5,0-1-0.4-1-1V26.2c0-0.6,0.4-1,1-1H54.4
		 M54.4,25H32.6c-0.6,0-1.1,0.5-1.1,1.1v15.5c0,0.6,0.5,1.1,1.1,1.1h21.8c0.6,0,1.1-0.5,1.1-1.1V26.2C55.5,25.5,55,25,54.4,25"/>
	<rect x="32.7" y="28" fill="#1BB0BE" width="5.2" height="0.5"/>
	<rect x="50.4" y="28" fill="#1BB0BE" width="3.3" height="0.5"/>
	<rect x="46.2" y="28" fill="#1BB0BE" width="3.3" height="0.5"/>
	<rect x="42" y="28" fill="#1BB0BE" width="3.3" height="0.5"/>
	<rect x="32.7" y="30.3" fill="#1BB0BE" width="9.5" height="10.4"/>
	<path fill="#0A899D" d="M42.3,40.9h-9.7V30.2h9.7V40.9z M32.9,40.6h9.2V30.4h-9.2C32.9,30.4,32.9,40.6,32.9,40.6z"/>
	<path fill="#0A899D" d="M42.2,40.9h-9.5l-0.1-0.1l0-0.1l9.5-10.4l0.1,0l0.1,0.1v10.4C42.3,40.8,42.3,40.9,42.2,40.9 M33,40.6h9.1
		v-10L33,40.6z"/>
	<path fill="#0A899D" d="M42.2,40.9h-9.5c-0.1,0-0.1-0.1-0.1-0.1V30.3l0.1-0.1l0.1,0l9.5,10.4l0,0.1L42.2,40.9z M32.9,40.6h9.1
		l-9.1-10V40.6z"/>
	<rect x="43.6" y="30.5" fill="#1BB0BE" width="5.6" height="0.8"/>
	<rect x="43.6" y="32.4" fill="#A9DAE8" width="10.2" height="0.5"/>
	<rect x="43.6" y="33.9" fill="#A9DAE8" width="8.6" height="0.5"/>
	<rect x="43.6" y="35.3" fill="#A9DAE8" width="9.6" height="0.5"/>
	<rect x="43.6" y="36.8" fill="#A9DAE8" width="7.5" height="0.5"/>
	<rect x="43.6" y="38.6" fill="#1BB0BE" width="3.3" height="1.4"/>
	<rect x="44.1" y="39.1" fill="#FFFFFF" width="2.2" height="0.5"/>
	<path fill="#A9DAE8" d="M54.9,25H32.1c-0.4,0-0.7,0.3-0.7,0.7V27h24.1v-1.3C55.5,25.3,55.2,25,54.9,25"/>
	<path fill="#FFFFFF" d="M32.8,26c0,0.2-0.2,0.4-0.4,0.4s-0.4-0.2-0.4-0.4s0.2-0.4,0.4-0.4C32.7,25.7,32.8,25.8,32.8,26"/>
	<path fill="#FFFFFF" d="M33.9,26c0,0.2-0.2,0.4-0.4,0.4s-0.4-0.2-0.4-0.4s0.2-0.4,0.4-0.4C33.7,25.7,33.9,25.8,33.9,26"/>
	<path fill="#FFFFFF" d="M35,26c0,0.2-0.2,0.4-0.4,0.4s-0.4-0.2-0.4-0.4s0.2-0.4,0.4-0.4C34.8,25.7,35,25.8,35,26"/>
	<rect x="36.1" y="25.7" fill="#FFFFFF" width="18.5" height="0.7"/>
</g>
</svg>
