<?xml version="1.0" encoding="utf-8"?>
<!-- Generator: Adobe Illustrator 18.1.1, SVG Export Plug-In . SVG Version: 6.00 Build 0)  -->
<svg version="1.1" id="Layer_1" xmlns="http://www.w3.org/2000/svg" xmlns:xlink="http://www.w3.org/1999/xlink" x="0px" y="0px"
	 viewBox="0 0 72 72" enable-background="new 0 0 72 72" xml:space="preserve">
<g>
	<path fill="#F15C3E" d="M71.6,36c0,19.7-16,35.6-35.6,35.6S0.4,55.7,0.4,36S16.3,0.4,36,0.4S71.6,16.3,71.6,36"/>
	<path fill="#FFFFFF" d="M30.1,43.3c0,0-5.5,1.8-8.7,3c2.6,3.7,6.6,6.4,11.2,7.3L30.1,43.3z"/>
	<path fill="#FFFFFF" d="M40.8,39.6l1.3-3.9c0,0,0.9,0.1,1.4-0.4c0.9-0.8,1.5-3,0.9-4.1c-0.4-0.8-1.2-0.6-1.2-0.6v-3.9
		c0-2.4-0.6-4-2.7-4c-0.7-1.5-2.4-2.3-4.5-2.3c-4.6,0-7.2,2.5-7.2,5.9v4.2c0,0-0.8-0.2-1.2,0.6c-0.6,1.1,0,3.3,0.9,4.1
		c0.5,0.5,1.4,0.4,1.4,0.4l1.3,3.9V42l4.8,3l4.8-3L40.8,39.6L40.8,39.6z"/>
	<path fill="#FFFFFF" d="M39.5,53.6c4.6-0.9,8.6-3.6,11.2-7.3c-3.3-1.3-8.7-3-8.7-3L39.5,53.6z"/>
	<path fill="#FFFFFF" d="M33.6,53.8c0.8,0.1,1.6,0.2,2.4,0.2s1.6-0.1,2.4-0.2v-1.6l-1.8-3l1.8-1.8L36,45l-2.4,2.4l1.8,1.8l-1.8,3
		V53.8z"/>
	<path fill="#FFFFFF" d="M64.8,38.1v-4.2L59.6,32c-0.3-1.5-0.6-2.9-1.1-4.3l3.5-4.2l-2.1-3.7l-5.4,0.9c-0.9-1.1-2-2.2-3.1-3.1
		l0.9-5.4L48.6,10l-4.2,3.5c-1.4-0.5-2.8-0.9-4.3-1.1l-1.9-5.2h-4.2L32,12.4c-1.5,0.3-2.9,0.6-4.3,1.1L23.5,10l-3.7,2.1l0.9,5.4
		c-1.1,0.9-2.2,2-3.1,3.1l-5.4-0.9L10,23.4l3.5,4.2c-0.5,1.4-0.9,2.8-1.1,4.3l-5.2,1.9v4.3l5.2,1.9c0.3,1.5,0.6,2.9,1.1,4.3L10,48.5
		l2.1,3.7l5.4-0.9c0.9,1.1,2,2.2,3.1,3.1l-0.9,5.4l3.7,2.1l4.2-3.5c1.4,0.5,2.8,0.9,4.3,1.1l1.9,5.2h4.2l1.9-5.2
		c1.5-0.3,2.9-0.6,4.3-1.1l4.2,3.5l3.7-2.1l-0.9-5.4c1.1-0.9,2.2-2,3.1-3.1l5.4,0.9l2.1-3.7l-3.5-4.2c0.5-1.4,0.9-2.8,1.1-4.3
		L64.8,38.1z M36,56.5c-11.3,0-20.5-9.2-20.5-20.5S24.7,15.5,36,15.5S56.5,24.7,56.5,36S47.3,56.5,36,56.5"/>
</g>
</svg>
