<?xml version="1.0" encoding="utf-8"?>
<!-- Generator: Adobe Illustrator 19.2.1, SVG Export Plug-In . SVG Version: 6.00 Build 0)  -->
<svg version="1.1" id="Layer_1" xmlns="http://www.w3.org/2000/svg" xmlns:xlink="http://www.w3.org/1999/xlink" x="0px" y="0px"
	 viewBox="0 0 746 340" style="enable-background:new 0 0 746 340;" xml:space="preserve">
<style type="text/css">
	.st0{fill:#231F20;}
	.st1{fill:#A17C5F;stroke:#A17C5F;stroke-width:0.6616;}
</style>
<g>
	<path d="M2.1,85.9V23.7h9.5l21.7,55l0,0l21.2-55H64V86h-6.3V30.4l0,0L36,85.9h-5.9L8.4,30.4l0,0v55.5H2.1z"/>
	<path d="M79.7,64.7c0,9.5,5.4,17.6,15.8,17.6c7.2,0,12.6-3.6,14.4-10.4h5.9c-2.7,8.6-8.6,14.9-20.3,14.9
		c-14.9,0-21.7-10.4-21.7-23.5s8.1-23.9,21.7-23.9c13.1,0,20.8,8.6,20.8,24.8H79.8L79.7,64.7L79.7,64.7z M110.4,60.6
		c0-8.6-5-15.8-14.9-15.8c-9.5,0-14.9,7.2-15.8,15.8H110.4z"/>
	<path d="M130.7,85.9h-5.4V41.2h5.4V48l0,0c2.7-5,8.6-8.1,14.4-8.1c8.6,0,11.7,4.1,14,8.6c3.2-5.9,8.6-8.6,15.3-8.6
		c12.6,0,14.4,8.6,14.4,17.6v28.4h-5.4V55.2c0-6.3-2.3-10.4-9.9-10.4c-4.1,0-8.1,1.8-10.8,5c-2.3,3.2-3.2,8.6-3.2,12.2v24.4h-5.4
		V55.2c0-6.3-2.3-10.4-9.9-10.4c-4.1,0-8.1,1.8-10.8,5c-2.3,3.2-3.2,8.6-3.2,12.2v23.9H130.7z"/>
	<path d="M206.9,85.9h-5.4V23.7h5.4v24.8c3.6-5.4,10.4-8.6,16.7-8.6c14.4,0,21.2,11.3,21.2,23.9c0,13.1-5.9,23.5-21.2,23.5
		c-5.9,0-13.1-3.2-16.2-9l0,0V86L206.9,85.9L206.9,85.9z M222.7,82.8c9,0,15.8-6.3,16.2-17.6c0.5-11.3-5-20.3-16.2-20.3
		c-9.9,0-15.8,8.6-15.8,18.9S212.3,82.8,222.7,82.8z"/>
	<path d="M258.8,64.7c0,9.5,5.4,17.6,15.8,17.6c7.2,0,12.6-3.6,14.4-10.4h5.9c-2.7,8.6-8.6,14.9-20.3,14.9
		c-14.9,0-21.7-10.4-21.7-23.5s8.1-23.9,21.7-23.9c13.1,0,20.8,8.6,20.8,24.8h-36.5v0.5H258.8z M289.5,60.6c0-8.6-5-15.8-14.9-15.8
		c-9.5,0-14.9,7.2-15.8,15.8H289.5z"/>
	<path d="M310.7,85.9h-5.4V41.2h5.4v8.6l0,0c3.2-7.2,7.7-9.5,15.3-9.5v5.4c-12.2-0.5-15.3,8.6-15.3,18.5V85.9z"/>
	<path d="M355.4,63.8c0-13.1,7.2-23.5,21.7-23.5c14.9,0,21.7,10.4,21.7,23.5c0,14-8.6,23.5-21.7,23.5
		C365.3,87.3,355.4,79.1,355.4,63.8z M377.5,44.9c-11.3,0-15.8,9.5-15.8,18.9c0,11.3,5.4,18.9,15.8,18.9c11.3,0,15.8-9.5,15.8-18.9
		C393.3,53,388.7,44.9,377.5,44.9z"/>
	<path d="M403.6,45.3v-4.5h7.2v-7.2c0-7.2,2.7-11.7,9.9-11.7c1.8,0,3.2,0,4.5,0.5v5c-0.9-0.5-2.3-0.5-3.2-0.5
		c-5.4,0-5.9,4.5-5.9,8.6v5.4h9v4.5h-9V86h-5.9V45.3C410.4,45.3,403.6,45.3,403.6,45.3z"/>
</g>
<g>
	<path class="st0" d="M244.4,316.5l-3.6,0.5h-65.4c-0.5-63.2,0-125,0-187.2l69,0.5L244.4,316.5L244.4,316.5z"/>
	<path class="st1" d="M568.8,154.9c-2.3,2.7-5,4.5-7.7,6.8c-1.8-1.4-3.2-3.6-4.1-5.4c-9.5-11.7-23.5-17.6-38.8-15.8
		c-13.1,1.4-23.5,10.8-28.4,22.1c-3.2,8.6-4.1,18.9,1.8,26.6c6.8,10.4,19.9,16.2,31.1,21.2l35.2,18.5c14.4,8.6,22.6,25.3,19.9,42.9
		c-2.7,21.7-19.9,37-40.2,43.3c-9,3.2-20.3,4.1-29.8,1.8c-19.9-3.2-37-19.4-43.8-37.9c3.2-1.8,7.2-3.2,10.4-5
		c6.3,16.2,20.8,32,40.2,32.9c20.3,1.8,40.2-9,48.7-27.1c3.6-9.9,4.1-20.3-0.9-29.3c-8.6-13.1-24.4-18.9-37.4-25.7
		c-16.2-11.7-42.9-15.8-48.3-38.3c-2.7-12.2,0-26.2,6.3-36.5c9.5-15.3,28.9-22.6,48.3-19.9C546.2,132.4,561.1,141.9,568.8,154.9z"/>
	<path class="st1" d="M743.4,153.1c0.9,5,0.5,10.4,0.5,15.8c-21.7-23.5-56.8-35.6-89.3-23.9c-33.4,12.6-56.8,42-58.7,78.5
		c-0.9,32.9,21.2,61.4,48.7,74.4c21.2,11.7,51,11.7,72.6,0.9c9.5-5,18.9-10.8,26.2-18.9v15.8c-26.6,22.6-69,28.9-101.1,13.5
		c-33.4-14.4-57.7-47.4-57.7-85.3c0.5-36.1,20.8-66.8,52.8-83.5C669.8,122.9,716.7,127.9,743.4,153.1z"/>
	<g>
		<g>
			<path class="st0" d="M161.8,168.5c-9.5-23.5-33.4-37.9-57.7-39.7H2.6L2.1,316H68v-55l0.5-0.5l40.6-0.5
				c15.3-0.9,30.7-6.3,41.5-17.6C169,224,170.8,192.8,161.8,168.5z M98.2,205c-6.3,9-18.5,6.8-28.9,8.1l-0.9-0.5V181l1.4-0.5
				c10.8,1.4,25.3-1.8,29.3,9.5C101.4,194.6,100.9,200.1,98.2,205z"/>
		</g>
	</g>
	<g>
		<g>
			<path class="st0" d="M459.1,300.7c-0.9-1.8-1.4-4.1-2.3-5.4c-19.4-55-39.7-110.5-59.6-165.6c-25.7,0-51.4-0.5-77.1,0
				c-18.5,51-37,103.8-55.9,154.7c-4.1,10.4-8.1,21.7-11.7,32c23.9,0.5,50.1,0.5,74,0c1.8-8.1,3.2-15.3,5.9-23.5
				c16.2-0.5,35.6-0.5,52.8,0c1.8,7.7,4.1,15.3,5.9,23c24.4,0.5,49.6,0.5,73.5,0.5C463.2,311,460.5,306.5,459.1,300.7z M345,249.2
				c4.1-18.5,8.6-37.9,12.6-56.8c0.5-0.9,2.7-0.9,2.7,0.5c2.3,19.9,8.1,37.4,11.7,56.4L345,249.2L345,249.2z"/>
		</g>
	</g>
</g>
</svg>
